<svg width="393" height="132" viewBox="0 0 393 132" fill="none" xmlns="http://www.w3.org/2000/svg">
<rect width="393" height="132" rx="16" fill="white"/>
<path d="M179.978 21H175.989C173.786 21 172 22.776 172 24.9668V28.9337C172 31.1245 173.786 32.9005 175.989 32.9005H179.978C182.181 32.9005 183.966 31.1245 183.966 28.9337V24.9668C183.966 22.776 182.181 21 179.978 21Z" fill="#2BB3FF"/>
<path d="M224.852 22.984H192.941C190.738 22.984 188.953 24.76 188.953 26.9508C188.953 29.1417 190.738 30.9177 192.941 30.9177H224.852C227.055 30.9177 228.841 29.1417 228.841 26.9508C228.841 24.76 227.055 22.984 224.852 22.984Z" fill="#E0E1E9" fill-opacity="0.8"/>
<path d="M248.784 21H244.795C242.592 21 240.807 22.776 240.807 24.9668V28.9337C240.807 31.1245 242.592 32.9005 244.795 32.9005H248.784C250.987 32.9005 252.773 31.1245 252.773 28.9337V24.9668C252.773 22.776 250.987 21 248.784 21Z" fill="#FDC23C"/>
<path d="M293.659 22.984H261.748C259.545 22.984 257.759 24.76 257.759 26.9508C257.759 29.1417 259.545 30.9177 261.748 30.9177H293.659C295.861 30.9177 297.647 29.1417 297.647 26.9508C297.647 24.76 295.861 22.984 293.659 22.984Z" fill="#E0E1E9" fill-opacity="0.8"/>
<path d="M373.005 47.6538H19.9951V48.6455H373.005V47.6538Z" fill="#E0E1E9"/>
<path d="M373.005 79.3879H19.9951V80.3796H373.005V79.3879Z" fill="#E0E1E9"/>
<path d="M373.005 111.123H19.9951V112.115H373.005V111.123Z" fill="#C4C7CF"/>
<path d="M27.9722 77.4052C27.9722 76.3093 28.8651 75.4218 29.9666 75.4218H37.9442C39.0457 75.4218 39.9386 76.3093 39.9386 77.4052V103.19H27.9722V77.4052Z" fill="#FDC23C"/>
<path d="M39.9386 103.189H27.9722V111.123H39.9386V103.189Z" fill="#008FF8"/>
<path d="M64.0942 85.2445C64.0942 84.1487 64.9871 83.2611 66.0886 83.2611H74.0663C75.1677 83.2611 76.0607 84.1487 76.0607 85.2445V111.029H64.0942V85.2445Z" fill="#FDC23C"/>
<path d="M100.214 75.7227C100.214 74.6268 101.108 73.7393 102.209 73.7393H110.186C111.288 73.7393 112.181 74.6268 112.181 75.7227V101.507H100.214V75.7227Z" fill="#FDC23C"/>
<path d="M112.181 101.507H100.214V110.928H112.181V101.507Z" fill="#008FF8"/>
<path d="M136.336 74.4297C136.336 73.3339 137.228 72.4463 138.33 72.4463H146.308C147.409 72.4463 148.302 73.3339 148.302 74.4297V100.214H136.336V74.4297Z" fill="#FDC23C"/>
<path d="M148.302 100.214H136.336V111.123H148.302V100.214Z" fill="#008FF8"/>
<path d="M172.456 62.5289C172.456 61.4331 173.348 60.5455 174.45 60.5455H182.428C183.528 60.5455 184.422 61.4331 184.422 62.5289V88.3133H172.456V62.5289Z" fill="#FDC23C"/>
<path d="M184.422 88.3135H172.456V111.123H184.422V88.3135Z" fill="#008FF8"/>
<path d="M208.577 77.4052C208.577 76.3093 209.47 75.4218 210.571 75.4218H218.549C219.651 75.4218 220.543 76.3093 220.543 77.4052V103.19H208.577V77.4052Z" fill="#FDC23C"/>
<path d="M220.543 103.189H208.577V111.123H220.543V103.189Z" fill="#008FF8"/>
<path d="M244.698 53.6041C244.698 52.5083 245.592 51.6207 246.693 51.6207H254.67C255.772 51.6207 256.665 52.5083 256.665 53.6041V79.3885H244.698V53.6041Z" fill="#FDC23C"/>
<path d="M256.665 79.3879H244.698V111.123H256.665V79.3879Z" fill="#008FF8"/>
<path d="M280.818 68.4791C280.818 67.3833 281.71 66.4957 282.812 66.4957H290.79C291.891 66.4957 292.784 67.3833 292.784 68.4791V94.2635H280.818V68.4791Z" fill="#FDC23C"/>
<path d="M292.784 94.2642H280.818V111.123H292.784V94.2642Z" fill="#008FF8"/>
<path d="M316.94 53.6041C316.94 52.5083 317.833 51.6207 318.935 51.6207H326.912C328.013 51.6207 328.907 52.5083 328.907 53.6041V79.3885H316.94V53.6041Z" fill="#FDC23C"/>
<path d="M328.907 79.3879H316.94V111.123H328.907V79.3879Z" fill="#008FF8"/>
<path d="M353.06 74.4297C353.06 73.3339 353.953 72.4463 355.054 72.4463H363.032C364.134 72.4463 365.026 73.3339 365.026 74.4297V100.214H353.06V74.4297Z" fill="#FDC23C"/>
<path d="M365.026 100.214H353.06V111.123H365.026V100.214Z" fill="#008FF8"/>
<path d="M23.9482 33V22.0909H26.2546V31.0984H30.9315V33H23.9482ZM32.4163 33V24.8182H34.6855V33H32.4163ZM33.5562 23.7635C33.2188 23.7635 32.9294 23.6516 32.6879 23.4279C32.45 23.2006 32.3311 22.929 32.3311 22.6129C32.3311 22.3004 32.45 22.0323 32.6879 21.8086C32.9294 21.5813 33.2188 21.4677 33.5562 21.4677C33.8936 21.4677 34.1812 21.5813 34.4191 21.8086C34.6606 22.0323 34.7813 22.3004 34.7813 22.6129C34.7813 22.929 34.6606 23.2006 34.4191 23.4279C34.1812 23.6516 33.8936 23.7635 33.5562 23.7635ZM38.7724 28.2699V33H36.5032V24.8182H38.6658V26.2617H38.7617C38.9428 25.7859 39.2464 25.4094 39.6726 25.1325C40.0987 24.8519 40.6154 24.7116 41.2227 24.7116C41.7908 24.7116 42.2862 24.8359 42.7088 25.0845C43.1314 25.3331 43.4599 25.6882 43.6942 26.1499C43.9286 26.608 44.0458 27.1548 44.0458 27.7905V33H41.7766V28.1953C41.7802 27.6946 41.6523 27.304 41.3931 27.0234C41.1339 26.7393 40.777 26.5973 40.3224 26.5973C40.017 26.5973 39.7472 26.663 39.5128 26.7944C39.282 26.9258 39.1009 27.1175 38.9695 27.3697C38.8416 27.6183 38.7759 27.9183 38.7724 28.2699ZM47.8904 30.6456L47.8957 27.9237H48.2259L50.8467 24.8182H53.4514L49.9305 28.9304H49.3925L47.8904 30.6456ZM45.8343 33V22.0909H48.1034V33H45.8343ZM50.9479 33L48.5402 29.4364L50.053 27.8331L53.6059 33H50.9479ZM68.1039 27.5455C68.1039 28.7351 67.8784 29.7472 67.4274 30.5817C66.9799 31.4162 66.3691 32.0536 65.595 32.494C64.8244 32.9308 63.9579 33.1491 62.9956 33.1491C62.0261 33.1491 61.1561 32.929 60.3855 32.4886C59.6149 32.0483 59.0059 31.4109 58.5584 30.5763C58.111 29.7418 57.8873 28.7315 57.8873 27.5455C57.8873 26.3558 58.111 25.3438 58.5584 24.5092C59.0059 23.6747 59.6149 23.0391 60.3855 22.6023C61.1561 22.1619 62.0261 21.9418 62.9956 21.9418C63.9579 21.9418 64.8244 22.1619 65.595 22.6023C66.3691 23.0391 66.9799 23.6747 67.4274 24.5092C67.8784 25.3438 68.1039 26.3558 68.1039 27.5455ZM65.7654 27.5455C65.7654 26.7749 65.65 26.125 65.4192 25.5959C65.1919 25.0668 64.8706 24.6655 64.4551 24.392C64.0396 24.1186 63.5531 23.9819 62.9956 23.9819C62.438 23.9819 61.9515 24.1186 61.536 24.392C61.1206 24.6655 60.7974 25.0668 60.5666 25.5959C60.3393 26.125 60.2257 26.7749 60.2257 27.5455C60.2257 28.3161 60.3393 28.9659 60.5666 29.495C60.7974 30.0241 61.1206 30.4254 61.536 30.6989C61.9515 30.9723 62.438 31.109 62.9956 31.109C63.5531 31.109 64.0396 30.9723 64.4551 30.6989C64.8706 30.4254 65.1919 30.0241 65.4192 29.495C65.65 28.9659 65.7654 28.3161 65.7654 27.5455ZM69.7698 36.0682V24.8182H72.007V26.1925H72.1082C72.2077 25.9723 72.3515 25.7486 72.5397 25.5213C72.7314 25.2905 72.98 25.0987 73.2854 24.946C73.5944 24.7898 73.9779 24.7116 74.436 24.7116C75.0326 24.7116 75.583 24.8679 76.0873 25.1804C76.5915 25.4893 76.9946 25.9563 77.2964 26.5813C77.5983 27.2028 77.7492 27.9822 77.7492 28.9197C77.7492 29.8324 77.6018 30.603 77.3071 31.2315C77.0159 31.8565 76.6182 32.3306 76.1139 32.6538C75.6132 32.9734 75.0521 33.1332 74.4307 33.1332C73.9903 33.1332 73.6157 33.0604 73.3067 32.9148C73.0013 32.7692 72.751 32.5863 72.5557 32.3661C72.3604 32.1424 72.2112 31.9169 72.1082 31.6896H72.039V36.0682H69.7698ZM71.991 28.9091C71.991 29.3956 72.0585 29.82 72.1934 30.1822C72.3284 30.5444 72.5237 30.8267 72.7794 31.0291C73.0351 31.228 73.3458 31.3274 73.7116 31.3274C74.0809 31.3274 74.3934 31.2262 74.6491 31.0238C74.9047 30.8178 75.0983 30.5337 75.2297 30.1715C75.3646 29.8058 75.4321 29.3849 75.4321 28.9091C75.4321 28.4368 75.3664 28.0213 75.235 27.6626C75.1036 27.304 74.9101 27.0234 74.6544 26.821C74.3987 26.6186 74.0844 26.5174 73.7116 26.5174C73.3422 26.5174 73.0297 26.6151 72.7741 26.8104C72.5219 27.0057 72.3284 27.2827 72.1934 27.6413C72.0585 28 71.991 28.4226 71.991 28.9091ZM79.262 36.0682V24.8182H81.4992V26.1925H81.6004C81.6998 25.9723 81.8437 25.7486 82.0319 25.5213C82.2236 25.2905 82.4722 25.0987 82.7776 24.946C83.0866 24.7898 83.4701 24.7116 83.9282 24.7116C84.5248 24.7116 85.0752 24.8679 85.5795 25.1804C86.0837 25.4893 86.4868 25.9563 86.7886 26.5813C87.0905 27.2028 87.2414 27.9822 87.2414 28.9197C87.2414 29.8324 87.094 30.603 86.7993 31.2315C86.5081 31.8565 86.1104 32.3306 85.6061 32.6538C85.1054 32.9734 84.5443 33.1332 83.9229 33.1332C83.4825 33.1332 83.1079 33.0604 82.7989 32.9148C82.4935 32.7692 82.2432 32.5863 82.0479 32.3661C81.8525 32.1424 81.7034 31.9169 81.6004 31.6896H81.5312V36.0682H79.262ZM81.4832 28.9091C81.4832 29.3956 81.5507 29.82 81.6856 30.1822C81.8206 30.5444 82.0159 30.8267 82.2716 31.0291C82.5273 31.228 82.838 31.3274 83.2037 31.3274C83.5731 31.3274 83.8856 31.2262 84.1412 31.0238C84.3969 30.8178 84.5905 30.5337 84.7219 30.1715C84.8568 29.8058 84.9243 29.3849 84.9243 28.9091C84.9243 28.4368 84.8586 28.0213 84.7272 27.6626C84.5958 27.304 84.4023 27.0234 84.1466 26.821C83.8909 26.6186 83.5766 26.5174 83.2037 26.5174C82.8344 26.5174 82.5219 26.6151 82.2662 26.8104C82.0141 27.0057 81.8206 27.2827 81.6856 27.6413C81.5507 28 81.4832 28.4226 81.4832 28.9091ZM92.4509 33.1598C91.6235 33.1598 90.9079 32.984 90.3042 32.6325C89.7041 32.2773 89.2407 31.7837 88.914 31.1516C88.5873 30.516 88.4239 29.7791 88.4239 28.9411C88.4239 28.0959 88.5873 27.3572 88.914 26.7251C89.2407 26.0895 89.7041 25.5959 90.3042 25.2443C90.9079 24.8892 91.6235 24.7116 92.4509 24.7116C93.2783 24.7116 93.9921 24.8892 94.5922 25.2443C95.1959 25.5959 95.6611 26.0895 95.9878 26.7251C96.3145 27.3572 96.4779 28.0959 96.4779 28.9411C96.4779 29.7791 96.3145 30.516 95.9878 31.1516C95.6611 31.7837 95.1959 32.2773 94.5922 32.6325C93.9921 32.984 93.2783 33.1598 92.4509 33.1598ZM92.4616 31.402C92.838 31.402 93.1523 31.2955 93.4044 31.0824C93.6565 30.8658 93.8465 30.571 93.9743 30.1982C94.1057 29.8253 94.1714 29.4009 94.1714 28.9251C94.1714 28.4492 94.1057 28.0249 93.9743 27.652C93.8465 27.2791 93.6565 26.9844 93.4044 26.7678C93.1523 26.5511 92.838 26.4428 92.4616 26.4428C92.0816 26.4428 91.762 26.5511 91.5028 26.7678C91.2471 26.9844 91.0535 27.2791 90.9221 27.652C90.7943 28.0249 90.7304 28.4492 90.7304 28.9251C90.7304 29.4009 90.7943 29.8253 90.9221 30.1982C91.0535 30.571 91.2471 30.8658 91.5028 31.0824C91.762 31.2955 92.0816 31.402 92.4616 31.402ZM97.9534 33V24.8182H100.153V26.2457H100.239C100.388 25.7379 100.638 25.3544 100.99 25.0952C101.341 24.8324 101.746 24.701 102.204 24.701C102.318 24.701 102.44 24.7081 102.572 24.7223C102.703 24.7365 102.818 24.756 102.918 24.7809V26.7944C102.811 26.7624 102.664 26.734 102.476 26.7092C102.288 26.6843 102.115 26.6719 101.959 26.6719C101.625 26.6719 101.327 26.7447 101.064 26.8903C100.805 27.0323 100.599 27.2312 100.446 27.4869C100.297 27.7425 100.223 28.0373 100.223 28.3711V33H97.9534ZM108.853 24.8182V26.5227H103.926V24.8182H108.853ZM105.045 22.858H107.314V30.4858C107.314 30.6953 107.346 30.8587 107.41 30.9759C107.474 31.0895 107.562 31.1694 107.676 31.2156C107.793 31.2617 107.928 31.2848 108.081 31.2848C108.187 31.2848 108.294 31.2759 108.4 31.2582C108.507 31.2369 108.589 31.2209 108.645 31.2102L109.002 32.8988C108.889 32.9343 108.729 32.9751 108.523 33.0213C108.317 33.071 108.067 33.1012 107.772 33.1119C107.225 33.1332 106.746 33.0604 106.334 32.8935C105.925 32.7266 105.607 32.4673 105.38 32.1158C105.153 31.7642 105.041 31.3203 105.045 30.7841V22.858ZM115.578 29.5163V24.8182H117.847V33H115.669V31.5138H115.583C115.399 31.9933 115.092 32.3786 114.662 32.6697C114.236 32.9609 113.716 33.1065 113.101 33.1065C112.554 33.1065 112.073 32.9822 111.658 32.7337C111.242 32.4851 110.917 32.1317 110.683 31.6737C110.452 31.2156 110.335 30.6669 110.331 30.0277V24.8182H112.6V29.6229C112.604 30.1058 112.734 30.4876 112.989 30.7681C113.245 31.0487 113.588 31.1889 114.017 31.1889C114.291 31.1889 114.547 31.1268 114.784 31.0025C115.022 30.8746 115.214 30.6864 115.36 30.4379C115.509 30.1893 115.582 29.8821 115.578 29.5163ZM121.932 28.2699V33H119.662V24.8182H121.825V26.2617H121.921C122.102 25.7859 122.406 25.4094 122.832 25.1325C123.258 24.8519 123.775 24.7116 124.382 24.7116C124.95 24.7116 125.445 24.8359 125.868 25.0845C126.291 25.3331 126.619 25.6882 126.853 26.1499C127.088 26.608 127.205 27.1548 127.205 27.7905V33H124.936V28.1953C124.939 27.6946 124.812 27.304 124.552 27.0234C124.293 26.7393 123.936 26.5973 123.482 26.5973C123.176 26.5973 122.906 26.663 122.672 26.7944C122.441 26.9258 122.26 27.1175 122.129 27.3697C122.001 27.6183 121.935 27.9183 121.932 28.2699ZM128.993 33V24.8182H131.263V33H128.993ZM130.133 23.7635C129.796 23.7635 129.507 23.6516 129.265 23.4279C129.027 23.2006 128.908 22.929 128.908 22.6129C128.908 22.3004 129.027 22.0323 129.265 21.8086C129.507 21.5813 129.796 21.4677 130.133 21.4677C130.471 21.4677 130.758 21.5813 130.996 21.8086C131.238 22.0323 131.358 22.3004 131.358 22.6129C131.358 22.929 131.238 23.2006 130.996 23.4279C130.758 23.6516 130.471 23.7635 130.133 23.7635ZM137.432 24.8182V26.5227H132.505V24.8182H137.432ZM133.624 22.858H135.893V30.4858C135.893 30.6953 135.925 30.8587 135.989 30.9759C136.053 31.0895 136.141 31.1694 136.255 31.2156C136.372 31.2617 136.507 31.2848 136.66 31.2848C136.766 31.2848 136.873 31.2759 136.979 31.2582C137.086 31.2369 137.168 31.2209 137.225 31.2102L137.581 32.8988C137.468 32.9343 137.308 32.9751 137.102 33.0213C136.896 33.071 136.646 33.1012 136.351 33.1119C135.804 33.1332 135.325 33.0604 134.913 32.8935C134.504 32.7266 134.187 32.4673 133.959 32.1158C133.732 31.7642 133.62 31.3203 133.624 30.7841V22.858ZM138.91 33V24.8182H141.18V33H138.91ZM140.05 23.7635C139.713 23.7635 139.424 23.6516 139.182 23.4279C138.944 23.2006 138.825 22.929 138.825 22.6129C138.825 22.3004 138.944 22.0323 139.182 21.8086C139.424 21.5813 139.713 21.4677 140.05 21.4677C140.388 21.4677 140.675 21.5813 140.913 21.8086C141.155 22.0323 141.275 22.3004 141.275 22.6129C141.275 22.929 141.155 23.2006 140.913 23.4279C140.675 23.6516 140.388 23.7635 140.05 23.7635ZM146.726 33.1598C145.884 33.1598 145.16 32.9893 144.553 32.6484C143.949 32.304 143.484 31.8175 143.157 31.1889C142.83 30.5568 142.667 29.8093 142.667 28.9464C142.667 28.1048 142.83 27.3661 143.157 26.7305C143.484 26.0948 143.944 25.5994 144.537 25.2443C145.133 24.8892 145.833 24.7116 146.635 24.7116C147.175 24.7116 147.678 24.7987 148.143 24.9727C148.612 25.1431 149.02 25.4006 149.368 25.745C149.72 26.0895 149.993 26.5227 150.188 27.0447C150.384 27.5632 150.481 28.1705 150.481 28.8665V29.4897H143.573V28.0835H148.345C148.345 27.7567 148.274 27.4673 148.132 27.2152C147.99 26.9631 147.793 26.766 147.541 26.6239C147.292 26.4783 147.003 26.4055 146.673 26.4055C146.328 26.4055 146.023 26.4854 145.757 26.6452C145.494 26.8015 145.288 27.0128 145.139 27.2791C144.99 27.5419 144.913 27.8349 144.91 28.158V29.495C144.91 29.8999 144.984 30.2496 145.133 30.5444C145.286 30.8391 145.501 31.0664 145.778 31.2262C146.055 31.386 146.383 31.4659 146.763 31.4659C147.015 31.4659 147.246 31.4304 147.456 31.3594C147.665 31.2884 147.845 31.1818 147.994 31.0398C148.143 30.8977 148.257 30.7237 148.335 30.5178L150.433 30.6562C150.327 31.1605 150.108 31.6009 149.778 31.9773C149.452 32.3501 149.029 32.6413 148.51 32.8509C147.996 33.0568 147.401 33.1598 146.726 33.1598ZM158.77 27.1513L156.692 27.2791C156.657 27.1016 156.58 26.9418 156.463 26.7997C156.346 26.6541 156.192 26.5387 156 26.4535C155.812 26.3647 155.586 26.3203 155.323 26.3203C154.972 26.3203 154.675 26.3949 154.434 26.544C154.192 26.6896 154.072 26.8849 154.072 27.13C154.072 27.3253 154.15 27.4904 154.306 27.6254C154.462 27.7603 154.73 27.8686 155.11 27.9503L156.591 28.2486C157.387 28.4119 157.98 28.6747 158.37 29.0369C158.761 29.3991 158.956 29.875 158.956 30.4645C158.956 31.0007 158.798 31.4712 158.482 31.8761C158.17 32.2809 157.74 32.5969 157.193 32.8242C156.65 33.0479 156.023 33.1598 155.313 33.1598C154.23 33.1598 153.367 32.9343 152.724 32.4833C152.085 32.0288 151.71 31.4109 151.6 30.6296L153.832 30.5124C153.899 30.8427 154.063 31.0948 154.322 31.2688C154.581 31.4393 154.913 31.5245 155.318 31.5245C155.716 31.5245 156.035 31.4482 156.277 31.2955C156.522 31.1392 156.646 30.9386 156.65 30.6935C156.646 30.4876 156.559 30.3189 156.389 30.1875C156.218 30.0526 155.955 29.9496 155.6 29.8786L154.183 29.5962C153.384 29.4364 152.79 29.1594 152.399 28.7653C152.012 28.3711 151.818 27.8686 151.818 27.2578C151.818 26.7322 151.96 26.2795 152.244 25.8995C152.532 25.5195 152.935 25.2266 153.454 25.0206C153.976 24.8146 154.586 24.7116 155.286 24.7116C156.319 24.7116 157.133 24.93 157.726 25.3668C158.322 25.8036 158.67 26.3984 158.77 27.1513Z" fill="#171A22"/>
</svg>
