<svg width="400" height="289" viewBox="0 0 400 289" fill="none" xmlns="http://www.w3.org/2000/svg">
<g clip-path="url(#clip0_1029_140774)">
<rect width="400" height="289" rx="16" fill="white"/>
<g filter="url(#filter0_i_1029_140774)">
<path d="M391.2 0H9.6C4.29807 0 0 4.29807 0 9.6V279.6C0 284.902 4.29807 289.2 9.6 289.2H391.2C396.502 289.2 400.8 284.902 400.8 279.6V9.6C400.8 4.29807 396.502 0 391.2 0Z" fill="white"/>
<path opacity="0.8" d="M282.8 54.0002H30.8C28.149 54.0002 26 56.1492 26 58.8002C26 61.4512 28.149 63.6002 30.8 63.6002H282.8C285.451 63.6002 287.6 61.4512 287.6 58.8002C287.6 56.1492 285.451 54.0002 282.8 54.0002Z" fill="#EDEFF0"/>
<path opacity="0.8" d="M283.2 73.2002H31.1999C28.5489 73.2002 26.3999 75.3492 26.3999 78.0002C26.3999 80.6512 28.5489 82.8002 31.1999 82.8002H283.2C285.851 82.8002 288 80.6512 288 78.0002C288 75.3492 285.851 73.2002 283.2 73.2002Z" fill="#EDEFF0"/>
<g opacity="0.8">
<path d="M32.6928 202.991C31.6752 202.991 30.768 202.816 29.9724 202.467C29.1816 202.111 28.5564 201.625 28.098 201.007C27.6424 200.381 27.3967 199.627 27.396 198.852H30.3684C30.3864 199.193 30.498 199.493 30.702 199.752C30.912 200.007 31.188 200.205 31.5336 200.346C31.8792 200.487 32.268 200.557 32.7 200.557C33.15 200.557 33.5472 200.477 33.8928 200.319C34.2384 200.159 34.5096 199.939 34.704 199.657C34.8996 199.375 34.998 199.05 34.998 198.682C34.998 198.31 34.8936 197.98 34.6836 197.693C34.459 197.386 34.1519 197.15 33.798 197.011C33.4164 196.848 32.9616 196.767 32.4336 196.767H31.1316V194.598H32.4336C32.88 194.598 33.2736 194.52 33.6132 194.367C33.9588 194.212 34.2276 193.998 34.4172 193.726C34.6092 193.447 34.7052 193.126 34.7052 192.757C34.7052 192.407 34.6212 192.1 34.4532 191.837C34.2862 191.565 34.0446 191.347 33.7572 191.209C33.4344 191.053 33.079 190.976 32.7204 190.984C32.3208 190.984 31.9548 191.057 31.6224 191.202C31.3078 191.331 31.0329 191.54 30.8256 191.809C30.6236 192.077 30.5111 192.402 30.504 192.737H27.6744C27.6747 191.973 27.9157 191.229 28.3632 190.609C28.8096 189.996 29.4096 189.516 30.1632 189.171C30.9228 188.82 31.7796 188.646 32.7336 188.646C33.6972 188.646 34.5408 188.82 35.2632 189.171C35.9868 189.521 36.5472 189.994 36.948 190.589C37.3524 191.179 37.5528 191.843 37.548 192.58C37.5528 193.361 37.308 194.014 36.8184 194.537C36.3312 195.059 35.6976 195.391 34.9164 195.532V195.641C35.9436 195.773 36.7248 196.129 37.2612 196.711C37.8012 197.289 38.07 198.011 38.0652 198.88C38.0803 199.644 37.8382 200.391 37.3776 201C36.918 201.618 36.2844 202.104 35.4744 202.459C34.6656 202.813 33.738 202.991 32.6928 202.991V202.991ZM40.188 202.8V200.673L45.1584 196.071C45.5808 195.661 45.936 195.293 46.2216 194.967C46.5132 194.639 46.734 194.319 46.884 194.004C47.034 193.686 47.1084 193.343 47.1084 192.975C47.1084 192.567 47.0148 192.214 46.8288 191.919C46.645 191.621 46.3803 191.382 46.0656 191.23C45.7243 191.062 45.3479 190.978 44.9676 190.984C44.5404 190.984 44.1672 191.07 43.8492 191.243C43.5353 191.412 43.2791 191.671 43.1136 191.987C42.9408 192.31 42.8544 192.694 42.8544 193.139H40.0512C40.0512 192.225 40.2588 191.433 40.6716 190.759C41.0896 190.083 41.6937 189.541 42.4116 189.198C43.1556 188.83 44.016 188.646 44.988 188.646C45.9876 188.646 46.8588 188.823 47.5992 189.178C48.3444 189.527 48.924 190.014 49.3392 190.637C49.752 191.26 49.9584 191.973 49.9584 192.778C49.9584 193.305 49.854 193.825 49.6452 194.339C49.4412 194.853 49.074 195.423 48.5472 196.05C48.0192 196.673 47.2764 197.421 46.3176 198.293L44.2788 200.291V200.387H50.142V202.8H40.188ZM54.0072 202.978C53.5572 202.978 53.1708 202.818 52.848 202.5C52.6941 202.349 52.5724 202.169 52.4903 201.97C52.4082 201.77 52.3674 201.556 52.3704 201.341C52.3675 201.128 52.4084 200.916 52.4905 200.719C52.5727 200.522 52.6943 200.344 52.848 200.196C53.1708 199.877 53.556 199.719 54.0072 199.719C54.4428 199.719 54.8244 199.877 55.152 200.196C55.4796 200.514 55.644 200.896 55.644 201.341C55.644 201.641 55.566 201.916 55.4112 202.167C55.2612 202.411 55.0632 202.609 54.8184 202.759C54.5724 202.905 54.3024 202.978 54.0072 202.978V202.978ZM62.3316 188.837V202.8H59.3796V191.639H59.298L56.1 193.643V191.026L59.556 188.837H62.3316V188.837ZM65.7324 188.837H69.3732L73.2192 198.219H73.3824L77.2272 188.837H80.8692V202.8H78.0048V193.711H77.8896L74.2752 202.732H72.3252L68.712 193.678H68.5956V202.8H65.7324V188.837Z" fill="#6C6E79"/>
<path d="M106.8 190.8H92.4001C89.7491 190.8 87.6001 192.949 87.6001 195.6C87.6001 198.251 89.7491 200.4 92.4001 200.4H106.8C109.451 200.4 111.6 198.251 111.6 195.6C111.6 192.949 109.451 190.8 106.8 190.8Z" fill="#9EF2C9"/>
</g>
<g opacity="0.8">
<path d="M154.521 200.346V198.021L160.35 188.837H162.354V192.054H161.169L157.493 197.871V197.98H165.778V200.346H154.521V200.346ZM161.223 202.8V199.637L161.278 198.607V188.837H164.046V202.8H161.223V202.8ZM173.104 202.991C172.395 202.988 171.692 202.866 171.024 202.63C170.349 202.386 169.738 201.992 169.237 201.478C168.711 200.946 168.292 200.241 167.983 199.363C167.678 198.486 167.526 197.41 167.526 196.132C167.531 194.959 167.665 193.912 167.928 192.989C168.197 192.061 168.579 191.275 169.074 190.63C169.548 190.006 170.162 189.501 170.867 189.157C171.563 188.817 172.342 188.646 173.206 188.646C174.138 188.646 174.96 188.827 175.674 189.191C176.361 189.527 176.952 190.032 177.393 190.657C177.828 191.275 178.092 191.968 178.183 192.737H175.272C175.178 192.282 174.924 191.875 174.556 191.591C174.192 191.314 173.742 191.175 173.206 191.175C172.296 191.175 171.606 191.571 171.133 192.361C170.665 193.152 170.427 194.227 170.417 195.587H170.513C170.722 195.173 171.004 194.82 171.358 194.53C171.72 194.233 172.134 194.004 172.578 193.854C173.046 193.694 173.537 193.614 174.031 193.617C174.858 193.617 175.595 193.811 176.239 194.202C176.885 194.589 177.395 195.12 177.767 195.798C178.14 196.475 178.326 197.25 178.326 198.123C178.326 199.068 178.105 199.909 177.665 200.646C177.227 201.383 176.592 201.983 175.831 202.378C175.049 202.791 174.139 202.996 173.104 202.991V202.991ZM173.089 200.673C173.544 200.673 173.951 200.563 174.311 200.346C174.67 200.128 174.952 199.833 175.156 199.459C175.361 199.086 175.463 198.669 175.463 198.204C175.463 197.741 175.361 197.325 175.156 196.957C174.96 196.587 174.665 196.278 174.304 196.065C173.943 195.852 173.53 195.743 173.111 195.75C172.769 195.75 172.453 195.814 172.163 195.941C171.876 196.068 171.617 196.25 171.401 196.477C171.184 196.703 171.015 196.971 170.902 197.263C170.777 197.564 170.715 197.886 170.717 198.211C170.717 198.661 170.819 199.073 171.024 199.446C171.233 199.818 171.515 200.116 171.869 200.339C172.229 200.561 172.636 200.673 173.089 200.673V200.673ZM181.564 202.978C181.114 202.978 180.727 202.818 180.405 202.5C180.25 202.349 180.129 202.169 180.047 201.97C179.964 201.77 179.924 201.556 179.927 201.341C179.927 200.896 180.085 200.514 180.405 200.196C180.727 199.877 181.114 199.719 181.564 199.719C181.999 199.719 182.381 199.877 182.709 200.196C183.036 200.514 183.199 200.896 183.199 201.341C183.199 201.641 183.123 201.916 182.968 202.167C182.818 202.411 182.62 202.609 182.375 202.759C182.129 202.905 181.859 202.978 181.564 202.978V202.978ZM185.557 202.8V200.673L190.528 196.071C190.95 195.661 191.304 195.293 191.591 194.967C191.883 194.639 192.102 194.319 192.252 194.004C192.402 193.686 192.478 193.343 192.478 192.975C192.478 192.567 192.384 192.214 192.198 191.919C192.014 191.621 191.749 191.382 191.434 191.23C191.093 191.062 190.717 190.978 190.337 190.984C189.91 190.984 189.537 191.07 189.219 191.243C188.901 191.416 188.654 191.664 188.482 191.987C188.309 192.31 188.223 192.694 188.223 193.139H185.421C185.421 192.225 185.627 191.433 186.041 190.759C186.459 190.083 187.062 189.541 187.78 189.198C188.525 188.83 189.384 188.646 190.357 188.646C191.357 188.646 192.227 188.823 192.969 189.178C193.714 189.527 194.293 190.014 194.707 190.637C195.12 191.26 195.328 191.973 195.328 192.778C195.328 193.305 195.223 193.825 195.013 194.339C194.809 194.853 194.443 195.423 193.917 196.05C193.389 196.673 192.646 197.421 191.687 198.293L189.648 200.291V200.387H195.511V202.8H185.557V202.8ZM197.732 188.837H201.373L205.219 198.219H205.382L209.229 188.837H212.869V202.8H210.005V193.711H209.89L206.275 202.732H204.325L200.712 193.678H200.596V202.8H197.732V188.837Z" fill="#6C6E79"/>
<path d="M238.8 190.8H224.4C221.749 190.8 219.6 192.949 219.6 195.6C219.6 198.251 221.749 200.4 224.4 200.4H238.8C241.451 200.4 243.6 198.251 243.6 195.6C243.6 192.949 241.451 190.8 238.8 190.8Z" fill="#9EF2C9"/>
</g>
<path d="M292.807 188.837V202.8H289.854V191.639H289.772L286.574 193.643V191.026L290.031 188.837H292.807V188.837ZM296.125 202.8V200.673L301.095 196.071C301.519 195.661 301.873 195.293 302.16 194.967C302.45 194.639 302.671 194.319 302.821 194.004C302.971 193.686 303.045 193.343 303.045 192.975C303.045 192.567 302.953 192.214 302.766 191.919C302.582 191.621 302.317 191.382 302.003 191.23C301.661 191.062 301.285 190.978 300.905 190.984C300.477 190.984 300.105 191.07 299.786 191.243C299.472 191.412 299.216 191.671 299.051 191.987C298.878 192.31 298.791 192.694 298.791 193.139H295.989C295.989 192.225 296.196 191.433 296.61 190.759C297.027 190.082 297.631 189.54 298.349 189.198C299.094 188.83 299.953 188.646 300.925 188.646C301.926 188.646 302.796 188.823 303.536 189.178C304.283 189.527 304.862 190.014 305.275 190.637C305.689 191.26 305.895 191.973 305.895 192.778C305.895 193.305 305.791 193.825 305.582 194.339C305.378 194.853 305.012 195.423 304.484 196.05C303.957 196.673 303.215 197.421 302.255 198.293L300.216 200.291V200.387H306.08V202.8H296.125V202.8ZM309.944 202.978C309.494 202.978 309.108 202.818 308.785 202.5C308.631 202.349 308.51 202.169 308.427 201.97C308.345 201.77 308.305 201.556 308.307 201.341C308.307 200.896 308.467 200.514 308.785 200.196C309.108 199.877 309.494 199.719 309.944 199.719C310.381 199.719 310.763 199.877 311.089 200.196C311.417 200.514 311.581 200.896 311.581 201.341C311.581 201.641 311.503 201.916 311.348 202.167C311.201 202.409 310.998 202.612 310.755 202.759C310.511 202.905 310.239 202.978 309.944 202.978V202.978ZM318.584 202.991C317.534 202.991 316.601 202.821 315.782 202.48C314.969 202.134 314.33 201.664 313.866 201.069C313.409 200.493 313.164 199.778 313.171 199.043C313.171 198.461 313.303 197.927 313.566 197.441C313.835 196.95 314.198 196.543 314.657 196.221C315.114 195.894 315.643 195.679 316.199 195.593V195.498C315.483 195.367 314.839 194.981 314.384 194.413C313.924 193.845 313.678 193.133 313.689 192.402C313.689 191.68 313.901 191.037 314.323 190.473C314.745 189.905 315.325 189.46 316.062 189.137C316.802 188.809 317.643 188.646 318.584 188.646C319.525 188.646 320.364 188.809 321.101 189.137C321.841 189.463 322.423 189.911 322.845 190.48C323.269 191.044 323.483 191.685 323.486 192.402C323.483 193.17 323.246 193.841 322.778 194.413C322.326 194.977 321.688 195.361 320.978 195.498V195.593C321.536 195.684 322.044 195.893 322.499 196.221C322.957 196.543 323.321 196.95 323.589 197.441C323.862 197.927 324 198.461 324.005 199.043C324.007 199.778 323.759 200.492 323.303 201.069C322.839 201.664 322.199 202.134 321.38 202.48C320.567 202.821 319.634 202.991 318.584 202.991V202.991ZM318.584 200.823C319.052 200.823 319.461 200.739 319.812 200.571C320.144 200.413 320.427 200.168 320.63 199.861C320.829 199.557 320.93 199.207 320.93 198.811C320.93 198.407 320.828 198.051 320.623 197.741C320.417 197.425 320.13 197.171 319.791 197.004C319.417 196.817 319.003 196.724 318.584 196.732C318.134 196.732 317.732 196.823 317.378 197.004C317.037 197.169 316.747 197.424 316.539 197.741C316.339 198.051 316.239 198.407 316.239 198.811C316.239 199.207 316.337 199.557 316.532 199.861C316.728 200.161 317.003 200.398 317.357 200.571C317.712 200.739 318.121 200.823 318.584 200.823V200.823ZM318.584 194.584C318.975 194.584 319.323 194.505 319.628 194.346C319.932 194.187 320.171 193.966 320.343 193.684C320.516 193.403 320.603 193.078 320.603 192.709C320.609 192.378 320.522 192.052 320.351 191.768C320.179 191.484 319.931 191.255 319.634 191.107C319.309 190.942 318.949 190.86 318.584 190.869C318.22 190.861 317.859 190.943 317.534 191.107C317.24 191.252 316.992 191.476 316.819 191.754C316.646 192.042 316.558 192.373 316.566 192.709C316.566 193.078 316.652 193.403 316.825 193.684C316.998 193.966 317.237 194.187 317.541 194.346C317.846 194.505 318.193 194.584 318.584 194.584V194.584ZM326.151 188.837H329.792L333.637 198.219H333.801L337.646 188.837H341.287V202.8H338.424V193.711H338.307L334.694 202.732H332.744L329.131 193.678H329.015V202.8H326.151V188.837V188.837Z" fill="#6C6E79"/>
<path d="M362.4 190.8H352.8C350.149 190.8 348 192.949 348 195.6C348 198.251 350.149 200.4 352.8 200.4H362.4C365.051 200.4 367.2 198.251 367.2 195.6C367.2 192.949 365.051 190.8 362.4 190.8Z" fill="#FFD7DF"/>
<g opacity="0.8">
<path d="M164.4 100.8H103.2C100.549 100.8 98.4004 102.949 98.4004 105.6C98.4004 108.251 100.549 110.4 103.2 110.4H164.4C167.051 110.4 169.2 108.251 169.2 105.6C169.2 102.949 167.051 100.8 164.4 100.8Z" fill="#EDEFF0"/>
<path d="M150 120H103.2C100.549 120 98.4004 122.149 98.4004 124.8C98.4004 127.451 100.549 129.6 103.2 129.6H150C152.651 129.6 154.8 127.451 154.8 124.8C154.8 122.149 152.651 120 150 120Z" fill="#EDEFF0"/>
<path d="M176.4 139.2H103.2C100.549 139.2 98.4004 141.349 98.4004 144C98.4004 146.651 100.549 148.8 103.2 148.8H176.4C179.051 148.8 181.2 146.651 181.2 144C181.2 141.349 179.051 139.2 176.4 139.2Z" fill="#EDEFF0"/>
<path d="M158.4 158.4H103.2C100.549 158.4 98.4004 160.549 98.4004 163.2C98.4004 165.851 100.549 168 103.2 168H158.4C161.051 168 163.2 165.851 163.2 163.2C163.2 160.549 161.051 158.4 158.4 158.4Z" fill="#EDEFF0"/>
<path d="M93.6004 134.4C93.6004 152.957 78.5572 168 60.0004 168C41.4436 168 26.4004 152.957 26.4004 134.4C26.4004 115.843 41.4436 100.8 60.0004 100.8C78.5572 100.8 93.6004 115.843 93.6004 134.4ZM34.8004 134.4C34.8004 148.318 46.0828 159.6 60.0004 159.6C73.918 159.6 85.2004 148.318 85.2004 134.4C85.2004 120.483 73.918 109.2 60.0004 109.2C46.0828 109.2 34.8004 120.483 34.8004 134.4Z" fill="#FDC23C"/>
<mask id="mask0_1029_140774" style="mask-type:alpha" maskUnits="userSpaceOnUse" x="24" y="98" width="72" height="73">
<path d="M25.2002 99.6002H94.8002V169.2H25.2002V99.6002Z" fill="white" stroke="white" stroke-width="2.4"/>
<path d="M93.6004 134.4C93.6004 152.957 78.5572 168 60.0004 168C41.4436 168 26.4004 152.957 26.4004 134.4C26.4004 115.843 41.4436 100.8 60.0004 100.8C78.5572 100.8 93.6004 115.843 93.6004 134.4ZM34.8004 134.4C34.8004 148.318 46.0828 159.6 60.0004 159.6C73.918 159.6 85.2004 148.318 85.2004 134.4C85.2004 120.483 73.918 109.2 60.0004 109.2C46.0828 109.2 34.8004 120.483 34.8004 134.4Z" stroke="white" stroke-width="2.4"/>
</mask>
<g mask="url(#mask0_1029_140774)">
<path d="M93.6004 134.4C93.6004 152.957 78.5572 168 60.0004 168C41.4436 168 26.4004 152.957 26.4004 134.4C26.4004 115.843 41.4436 100.8 60.0004 100.8C78.5572 100.8 93.6004 115.843 93.6004 134.4ZM34.8004 134.4C34.8004 148.318 46.0828 159.6 60.0004 159.6C73.918 159.6 85.2004 148.318 85.2004 134.4C85.2004 120.483 73.918 109.2 60.0004 109.2C46.0828 109.2 34.8004 120.483 34.8004 134.4Z" stroke="white" stroke-width="2.4"/>
</g>
<path d="M60.0002 100.8C68.2733 100.799 76.2557 103.851 82.4183 109.371C88.5809 114.89 92.4902 122.489 93.3974 130.713C94.075 136.85 93.0486 143.054 90.4308 148.646C87.8131 154.238 83.7052 159 78.5581 162.41C73.4111 165.821 67.424 167.746 61.2541 167.977C55.0842 168.207 48.9701 166.733 43.5831 163.716C38.1961 160.7 33.7445 156.257 30.717 150.876C27.6896 145.495 26.2033 139.384 26.4214 133.213C26.6394 127.043 28.5535 121.052 31.9533 115.898C35.3531 110.745 40.1073 106.627 45.6938 103.998L49.2698 111.599C43.6552 114.24 39.2126 118.86 36.7933 124.574C34.3739 130.287 34.1479 136.693 36.1586 142.563C38.168 148.433 42.2727 153.356 47.6864 156.388C53.1001 159.419 59.4421 160.347 65.4974 158.993C71.5521 157.639 76.8945 154.099 80.5017 149.051C84.109 144.003 85.7277 137.802 85.0478 131.635C84.3671 125.468 81.435 119.769 76.8133 115.629C72.1915 111.489 66.2049 109.2 60.0002 109.2V100.8Z" fill="#F67CF2"/>
<mask id="mask1_1029_140774" style="mask-type:alpha" maskUnits="userSpaceOnUse" x="24" y="98" width="72" height="73">
<path d="M25.2002 99.6002H94.8002V169.2H25.2002V99.6002Z" fill="white" stroke="white" stroke-width="2.4"/>
<path d="M60.0002 100.8C68.2733 100.799 76.2557 103.851 82.4183 109.371C88.5809 114.89 92.4902 122.489 93.3974 130.713C94.075 136.85 93.0486 143.054 90.4308 148.646C87.8131 154.238 83.7052 159 78.5581 162.41C73.4111 165.821 67.424 167.746 61.2541 167.977C55.0842 168.207 48.9701 166.733 43.5831 163.716C38.1961 160.7 33.7445 156.257 30.717 150.876C27.6896 145.495 26.2033 139.384 26.4214 133.213C26.6394 127.043 28.5535 121.052 31.9533 115.898C35.3531 110.745 40.1073 106.627 45.6938 103.998L49.2698 111.599C43.6552 114.24 39.2126 118.86 36.7933 124.574C34.3739 130.287 34.1479 136.693 36.1586 142.563C38.168 148.433 42.2727 153.356 47.6864 156.388C53.1001 159.419 59.4421 160.347 65.4974 158.993C71.5521 157.639 76.8945 154.099 80.5017 149.051C84.109 144.003 85.7277 137.802 85.0478 131.635C84.3671 125.468 81.435 119.769 76.8133 115.629C72.1915 111.489 66.2049 109.2 60.0002 109.2V100.8Z" stroke="white" stroke-width="2.4"/>
</mask>
<g mask="url(#mask1_1029_140774)">
<path d="M60.0002 100.8C68.2733 100.799 76.2557 103.851 82.4183 109.371C88.5809 114.89 92.4902 122.489 93.3974 130.713C94.075 136.85 93.0486 143.054 90.4308 148.646C87.8131 154.238 83.7052 159 78.5581 162.41C73.4111 165.821 67.424 167.746 61.2541 167.977C55.0842 168.207 48.9701 166.733 43.5831 163.716C38.1961 160.7 33.7445 156.257 30.717 150.876C27.6896 145.495 26.2033 139.384 26.4214 133.213C26.6394 127.043 28.5535 121.052 31.9533 115.898C35.3531 110.745 40.1073 106.627 45.6938 103.998L49.2698 111.599C43.6552 114.24 39.2126 118.86 36.7933 124.574C34.3739 130.287 34.1479 136.693 36.1586 142.563C38.168 148.433 42.2727 153.356 47.6864 156.388C53.1001 159.419 59.4421 160.347 65.4974 158.993C71.5521 157.639 76.8945 154.099 80.5017 149.051C84.109 144.003 85.7277 137.802 85.0478 131.635C84.3671 125.468 81.435 119.769 76.8133 115.629C72.1915 111.489 66.2049 109.2 60.0002 109.2V100.8Z" stroke="white" stroke-width="2.4"/>
</g>
<path d="M60.0004 100.8C67.0963 100.8 74.0101 103.046 79.7507 107.217C85.4914 111.388 89.7641 117.269 91.9564 124.018C93.5946 129.061 94.0162 134.42 93.1865 139.657C92.3569 144.894 90.2996 149.86 87.1829 154.149C84.0662 158.439 79.9785 161.93 75.2541 164.337C70.5297 166.744 65.3027 167.999 60.0004 167.999C54.6981 167.999 49.4711 166.744 44.7467 164.337C40.0223 161.93 35.9346 158.439 32.8179 154.149C29.7012 149.86 27.6439 144.894 26.8143 139.657C25.9846 134.42 26.4061 129.061 28.0444 124.018L36.034 126.613C34.8046 130.396 34.488 134.415 35.1099 138.343C35.7318 142.271 37.2746 145.996 39.6122 149.213C41.9498 152.431 45.0157 155.049 48.5593 156.855C52.1029 158.66 56.0235 159.601 60.0004 159.6C63.9773 159.601 67.8979 158.66 71.4415 156.855C74.9851 155.049 78.051 152.431 80.3886 149.213C82.7262 145.996 84.269 142.271 84.8909 138.343C85.5128 134.415 85.1962 130.396 83.9668 126.613C82.3227 121.552 79.1183 117.141 74.8129 114.013C70.5075 110.885 65.3222 109.2 60.0004 109.2V100.8Z" fill="#AB6CFE"/>
<mask id="mask2_1029_140774" style="mask-type:alpha" maskUnits="userSpaceOnUse" x="24" y="98" width="72" height="73">
<path d="M25.2002 99.6002H94.8002V169.2H25.2002V99.6002Z" fill="white" stroke="white" stroke-width="2.4"/>
<path d="M60.0004 100.8C67.0963 100.8 74.0101 103.046 79.7507 107.217C85.4914 111.388 89.7641 117.269 91.9564 124.018C93.5946 129.061 94.0162 134.42 93.1865 139.657C92.3569 144.894 90.2996 149.86 87.1829 154.149C84.0662 158.439 79.9785 161.93 75.2541 164.337C70.5297 166.744 65.3027 167.999 60.0004 167.999C54.6981 167.999 49.4711 166.744 44.7467 164.337C40.0223 161.93 35.9346 158.439 32.8179 154.149C29.7012 149.86 27.6439 144.894 26.8143 139.657C25.9846 134.42 26.4061 129.061 28.0444 124.018L36.034 126.613C34.8046 130.396 34.488 134.415 35.1099 138.343C35.7318 142.271 37.2746 145.996 39.6122 149.213C41.9498 152.431 45.0157 155.049 48.5593 156.855C52.1029 158.66 56.0235 159.601 60.0004 159.6C63.9773 159.601 67.8979 158.66 71.4415 156.855C74.9851 155.049 78.051 152.431 80.3886 149.213C82.7262 145.996 84.269 142.271 84.8909 138.343C85.5128 134.415 85.1962 130.396 83.9668 126.613C82.3227 121.552 79.1183 117.141 74.8129 114.013C70.5075 110.885 65.3222 109.2 60.0004 109.2V100.8Z" stroke="white" stroke-width="2.4"/>
</mask>
<g mask="url(#mask2_1029_140774)">
<path d="M60.0004 100.8C67.0963 100.8 74.0101 103.046 79.7507 107.217C85.4914 111.388 89.7641 117.269 91.9564 124.018C93.5946 129.061 94.0162 134.42 93.1865 139.657C92.3569 144.894 90.2996 149.86 87.1829 154.149C84.0662 158.439 79.9785 161.93 75.2541 164.337C70.5297 166.744 65.3027 167.999 60.0004 167.999C54.6981 167.999 49.4711 166.744 44.7467 164.337C40.0223 161.93 35.9346 158.439 32.8179 154.149C29.7012 149.86 27.6439 144.894 26.8143 139.657C25.9846 134.42 26.4061 129.061 28.0444 124.018L36.034 126.613C34.8046 130.396 34.488 134.415 35.1099 138.343C35.7318 142.271 37.2746 145.996 39.6122 149.213C41.9498 152.431 45.0157 155.049 48.5593 156.855C52.1029 158.66 56.0235 159.601 60.0004 159.6C63.9773 159.601 67.8979 158.66 71.4415 156.855C74.9851 155.049 78.051 152.431 80.3886 149.213C82.7262 145.996 84.269 142.271 84.8909 138.343C85.5128 134.415 85.1962 130.396 83.9668 126.613C82.3227 121.552 79.1183 117.141 74.8129 114.013C70.5075 110.885 65.3222 109.2 60.0004 109.2V100.8Z" stroke="white" stroke-width="2.4"/>
</g>
<path d="M60 100.8C67.999 100.8 75.7356 103.654 81.8186 108.849C87.9015 114.043 91.9318 121.237 93.1847 129.137C94.4376 137.038 92.8309 145.126 88.6535 151.947C84.4761 158.769 78.0021 163.876 70.3956 166.351L67.7964 158.364C73.5011 156.508 78.3564 152.677 81.4896 147.561C84.6227 142.445 85.8281 136.379 84.8892 130.453C83.9491 124.528 80.9262 119.133 76.3639 115.237C71.8017 111.341 65.9993 109.201 60 109.2V100.8Z" fill="#2BB3FF"/>
<mask id="mask3_1029_140774" style="mask-type:alpha" maskUnits="userSpaceOnUse" x="57" y="98" width="39" height="72">
<path d="M58.7998 99.6002H94.7998V168H58.7998V99.6002Z" fill="white" stroke="white" stroke-width="2.4"/>
<path d="M60 100.8C67.999 100.8 75.7356 103.654 81.8186 108.849C87.9015 114.043 91.9318 121.237 93.1847 129.137C94.4376 137.038 92.8309 145.126 88.6535 151.947C84.4761 158.769 78.0021 163.876 70.3956 166.351L67.7964 158.364C73.5011 156.508 78.3564 152.677 81.4896 147.561C84.6227 142.445 85.8281 136.379 84.8892 130.453C83.9491 124.528 80.9262 119.133 76.3639 115.237C71.8017 111.341 65.9993 109.201 60 109.2V100.8Z" stroke="white" stroke-width="2.4"/>
</mask>
<g mask="url(#mask3_1029_140774)">
<path d="M60 100.8C67.999 100.8 75.7356 103.654 81.8186 108.849C87.9015 114.043 91.9318 121.237 93.1847 129.137C94.4376 137.038 92.8309 145.126 88.6535 151.947C84.4761 158.769 78.0021 163.876 70.3956 166.351L67.7964 158.364C73.5011 156.508 78.3564 152.677 81.4896 147.561C84.6227 142.445 85.8281 136.379 84.8892 130.453C83.9491 124.528 80.9262 119.133 76.3639 115.237C71.8017 111.341 65.9993 109.201 60 109.2V100.8Z" stroke="white" stroke-width="2.4"/>
</g>
</g>
<path opacity="0.8" d="M360 99.0002H210C206.355 99.0002 203.4 101.955 203.4 105.6V163.2C203.4 166.845 206.355 169.8 210 169.8H360C363.645 169.8 366.6 166.845 366.6 163.2V105.6C366.6 101.955 363.645 99.0002 360 99.0002Z" fill="#EDEFF0" stroke="#C4C7CF" stroke-width="1.2" stroke-dasharray="7.2 7.2"/>
<path opacity="0.2" d="M52.4841 248.922C41.6553 248.922 26.3997 256.619 26.3997 256.619V289.2H367.2V217.5C355.754 218.471 350.875 232.138 339.414 232.979C328.884 233.753 323.809 233.799 313.329 232.65C303.233 231.544 297.432 232.65 287.245 232.65C277.058 232.65 270.93 230.289 261.161 232.65C248.876 235.619 247.86 248.271 235.076 248.922C223.781 249.499 220.309 238.587 208.992 238.587C197.673 238.587 194.225 248.922 182.907 248.922C171.589 248.922 167.883 240.549 156.823 238.587C146.867 236.821 140.694 236.821 130.737 238.587C119.677 240.549 115.089 245.339 104.653 248.922C94.6677 252.352 89.3973 256.619 78.5685 256.619C67.7409 256.619 63.3129 248.922 52.4841 248.922Z" fill="#2BB3FF"/>
<path d="M27.5998 256.8C27.5998 256.8 42.8782 249.048 53.7226 249.048C64.567 249.048 69.0009 256.8 79.8453 256.8C90.6897 256.8 95.9686 252.502 105.969 249.048C116.42 245.439 121.015 240.613 132.092 238.638C142.063 236.86 148.245 236.86 158.215 238.638C169.292 240.613 173.004 249.048 184.338 249.048C195.673 249.048 199.127 238.638 210.462 238.638C221.796 238.638 225.272 249.628 236.585 249.048C249.386 248.391 250.405 235.648 262.707 232.657C272.491 230.279 278.629 232.657 288.83 232.657C299.033 232.657 304.842 231.543 314.954 232.657C325.449 233.814 330.53 233.769 341.077 232.99C352.554 232.143 355.737 218.477 367.2 217.5" stroke="#2BB3FF" stroke-width="3.6" stroke-linecap="round"/>
</g>
<path d="M26.9482 29.0909H29.7926L32.7969 36.4205H32.9247L35.929 29.0909H38.7734V40H36.5362V32.8995H36.4457L33.6225 39.9467H32.0991L29.2759 32.8729H29.1854V40H26.9482V29.0909ZM44.3279 40.1598C43.5004 40.1598 42.7849 39.984 42.1812 39.6325C41.5811 39.2773 41.1176 38.7837 40.7909 38.1516C40.4642 37.516 40.3009 36.7791 40.3009 35.9411C40.3009 35.0959 40.4642 34.3572 40.7909 33.7251C41.1176 33.0895 41.5811 32.5959 42.1812 32.2443C42.7849 31.8892 43.5004 31.7116 44.3279 31.7116C45.1553 31.7116 45.8691 31.8892 46.4692 32.2443C47.0729 32.5959 47.5381 33.0895 47.8648 33.7251C48.1915 34.3572 48.3548 35.0959 48.3548 35.9411C48.3548 36.7791 48.1915 37.516 47.8648 38.1516C47.5381 38.7837 47.0729 39.2773 46.4692 39.6325C45.8691 39.984 45.1553 40.1598 44.3279 40.1598ZM44.3385 38.402C44.7149 38.402 45.0292 38.2955 45.2813 38.0824C45.5335 37.8658 45.7235 37.571 45.8513 37.1982C45.9827 36.8253 46.0484 36.4009 46.0484 35.9251C46.0484 35.4492 45.9827 35.0249 45.8513 34.652C45.7235 34.2791 45.5335 33.9844 45.2813 33.7678C45.0292 33.5511 44.7149 33.4428 44.3385 33.4428C43.9585 33.4428 43.6389 33.5511 43.3797 33.7678C43.124 33.9844 42.9305 34.2791 42.7991 34.652C42.6713 35.0249 42.6073 35.4492 42.6073 35.9251C42.6073 36.4009 42.6713 36.8253 42.7991 37.1982C42.9305 37.571 43.124 37.8658 43.3797 38.0824C43.6389 38.2955 43.9585 38.402 44.3385 38.402ZM52.0995 35.2699V40H49.8303V31.8182H51.993V33.2617H52.0889C52.27 32.7859 52.5736 32.4094 52.9997 32.1325C53.4259 31.8519 53.9426 31.7116 54.5498 31.7116C55.118 31.7116 55.6134 31.8359 56.036 32.0845C56.4585 32.3331 56.787 32.6882 57.0214 33.1499C57.2558 33.608 57.373 34.1548 57.373 34.7905V40H55.1038V35.1953C55.1073 34.6946 54.9795 34.304 54.7203 34.0234C54.461 33.7393 54.1041 33.5973 53.6496 33.5973C53.3442 33.5973 53.0743 33.663 52.8399 33.7944C52.6091 33.9258 52.428 34.1175 52.2966 34.3697C52.1688 34.6183 52.1031 34.9183 52.0995 35.2699ZM63.5133 31.8182V33.5227H58.5861V31.8182H63.5133ZM59.7047 29.858H61.9739V37.4858C61.9739 37.6953 62.0059 37.8587 62.0698 37.9759C62.1337 38.0895 62.2225 38.1694 62.3361 38.2156C62.4533 38.2617 62.5882 38.2848 62.7409 38.2848C62.8475 38.2848 62.954 38.2759 63.0605 38.2582C63.1671 38.2369 63.2488 38.2209 63.3056 38.2102L63.6625 39.8988C63.5488 39.9343 63.389 39.9751 63.1831 40.0213C62.9771 40.071 62.7267 40.1012 62.432 40.1119C61.8851 40.1332 61.4057 40.0604 60.9938 39.8935C60.5854 39.7266 60.2676 39.4673 60.0403 39.1158C59.813 38.7642 59.7012 38.3203 59.7047 37.7841V29.858ZM67.4364 35.2699V40H65.1673V29.0909H67.3725V33.2617H67.4684C67.6531 32.7788 67.9513 32.4006 68.3633 32.1271C68.7752 31.8501 69.2919 31.7116 69.9134 31.7116C70.4815 31.7116 70.9769 31.8359 71.3995 32.0845C71.8256 32.3295 72.1559 32.6829 72.3903 33.1445C72.6282 33.6026 72.7454 34.1513 72.7418 34.7905V40H70.4727V35.1953C70.4762 34.6911 70.3484 34.2987 70.0891 34.0181C69.8335 33.7376 69.4748 33.5973 69.0131 33.5973C68.7042 33.5973 68.4308 33.663 68.1928 33.7944C67.9585 33.9258 67.7738 34.1175 67.6388 34.3697C67.5075 34.6183 67.44 34.9183 67.4364 35.2699ZM76.7968 29.0909V40H74.5276V29.0909H76.7968ZM80.0154 43.0682C79.7278 43.0682 79.4579 43.0451 79.2058 42.9989C78.9572 42.9563 78.7512 42.9013 78.5879 42.8338L79.0993 41.1399C79.3656 41.2216 79.6053 41.266 79.8184 41.2731C80.035 41.2802 80.2214 41.2305 80.3777 41.1239C80.5375 41.0174 80.6671 40.8363 80.7665 40.5806L80.8997 40.2344L77.9647 31.8182H80.351L82.0449 37.8267H82.1301L83.84 31.8182H86.2424L83.0623 40.8842C82.9096 41.3246 82.7019 41.7081 82.4391 42.0348C82.1799 42.3651 81.8514 42.619 81.4537 42.7965C81.0559 42.9776 80.5765 43.0682 80.0154 43.0682ZM90.9179 40V29.0909H95.2219C96.0493 29.0909 96.7542 29.2489 97.3366 29.565C97.9189 29.8775 98.3628 30.3125 98.6682 30.87C98.9772 31.424 99.1317 32.0632 99.1317 32.7876C99.1317 33.5121 98.9754 34.1513 98.6629 34.7053C98.3504 35.2592 97.8976 35.6907 97.3046 35.9996C96.7151 36.3086 96.0013 36.4631 95.1633 36.4631H92.42V34.6147H94.7904C95.2343 34.6147 95.6001 34.5384 95.8877 34.3857C96.1789 34.2294 96.3955 34.0146 96.5376 33.7411C96.6831 33.4641 96.7559 33.1463 96.7559 32.7876C96.7559 32.4254 96.6831 32.1094 96.5376 31.8395C96.3955 31.5661 96.1789 31.3548 95.8877 31.2056C95.5965 31.0529 95.2272 30.9766 94.7797 30.9766H93.2243V40H90.9179ZM104.184 40.1598C103.342 40.1598 102.618 39.9893 102.011 39.6484C101.407 39.304 100.942 38.8175 100.615 38.1889C100.288 37.5568 100.125 36.8093 100.125 35.9464C100.125 35.1048 100.288 34.3661 100.615 33.7305C100.942 33.0948 101.402 32.5994 101.995 32.2443C102.591 31.8892 103.291 31.7116 104.093 31.7116C104.633 31.7116 105.136 31.7987 105.601 31.9727C106.07 32.1431 106.478 32.4006 106.826 32.745C107.178 33.0895 107.451 33.5227 107.646 34.0447C107.842 34.5632 107.939 35.1705 107.939 35.8665V36.4897H101.031V35.0835H105.803C105.803 34.7567 105.732 34.4673 105.59 34.2152C105.448 33.9631 105.251 33.766 104.999 33.6239C104.75 33.4783 104.461 33.4055 104.131 33.4055C103.786 33.4055 103.481 33.4854 103.215 33.6452C102.952 33.8015 102.746 34.0128 102.597 34.2791C102.448 34.5419 102.371 34.8349 102.368 35.158V36.495C102.368 36.8999 102.442 37.2496 102.591 37.5444C102.744 37.8391 102.959 38.0664 103.236 38.2262C103.513 38.386 103.841 38.4659 104.221 38.4659C104.473 38.4659 104.704 38.4304 104.914 38.3594C105.123 38.2884 105.303 38.1818 105.452 38.0398C105.601 37.8977 105.715 37.7237 105.793 37.5178L107.891 37.6562C107.785 38.1605 107.566 38.6009 107.236 38.9773C106.91 39.3501 106.487 39.6413 105.968 39.8509C105.454 40.0568 104.859 40.1598 104.184 40.1598ZM109.42 40V31.8182H111.62V33.2457H111.705C111.854 32.7379 112.105 32.3544 112.456 32.0952C112.808 31.8324 113.213 31.701 113.671 31.701C113.785 31.701 113.907 31.7081 114.038 31.7223C114.17 31.7365 114.285 31.756 114.385 31.7809V33.7944C114.278 33.7624 114.131 33.734 113.943 33.7092C113.754 33.6843 113.582 33.6719 113.426 33.6719C113.092 33.6719 112.794 33.7447 112.531 33.8903C112.272 34.0323 112.066 34.2312 111.913 34.4869C111.764 34.7425 111.689 35.0373 111.689 35.3711V40H109.42ZM120.368 31.8182V33.5227H115.318V31.8182H120.368ZM116.474 40V31.2269C116.474 30.6339 116.589 30.142 116.82 29.7514C117.055 29.3608 117.374 29.0678 117.779 28.8725C118.184 28.6772 118.644 28.5795 119.159 28.5795C119.507 28.5795 119.825 28.6062 120.112 28.6594C120.403 28.7127 120.62 28.7607 120.762 28.8033L120.357 30.5078C120.268 30.4794 120.158 30.4528 120.027 30.4279C119.899 30.4031 119.768 30.3906 119.633 30.3906C119.299 30.3906 119.066 30.4688 118.935 30.625C118.804 30.7777 118.738 30.9925 118.738 31.2695V40H116.474ZM125.158 40.1598C124.331 40.1598 123.615 39.984 123.011 39.6325C122.411 39.2773 121.948 38.7837 121.621 38.1516C121.294 37.516 121.131 36.7791 121.131 35.9411C121.131 35.0959 121.294 34.3572 121.621 33.7251C121.948 33.0895 122.411 32.5959 123.011 32.2443C123.615 31.8892 124.331 31.7116 125.158 31.7116C125.985 31.7116 126.699 31.8892 127.299 32.2443C127.903 32.5959 128.368 33.0895 128.695 33.7251C129.022 34.3572 129.185 35.0959 129.185 35.9411C129.185 36.7791 129.022 37.516 128.695 38.1516C128.368 38.7837 127.903 39.2773 127.299 39.6325C126.699 39.984 125.985 40.1598 125.158 40.1598ZM125.169 38.402C125.545 38.402 125.859 38.2955 126.111 38.0824C126.364 37.8658 126.554 37.571 126.681 37.1982C126.813 36.8253 126.878 36.4009 126.878 35.9251C126.878 35.4492 126.813 35.0249 126.681 34.652C126.554 34.2791 126.364 33.9844 126.111 33.7678C125.859 33.5511 125.545 33.4428 125.169 33.4428C124.789 33.4428 124.469 33.5511 124.21 33.7678C123.954 33.9844 123.761 34.2791 123.629 34.652C123.501 35.0249 123.437 35.4492 123.437 35.9251C123.437 36.4009 123.501 36.8253 123.629 37.1982C123.761 37.571 123.954 37.8658 124.21 38.0824C124.469 38.2955 124.789 38.402 125.169 38.402ZM130.66 40V31.8182H132.86V33.2457H132.946C133.095 32.7379 133.345 32.3544 133.697 32.0952C134.048 31.8324 134.453 31.701 134.911 31.701C135.025 31.701 135.147 31.7081 135.279 31.7223C135.41 31.7365 135.525 31.756 135.625 31.7809V33.7944C135.518 33.7624 135.371 33.734 135.183 33.7092C134.995 33.6843 134.822 33.6719 134.666 33.6719C134.332 33.6719 134.034 33.7447 133.771 33.8903C133.512 34.0323 133.306 34.2312 133.153 34.4869C133.004 34.7425 132.93 35.0373 132.93 35.3711V40H130.66ZM136.798 40V31.8182H138.961V33.2617H139.057C139.227 32.7823 139.511 32.4041 139.909 32.1271C140.307 31.8501 140.782 31.7116 141.336 31.7116C141.898 31.7116 142.375 31.8519 142.769 32.1325C143.164 32.4094 143.426 32.7859 143.558 33.2617H143.643C143.81 32.793 144.112 32.4183 144.548 32.1378C144.989 31.8537 145.509 31.7116 146.109 31.7116C146.873 31.7116 147.492 31.9549 147.968 32.4414C148.448 32.9244 148.687 33.6097 148.687 34.4975V40H146.423V34.945C146.423 34.4904 146.303 34.1495 146.061 33.9222C145.82 33.695 145.518 33.5813 145.156 33.5813C144.744 33.5813 144.422 33.7127 144.192 33.9755C143.961 34.2347 143.845 34.5774 143.845 35.0036V40H141.645V34.897C141.645 34.4957 141.53 34.1761 141.299 33.9382C141.072 33.7003 140.772 33.5813 140.399 33.5813C140.147 33.5813 139.92 33.6452 139.717 33.7731C139.518 33.8974 139.36 34.0732 139.243 34.3004C139.126 34.5241 139.067 34.7869 139.067 35.0888V40H136.798ZM152.813 40.1545C152.291 40.1545 151.826 40.0639 151.417 39.8828C151.009 39.6982 150.686 39.4265 150.448 39.0678C150.213 38.7056 150.096 38.2546 150.096 37.7148C150.096 37.2603 150.18 36.8786 150.347 36.5696C150.513 36.2607 150.741 36.0121 151.028 35.8239C151.316 35.6357 151.643 35.4936 152.009 35.3977C152.378 35.3018 152.765 35.2344 153.17 35.1953C153.646 35.1456 154.029 35.0994 154.32 35.0568C154.612 35.0107 154.823 34.9432 154.954 34.8544C155.086 34.7656 155.151 34.6342 155.151 34.4602V34.4283C155.151 34.0909 155.045 33.8299 154.832 33.6452C154.622 33.4606 154.324 33.3683 153.937 33.3683C153.528 33.3683 153.203 33.4588 152.962 33.6399C152.721 33.8175 152.561 34.0412 152.483 34.3111L150.384 34.1406C150.49 33.6435 150.7 33.2138 151.012 32.8516C151.325 32.4858 151.728 32.2053 152.222 32.0099C152.719 31.8111 153.294 31.7116 153.947 31.7116C154.402 31.7116 154.837 31.7649 155.252 31.8714C155.672 31.978 156.043 32.1431 156.366 32.3668C156.692 32.5906 156.95 32.8782 157.138 33.2298C157.326 33.5778 157.42 33.995 157.42 34.4815V40H155.268V38.8654H155.205C155.073 39.1211 154.897 39.3466 154.677 39.5419C154.457 39.7337 154.192 39.8846 153.884 39.9947C153.575 40.1012 153.218 40.1545 152.813 40.1545ZM153.463 38.5884C153.797 38.5884 154.091 38.5227 154.347 38.3913C154.603 38.2564 154.803 38.0753 154.949 37.848C155.094 37.6207 155.167 37.3633 155.167 37.0756V36.2074C155.096 36.2536 154.999 36.2962 154.874 36.3352C154.754 36.3707 154.617 36.4045 154.464 36.4364C154.311 36.4648 154.159 36.4915 154.006 36.5163C153.853 36.5376 153.715 36.5572 153.591 36.5749C153.324 36.614 153.092 36.6761 152.893 36.7614C152.694 36.8466 152.539 36.962 152.429 37.1076C152.319 37.2496 152.264 37.4272 152.264 37.6403C152.264 37.9492 152.376 38.1854 152.6 38.3487C152.827 38.5085 153.115 38.5884 153.463 38.5884ZM161.45 35.2699V40H159.181V31.8182H161.344V33.2617H161.439C161.621 32.7859 161.924 32.4094 162.35 32.1325C162.776 31.8519 163.293 31.7116 163.9 31.7116C164.469 31.7116 164.964 31.8359 165.387 32.0845C165.809 32.3331 166.138 32.6882 166.372 33.1499C166.606 33.608 166.724 34.1548 166.724 34.7905V40H164.454V35.1953C164.458 34.6946 164.33 34.304 164.071 34.0234C163.812 33.7393 163.455 33.5973 163 33.5973C162.695 33.5973 162.425 33.663 162.191 33.7944C161.96 33.9258 161.779 34.1175 161.647 34.3697C161.519 34.6183 161.454 34.9183 161.45 35.2699ZM172.209 40.1598C171.371 40.1598 170.65 39.9822 170.046 39.6271C169.446 39.2685 168.984 38.7713 168.661 38.1357C168.342 37.5 168.182 36.7685 168.182 35.9411C168.182 35.103 168.343 34.3679 168.666 33.7358C168.993 33.1001 169.457 32.6048 170.057 32.2496C170.657 31.891 171.371 31.7116 172.198 31.7116C172.912 31.7116 173.537 31.8413 174.073 32.1005C174.609 32.3597 175.034 32.7237 175.346 33.1925C175.659 33.6612 175.831 34.2116 175.863 34.8438H173.722C173.661 34.4354 173.501 34.1069 173.242 33.8583C172.986 33.6062 172.651 33.4801 172.235 33.4801C171.884 33.4801 171.577 33.576 171.314 33.7678C171.055 33.956 170.852 34.2312 170.707 34.5934C170.561 34.9556 170.488 35.3942 170.488 35.9091C170.488 36.4311 170.559 36.875 170.701 37.2408C170.847 37.6065 171.051 37.8853 171.314 38.0771C171.577 38.2688 171.884 38.3647 172.235 38.3647C172.495 38.3647 172.727 38.3114 172.933 38.2049C173.143 38.0984 173.315 37.9439 173.45 37.7415C173.588 37.5355 173.679 37.2887 173.722 37.0011H175.863C175.827 37.6261 175.657 38.1765 175.351 38.6523C175.05 39.1246 174.632 39.494 174.1 39.7603C173.567 40.0266 172.937 40.1598 172.209 40.1598ZM181.044 40.1598C180.203 40.1598 179.478 39.9893 178.871 39.6484C178.267 39.304 177.802 38.8175 177.475 38.1889C177.149 37.5568 176.985 36.8093 176.985 35.9464C176.985 35.1048 177.149 34.3661 177.475 33.7305C177.802 33.0948 178.262 32.5994 178.855 32.2443C179.452 31.8892 180.151 31.7116 180.954 31.7116C181.494 31.7116 181.996 31.7987 182.461 31.9727C182.93 32.1431 183.338 32.4006 183.686 32.745C184.038 33.0895 184.311 33.5227 184.507 34.0447C184.702 34.5632 184.8 35.1705 184.8 35.8665V36.4897H177.891V35.0835H182.664C182.664 34.7567 182.593 34.4673 182.451 34.2152C182.309 33.9631 182.112 33.766 181.859 33.6239C181.611 33.4783 181.321 33.4055 180.991 33.4055C180.647 33.4055 180.341 33.4854 180.075 33.6452C179.812 33.8015 179.606 34.0128 179.457 34.2791C179.308 34.5419 179.232 34.8349 179.228 35.158V36.495C179.228 36.8999 179.303 37.2496 179.452 37.5444C179.604 37.8391 179.819 38.0664 180.096 38.2262C180.373 38.386 180.702 38.4659 181.082 38.4659C181.334 38.4659 181.565 38.4304 181.774 38.3594C181.984 38.2884 182.163 38.1818 182.312 38.0398C182.461 37.8977 182.575 37.7237 182.653 37.5178L184.752 37.6562C184.645 38.1605 184.427 38.6009 184.097 38.9773C183.77 39.3501 183.347 39.6413 182.829 39.8509C182.314 40.0568 181.719 40.1598 181.044 40.1598ZM189.795 40V29.0909H194.099C194.923 29.0909 195.626 29.2383 196.208 29.533C196.794 29.8242 197.24 30.2379 197.545 30.7741C197.854 31.3068 198.009 31.9336 198.009 32.6545C198.009 33.3789 197.852 34.0021 197.54 34.5241C197.227 35.0426 196.775 35.4403 196.182 35.7173C195.592 35.9943 194.878 36.1328 194.04 36.1328H191.158V34.2791H193.667C194.108 34.2791 194.473 34.2187 194.765 34.098C195.056 33.9773 195.272 33.7962 195.415 33.5547C195.56 33.3132 195.633 33.0131 195.633 32.6545C195.633 32.2923 195.56 31.9869 195.415 31.7383C195.272 31.4897 195.054 31.3015 194.759 31.1737C194.468 31.0423 194.101 30.9766 193.657 30.9766H192.101V40H189.795ZM195.686 35.0355L198.397 40H195.851L193.199 35.0355H195.686ZM203.193 40.1598C202.351 40.1598 201.627 39.9893 201.02 39.6484C200.416 39.304 199.951 38.8175 199.624 38.1889C199.297 37.5568 199.134 36.8093 199.134 35.9464C199.134 35.1048 199.297 34.3661 199.624 33.7305C199.951 33.0948 200.411 32.5994 201.004 32.2443C201.6 31.8892 202.3 31.7116 203.102 31.7116C203.642 31.7116 204.145 31.7987 204.61 31.9727C205.078 32.1431 205.487 32.4006 205.835 32.745C206.186 33.0895 206.46 33.5227 206.655 34.0447C206.85 34.5632 206.948 35.1705 206.948 35.8665V36.4897H200.039V35.0835H204.812C204.812 34.7567 204.741 34.4673 204.599 34.2152C204.457 33.9631 204.26 33.766 204.008 33.6239C203.759 33.4783 203.47 33.4055 203.14 33.4055C202.795 33.4055 202.49 33.4854 202.223 33.6452C201.961 33.8015 201.755 34.0128 201.605 34.2791C201.456 34.5419 201.38 34.8349 201.376 35.158V36.495C201.376 36.8999 201.451 37.2496 201.6 37.5444C201.753 37.8391 201.968 38.0664 202.245 38.2262C202.522 38.386 202.85 38.4659 203.23 38.4659C203.482 38.4659 203.713 38.4304 203.923 38.3594C204.132 38.2884 204.311 38.1818 204.461 38.0398C204.61 37.8977 204.723 37.7237 204.801 37.5178L206.9 37.6562C206.794 38.1605 206.575 38.6009 206.245 38.9773C205.918 39.3501 205.496 39.6413 204.977 39.8509C204.462 40.0568 203.868 40.1598 203.193 40.1598ZM208.429 43.0682V31.8182H210.666V33.1925H210.767C210.867 32.9723 211.011 32.7486 211.199 32.5213C211.391 32.2905 211.639 32.0987 211.945 31.946C212.254 31.7898 212.637 31.7116 213.095 31.7116C213.692 31.7116 214.242 31.8679 214.746 32.1804C215.251 32.4893 215.654 32.9563 215.956 33.5813C216.257 34.2028 216.408 34.9822 216.408 35.9197C216.408 36.8324 216.261 37.603 215.966 38.2315C215.675 38.8565 215.277 39.3306 214.773 39.6538C214.272 39.9734 213.711 40.1332 213.09 40.1332C212.65 40.1332 212.275 40.0604 211.966 39.9148C211.661 39.7692 211.41 39.5863 211.215 39.3661C211.02 39.1424 210.87 38.9169 210.767 38.6896H210.698V43.0682H208.429ZM210.65 35.9091C210.65 36.3956 210.718 36.82 210.853 37.1822C210.988 37.5444 211.183 37.8267 211.439 38.0291C211.694 38.228 212.005 38.3274 212.371 38.3274C212.74 38.3274 213.053 38.2262 213.308 38.0238C213.564 37.8178 213.757 37.5337 213.889 37.1715C214.024 36.8058 214.091 36.3849 214.091 35.9091C214.091 35.4368 214.026 35.0213 213.894 34.6626C213.763 34.304 213.569 34.0234 213.314 33.821C213.058 33.6186 212.744 33.5174 212.371 33.5174C212.001 33.5174 211.689 33.6151 211.433 33.8104C211.181 34.0057 210.988 34.2827 210.853 34.6413C210.718 35 210.65 35.4226 210.65 35.9091ZM221.618 40.1598C220.79 40.1598 220.075 39.984 219.471 39.6325C218.871 39.2773 218.408 38.7837 218.081 38.1516C217.754 37.516 217.591 36.7791 217.591 35.9411C217.591 35.0959 217.754 34.3572 218.081 33.7251C218.408 33.0895 218.871 32.5959 219.471 32.2443C220.075 31.8892 220.79 31.7116 221.618 31.7116C222.445 31.7116 223.159 31.8892 223.759 32.2443C224.363 32.5959 224.828 33.0895 225.155 33.7251C225.482 34.3572 225.645 35.0959 225.645 35.9411C225.645 36.7791 225.482 37.516 225.155 38.1516C224.828 38.7837 224.363 39.2773 223.759 39.6325C223.159 39.984 222.445 40.1598 221.618 40.1598ZM221.629 38.402C222.005 38.402 222.319 38.2955 222.571 38.0824C222.824 37.8658 223.013 37.571 223.141 37.1982C223.273 36.8253 223.338 36.4009 223.338 35.9251C223.338 35.4492 223.273 35.0249 223.141 34.652C223.013 34.2791 222.824 33.9844 222.571 33.7678C222.319 33.5511 222.005 33.4428 221.629 33.4428C221.249 33.4428 220.929 33.5511 220.67 33.7678C220.414 33.9844 220.221 34.2791 220.089 34.652C219.961 35.0249 219.897 35.4492 219.897 35.9251C219.897 36.4009 219.961 36.8253 220.089 37.1982C220.221 37.571 220.414 37.8658 220.67 38.0824C220.929 38.2955 221.249 38.402 221.629 38.402ZM227.12 40V31.8182H229.32V33.2457H229.406C229.555 32.7379 229.805 32.3544 230.157 32.0952C230.508 31.8324 230.913 31.701 231.371 31.701C231.485 31.701 231.607 31.7081 231.739 31.7223C231.87 31.7365 231.985 31.756 232.085 31.7809V33.7944C231.978 33.7624 231.831 33.734 231.643 33.7092C231.455 33.6843 231.282 33.6719 231.126 33.6719C230.792 33.6719 230.494 33.7447 230.231 33.8903C229.972 34.0323 229.766 34.2312 229.613 34.4869C229.464 34.7425 229.39 35.0373 229.39 35.3711V40H227.12ZM238.02 31.8182V33.5227H233.093V31.8182H238.02ZM234.212 29.858H236.481V37.4858C236.481 37.6953 236.513 37.8587 236.577 37.9759C236.641 38.0895 236.729 38.1694 236.843 38.2156C236.96 38.2617 237.095 38.2848 237.248 38.2848C237.354 38.2848 237.461 38.2759 237.567 38.2582C237.674 38.2369 237.756 38.2209 237.812 38.2102L238.169 39.8988C238.056 39.9343 237.896 39.9751 237.69 40.0213C237.484 40.071 237.234 40.1012 236.939 40.1119C236.392 40.1332 235.913 40.0604 235.501 39.8935C235.092 39.7266 234.774 39.4673 234.547 39.1158C234.32 38.7642 234.208 38.3203 234.212 37.7841V29.858Z" fill="#171A22"/>
</g>
<defs>
<filter id="filter0_i_1029_140774" x="0" y="0" width="400.8" height="298.8" filterUnits="userSpaceOnUse" color-interpolation-filters="sRGB">
<feFlood flood-opacity="0" result="BackgroundImageFix"/>
<feBlend mode="normal" in="SourceGraphic" in2="BackgroundImageFix" result="shape"/>
<feColorMatrix in="SourceAlpha" type="matrix" values="0 0 0 0 0 0 0 0 0 0 0 0 0 0 0 0 0 0 127 0" result="hardAlpha"/>
<feOffset dy="9.6"/>
<feGaussianBlur stdDeviation="19.2"/>
<feComposite in2="hardAlpha" operator="arithmetic" k2="-1" k3="1"/>
<feColorMatrix type="matrix" values="0 0 0 0 0.0980392 0 0 0 0 0.105882 0 0 0 0 0.137255 0 0 0 0.08 0"/>
<feBlend mode="normal" in2="shape" result="effect1_innerShadow_1029_140774"/>
</filter>
<clipPath id="clip0_1029_140774">
<rect width="400" height="289" rx="16" fill="white"/>
</clipPath>
</defs>
</svg>
