<svg width="355" height="141" viewBox="0 0 355 141" fill="none" xmlns="http://www.w3.org/2000/svg">
<rect width="355" height="141" rx="16" fill="white"/>
<path d="M23 53.4341H332.917V54.7699H23V53.4341Z" fill="#E0E1E9"/>
<path d="M332.917 118.891H23.0005V120.226H332.917V118.891Z" fill="#C4C7CF"/>
<path opacity="0.2" d="M33.3306 95.1047C29.0425 95.1047 23 98.3951 23 98.3951V120.411H332.917V53.3131C332.917 53.3131 326.541 58.6085 322.586 59.3131C318.261 60.0837 316.668 63.3551 312.256 63.3551C307.843 63.3551 306.338 59.3131 301.925 59.3131C297.513 59.3131 295.751 62.0472 291.595 63.3551C287.65 64.5964 285.314 64.9537 281.264 65.8931C277.245 66.8254 275.06 77.712 270.934 78.1491C266.928 78.5735 264.546 77.3945 260.603 78.1491C256.222 78.9875 254.653 81.7285 250.272 82.5668C246.329 83.3217 243.976 82.5668 239.942 82.5668C235.908 82.5668 233.554 83.3217 229.611 82.5668C225.23 81.7285 223.662 78.9875 219.281 78.1491C215.338 77.3945 212.955 78.5735 208.95 78.1491C204.824 77.712 202.776 75.8931 198.62 75.8931C194.464 75.8931 192.415 77.712 188.289 78.1491C184.284 78.5735 181.993 88.1491 177.958 88.1491C173.924 88.1491 171.633 88.5735 167.628 88.1491C163.502 87.712 161.431 85.515 157.297 85.8931C152.764 86.3077 151.505 90.3275 146.967 90.6866C142.796 91.0171 140.787 88.64 136.636 88.1491C132.638 87.6762 130.34 88.1491 126.306 88.1491C122.271 88.1491 119.845 87.1397 115.975 88.1491C111.11 89.4184 110.707 94.8268 105.645 95.1047C101.171 95.3517 99.7964 90.6866 95.314 90.6866C90.8316 90.6866 89.4658 95.1047 84.9834 95.1047C80.501 95.1047 79.0337 91.5261 74.6528 90.6866C70.7097 89.9329 68.2654 89.9329 64.3223 90.6866C59.9414 91.5261 58.1248 93.5733 53.9917 95.1047C50.0372 96.5709 47.9492 98.3951 43.6611 98.3951C39.3731 98.3951 37.6186 95.1047 33.3306 95.1047Z" fill="#2BB3FF"/>
<path d="M23 98.853C23 98.853 29.0425 95.4536 33.3306 95.4536C37.6186 95.4536 39.3731 98.853 43.6611 98.853C47.9492 98.853 50.0372 96.9684 53.9917 95.4536C58.1248 93.8714 59.9414 91.7564 64.3223 90.8891C68.2654 90.1104 70.7097 90.1104 74.6528 90.8891C79.0337 91.7564 80.501 95.4536 84.9834 95.4536C89.4658 95.4536 90.8316 90.8891 95.314 90.8891C99.7964 90.8891 101.171 95.7088 105.645 95.4536C110.707 95.1664 111.11 89.5788 115.975 88.2675C119.845 87.2246 122.271 88.2675 126.306 88.2675C130.34 88.2675 132.638 87.7789 136.636 88.2675C140.787 88.7746 142.796 91.2306 146.967 90.8891C151.505 90.5181 152.764 86.3652 157.297 85.9368C161.431 85.5462 163.502 87.8159 167.628 88.2675C171.633 88.706 173.924 88.2675 177.958 88.2675C181.993 88.2675 184.284 78.706 188.289 78.2675C192.415 77.8159 194.464 75.9368 198.62 75.9368C202.776 75.9368 204.824 77.8159 208.95 78.2675C212.955 78.706 215.338 77.4879 219.281 78.2675C223.662 79.1337 225.23 81.9655 229.611 82.8316C233.554 83.6115 235.908 82.8316 239.942 82.8316C243.976 82.8316 246.329 83.6115 250.272 82.8316C254.653 81.9655 256.222 79.1337 260.603 78.2675C264.546 77.4879 266.928 78.706 270.934 78.2675C275.06 77.8159 277.245 66.8999 281.264 65.9368C285.314 64.9663 287.65 64.5971 291.595 63.3146C295.751 61.9635 297.513 59.1388 301.925 59.1388C306.338 59.1388 307.844 63.3146 312.256 63.3146C316.668 63.3146 318.261 59.9349 322.586 59.1388C326.541 58.4108 332.917 53.1388 332.917 53.1388" stroke="#2BB3FF" stroke-width="3.34944" stroke-linecap="round"/>
<path d="M23.9482 22.0909H26.7926L29.7969 29.4205H29.9247L32.929 22.0909H35.7734V33H33.5362V25.8995H33.4457L30.6225 32.9467H29.0991L26.2759 25.8729H26.1854V33H23.9482V22.0909ZM41.3279 33.1598C40.5004 33.1598 39.7849 32.984 39.1812 32.6325C38.5811 32.2773 38.1176 31.7837 37.7909 31.1516C37.4642 30.516 37.3009 29.7791 37.3009 28.9411C37.3009 28.0959 37.4642 27.3572 37.7909 26.7251C38.1176 26.0895 38.5811 25.5959 39.1812 25.2443C39.7849 24.8892 40.5004 24.7116 41.3279 24.7116C42.1553 24.7116 42.8691 24.8892 43.4692 25.2443C44.0729 25.5959 44.5381 26.0895 44.8648 26.7251C45.1915 27.3572 45.3548 28.0959 45.3548 28.9411C45.3548 29.7791 45.1915 30.516 44.8648 31.1516C44.5381 31.7837 44.0729 32.2773 43.4692 32.6325C42.8691 32.984 42.1553 33.1598 41.3279 33.1598ZM41.3385 31.402C41.7149 31.402 42.0292 31.2955 42.2813 31.0824C42.5335 30.8658 42.7235 30.571 42.8513 30.1982C42.9827 29.8253 43.0484 29.4009 43.0484 28.9251C43.0484 28.4492 42.9827 28.0249 42.8513 27.652C42.7235 27.2791 42.5335 26.9844 42.2813 26.7678C42.0292 26.5511 41.7149 26.4428 41.3385 26.4428C40.9585 26.4428 40.6389 26.5511 40.3797 26.7678C40.124 26.9844 39.9305 27.2791 39.7991 27.652C39.6713 28.0249 39.6073 28.4492 39.6073 28.9251C39.6073 29.4009 39.6713 29.8253 39.7991 30.1982C39.9305 30.571 40.124 30.8658 40.3797 31.0824C40.6389 31.2955 40.9585 31.402 41.3385 31.402ZM49.0995 28.2699V33H46.8303V24.8182H48.993V26.2617H49.0889C49.27 25.7859 49.5736 25.4094 49.9997 25.1325C50.4259 24.8519 50.9426 24.7116 51.5498 24.7116C52.118 24.7116 52.6134 24.8359 53.036 25.0845C53.4585 25.3331 53.787 25.6882 54.0214 26.1499C54.2558 26.608 54.373 27.1548 54.373 27.7905V33H52.1038V28.1953C52.1073 27.6946 51.9795 27.304 51.7203 27.0234C51.461 26.7393 51.1041 26.5973 50.6496 26.5973C50.3442 26.5973 50.0743 26.663 49.8399 26.7944C49.6091 26.9258 49.428 27.1175 49.2966 27.3697C49.1688 27.6183 49.1031 27.9183 49.0995 28.2699ZM60.5133 24.8182V26.5227H55.5861V24.8182H60.5133ZM56.7047 22.858H58.9739V30.4858C58.9739 30.6953 59.0059 30.8587 59.0698 30.9759C59.1337 31.0895 59.2225 31.1694 59.3361 31.2156C59.4533 31.2617 59.5882 31.2848 59.7409 31.2848C59.8475 31.2848 59.954 31.2759 60.0605 31.2582C60.1671 31.2369 60.2488 31.2209 60.3056 31.2102L60.6625 32.8988C60.5488 32.9343 60.389 32.9751 60.1831 33.0213C59.9771 33.071 59.7267 33.1012 59.432 33.1119C58.8851 33.1332 58.4057 33.0604 57.9938 32.8935C57.5854 32.7266 57.2676 32.4673 57.0403 32.1158C56.813 31.7642 56.7012 31.3203 56.7047 30.7841V22.858ZM64.4364 28.2699V33H62.1673V22.0909H64.3725V26.2617H64.4684C64.6531 25.7788 64.9513 25.4006 65.3633 25.1271C65.7752 24.8501 66.2919 24.7116 66.9134 24.7116C67.4815 24.7116 67.9769 24.8359 68.3995 25.0845C68.8256 25.3295 69.1559 25.6829 69.3903 26.1445C69.6282 26.6026 69.7454 27.1513 69.7418 27.7905V33H67.4727V28.1953C67.4762 27.6911 67.3484 27.2987 67.0891 27.0181C66.8335 26.7376 66.4748 26.5973 66.0131 26.5973C65.7042 26.5973 65.4308 26.663 65.1928 26.7944C64.9585 26.9258 64.7738 27.1175 64.6388 27.3697C64.5075 27.6183 64.44 27.9183 64.4364 28.2699ZM73.7968 22.0909V33H71.5276V22.0909H73.7968ZM77.0154 36.0682C76.7278 36.0682 76.4579 36.0451 76.2058 35.9989C75.9572 35.9563 75.7512 35.9013 75.5879 35.8338L76.0993 34.1399C76.3656 34.2216 76.6053 34.266 76.8184 34.2731C77.035 34.2802 77.2214 34.2305 77.3777 34.1239C77.5375 34.0174 77.6671 33.8363 77.7665 33.5806L77.8997 33.2344L74.9647 24.8182H77.351L79.0449 30.8267H79.1301L80.84 24.8182H83.2424L80.0623 33.8842C79.9096 34.3246 79.7019 34.7081 79.4391 35.0348C79.1799 35.3651 78.8514 35.619 78.4537 35.7965C78.0559 35.9776 77.5765 36.0682 77.0154 36.0682ZM90.3735 33L87.252 22.0909H89.7716L91.5773 29.6708H91.6679L93.6601 22.0909H95.8174L97.8042 29.6868H97.9001L99.7059 22.0909H102.225L99.104 33H96.8561L94.7787 25.8675H94.6934L92.6214 33H90.3735ZM106.267 33.1598C105.425 33.1598 104.701 32.9893 104.094 32.6484C103.49 32.304 103.025 31.8175 102.698 31.1889C102.371 30.5568 102.208 29.8093 102.208 28.9464C102.208 28.1048 102.371 27.3661 102.698 26.7305C103.025 26.0948 103.485 25.5994 104.078 25.2443C104.674 24.8892 105.374 24.7116 106.176 24.7116C106.716 24.7116 107.219 24.7987 107.684 24.9727C108.153 25.1431 108.561 25.4006 108.909 25.745C109.261 26.0895 109.534 26.5227 109.729 27.0447C109.925 27.5632 110.022 28.1705 110.022 28.8665V29.4897H103.114V28.0835H107.886C107.886 27.7567 107.815 27.4673 107.673 27.2152C107.531 26.9631 107.334 26.766 107.082 26.6239C106.833 26.4783 106.544 26.4055 106.214 26.4055C105.869 26.4055 105.564 26.4854 105.298 26.6452C105.035 26.8015 104.829 27.0128 104.68 27.2791C104.531 27.5419 104.454 27.8349 104.451 28.158V29.495C104.451 29.8999 104.525 30.2496 104.674 30.5444C104.827 30.8391 105.042 31.0664 105.319 31.2262C105.596 31.386 105.924 31.4659 106.304 31.4659C106.556 31.4659 106.787 31.4304 106.997 31.3594C107.206 31.2884 107.386 31.1818 107.535 31.0398C107.684 30.8977 107.798 30.7237 107.876 30.5178L109.974 30.6562C109.868 31.1605 109.65 31.6009 109.319 31.9773C108.993 32.3501 108.57 32.6413 108.051 32.8509C107.537 33.0568 106.942 33.1598 106.267 33.1598ZM111.546 33V22.0909H113.815V26.1925H113.884C113.984 25.9723 114.127 25.7486 114.316 25.5213C114.507 25.2905 114.756 25.0987 115.061 24.946C115.37 24.7898 115.754 24.7116 116.212 24.7116C116.809 24.7116 117.359 24.8679 117.863 25.1804C118.368 25.4893 118.771 25.9563 119.072 26.5813C119.374 27.2028 119.525 27.9822 119.525 28.9197C119.525 29.8324 119.378 30.603 119.083 31.2315C118.792 31.8565 118.394 32.3306 117.89 32.6538C117.389 32.9734 116.828 33.1332 116.207 33.1332C115.766 33.1332 115.392 33.0604 115.083 32.9148C114.777 32.7692 114.527 32.5863 114.332 32.3661C114.136 32.1424 113.987 31.9169 113.884 31.6896H113.783V33H111.546ZM113.767 28.9091C113.767 29.3956 113.835 29.82 113.969 30.1822C114.104 30.5444 114.3 30.8267 114.555 31.0291C114.811 31.228 115.122 31.3274 115.488 31.3274C115.857 31.3274 116.169 31.2262 116.425 31.0238C116.681 30.8178 116.874 30.5337 117.006 30.1715C117.141 29.8058 117.208 29.3849 117.208 28.9091C117.208 28.4368 117.142 28.0213 117.011 27.6626C116.88 27.304 116.686 27.0234 116.43 26.821C116.175 26.6186 115.86 26.5174 115.488 26.5174C115.118 26.5174 114.806 26.6151 114.55 26.8104C114.298 27.0057 114.104 27.2827 113.969 27.6413C113.835 28 113.767 28.4226 113.767 28.9091ZM127.847 27.1513L125.769 27.2791C125.734 27.1016 125.658 26.9418 125.54 26.7997C125.423 26.6541 125.269 26.5387 125.077 26.4535C124.889 26.3647 124.663 26.3203 124.4 26.3203C124.049 26.3203 123.752 26.3949 123.511 26.544C123.269 26.6896 123.149 26.8849 123.149 27.13C123.149 27.3253 123.227 27.4904 123.383 27.6254C123.539 27.7603 123.807 27.8686 124.187 27.9503L125.668 28.2486C126.464 28.4119 127.057 28.6747 127.447 29.0369C127.838 29.3991 128.033 29.875 128.033 30.4645C128.033 31.0007 127.875 31.4712 127.559 31.8761C127.247 32.2809 126.817 32.5969 126.27 32.8242C125.727 33.0479 125.1 33.1598 124.39 33.1598C123.307 33.1598 122.444 32.9343 121.801 32.4833C121.162 32.0288 120.787 31.4109 120.677 30.6296L122.909 30.5124C122.976 30.8427 123.14 31.0948 123.399 31.2688C123.658 31.4393 123.99 31.5245 124.395 31.5245C124.793 31.5245 125.112 31.4482 125.354 31.2955C125.599 31.1392 125.723 30.9386 125.727 30.6935C125.723 30.4876 125.636 30.3189 125.466 30.1875C125.295 30.0526 125.033 29.9496 124.677 29.8786L123.261 29.5962C122.462 29.4364 121.867 29.1594 121.476 28.7653C121.089 28.3711 120.896 27.8686 120.896 27.2578C120.896 26.7322 121.038 26.2795 121.322 25.8995C121.609 25.5195 122.012 25.2266 122.531 25.0206C123.053 24.8146 123.664 24.7116 124.363 24.7116C125.397 24.7116 126.21 24.93 126.803 25.3668C127.399 25.8036 127.747 26.3984 127.847 27.1513ZM129.462 33V24.8182H131.731V33H129.462ZM130.602 23.7635C130.265 23.7635 129.975 23.6516 129.734 23.4279C129.496 23.2006 129.377 22.929 129.377 22.6129C129.377 22.3004 129.496 22.0323 129.734 21.8086C129.975 21.5813 130.265 21.4677 130.602 21.4677C130.939 21.4677 131.227 21.5813 131.465 21.8086C131.706 22.0323 131.827 22.3004 131.827 22.6129C131.827 22.929 131.706 23.2006 131.465 23.4279C131.227 23.6516 130.939 23.7635 130.602 23.7635ZM137.901 24.8182V26.5227H132.974V24.8182H137.901ZM134.092 22.858H136.362V30.4858C136.362 30.6953 136.394 30.8587 136.457 30.9759C136.521 31.0895 136.61 31.1694 136.724 31.2156C136.841 31.2617 136.976 31.2848 137.129 31.2848C137.235 31.2848 137.342 31.2759 137.448 31.2582C137.555 31.2369 137.636 31.2209 137.693 31.2102L138.05 32.8988C137.937 32.9343 137.777 32.9751 137.571 33.0213C137.365 33.071 137.114 33.1012 136.82 33.1119C136.273 33.1332 135.793 33.0604 135.381 32.8935C134.973 32.7266 134.655 32.4673 134.428 32.1158C134.201 31.7642 134.089 31.3203 134.092 30.7841V22.858ZM143.02 33.1598C142.178 33.1598 141.454 32.9893 140.847 32.6484C140.243 32.304 139.778 31.8175 139.451 31.1889C139.124 30.5568 138.961 29.8093 138.961 28.9464C138.961 28.1048 139.124 27.3661 139.451 26.7305C139.778 26.0948 140.238 25.5994 140.831 25.2443C141.427 24.8892 142.127 24.7116 142.929 24.7116C143.469 24.7116 143.972 24.7987 144.437 24.9727C144.906 25.1431 145.314 25.4006 145.662 25.745C146.014 26.0895 146.287 26.5227 146.482 27.0447C146.678 27.5632 146.775 28.1705 146.775 28.8665V29.4897H139.867V28.0835H144.639C144.639 27.7567 144.568 27.4673 144.426 27.2152C144.284 26.9631 144.087 26.766 143.835 26.6239C143.586 26.4783 143.297 26.4055 142.967 26.4055C142.622 26.4055 142.317 26.4854 142.051 26.6452C141.788 26.8015 141.582 27.0128 141.433 27.2791C141.283 27.5419 141.207 27.8349 141.204 28.158V29.495C141.204 29.8999 141.278 30.2496 141.427 30.5444C141.58 30.8391 141.795 31.0664 142.072 31.2262C142.349 31.386 142.677 31.4659 143.057 31.4659C143.309 31.4659 143.54 31.4304 143.75 31.3594C143.959 31.2884 144.139 31.1818 144.288 31.0398C144.437 30.8977 144.551 30.7237 144.629 30.5178L146.727 30.6562C146.621 31.1605 146.402 31.6009 146.072 31.9773C145.745 32.3501 145.323 32.6413 144.804 32.8509C144.29 33.0568 143.695 33.1598 143.02 33.1598ZM153.741 22.0909L156.378 30.3793H156.479L159.121 22.0909H161.678L157.917 33H154.945L151.179 22.0909H153.741ZM162.949 33V24.8182H165.218V33H162.949ZM164.088 23.7635C163.751 23.7635 163.462 23.6516 163.22 23.4279C162.982 23.2006 162.863 22.929 162.863 22.6129C162.863 22.3004 162.982 22.0323 163.22 21.8086C163.462 21.5813 163.751 21.4677 164.088 21.4677C164.426 21.4677 164.713 21.5813 164.951 21.8086C165.193 22.0323 165.314 22.3004 165.314 22.6129C165.314 22.929 165.193 23.2006 164.951 23.4279C164.713 23.6516 164.426 23.7635 164.088 23.7635ZM173.843 27.1513L171.766 27.2791C171.73 27.1016 171.654 26.9418 171.536 26.7997C171.419 26.6541 171.265 26.5387 171.073 26.4535C170.885 26.3647 170.659 26.3203 170.397 26.3203C170.045 26.3203 169.748 26.3949 169.507 26.544C169.266 26.6896 169.145 26.8849 169.145 27.13C169.145 27.3253 169.223 27.4904 169.379 27.6254C169.535 27.7603 169.804 27.8686 170.184 27.9503L171.664 28.2486C172.46 28.4119 173.053 28.6747 173.443 29.0369C173.834 29.3991 174.029 29.875 174.029 30.4645C174.029 31.0007 173.871 31.4712 173.555 31.8761C173.243 32.2809 172.813 32.5969 172.266 32.8242C171.723 33.0479 171.096 33.1598 170.386 33.1598C169.303 33.1598 168.44 32.9343 167.797 32.4833C167.158 32.0288 166.783 31.4109 166.673 30.6296L168.905 30.5124C168.973 30.8427 169.136 31.0948 169.395 31.2688C169.654 31.4393 169.986 31.5245 170.391 31.5245C170.789 31.5245 171.109 31.4482 171.35 31.2955C171.595 31.1392 171.719 30.9386 171.723 30.6935C171.719 30.4876 171.632 30.3189 171.462 30.1875C171.291 30.0526 171.029 29.9496 170.674 29.8786L169.257 29.5962C168.458 29.4364 167.863 29.1594 167.472 28.7653C167.085 28.3711 166.892 27.8686 166.892 27.2578C166.892 26.7322 167.034 26.2795 167.318 25.8995C167.605 25.5195 168.008 25.2266 168.527 25.0206C169.049 24.8146 169.66 24.7116 170.359 24.7116C171.393 24.7116 172.206 24.93 172.799 25.3668C173.396 25.8036 173.744 26.3984 173.843 27.1513ZM175.458 33V24.8182H177.727V33H175.458ZM176.598 23.7635C176.261 23.7635 175.971 23.6516 175.73 23.4279C175.492 23.2006 175.373 22.929 175.373 22.6129C175.373 22.3004 175.492 22.0323 175.73 21.8086C175.971 21.5813 176.261 21.4677 176.598 21.4677C176.936 21.4677 177.223 21.5813 177.461 21.8086C177.703 22.0323 177.823 22.3004 177.823 22.6129C177.823 22.929 177.703 23.2006 177.461 23.4279C177.223 23.6516 176.936 23.7635 176.598 23.7635ZM183.897 24.8182V26.5227H178.97V24.8182H183.897ZM180.089 22.858H182.358V30.4858C182.358 30.6953 182.39 30.8587 182.454 30.9759C182.517 31.0895 182.606 31.1694 182.72 31.2156C182.837 31.2617 182.972 31.2848 183.125 31.2848C183.231 31.2848 183.338 31.2759 183.444 31.2582C183.551 31.2369 183.633 31.2209 183.689 31.2102L184.046 32.8988C183.933 32.9343 183.773 32.9751 183.567 33.0213C183.361 33.071 183.111 33.1012 182.816 33.1119C182.269 33.1332 181.79 33.0604 181.378 32.8935C180.969 32.7266 180.651 32.4673 180.424 32.1158C180.197 31.7642 180.085 31.3203 180.089 30.7841V22.858ZM188.984 33.1598C188.157 33.1598 187.441 32.984 186.837 32.6325C186.237 32.2773 185.774 31.7837 185.447 31.1516C185.12 30.516 184.957 29.7791 184.957 28.9411C184.957 28.0959 185.12 27.3572 185.447 26.7251C185.774 26.0895 186.237 25.5959 186.837 25.2443C187.441 24.8892 188.157 24.7116 188.984 24.7116C189.812 24.7116 190.525 24.8892 191.125 25.2443C191.729 25.5959 192.194 26.0895 192.521 26.7251C192.848 27.3572 193.011 28.0959 193.011 28.9411C193.011 29.7791 192.848 30.516 192.521 31.1516C192.194 31.7837 191.729 32.2773 191.125 32.6325C190.525 32.984 189.812 33.1598 188.984 33.1598ZM188.995 31.402C189.371 31.402 189.685 31.2955 189.938 31.0824C190.19 30.8658 190.38 30.571 190.508 30.1982C190.639 29.8253 190.705 29.4009 190.705 28.9251C190.705 28.4492 190.639 28.0249 190.508 27.652C190.38 27.2791 190.19 26.9844 189.938 26.7678C189.685 26.5511 189.371 26.4428 188.995 26.4428C188.615 26.4428 188.295 26.5511 188.036 26.7678C187.78 26.9844 187.587 27.2791 187.455 27.652C187.328 28.0249 187.264 28.4492 187.264 28.9251C187.264 29.4009 187.328 29.8253 187.455 30.1982C187.587 30.571 187.78 30.8658 188.036 31.0824C188.295 31.2955 188.615 31.402 188.995 31.402ZM194.487 33V24.8182H196.687V26.2457H196.772C196.921 25.7379 197.171 25.3544 197.523 25.0952C197.874 24.8324 198.279 24.701 198.737 24.701C198.851 24.701 198.973 24.7081 199.105 24.7223C199.236 24.7365 199.352 24.756 199.451 24.7809V26.7944C199.345 26.7624 199.197 26.734 199.009 26.7092C198.821 26.6843 198.649 26.6719 198.492 26.6719C198.158 26.6719 197.86 26.7447 197.597 26.8903C197.338 27.0323 197.132 27.2312 196.979 27.4869C196.83 27.7425 196.756 28.0373 196.756 28.3711V33H194.487ZM207.432 27.1513L205.354 27.2791C205.319 27.1016 205.243 26.9418 205.125 26.7997C205.008 26.6541 204.854 26.5387 204.662 26.4535C204.474 26.3647 204.248 26.3203 203.985 26.3203C203.634 26.3203 203.337 26.3949 203.096 26.544C202.854 26.6896 202.734 26.8849 202.734 27.13C202.734 27.3253 202.812 27.4904 202.968 27.6254C203.124 27.7603 203.392 27.8686 203.772 27.9503L205.253 28.2486C206.049 28.4119 206.642 28.6747 207.032 29.0369C207.423 29.3991 207.618 29.875 207.618 30.4645C207.618 31.0007 207.46 31.4712 207.144 31.8761C206.832 32.2809 206.402 32.5969 205.855 32.8242C205.312 33.0479 204.685 33.1598 203.975 33.1598C202.892 33.1598 202.029 32.9343 201.386 32.4833C200.747 32.0288 200.372 31.4109 200.262 30.6296L202.494 30.5124C202.561 30.8427 202.725 31.0948 202.984 31.2688C203.243 31.4393 203.575 31.5245 203.98 31.5245C204.378 31.5245 204.697 31.4482 204.939 31.2955C205.184 31.1392 205.308 30.9386 205.312 30.6935C205.308 30.4876 205.221 30.3189 205.051 30.1875C204.88 30.0526 204.618 29.9496 204.262 29.8786L202.846 29.5962C202.047 29.4364 201.452 29.1594 201.061 28.7653C200.674 28.3711 200.48 27.8686 200.48 27.2578C200.48 26.7322 200.623 26.2795 200.907 25.8995C201.194 25.5195 201.597 25.2266 202.116 25.0206C202.638 24.8146 203.249 24.7116 203.948 24.7116C204.982 24.7116 205.795 24.93 206.388 25.3668C206.984 25.8036 207.332 26.3984 207.432 27.1513Z" fill="#171A22"/>
</svg>
