<svg width="304" height="219" viewBox="0 0 304 219" fill="none" xmlns="http://www.w3.org/2000/svg">
<rect width="304" height="219" rx="16" fill="white"/>
<path d="M27.9619 42.8301H23.0374V28.9382H28.0026C29.4 28.9382 30.6029 29.2163 31.6113 29.7725C32.6197 30.3242 33.3953 31.1178 33.9379 32.1534C34.4851 33.189 34.7587 34.428 34.7587 35.8706C34.7587 37.3176 34.4851 38.5612 33.9379 39.6013C33.3953 40.6414 32.6152 41.4396 31.5977 41.9958C30.5848 42.552 29.3728 42.8301 27.9619 42.8301ZM25.9745 40.3135H27.8398C28.7081 40.3135 29.4384 40.1598 30.0308 39.8523C30.6277 39.5403 31.0754 39.0587 31.3739 38.4075C31.6769 37.7518 31.8283 36.9061 31.8283 35.8706C31.8283 34.844 31.6769 34.0052 31.3739 33.354C31.0754 32.7028 30.63 32.2235 30.0376 31.916C29.4452 31.6085 28.7149 31.4547 27.8466 31.4547H25.9745V40.3135ZM39.8511 43.0268C39.1864 43.0268 38.594 42.9115 38.074 42.6809C37.5539 42.4457 37.1424 42.0998 36.8394 41.643C36.541 41.1818 36.3917 40.6075 36.3917 39.9201C36.3917 39.3413 36.498 38.8552 36.7105 38.4617C36.9231 38.0683 37.2125 37.7518 37.5788 37.5121C37.9451 37.2724 38.3611 37.0915 38.8269 36.9694C39.2972 36.8473 39.7901 36.7614 40.3056 36.7117C40.9116 36.6484 41.4 36.5896 41.7708 36.5353C42.1416 36.4765 42.4107 36.3906 42.578 36.2776C42.7453 36.1645 42.829 35.9972 42.829 35.7756V35.7349C42.829 35.3053 42.6933 34.9729 42.422 34.7378C42.1552 34.5026 41.7753 34.3851 41.2824 34.3851C40.7623 34.3851 40.3486 34.5004 40.0411 34.731C39.7336 34.9571 39.5301 35.242 39.4306 35.5857L36.758 35.3686C36.8937 34.7355 37.1605 34.1883 37.5584 33.7271C37.9564 33.2613 38.4696 32.9041 39.0982 32.6553C39.7313 32.4021 40.4639 32.2755 41.296 32.2755C41.8748 32.2755 42.4287 32.3433 42.9578 32.479C43.4914 32.6146 43.964 32.8249 44.3755 33.1098C44.7916 33.3947 45.1194 33.761 45.3591 34.2087C45.5987 34.6519 45.7186 35.1832 45.7186 35.8027V42.8301H42.9782V41.3853H42.8968C42.7295 41.7109 42.5056 41.998 42.2253 42.2467C41.9449 42.4909 41.608 42.6831 41.2146 42.8233C40.8211 42.959 40.3667 43.0268 39.8511 43.0268ZM40.6787 41.0326C41.1038 41.0326 41.4791 40.9489 41.8047 40.7816C42.1303 40.6097 42.3858 40.3791 42.5712 40.0897C42.7566 39.8003 42.8493 39.4724 42.8493 39.1061V38.0005C42.7589 38.0593 42.6345 38.1135 42.4762 38.1633C42.3225 38.2085 42.1484 38.2515 41.9539 38.2922C41.7595 38.3283 41.565 38.3623 41.3706 38.3939C41.1761 38.421 40.9998 38.4459 40.8415 38.4685C40.5023 38.5183 40.2061 38.5974 39.9529 38.7059C39.6997 38.8145 39.5029 38.9614 39.3628 39.1468C39.2226 39.3277 39.1525 39.5538 39.1525 39.8252C39.1525 40.2186 39.2949 40.5193 39.5798 40.7273C39.8692 40.9308 40.2355 41.0326 40.6787 41.0326ZM47.9604 42.8301V32.4112H50.8501V42.8301H47.9604ZM49.412 31.0681C48.9824 31.0681 48.6139 30.9256 48.3064 30.6407C48.0034 30.3513 47.8519 30.0054 47.8519 29.6029C47.8519 29.205 48.0034 28.8636 48.3064 28.5787C48.6139 28.2892 48.9824 28.1445 49.412 28.1445C49.8416 28.1445 50.2079 28.2892 50.5109 28.5787C50.8184 28.8636 50.9721 29.205 50.9721 29.6029C50.9721 30.0054 50.8184 30.3513 50.5109 30.6407C50.2079 30.9256 49.8416 31.0681 49.412 31.0681ZM56.0544 28.9382V42.8301H53.1648V28.9382H56.0544ZM60.1532 46.7372C59.7869 46.7372 59.4432 46.7078 59.1221 46.649C58.8056 46.5948 58.5433 46.5247 58.3353 46.4387L58.9865 44.2817C59.3256 44.3857 59.6309 44.4422 59.9022 44.4513C60.178 44.4603 60.4155 44.397 60.6144 44.2613C60.8179 44.1257 60.983 43.8951 61.1096 43.5695L61.2792 43.1286L57.5416 32.4112H60.5805L62.7376 40.0626H62.8461L65.0235 32.4112H68.0827L64.0331 43.9561C63.8387 44.5168 63.5741 45.0052 63.2395 45.4213C62.9094 45.8418 62.4911 46.1652 61.9846 46.3913C61.4781 46.6219 60.8677 46.7372 60.1532 46.7372ZM74.0366 42.8301V28.9382H79.5174C80.5666 28.9382 81.4619 29.1258 82.2036 29.5012C82.9497 29.872 83.5172 30.3988 83.9061 31.0817C84.2996 31.76 84.4963 32.5581 84.4963 33.4761C84.4963 34.3986 84.2973 35.1923 83.8994 35.857C83.5014 36.5172 82.9248 37.0237 82.1696 37.3764C81.419 37.7292 80.51 37.9055 79.4428 37.9055H75.7731V35.545H78.968C79.5287 35.545 79.9945 35.4681 80.3653 35.3143C80.7361 35.1606 81.012 34.93 81.1929 34.6225C81.3783 34.315 81.471 33.9328 81.471 33.4761C81.471 33.0149 81.3783 32.626 81.1929 32.3094C81.012 31.9929 80.7339 31.7532 80.3585 31.5904C79.9877 31.4231 79.5197 31.3394 78.9544 31.3394H76.9737V42.8301H74.0366ZM81.5388 36.5082L84.9914 42.8301H81.7491L78.3711 36.5082H81.5388ZM91.098 43.0336C90.0262 43.0336 89.1037 42.8165 88.3305 42.3824C87.5617 41.9438 86.9693 41.3242 86.5533 40.5238C86.1372 39.7189 85.9292 38.767 85.9292 37.6681C85.9292 36.5964 86.1372 35.6558 86.5533 34.8463C86.9693 34.0369 87.5549 33.406 88.3101 32.9538C89.0698 32.5016 89.9607 32.2755 90.9827 32.2755C91.67 32.2755 92.3099 32.3863 92.9023 32.6079C93.4992 32.8249 94.0193 33.1528 94.4624 33.5914C94.9101 34.0301 95.2583 34.5818 95.507 35.2465C95.7558 35.9067 95.8801 36.68 95.8801 37.5664V38.36H87.0824V36.5692H93.1601C93.1601 36.1532 93.0696 35.7846 92.8887 35.4636C92.7079 35.1425 92.4569 34.8915 92.1358 34.7106C91.8193 34.5252 91.4507 34.4325 91.0302 34.4325C90.5915 34.4325 90.2026 34.5343 89.8635 34.7378C89.5288 34.9368 89.2665 35.2058 89.0766 35.545C88.8867 35.8796 88.7895 36.2527 88.7849 36.6642V38.3668C88.7849 38.8823 88.8799 39.3277 89.0698 39.7031C89.2643 40.0784 89.5379 40.3678 89.8906 40.5713C90.2433 40.7748 90.6616 40.8765 91.1455 40.8765C91.4665 40.8765 91.7605 40.8313 92.0273 40.7409C92.2941 40.6504 92.5225 40.5148 92.7124 40.3339C92.9023 40.153 93.047 39.9314 93.1465 39.6691L95.8191 39.8455C95.6834 40.4876 95.4053 41.0484 94.9847 41.5277C94.5687 42.0026 94.0306 42.3734 93.3704 42.6402C92.7146 42.9025 91.9572 43.0336 91.098 43.0336ZM100.737 43.0268C100.072 43.0268 99.4797 42.9115 98.9597 42.6809C98.4396 42.4457 98.0281 42.0998 97.7251 41.643C97.4267 41.1818 97.2775 40.6075 97.2775 39.9201C97.2775 39.3413 97.3837 38.8552 97.5963 38.4617C97.8088 38.0683 98.0982 37.7518 98.4645 37.5121C98.8308 37.2724 99.2468 37.0915 99.7126 36.9694C100.183 36.8473 100.676 36.7614 101.191 36.7117C101.797 36.6484 102.286 36.5896 102.657 36.5353C103.027 36.4765 103.296 36.3906 103.464 36.2776C103.631 36.1645 103.715 35.9972 103.715 35.7756V35.7349C103.715 35.3053 103.579 34.9729 103.308 34.7378C103.041 34.5026 102.661 34.3851 102.168 34.3851C101.648 34.3851 101.234 34.5004 100.927 34.731C100.619 34.9571 100.416 35.242 100.316 35.5857L97.6437 35.3686C97.7794 34.7355 98.0462 34.1883 98.4442 33.7271C98.8421 33.2613 99.3554 32.9041 99.9839 32.6553C100.617 32.4021 101.35 32.2755 102.182 32.2755C102.761 32.2755 103.314 32.3433 103.844 32.479C104.377 32.6146 104.85 32.8249 105.261 33.1098C105.677 33.3947 106.005 33.761 106.245 34.2087C106.484 34.6519 106.604 35.1832 106.604 35.8027V42.8301H103.864V41.3853H103.783C103.615 41.7109 103.391 41.998 103.111 42.2467C102.831 42.4909 102.494 42.6831 102.1 42.8233C101.707 42.959 101.252 43.0268 100.737 43.0268ZM101.564 41.0326C101.989 41.0326 102.365 40.9489 102.69 40.7816C103.016 40.6097 103.272 40.3791 103.457 40.0897C103.642 39.8003 103.735 39.4724 103.735 39.1061V38.0005C103.645 38.0593 103.52 38.1135 103.362 38.1633C103.208 38.2085 103.034 38.2515 102.84 38.2922C102.645 38.3283 102.451 38.3623 102.256 38.3939C102.062 38.421 101.885 38.4459 101.727 38.4685C101.388 38.5183 101.092 38.5974 100.839 38.7059C100.585 38.8145 100.389 38.9614 100.248 39.1468C100.108 39.3277 100.038 39.5538 100.038 39.8252C100.038 40.2186 100.181 40.5193 100.466 40.7273C100.755 40.9308 101.121 41.0326 101.564 41.0326ZM113.554 43.0336C112.486 43.0336 111.568 42.8075 110.8 42.3553C110.035 41.8985 109.448 41.2654 109.036 40.456C108.629 39.6465 108.426 38.715 108.426 37.6613C108.426 36.5941 108.631 35.658 109.043 34.8531C109.459 34.0436 110.049 33.4128 110.813 32.9606C111.578 32.5039 112.486 32.2755 113.54 32.2755C114.449 32.2755 115.245 32.4405 115.928 32.7707C116.611 33.1008 117.151 33.5643 117.549 34.1612C117.947 34.7581 118.166 35.4591 118.207 36.264H115.48C115.403 35.7439 115.2 35.3257 114.87 35.0091C114.544 34.688 114.117 34.5275 113.588 34.5275C113.14 34.5275 112.749 34.6496 112.414 34.8938C112.084 35.1335 111.826 35.4839 111.641 35.9452C111.455 36.4064 111.363 36.9649 111.363 37.6206C111.363 38.2854 111.453 38.8506 111.634 39.3164C111.819 39.7822 112.079 40.1372 112.414 40.3814C112.749 40.6256 113.14 40.7477 113.588 40.7477C113.918 40.7477 114.214 40.6798 114.476 40.5442C114.743 40.4085 114.962 40.2118 115.134 39.954C115.311 39.6918 115.426 39.3775 115.48 39.0112H118.207C118.162 39.8071 117.945 40.508 117.556 41.114C117.171 41.7154 116.64 42.1857 115.962 42.5249C115.283 42.864 114.481 43.0336 113.554 43.0336ZM122.947 36.8066V42.8301H120.057V28.9382H122.865V34.2494H122.987C123.223 33.6344 123.602 33.1528 124.127 32.8046C124.652 32.4519 125.309 32.2755 126.101 32.2755C126.824 32.2755 127.455 32.4338 127.993 32.7503C128.536 33.0623 128.957 33.5123 129.255 34.1002C129.558 34.6835 129.707 35.3822 129.703 36.1962V42.8301H126.813V36.7117C126.818 36.0695 126.655 35.5698 126.325 35.2126C125.999 34.8554 125.542 34.6767 124.954 34.6767C124.561 34.6767 124.213 34.7604 123.91 34.9277C123.611 35.095 123.376 35.3392 123.204 35.6603C123.037 35.9768 122.951 36.359 122.947 36.8066Z" fill="#191B23"/>
<g clip-path="url(#clip0_765_90678)">
<rect x="21.8302" y="65.7877" width="21.8302" height="21.8302" rx="5.45754" fill="#2BB3FF"/>
<path d="M37.1795 73.974L31.3809 79.7726L28.311 76.7028" stroke="white" stroke-width="2.72877" stroke-linecap="round" stroke-linejoin="round"/>
</g>
<path d="M66.0642 76.2491C66.0642 77.5049 65.8374 78.5902 65.3839 79.505C64.9304 80.4198 64.3083 81.1252 63.5176 81.6213C62.7269 82.1175 61.8237 82.3656 60.8082 82.3656C59.7927 82.3656 58.8895 82.1175 58.0988 81.6213C57.3081 81.1252 56.686 80.4198 56.2325 79.505C55.779 78.5902 55.5522 77.5049 55.5522 76.2491C55.5522 74.9932 55.779 73.9079 56.2325 72.9932C56.686 72.0784 57.3081 71.373 58.0988 70.8768C58.8895 70.3807 59.7927 70.1326 60.8082 70.1326C61.8237 70.1326 62.7269 70.3807 63.5176 70.8768C64.3083 71.373 64.9304 72.0784 65.3839 72.9932C65.8374 73.9079 66.0642 74.9932 66.0642 76.2491ZM64.6688 76.2491C64.6688 75.218 64.4963 74.3479 64.1513 73.6385C63.8102 72.9292 63.347 72.3924 62.7617 72.028C62.1803 71.6637 61.5292 71.4815 60.8082 71.4815C60.0872 71.4815 59.4341 71.6637 58.8488 72.028C58.2674 72.3924 57.8042 72.9292 57.4593 73.6385C57.1182 74.3479 56.9476 75.218 56.9476 76.2491C56.9476 77.2801 57.1182 78.1503 57.4593 78.8596C57.8042 79.569 58.2674 80.1058 58.8488 80.4701C59.4341 80.8345 60.0872 81.0167 60.8082 81.0167C61.5292 81.0167 62.1803 80.8345 62.7617 80.4701C63.347 80.1058 63.8102 79.569 64.1513 78.8596C64.4963 78.1503 64.6688 77.2801 64.6688 76.2491ZM68.3026 82.2028V73.2722H69.6282V74.6211H69.7213C69.8841 74.1792 70.1787 73.8207 70.605 73.5455C71.0314 73.2703 71.512 73.1327 72.0469 73.1327C72.1477 73.1327 72.2737 73.1346 72.4248 73.1385C72.576 73.1424 72.6904 73.1482 72.7679 73.156V74.5514C72.7214 74.5397 72.6148 74.5223 72.4481 74.499C72.2853 74.4719 72.1128 74.4583 71.9306 74.4583C71.4965 74.4583 71.1089 74.5494 70.7678 74.7316C70.4306 74.9099 70.1631 75.158 69.9655 75.4758C69.7717 75.7898 69.6748 76.1483 69.6748 76.5514V82.2028H68.3026ZM77.7273 85.7378C77.0645 85.7378 76.4947 85.6525 76.018 85.4819C75.5412 85.3153 75.1439 85.0943 74.8261 84.8191C74.5121 84.5478 74.2621 84.2571 74.0761 83.947L75.1691 83.1795C75.2932 83.3423 75.4501 83.5284 75.6401 83.7377C75.83 83.9509 76.0897 84.135 76.4192 84.29C76.7525 84.449 77.1886 84.5284 77.7273 84.5284C78.4483 84.5284 79.0433 84.354 79.5123 84.0051C79.9813 83.6563 80.2158 83.1098 80.2158 82.3656V80.5515H80.0995C79.9987 80.7143 79.8553 80.9159 79.6693 81.1562C79.4871 81.3927 79.2235 81.6039 78.8785 81.79C78.5374 81.9721 78.0762 82.0632 77.4948 82.0632C76.7738 82.0632 76.1265 81.8927 75.5529 81.5516C74.9831 81.2105 74.5315 80.7143 74.1982 80.0632C73.8687 79.412 73.704 78.6212 73.704 77.691C73.704 76.7762 73.8648 75.9797 74.1865 75.3014C74.5082 74.6192 74.9559 74.092 75.5296 73.7199C76.1033 73.3439 76.7661 73.156 77.518 73.156C78.0994 73.156 78.5607 73.2529 78.9018 73.4467C79.2468 73.6366 79.5103 73.8537 79.6925 74.0978C79.8786 74.3382 80.022 74.5358 80.1228 74.6909H80.2623V73.2722H81.5879V82.4586C81.5879 83.226 81.4135 83.8501 81.0647 84.3307C80.7197 84.8152 80.2546 85.1699 79.6693 85.3947C79.0879 85.6234 78.4405 85.7378 77.7273 85.7378ZM77.6808 80.8306C78.2312 80.8306 78.6964 80.7046 79.0762 80.4527C79.4561 80.2008 79.7448 79.8383 79.9425 79.3655C80.1402 78.8926 80.2391 78.3267 80.2391 77.6677C80.2391 77.0243 80.1421 76.4565 79.9483 75.9642C79.7545 75.4719 79.4677 75.0863 79.0879 74.8072C78.708 74.5281 78.239 74.3886 77.6808 74.3886C77.0994 74.3886 76.6149 74.5358 76.2273 74.8304C75.8436 75.125 75.5548 75.5204 75.361 76.0165C75.1711 76.5127 75.0761 77.0631 75.0761 77.6677C75.0761 78.2879 75.173 78.8364 75.3668 79.3131C75.5645 79.786 75.8552 80.1581 76.2389 80.4294C76.6265 80.6969 77.1072 80.8306 77.6808 80.8306ZM86.7276 82.4121C86.1617 82.4121 85.6481 82.3055 85.1869 82.0923C84.7256 81.8752 84.3593 81.5632 84.088 81.1562C83.8167 80.7453 83.681 80.2492 83.681 79.6678C83.681 79.1561 83.7818 78.7414 83.9834 78.4236C84.1849 78.1019 84.4543 77.8499 84.7915 77.6677C85.1287 77.4856 85.5008 77.3499 85.9078 77.2607C86.3187 77.1677 86.7315 77.0941 87.1462 77.0398C87.6889 76.97 88.1288 76.9177 88.4661 76.8828C88.8072 76.8441 89.0552 76.7801 89.2103 76.691C89.3692 76.6018 89.4486 76.4468 89.4486 76.2258V76.1793C89.4486 75.6056 89.2917 75.1599 88.9777 74.8421C88.6676 74.5242 88.1967 74.3653 87.5649 74.3653C86.9098 74.3653 86.3962 74.5087 86.0241 74.7955C85.652 75.0824 85.3904 75.3886 85.2392 75.7142L83.9368 75.249C84.1694 74.7064 84.4795 74.2839 84.8671 73.9816C85.2586 73.6754 85.685 73.4622 86.1462 73.342C86.6113 73.218 87.0687 73.156 87.5184 73.156C87.8052 73.156 88.1347 73.1908 88.5068 73.2606C88.8827 73.3265 89.2452 73.4641 89.594 73.6734C89.9467 73.8827 90.2394 74.1986 90.4719 74.6211C90.7045 75.0436 90.8208 75.6095 90.8208 76.3188V82.2028H89.4486V80.9934H89.3789C89.2859 81.1872 89.1308 81.3946 88.9137 81.6155C88.6967 81.8365 88.4079 82.0245 88.0474 82.1795C87.687 82.3345 87.247 82.4121 86.7276 82.4121ZM86.9369 81.1795C87.4796 81.1795 87.937 81.0729 88.3091 80.8597C88.6851 80.6465 88.968 80.3713 89.1579 80.0341C89.3517 79.6969 89.4486 79.3422 89.4486 78.9701V77.7142C89.3905 77.784 89.2626 77.848 89.0649 77.9061C88.8711 77.9604 88.6463 78.0088 88.3905 78.0515C88.1385 78.0902 87.8924 78.1251 87.6521 78.1561C87.4156 78.1833 87.2238 78.2065 87.0765 78.2259C86.7199 78.2724 86.3865 78.348 86.0764 78.4526C85.7702 78.5534 85.5222 78.7065 85.3322 78.912C85.1462 79.1135 85.0532 79.3887 85.0532 79.7376C85.0532 80.2143 85.2295 80.5748 85.5822 80.819C85.9388 81.0593 86.3904 81.1795 86.9369 81.1795ZM94.6974 76.8305V82.2028H93.3252V73.2722H94.6508V74.6676H94.7671C94.9764 74.2141 95.2943 73.8498 95.7206 73.5746C96.147 73.2955 96.6974 73.156 97.3719 73.156C97.9765 73.156 98.5056 73.28 98.9591 73.5281C99.4126 73.7723 99.7654 74.1444 100.017 74.6444C100.269 75.1405 100.395 75.7684 100.395 76.5282V82.2028H99.0231V76.6212C99.0231 75.9196 98.8409 75.3731 98.4766 74.9816C98.1122 74.5862 97.6122 74.3886 96.9765 74.3886C96.5385 74.3886 96.147 74.4835 95.802 74.6734C95.461 74.8634 95.1916 75.1405 94.9939 75.5049C94.7962 75.8692 94.6974 76.3111 94.6974 76.8305ZM102.903 82.2028V73.2722H104.275V82.2028H102.903ZM103.6 71.7838C103.333 71.7838 103.102 71.6927 102.908 71.5106C102.718 71.3284 102.623 71.1094 102.623 70.8536C102.623 70.5977 102.718 70.3787 102.908 70.1966C103.102 70.0144 103.333 69.9233 103.6 69.9233C103.868 69.9233 104.096 70.0144 104.286 70.1966C104.48 70.3787 104.577 70.5977 104.577 70.8536C104.577 71.1094 104.48 71.3284 104.286 71.5106C104.096 71.6927 103.868 71.7838 103.6 71.7838ZM110.416 82.3888C109.579 82.3888 108.858 82.1911 108.253 81.7958C107.648 81.4004 107.183 80.8558 106.858 80.162C106.532 79.4682 106.369 78.6755 106.369 77.784C106.369 76.877 106.536 76.0766 106.869 75.3828C107.206 74.6851 107.675 74.1405 108.276 73.749C108.881 73.3536 109.586 73.156 110.393 73.156C111.021 73.156 111.586 73.2722 112.09 73.5048C112.594 73.7374 113.007 74.063 113.329 74.4816C113.65 74.9002 113.85 75.3886 113.928 75.9467H112.555C112.451 75.5398 112.218 75.1793 111.858 74.8653C111.501 74.5475 111.021 74.3886 110.416 74.3886C109.881 74.3886 109.412 74.5281 109.009 74.8072C108.61 75.0824 108.298 75.4719 108.073 75.9758C107.852 76.4758 107.741 77.0631 107.741 77.7375C107.741 78.4274 107.85 79.0282 108.067 79.5399C108.288 80.0515 108.598 80.4488 108.997 80.7318C109.4 81.0147 109.873 81.1562 110.416 81.1562C110.772 81.1562 111.096 81.0942 111.387 80.9702C111.678 80.8461 111.924 80.6678 112.125 80.4353C112.327 80.2027 112.47 79.9236 112.555 79.598H113.928C113.85 80.1252 113.658 80.6 113.352 81.0225C113.05 81.4411 112.649 81.7745 112.148 82.0225C111.652 82.2667 111.075 82.3888 110.416 82.3888Z" fill="#191B23"/>
<g clip-path="url(#clip1_765_90678)">
<rect x="148.321" y="65.7877" width="21.8302" height="21.8302" rx="5.45754" fill="#59DDAA"/>
<path d="M163.67 73.974L157.871 79.7726L154.802 76.7028" stroke="white" stroke-width="2.72877" stroke-linecap="round" stroke-linejoin="round"/>
</g>
<path d="M182.508 82.2028V70.2954H186.531C187.465 70.2954 188.229 70.464 188.822 70.8012C189.419 71.1346 189.861 71.5861 190.148 72.1559C190.434 72.7257 190.578 73.3614 190.578 74.063C190.578 74.7645 190.434 75.4022 190.148 75.9758C189.865 76.5495 189.427 77.0069 188.834 77.348C188.241 77.6852 187.481 77.8538 186.554 77.8538H183.671V76.5747H186.508C187.148 76.5747 187.661 76.4642 188.049 76.2433C188.436 76.0223 188.717 75.7239 188.892 75.3479C189.07 74.968 189.159 74.5397 189.159 74.063C189.159 73.5862 189.07 73.1598 188.892 72.7839C188.717 72.4079 188.434 72.1133 188.043 71.9001C187.651 71.683 187.132 71.5745 186.485 71.5745H183.95V82.2028H182.508ZM195.343 82.4121C194.777 82.4121 194.263 82.3055 193.802 82.0923C193.341 81.8752 192.974 81.5632 192.703 81.1562C192.432 80.7453 192.296 80.2492 192.296 79.6678C192.296 79.1561 192.397 78.7414 192.598 78.4236C192.8 78.1019 193.069 77.8499 193.406 77.6677C193.744 77.4856 194.116 77.3499 194.523 77.2607C194.934 77.1677 195.346 77.0941 195.761 77.0398C196.304 76.97 196.744 76.9177 197.081 76.8828C197.422 76.8441 197.67 76.7801 197.825 76.691C197.984 76.6018 198.064 76.4468 198.064 76.2258V76.1793C198.064 75.6056 197.907 75.1599 197.593 74.8421C197.283 74.5242 196.812 74.3653 196.18 74.3653C195.525 74.3653 195.011 74.5087 194.639 74.7955C194.267 75.0824 194.005 75.3886 193.854 75.7142L192.552 75.249C192.784 74.7064 193.094 74.2839 193.482 73.9816C193.873 73.6754 194.3 73.4622 194.761 73.342C195.226 73.218 195.684 73.156 196.133 73.156C196.42 73.156 196.75 73.1908 197.122 73.2606C197.498 73.3265 197.86 73.4641 198.209 73.6734C198.562 73.8827 198.854 74.1986 199.087 74.6211C199.319 75.0436 199.436 75.6095 199.436 76.3188V82.2028H198.064V80.9934H197.994C197.901 81.1872 197.746 81.3946 197.529 81.6155C197.312 81.8365 197.023 82.0245 196.662 82.1795C196.302 82.3345 195.862 82.4121 195.343 82.4121ZM195.552 81.1795C196.094 81.1795 196.552 81.0729 196.924 80.8597C197.3 80.6465 197.583 80.3713 197.773 80.0341C197.967 79.6969 198.064 79.3422 198.064 78.9701V77.7142C198.005 77.784 197.878 77.848 197.68 77.9061C197.486 77.9604 197.261 78.0088 197.005 78.0515C196.753 78.0902 196.507 78.1251 196.267 78.1561C196.031 78.1833 195.839 78.2065 195.691 78.2259C195.335 78.2724 195.001 78.348 194.691 78.4526C194.385 78.5534 194.137 78.7065 193.947 78.912C193.761 79.1135 193.668 79.3887 193.668 79.7376C193.668 80.2143 193.844 80.5748 194.197 80.819C194.554 81.0593 195.005 81.1795 195.552 81.1795ZM201.94 82.2028V73.2722H203.312V82.2028H201.94ZM202.638 71.7838C202.37 71.7838 202.14 71.6927 201.946 71.5106C201.756 71.3284 201.661 71.1094 201.661 70.8536C201.661 70.5977 201.756 70.3787 201.946 70.1966C202.14 70.0144 202.37 69.9233 202.638 69.9233C202.905 69.9233 203.134 70.0144 203.324 70.1966C203.518 70.3787 203.615 70.5977 203.615 70.8536C203.615 71.1094 203.518 71.3284 203.324 71.5106C203.134 71.6927 202.905 71.7838 202.638 71.7838ZM209.198 82.3888C208.453 82.3888 207.796 82.2008 207.227 81.8248C206.657 81.445 206.211 80.9101 205.889 80.2201C205.568 79.5263 205.407 78.7065 205.407 77.7608C205.407 76.8227 205.568 76.0088 205.889 75.3188C206.211 74.6289 206.659 74.0959 207.232 73.7199C207.806 73.3439 208.469 73.156 209.221 73.156C209.802 73.156 210.262 73.2529 210.599 73.4467C210.94 73.6366 211.2 73.8537 211.378 74.0978C211.56 74.3382 211.702 74.5358 211.802 74.6909H211.919V70.2954H213.291V82.2028H211.965V80.8306H211.802C211.702 80.9934 211.558 81.1989 211.372 81.4469C211.186 81.6911 210.921 81.9101 210.576 82.1039C210.231 82.2938 209.771 82.3888 209.198 82.3888ZM209.384 81.1562C209.934 81.1562 210.399 81.0128 210.779 80.726C211.159 80.4353 211.448 80.0341 211.645 79.5224C211.843 79.0069 211.942 78.4119 211.942 77.7375C211.942 77.0708 211.845 76.4875 211.651 75.9874C211.457 75.4836 211.171 75.0921 210.791 74.813C210.411 74.53 209.942 74.3886 209.384 74.3886C208.802 74.3886 208.318 74.5378 207.93 74.8362C207.546 75.1308 207.258 75.532 207.064 76.0398C206.874 76.5437 206.779 77.1096 206.779 77.7375C206.779 78.3732 206.876 78.9507 207.07 79.4701C207.267 79.9856 207.558 80.3965 207.942 80.7027C208.329 81.005 208.81 81.1562 209.384 81.1562Z" fill="#191B23"/>
<g clip-path="url(#clip2_765_90678)">
<rect x="21.83" y="111.762" width="21.1222" height="8.18631" fill="#2BB3FF"/>
<rect x="21.8301" y="121.312" width="21.1222" height="73.6768" fill="#59DDAA"/>
</g>
<g clip-path="url(#clip3_765_90678)">
<rect x="48.4099" y="119.948" width="21.1222" height="5.45754" fill="#2BB3FF"/>
<rect x="48.4099" y="126.77" width="21.1222" height="68.2192" fill="#59DDAA"/>
</g>
<g clip-path="url(#clip4_765_90678)">
<rect x="74.9896" y="118.584" width="21.1222" height="12.2795" fill="#2BB3FF"/>
<rect x="74.9896" y="132.228" width="21.1222" height="62.7617" fill="#59DDAA"/>
</g>
<g clip-path="url(#clip5_765_90678)">
<rect x="101.569" y="121.312" width="21.1222" height="73.6768" fill="#59DDAA"/>
</g>
<g clip-path="url(#clip6_765_90678)">
<rect x="128.149" y="124.041" width="21.1222" height="12.2795" fill="#2BB3FF"/>
<rect x="128.149" y="137.685" width="21.1222" height="57.3041" fill="#59DDAA"/>
</g>
<g clip-path="url(#clip7_765_90678)">
<rect x="154.729" y="125.406" width="21.1222" height="16.3726" fill="#2BB3FF"/>
<rect x="154.729" y="143.143" width="21.1222" height="51.8466" fill="#59DDAA"/>
</g>
<g clip-path="url(#clip8_765_90678)">
<rect x="181.309" y="118.584" width="21.1222" height="16.3726" fill="#2BB3FF"/>
<rect x="181.309" y="136.321" width="21.1222" height="58.6685" fill="#59DDAA"/>
</g>
<g clip-path="url(#clip9_765_90678)">
<rect x="207.888" y="132.228" width="21.1222" height="8.18631" fill="#2BB3FF"/>
<rect x="207.888" y="141.778" width="21.1222" height="53.211" fill="#59DDAA"/>
</g>
<g clip-path="url(#clip10_765_90678)">
<rect x="234.468" y="137.685" width="21.1222" height="6.82192" fill="#2BB3FF"/>
<rect x="234.468" y="145.871" width="21.1222" height="49.1178" fill="#59DDAA"/>
</g>
<g clip-path="url(#clip11_765_90678)">
<rect x="261.048" y="103.575" width="21.1222" height="6.82192" fill="#2BB3FF"/>
<rect x="261.048" y="111.762" width="21.1222" height="83.2275" fill="#59DDAA"/>
</g>
<defs>
<clipPath id="clip0_765_90678">
<rect width="21.8302" height="21" fill="white" transform="translate(21.8302 66.2028)"/>
</clipPath>
<clipPath id="clip1_765_90678">
<rect width="21.8302" height="21" fill="white" transform="translate(148.321 66.2028)"/>
</clipPath>
<clipPath id="clip2_765_90678">
<rect x="21.83" y="111.762" width="21.1222" height="72.3124" rx="5.45754" fill="white"/>
</clipPath>
<clipPath id="clip3_765_90678">
<rect x="48.4099" y="119.948" width="21.1222" height="64.1261" rx="5.45754" fill="white"/>
</clipPath>
<clipPath id="clip4_765_90678">
<rect x="74.9896" y="118.584" width="21.1222" height="65.4905" rx="5.45754" fill="white"/>
</clipPath>
<clipPath id="clip5_765_90678">
<rect x="101.569" y="121.312" width="21.1222" height="62.7617" rx="5.45754" fill="white"/>
</clipPath>
<clipPath id="clip6_765_90678">
<rect x="128.149" y="124.041" width="21.1222" height="60.0329" rx="5.45754" fill="white"/>
</clipPath>
<clipPath id="clip7_765_90678">
<rect x="154.729" y="125.406" width="21.1222" height="58.6685" rx="5.45754" fill="white"/>
</clipPath>
<clipPath id="clip8_765_90678">
<rect x="181.309" y="118.584" width="21.1222" height="65.4905" rx="5.45754" fill="white"/>
</clipPath>
<clipPath id="clip9_765_90678">
<rect x="207.888" y="132.228" width="21.1222" height="51.8466" rx="5.45754" fill="white"/>
</clipPath>
<clipPath id="clip10_765_90678">
<rect x="234.468" y="137.685" width="21.1222" height="46.3891" rx="5.45754" fill="white"/>
</clipPath>
<clipPath id="clip11_765_90678">
<rect x="261.048" y="103.575" width="21.1222" height="80.4987" rx="5.45754" fill="white"/>
</clipPath>
</defs>
</svg>
