<svg width="350" height="225" viewBox="0 0 350 225" fill="none" xmlns="http://www.w3.org/2000/svg">
<rect width="350" height="225" rx="16" fill="white"/>
<path d="M18.3178 33.3574V22.3118H20.6531V27.182H20.7987L24.7736 22.3118H27.5728L23.4738 27.2575L27.6213 33.3574H24.8276L21.8019 28.8162L20.6531 30.2184V33.3574H18.3178ZM31.913 33.5192C31.0609 33.5192 30.3274 33.3466 29.7126 33.0014C29.1013 32.6526 28.6303 32.16 28.2995 31.5236C27.9687 30.8836 27.8033 30.1268 27.8033 29.253C27.8033 28.4009 27.9687 27.653 28.2995 27.0094C28.6303 26.3658 29.0959 25.8642 29.6964 25.5047C30.3004 25.1451 31.0088 24.9653 31.8214 24.9653C32.3679 24.9653 32.8766 25.0534 33.3477 25.2296C33.8223 25.4022 34.2358 25.6629 34.5881 26.0116C34.9441 26.3604 35.2209 26.7991 35.4187 27.3276C35.6165 27.8526 35.7153 28.4674 35.7153 29.1721V29.8032H28.7202V28.3793H33.5526C33.5526 28.0485 33.4807 27.7555 33.3369 27.5002C33.1931 27.2449 32.9935 27.0454 32.7382 26.9015C32.4865 26.7541 32.1935 26.6804 31.8591 26.6804C31.5103 26.6804 31.2011 26.7613 30.9315 26.9231C30.6654 27.0813 30.4568 27.2953 30.3058 27.5649C30.1548 27.831 30.0775 28.1276 30.0739 28.4548V29.8085C30.0739 30.2184 30.1494 30.5726 30.3004 30.871C30.455 31.1695 30.6726 31.3996 30.953 31.5614C31.2335 31.7232 31.5661 31.8041 31.9508 31.8041C32.2061 31.8041 32.4398 31.7681 32.6519 31.6962C32.8641 31.6243 33.0456 31.5164 33.1967 31.3726C33.3477 31.2288 33.4627 31.0526 33.5418 30.8441L35.6668 30.9843C35.5589 31.4949 35.3378 31.9407 35.0034 32.3218C34.6726 32.6994 34.2448 32.9942 33.7198 33.2063C33.1984 33.4149 32.5962 33.5192 31.913 33.5192ZM38.4107 36.4639C38.1194 36.4639 37.8462 36.4405 37.5909 36.3938C37.3392 36.3507 37.1306 36.2949 36.9652 36.2266L37.483 34.5115C37.7527 34.5942 37.9954 34.6392 38.2111 34.6464C38.4304 34.6536 38.6192 34.6032 38.7774 34.4954C38.9392 34.3875 39.0704 34.2041 39.1711 33.9452L39.3059 33.5947L36.3342 25.0732H38.7504L40.4655 31.1569H40.5518L42.2831 25.0732H44.7155L41.4956 34.2527C41.341 34.6985 41.1307 35.0868 40.8646 35.4176C40.6021 35.752 40.2696 36.0091 39.8669 36.1889C39.4641 36.3722 38.9787 36.4639 38.4107 36.4639ZM47.5254 33.3574L45.271 25.0732H47.5955L48.8791 30.6391H48.9546L50.2922 25.0732H52.5735L53.9327 30.6068H54.0028L55.2648 25.0732H57.5839L55.3349 33.3574H52.9025L51.4787 28.1474H51.3762L49.9524 33.3574H47.5254ZM62.3449 33.5192C61.5071 33.5192 60.7826 33.3412 60.1714 32.9852C59.5637 32.6257 59.0945 32.1259 58.7637 31.4859C58.4329 30.8423 58.2675 30.0962 58.2675 29.2476C58.2675 28.3919 58.4329 27.644 58.7637 27.004C59.0945 26.3604 59.5637 25.8606 60.1714 25.5047C60.7826 25.1451 61.5071 24.9653 62.3449 24.9653C63.1827 24.9653 63.9054 25.1451 64.513 25.5047C65.1243 25.8606 65.5953 26.3604 65.9261 27.004C66.2569 27.644 66.4223 28.3919 66.4223 29.2476C66.4223 30.0962 66.2569 30.8423 65.9261 31.4859C65.5953 32.1259 65.1243 32.6257 64.513 32.9852C63.9054 33.3412 63.1827 33.5192 62.3449 33.5192ZM62.3557 31.7394C62.7368 31.7394 63.055 31.6315 63.3103 31.4158C63.5656 31.1964 63.758 30.898 63.8874 30.5205C64.0204 30.1429 64.0869 29.7133 64.0869 29.2315C64.0869 28.7497 64.0204 28.32 63.8874 27.9425C63.758 27.5649 63.5656 27.2665 63.3103 27.0472C63.055 26.8278 62.7368 26.7182 62.3557 26.7182C61.971 26.7182 61.6474 26.8278 61.3849 27.0472C61.126 27.2665 60.9301 27.5649 60.797 27.9425C60.6676 28.32 60.6029 28.7497 60.6029 29.2315C60.6029 29.7133 60.6676 30.1429 60.797 30.5205C60.9301 30.898 61.126 31.1964 61.3849 31.4158C61.6474 31.6315 61.971 31.7394 62.3557 31.7394ZM67.9162 33.3574V25.0732H70.1437V26.5186H70.2299C70.381 26.0045 70.6344 25.6161 70.9904 25.3537C71.3464 25.0876 71.7563 24.9546 72.2201 24.9546C72.3351 24.9546 72.4592 24.9617 72.5922 24.9761C72.7253 24.9905 72.8421 25.0103 72.9428 25.0355V27.0741C72.8349 27.0418 72.6857 27.013 72.4951 26.9878C72.3046 26.9627 72.1302 26.9501 71.972 26.9501C71.634 26.9501 71.332 27.0238 71.0659 27.1712C70.8034 27.315 70.5949 27.5164 70.4403 27.7753C70.2893 28.0341 70.2138 28.3326 70.2138 28.6706V33.3574H67.9162ZM76.7977 33.4922C76.1685 33.4922 75.5986 33.3304 75.088 33.0068C74.581 32.6796 74.1783 32.1996 73.8799 31.5668C73.5851 30.9304 73.4376 30.1501 73.4376 29.2261C73.4376 28.2768 73.5904 27.4876 73.8961 26.8584C74.2017 26.2256 74.608 25.7528 75.115 25.44C75.6255 25.1235 76.1846 24.9653 76.7923 24.9653C77.2561 24.9653 77.6426 25.0444 77.9518 25.2026C78.2647 25.3573 78.5164 25.5514 78.7069 25.7851C78.9011 26.0152 79.0485 26.2418 79.1492 26.4647H79.2193V22.3118H81.5114V33.3574H79.2462V32.0306H79.1492C79.0413 32.2607 78.8885 32.489 78.6907 32.7156C78.4966 32.9385 78.2431 33.1236 77.9303 33.2711C77.6211 33.4185 77.2435 33.4922 76.7977 33.4922ZM77.5258 31.6639C77.8961 31.6639 78.2089 31.5632 78.4642 31.3618C78.7231 31.1569 78.9209 30.871 79.0575 30.5043C79.1977 30.1375 79.2678 29.7079 79.2678 29.2153C79.2678 28.7227 79.1995 28.2948 79.0629 27.9317C78.9262 27.5685 78.7285 27.2881 78.4696 27.0903C78.2107 26.8926 77.8961 26.7937 77.5258 26.7937C77.1482 26.7937 76.83 26.8962 76.5712 27.1011C76.3123 27.306 76.1163 27.5901 75.9833 27.9532C75.8502 28.3164 75.7837 28.7371 75.7837 29.2153C75.7837 29.6971 75.8502 30.1232 75.9833 30.4935C76.1199 30.8602 76.3159 31.1479 76.5712 31.3564C76.83 31.5614 77.1482 31.6639 77.5258 31.6639ZM97.109 27.8346C97.109 29.0391 96.8806 30.0638 96.424 30.9088C95.971 31.7537 95.3525 32.3991 94.5687 32.845C93.7885 33.2872 92.9111 33.5084 91.9368 33.5084C90.9552 33.5084 90.0743 33.2854 89.294 32.8396C88.5138 32.3938 87.8971 31.7484 87.4441 30.9034C86.9911 30.0584 86.7645 29.0355 86.7645 27.8346C86.7645 26.6301 86.9911 25.6053 87.4441 24.7604C87.8971 23.9154 88.5138 23.2718 89.294 22.8296C90.0743 22.3837 90.9552 22.1608 91.9368 22.1608C92.9111 22.1608 93.7885 22.3837 94.5687 22.8296C95.3525 23.2718 95.971 23.9154 96.424 24.7604C96.8806 25.6053 97.109 26.6301 97.109 27.8346ZM94.7413 27.8346C94.7413 27.0544 94.6244 26.3964 94.3907 25.8606C94.1606 25.3249 93.8352 24.9186 93.4145 24.6417C92.9938 24.3649 92.5013 24.2265 91.9368 24.2265C91.3722 24.2265 90.8797 24.3649 90.459 24.6417C90.0383 24.9186 89.7111 25.3249 89.4774 25.8606C89.2473 26.3964 89.1322 27.0544 89.1322 27.8346C89.1322 28.6148 89.2473 29.2728 89.4774 29.8085C89.7111 30.3443 90.0383 30.7506 90.459 31.0274C90.8797 31.3043 91.3722 31.4427 91.9368 31.4427C92.5013 31.4427 92.9938 31.3043 93.4145 31.0274C93.8352 30.7506 94.1606 30.3443 94.3907 29.8085C94.6244 29.2728 94.7413 28.6148 94.7413 27.8346ZM106.519 25.0732L103.623 33.3574H101.034L98.1377 25.0732H100.565L102.285 31.0005H102.371L104.087 25.0732H106.519ZM111.203 33.5192C110.351 33.5192 109.617 33.3466 109.003 33.0014C108.391 32.6526 107.92 32.16 107.59 31.5236C107.259 30.8836 107.093 30.1268 107.093 29.253C107.093 28.4009 107.259 27.653 107.59 27.0094C107.92 26.3658 108.386 25.8642 108.986 25.5047C109.59 25.1451 110.299 24.9653 111.111 24.9653C111.658 24.9653 112.167 25.0534 112.638 25.2296C113.112 25.4022 113.526 25.6629 113.878 26.0116C114.234 26.3604 114.511 26.7991 114.709 27.3276C114.906 27.8526 115.005 28.4674 115.005 29.1721V29.8032H108.01V28.3793H112.843C112.843 28.0485 112.771 27.7555 112.627 27.5002C112.483 27.2449 112.284 27.0454 112.028 26.9015C111.777 26.7541 111.484 26.6804 111.149 26.6804C110.8 26.6804 110.491 26.7613 110.221 26.9231C109.955 27.0813 109.747 27.2953 109.596 27.5649C109.445 27.831 109.368 28.1276 109.364 28.4548V29.8085C109.364 30.2184 109.439 30.5726 109.59 30.871C109.745 31.1695 109.963 31.3996 110.243 31.5614C110.524 31.7232 110.856 31.8041 111.241 31.8041C111.496 31.8041 111.73 31.7681 111.942 31.6962C112.154 31.6243 112.336 31.5164 112.487 31.3726C112.638 31.2288 112.753 31.0526 112.832 30.8441L114.957 30.9843C114.849 31.4949 114.628 31.9407 114.293 32.3218C113.963 32.6994 113.535 32.9942 113.01 33.2063C112.488 33.4149 111.886 33.5192 111.203 33.5192ZM116.505 33.3574V25.0732H118.732V26.5186H118.818C118.969 26.0045 119.223 25.6161 119.579 25.3537C119.935 25.0876 120.345 24.9546 120.809 24.9546C120.924 24.9546 121.048 24.9617 121.181 24.9761C121.314 24.9905 121.431 25.0103 121.531 25.0355V27.0741C121.423 27.0418 121.274 27.013 121.084 26.9878C120.893 26.9627 120.719 26.9501 120.561 26.9501C120.223 26.9501 119.92 27.0238 119.654 27.1712C119.392 27.315 119.183 27.5164 119.029 27.7753C118.878 28.0341 118.802 28.3326 118.802 28.6706V33.3574H116.505ZM125.017 22.3118V33.3574H122.719V22.3118H125.017ZM129.219 33.5138C128.691 33.5138 128.22 33.4221 127.806 33.2387C127.393 33.0517 127.066 32.7767 126.825 32.4135C126.588 32.0468 126.469 31.5901 126.469 31.0436C126.469 30.5834 126.553 30.1969 126.722 29.8841C126.891 29.5712 127.121 29.3196 127.413 29.129C127.704 28.9384 128.035 28.7946 128.405 28.6975C128.779 28.6004 129.171 28.5321 129.581 28.4926C130.063 28.4422 130.451 28.3955 130.746 28.3524C131.041 28.3056 131.255 28.2373 131.388 28.1474C131.521 28.0575 131.587 27.9245 131.587 27.7483V27.7159C131.587 27.3744 131.479 27.1101 131.264 26.9231C131.051 26.7361 130.749 26.6427 130.357 26.6427C129.944 26.6427 129.615 26.7344 129.371 26.9177C129.126 27.0975 128.964 27.324 128.885 27.5973L126.76 27.4247C126.868 26.9213 127.08 26.4863 127.397 26.1195C127.713 25.7492 128.121 25.4651 128.621 25.2674C129.124 25.066 129.707 24.9653 130.368 24.9653C130.829 24.9653 131.269 25.0193 131.69 25.1271C132.114 25.235 132.49 25.4022 132.817 25.6287C133.148 25.8552 133.408 26.1465 133.599 26.5024C133.789 26.8548 133.885 27.2773 133.885 27.7699V33.3574H131.706V32.2086H131.641C131.508 32.4675 131.33 32.6958 131.107 32.8935C130.884 33.0877 130.616 33.2405 130.304 33.352C129.991 33.4598 129.629 33.5138 129.219 33.5138ZM129.877 31.9281C130.215 31.9281 130.514 31.8616 130.773 31.7286C131.032 31.5919 131.235 31.4086 131.382 31.1785C131.53 30.9483 131.603 30.6877 131.603 30.3964V29.5173C131.531 29.5641 131.433 29.6072 131.307 29.6467C131.184 29.6827 131.046 29.7169 130.891 29.7492C130.737 29.778 130.582 29.805 130.428 29.8301C130.273 29.8517 130.133 29.8715 130.007 29.8894C129.737 29.929 129.502 29.9919 129.3 30.0782C129.099 30.1645 128.943 30.2814 128.831 30.4288C128.72 30.5726 128.664 30.7524 128.664 30.9681C128.664 31.2809 128.777 31.52 129.004 31.6854C129.234 31.8472 129.525 31.9281 129.877 31.9281ZM135.667 36.4639V25.0732H137.932V26.4647H138.035C138.136 26.2418 138.281 26.0152 138.472 25.7851C138.666 25.5514 138.918 25.3573 139.227 25.2026C139.54 25.0444 139.928 24.9653 140.392 24.9653C140.996 24.9653 141.553 25.1235 142.064 25.44C142.574 25.7528 142.982 26.2256 143.288 26.8584C143.594 27.4876 143.746 28.2768 143.746 29.2261C143.746 30.1501 143.597 30.9304 143.299 31.5668C143.004 32.1996 142.601 32.6796 142.091 33.0068C141.584 33.3304 141.016 33.4922 140.386 33.4922C139.941 33.4922 139.561 33.4185 139.248 33.2711C138.939 33.1236 138.686 32.9385 138.488 32.7156C138.29 32.489 138.139 32.2607 138.035 32.0306H137.965V36.4639H135.667ZM137.916 29.2153C137.916 29.7079 137.985 30.1375 138.121 30.5043C138.258 30.871 138.456 31.1569 138.714 31.3618C138.973 31.5632 139.288 31.6639 139.658 31.6639C140.032 31.6639 140.349 31.5614 140.608 31.3564C140.866 31.1479 141.062 30.8602 141.195 30.4935C141.332 30.1232 141.4 29.6971 141.4 29.2153C141.4 28.7371 141.334 28.3164 141.201 27.9532C141.068 27.5901 140.872 27.306 140.613 27.1011C140.354 26.8962 140.036 26.7937 139.658 26.7937C139.284 26.7937 138.968 26.8926 138.709 27.0903C138.454 27.2881 138.258 27.5685 138.121 27.9317C137.985 28.2948 137.916 28.7227 137.916 29.2153Z" fill="#171A22"/>
<path opacity="0.5" fill-rule="evenodd" clip-rule="evenodd" d="M156.714 158.635C156.714 183.937 136.203 204.448 110.902 204.448C85.6001 204.448 65.0891 183.937 65.0891 158.635C65.0891 133.333 85.6001 112.822 110.902 112.822C136.203 112.822 156.714 133.333 156.714 158.635ZM110.902 200.708C134.138 200.708 152.975 181.871 152.975 158.635C152.975 135.399 134.138 116.562 110.902 116.562C87.6656 116.562 68.8289 135.399 68.8289 158.635C68.8289 181.871 87.6656 200.708 110.902 200.708Z" fill="white"/>
<path opacity="0.5" d="M152.975 158.635C152.975 181.871 134.138 200.708 110.902 200.708C87.6655 200.708 68.8289 181.871 68.8289 158.635C68.8289 135.399 87.6655 116.562 110.902 116.562C134.138 116.562 152.975 135.399 152.975 158.635Z" fill="#2BB3FF"/>
<path opacity="0.5" fill-rule="evenodd" clip-rule="evenodd" d="M123.943 96.6855C123.943 126.118 100.083 149.978 70.6504 149.978C41.2179 149.978 17.3582 126.118 17.3582 96.6855C17.3582 67.253 41.2179 43.3932 70.6504 43.3932C100.083 43.3932 123.943 67.253 123.943 96.6855ZM70.6504 146.238C98.0175 146.238 120.203 124.053 120.203 96.6855C120.203 69.3184 98.0175 47.1331 70.6504 47.1331C43.2833 47.1331 21.098 69.3184 21.098 96.6855C21.098 124.053 43.2833 146.238 70.6504 146.238Z" fill="white"/>
<path opacity="0.5" d="M120.203 96.6853C120.203 124.052 98.0174 146.238 70.6504 146.238C43.2833 146.238 21.0979 124.052 21.0979 96.6853C21.0979 69.3183 43.2833 47.1329 70.6504 47.1329C98.0174 47.1329 120.203 69.3183 120.203 96.6853Z" fill="#59DDAA"/>
<path opacity="0.5" d="M178.292 100.889C178.292 120.271 162.58 135.983 143.198 135.983C123.816 135.983 108.104 120.271 108.104 100.889C108.104 81.5072 123.816 65.795 143.198 65.795C162.58 65.795 178.292 81.5072 178.292 100.889Z" fill="#FF8C43" stroke="white" stroke-width="3.57994"/>
<rect x="206.118" y="72.6836" width="13.018" height="13.018" rx="4.33932" fill="#2BB3FF"/>
<path d="M229.232 84.9026C229.078 84.9026 228.94 84.8898 228.82 84.8641C228.699 84.841 228.616 84.8178 228.569 84.7947L228.8 83.9934C229.021 84.0499 229.216 84.0705 229.386 84.0551C229.555 84.0397 229.706 83.9639 229.837 83.8278C229.97 83.6942 230.092 83.4772 230.203 83.1767L230.372 82.7144L228.184 76.7664H229.17L230.804 81.4817H230.865L232.499 76.7664H233.485L230.973 83.5466C230.86 83.8522 230.72 84.1052 230.553 84.3055C230.386 84.5084 230.192 84.6586 229.972 84.7562C229.753 84.8538 229.507 84.9026 229.232 84.9026ZM236.335 82.8069C235.8 82.8069 235.332 82.6798 234.928 82.4255C234.528 82.1713 234.214 81.8156 233.988 81.3584C233.765 80.9013 233.653 80.3671 233.653 79.7558C233.653 79.1394 233.765 78.6014 233.988 78.1417C234.214 77.682 234.528 77.325 234.928 77.0707C235.332 76.8165 235.8 76.6893 236.335 76.6893C236.869 76.6893 237.336 76.8165 237.737 77.0707C238.14 77.325 238.453 77.682 238.677 78.1417C238.903 78.6014 239.016 79.1394 239.016 79.7558C239.016 80.3671 238.903 80.9013 238.677 81.3584C238.453 81.8156 238.14 82.1713 237.737 82.4255C237.336 82.6798 236.869 82.8069 236.335 82.8069ZM236.335 81.9902C236.74 81.9902 237.074 81.8862 237.336 81.6782C237.598 81.4701 237.792 81.1966 237.918 80.8576C238.044 80.5186 238.107 80.1513 238.107 79.7558C238.107 79.3603 238.044 78.9918 237.918 78.6502C237.792 78.3086 237.598 78.0325 237.336 77.8219C237.074 77.6113 236.74 77.506 236.335 77.506C235.929 77.506 235.595 77.6113 235.333 77.8219C235.071 78.0325 234.877 78.3086 234.751 78.6502C234.625 78.9918 234.562 79.3603 234.562 79.7558C234.562 80.1513 234.625 80.5186 234.751 80.8576C234.877 81.1966 235.071 81.4701 235.333 81.6782C235.595 81.8862 235.929 81.9902 236.335 81.9902ZM243.59 80.2643V76.7664H244.499V82.6836H243.59V81.682H243.529C243.39 81.9825 243.174 82.238 242.881 82.4486C242.589 82.6567 242.219 82.7607 241.772 82.7607C241.402 82.7607 241.073 82.6798 240.786 82.518C240.498 82.3536 240.272 82.1071 240.108 81.7783C239.943 81.447 239.861 81.0297 239.861 80.5263V76.7664H240.77V80.4647C240.77 80.8961 240.891 81.2403 241.132 81.4971C241.376 81.7539 241.687 81.8823 242.065 81.8823C242.291 81.8823 242.521 81.8245 242.754 81.709C242.991 81.5934 243.188 81.4162 243.348 81.1773C243.509 80.9385 243.59 80.6342 243.59 80.2643ZM245.622 82.6836V76.7664H246.501V77.6601H246.562C246.67 77.3673 246.865 77.1298 247.148 76.9474C247.43 76.7651 247.749 76.6739 248.103 76.6739C248.17 76.6739 248.253 76.6752 248.354 76.6778C248.454 76.6803 248.529 76.6842 248.581 76.6893V77.6139C248.55 77.6062 248.479 77.5946 248.369 77.5792C248.261 77.5612 248.147 77.5523 248.026 77.5523C247.738 77.5523 247.482 77.6126 247.256 77.7333C247.032 77.8515 246.855 78.0158 246.724 78.2264C246.596 78.4345 246.531 78.672 246.531 78.9391V82.6836H245.622ZM253.859 82.8069C253.366 82.8069 252.931 82.6823 252.553 82.4332C252.176 82.1815 251.88 81.8271 251.667 81.37C251.454 80.9102 251.347 80.3671 251.347 79.7404C251.347 79.1189 251.454 78.5796 251.667 78.1224C251.88 77.6653 252.177 77.3121 252.557 77.063C252.937 76.8139 253.376 76.6893 253.875 76.6893C254.26 76.6893 254.564 76.7535 254.788 76.8819C255.014 77.0078 255.186 77.1516 255.304 77.3134C255.425 77.4726 255.518 77.6036 255.585 77.7064H255.662V74.794H256.571V82.6836H255.693V81.7745H255.585C255.518 81.8823 255.423 82.0184 255.3 82.1828C255.177 82.3446 255.001 82.4897 254.772 82.6181C254.544 82.744 254.239 82.8069 253.859 82.8069ZM253.982 81.9902C254.347 81.9902 254.655 81.8952 254.907 81.7051C255.159 81.5125 255.35 81.2467 255.481 80.9077C255.612 80.5661 255.678 80.1719 255.678 79.725C255.678 79.2833 255.613 78.8967 255.485 78.5654C255.356 78.2316 255.166 77.9722 254.915 77.7873C254.663 77.5998 254.352 77.506 253.982 77.506C253.597 77.506 253.276 77.6049 253.019 77.8027C252.765 77.9978 252.574 78.2637 252.445 78.6001C252.32 78.934 252.257 79.3089 252.257 79.725C252.257 80.1462 252.321 80.5289 252.449 80.873C252.58 81.2146 252.773 81.4868 253.027 81.6897C253.284 81.89 253.602 81.9902 253.982 81.9902ZM260.224 82.8069C259.69 82.8069 259.221 82.6798 258.818 82.4255C258.417 82.1713 258.104 81.8156 257.878 81.3584C257.655 80.9013 257.543 80.3671 257.543 79.7558C257.543 79.1394 257.655 78.6014 257.878 78.1417C258.104 77.682 258.417 77.325 258.818 77.0707C259.221 76.8165 259.69 76.6893 260.224 76.6893C260.758 76.6893 261.226 76.8165 261.626 77.0707C262.03 77.325 262.343 77.682 262.566 78.1417C262.792 78.6014 262.905 79.1394 262.905 79.7558C262.905 80.3671 262.792 80.9013 262.566 81.3584C262.343 81.8156 262.03 82.1713 261.626 82.4255C261.226 82.6798 260.758 82.8069 260.224 82.8069ZM260.224 81.9902C260.63 81.9902 260.964 81.8862 261.226 81.6782C261.488 81.4701 261.682 81.1966 261.807 80.8576C261.933 80.5186 261.996 80.1513 261.996 79.7558C261.996 79.3603 261.933 78.9918 261.807 78.6502C261.682 78.3086 261.488 78.0325 261.226 77.8219C260.964 77.6113 260.63 77.506 260.224 77.506C259.818 77.506 259.484 77.6113 259.222 77.8219C258.96 78.0325 258.767 78.3086 258.641 78.6502C258.515 78.9918 258.452 79.3603 258.452 79.7558C258.452 80.1513 258.515 80.5186 258.641 80.8576C258.767 81.1966 258.96 81.4701 259.222 81.6782C259.484 81.8862 259.818 81.9902 260.224 81.9902ZM263.751 82.6836V76.7664H264.629V77.6909H264.706C264.829 77.375 265.028 77.1298 265.303 76.9551C265.578 76.7779 265.908 76.6893 266.293 76.6893C266.684 76.6893 267.009 76.7779 267.268 76.9551C267.53 77.1298 267.734 77.375 267.88 77.6909H267.942C268.094 77.3853 268.321 77.1426 268.624 76.9628C268.927 76.7805 269.29 76.6893 269.714 76.6893C270.243 76.6893 270.676 76.855 271.012 77.1863C271.349 77.515 271.517 78.0274 271.517 78.7234V82.6836H270.608V78.7234C270.608 78.2868 270.489 77.9747 270.25 77.7873C270.011 77.5998 269.73 77.506 269.406 77.506C268.99 77.506 268.668 77.6319 268.439 77.8836C268.211 78.1327 268.096 78.4486 268.096 78.8312V82.6836H267.172V78.6309C267.172 78.2945 267.063 78.0235 266.844 77.8181C266.626 77.61 266.345 77.506 266.001 77.506C265.764 77.506 265.543 77.5689 265.338 77.6948C265.135 77.8206 264.971 77.9953 264.845 78.2187C264.722 78.4396 264.66 78.6951 264.66 78.9853V82.6836H263.751ZM274.378 82.8223C274.003 82.8223 273.663 82.7517 273.357 82.6104C273.052 82.4666 272.809 82.2599 272.629 81.9902C272.45 81.718 272.36 81.3892 272.36 81.004C272.36 80.665 272.426 80.3902 272.56 80.1796C272.694 79.9664 272.872 79.7995 273.095 79.6788C273.319 79.5581 273.565 79.4682 273.835 79.4091C274.107 79.3475 274.381 79.2987 274.656 79.2627C275.015 79.2165 275.307 79.1818 275.53 79.1587C275.756 79.133 275.921 79.0906 276.023 79.0316C276.129 78.9725 276.181 78.8698 276.181 78.7234V78.6926C276.181 78.3125 276.077 78.0171 275.869 77.8065C275.664 77.5959 275.352 77.4906 274.933 77.4906C274.499 77.4906 274.159 77.5856 273.912 77.7757C273.666 77.9657 273.492 78.1686 273.392 78.3844L272.529 78.0762C272.683 77.7166 272.889 77.4367 273.146 77.2364C273.405 77.0335 273.687 76.8922 273.993 76.8126C274.301 76.7304 274.604 76.6893 274.902 76.6893C275.092 76.6893 275.311 76.7124 275.557 76.7587C275.806 76.8023 276.046 76.8935 276.278 77.0322C276.511 77.1709 276.705 77.3802 276.859 77.6601C277.013 77.9401 277.09 78.315 277.09 78.785V82.6836H276.181V81.8823H276.135C276.073 82.0107 275.971 82.1481 275.827 82.2945C275.683 82.4409 275.492 82.5655 275.253 82.6682C275.014 82.7709 274.722 82.8223 274.378 82.8223ZM274.517 82.0056C274.877 82.0056 275.18 81.935 275.426 81.7937C275.675 81.6525 275.863 81.4701 275.989 81.2467C276.117 81.0232 276.181 80.7883 276.181 80.5417V79.7096C276.143 79.7558 276.058 79.7982 275.927 79.8367C275.799 79.8727 275.65 79.9048 275.48 79.933C275.313 79.9587 275.15 79.9818 274.991 80.0024C274.834 80.0203 274.707 80.0358 274.609 80.0486C274.373 80.0794 274.152 80.1295 273.947 80.1988C273.744 80.2656 273.58 80.3671 273.454 80.5032C273.33 80.6367 273.269 80.8191 273.269 81.0502C273.269 81.3661 273.386 81.605 273.619 81.7668C273.856 81.926 274.155 82.0056 274.517 82.0056ZM278.207 82.6836V76.7664H279.117V82.6836H278.207ZM278.67 75.7802C278.492 75.7802 278.34 75.7198 278.211 75.5991C278.085 75.4784 278.022 75.3333 278.022 75.1638C278.022 74.9943 278.085 74.8492 278.211 74.7285C278.34 74.6078 278.492 74.5474 278.67 74.5474C278.847 74.5474 278.998 74.6078 279.124 74.7285C279.253 74.8492 279.317 74.9943 279.317 75.1638C279.317 75.3333 279.253 75.4784 279.124 75.5991C278.998 75.7198 278.847 75.7802 278.67 75.7802ZM281.148 79.124V82.6836H280.239V76.7664H281.118V77.6909H281.195C281.333 77.3905 281.544 77.149 281.826 76.9667C282.109 76.7818 282.474 76.6893 282.921 76.6893C283.321 76.6893 283.672 76.7715 283.972 76.9359C284.273 77.0977 284.506 77.3442 284.673 77.6755C284.84 78.0043 284.924 78.4203 284.924 78.9237V82.6836H284.015V78.9853C284.015 78.5205 283.894 78.1584 283.653 77.899C283.411 77.637 283.08 77.506 282.659 77.506C282.368 77.506 282.109 77.5689 281.88 77.6948C281.654 77.8206 281.476 78.0043 281.345 78.2457C281.214 78.4871 281.148 78.7799 281.148 79.124Z" fill="#484A54"/>
<path d="M305.619 75.3029V83.1926H304.664V76.3045H304.618L302.692 77.5835V76.6127L304.664 75.3029H305.619ZM309.019 83.2542C308.829 83.2542 308.666 83.1862 308.53 83.0501C308.394 82.9139 308.325 82.7509 308.325 82.5608C308.325 82.3708 308.394 82.2077 308.53 82.0716C308.666 81.9354 308.829 81.8674 309.019 81.8674C309.209 81.8674 309.372 81.9354 309.508 82.0716C309.644 82.2077 309.712 82.3708 309.712 82.5608C309.712 82.6867 309.68 82.8022 309.616 82.9075C309.554 83.0128 309.471 83.0976 309.366 83.1618C309.263 83.2234 309.147 83.2542 309.019 83.2542ZM313.483 83.3005C312.902 83.3005 312.408 83.1425 311.999 82.8266C311.591 82.5082 311.279 82.0472 311.063 81.4436C310.848 80.8375 310.74 80.1056 310.74 79.2478C310.74 78.3951 310.848 77.667 311.063 77.0635C311.282 76.4574 311.595 75.9951 312.003 75.6766C312.414 75.3556 312.907 75.1951 313.483 75.1951C314.058 75.1951 314.55 75.3556 314.958 75.6766C315.369 75.9951 315.682 76.4574 315.898 77.0635C316.116 77.667 316.226 78.3951 316.226 79.2478C316.226 80.1056 316.118 80.8375 315.902 81.4436C315.686 82.0472 315.374 82.5082 314.966 82.8266C314.557 83.1425 314.063 83.3005 313.483 83.3005ZM313.483 82.4529C314.058 82.4529 314.505 82.1756 314.823 81.6208C315.142 81.0661 315.301 80.2751 315.301 79.2478C315.301 78.5646 315.228 77.9829 315.081 77.5026C314.938 77.0224 314.73 76.6564 314.457 76.4047C314.188 76.153 313.863 76.0272 313.483 76.0272C312.912 76.0272 312.467 76.3084 312.146 76.8708C311.825 77.4307 311.664 78.223 311.664 79.2478C311.664 79.9309 311.736 80.5113 311.88 80.989C312.024 81.4667 312.231 81.8301 312.5 82.0793C312.773 82.3284 313.1 82.4529 313.483 82.4529ZM320.01 83.3005C319.687 83.2953 319.363 83.2337 319.039 83.1155C318.716 82.9974 318.421 82.7984 318.153 82.5184C317.886 82.2359 317.672 81.8545 317.51 81.3743C317.348 80.8914 317.267 80.2853 317.267 79.556C317.267 78.8574 317.333 78.2384 317.464 77.6991C317.595 77.1572 317.785 76.7013 318.034 76.3315C318.283 75.9591 318.584 75.6766 318.935 75.484C319.29 75.2914 319.689 75.1951 320.134 75.1951C320.575 75.1951 320.968 75.2837 321.312 75.4609C321.659 75.6355 321.942 75.8795 322.16 76.1928C322.378 76.5062 322.519 76.867 322.584 77.2753H321.644C321.556 76.9209 321.387 76.6269 321.135 76.3931C320.884 76.1594 320.55 76.0426 320.134 76.0426C319.522 76.0426 319.041 76.3084 318.689 76.84C318.34 77.3717 318.164 78.1177 318.161 79.0783H318.223C318.367 78.86 318.537 78.6738 318.735 78.5197C318.935 78.363 319.156 78.2423 319.398 78.1575C319.639 78.0728 319.895 78.0304 320.164 78.0304C320.616 78.0304 321.03 78.1434 321.405 78.3694C321.78 78.5929 322.08 78.9023 322.306 79.2978C322.532 79.6908 322.645 80.1415 322.645 80.65C322.645 81.138 322.536 81.5849 322.318 81.9907C322.1 82.3939 321.793 82.7149 321.397 82.9537C321.004 83.19 320.542 83.3056 320.01 83.3005ZM320.01 82.4529C320.334 82.4529 320.624 82.372 320.881 82.2102C321.14 82.0484 321.345 81.8314 321.493 81.5592C321.645 81.287 321.721 80.9839 321.721 80.65C321.721 80.3239 321.648 80.0272 321.501 79.7601C321.357 79.4905 321.158 79.276 320.904 79.1168C320.652 78.9575 320.365 78.8779 320.041 78.8779C319.797 78.8779 319.57 78.9267 319.359 79.0243C319.149 79.1193 318.964 79.2503 318.805 79.4173C318.648 79.5842 318.525 79.7755 318.435 79.9913C318.345 80.2044 318.3 80.4292 318.3 80.6654C318.3 80.9788 318.373 81.2715 318.519 81.5438C318.668 81.816 318.871 82.0356 319.128 82.2025C319.387 82.3695 319.682 82.4529 320.01 82.4529ZM323.888 75.3029H325.028L327.709 81.852H327.802L330.483 75.3029H331.623V83.1926H330.729V77.1983H330.652L328.187 83.1926H327.324L324.858 77.1983H324.781V83.1926H323.888V75.3029Z" fill="#484A54"/>
<rect x="206.118" y="94.3802" width="13.018" height="13.018" rx="4.33932" fill="#59DDAA"/>
<path d="M231.05 104.503C230.495 104.503 230.018 104.373 229.617 104.111C229.216 103.849 228.908 103.488 228.693 103.028C228.477 102.568 228.369 102.043 228.369 101.452C228.369 100.851 228.479 100.321 228.7 99.8614C228.924 99.3991 229.234 99.0383 229.633 98.7789C230.033 98.5169 230.501 98.3859 231.035 98.3859C231.451 98.3859 231.826 98.463 232.16 98.6171C232.494 98.7712 232.767 98.9869 232.98 99.2643C233.193 99.5416 233.326 99.8652 233.377 100.235H232.468C232.399 99.9654 232.244 99.7265 232.006 99.5185C231.769 99.3079 231.451 99.2026 231.05 99.2026C230.696 99.2026 230.385 99.2951 230.118 99.48C229.853 99.6623 229.647 99.9204 229.498 100.254C229.351 100.586 229.278 100.975 229.278 101.422C229.278 101.879 229.35 102.277 229.494 102.616C229.64 102.955 229.846 103.218 230.11 103.406C230.377 103.593 230.691 103.687 231.05 103.687C231.286 103.687 231.501 103.646 231.694 103.564C231.886 103.481 232.049 103.363 232.183 103.209C232.316 103.055 232.411 102.87 232.468 102.654H233.377C233.326 103.004 233.199 103.318 232.996 103.598C232.795 103.876 232.53 104.096 232.198 104.261C231.869 104.423 231.487 104.503 231.05 104.503ZM236.568 104.503C236.033 104.503 235.565 104.376 235.161 104.122C234.761 103.868 234.447 103.512 234.221 103.055C233.998 102.598 233.886 102.064 233.886 101.452C233.886 100.836 233.998 100.298 234.221 99.8383C234.447 99.3785 234.761 99.0216 235.161 98.7673C235.565 98.513 236.033 98.3859 236.568 98.3859C237.102 98.3859 237.569 98.513 237.97 98.7673C238.373 99.0216 238.686 99.3785 238.91 99.8383C239.136 100.298 239.249 100.836 239.249 101.452C239.249 102.064 239.136 102.598 238.91 103.055C238.686 103.512 238.373 103.868 237.97 104.122C237.569 104.376 237.102 104.503 236.568 104.503ZM236.568 103.687C236.973 103.687 237.307 103.583 237.569 103.375C237.831 103.167 238.025 102.893 238.151 102.554C238.277 102.215 238.34 101.848 238.34 101.452C238.34 101.057 238.277 100.688 238.151 100.347C238.025 100.005 237.831 99.7291 237.569 99.5185C237.307 99.3079 236.973 99.2026 236.568 99.2026C236.162 99.2026 235.828 99.3079 235.566 99.5185C235.304 99.7291 235.11 100.005 234.984 100.347C234.858 100.688 234.795 101.057 234.795 101.452C234.795 101.848 234.858 102.215 234.984 102.554C235.11 102.893 235.304 103.167 235.566 103.375C235.828 103.583 236.162 103.687 236.568 103.687ZM240.094 104.38V98.463H240.973V99.3875H241.05C241.173 99.0716 241.372 98.8264 241.647 98.6517C241.922 98.4745 242.252 98.3859 242.637 98.3859C243.027 98.3859 243.352 98.4745 243.611 98.6517C243.873 98.8264 244.078 99.0716 244.224 99.3875H244.286C244.437 99.0819 244.664 98.8392 244.968 98.6594C245.271 98.4771 245.634 98.3859 246.058 98.3859C246.587 98.3859 247.02 98.5516 247.356 98.8829C247.692 99.2116 247.861 99.724 247.861 100.42V104.38H246.951V100.42C246.951 99.9834 246.832 99.6713 246.593 99.4838C246.354 99.2964 246.073 99.2026 245.75 99.2026C245.333 99.2026 245.011 99.3285 244.783 99.5802C244.554 99.8293 244.44 100.145 244.44 100.528V104.38H243.515V100.328C243.515 99.9911 243.406 99.7201 243.188 99.5147C242.969 99.3066 242.688 99.2026 242.344 99.2026C242.108 99.2026 241.887 99.2655 241.681 99.3914C241.479 99.5172 241.314 99.6919 241.188 99.9153C241.065 100.136 241.003 100.392 241.003 100.682V104.38H240.094ZM248.981 106.599V98.463H249.859V99.4029H249.967C250.034 99.3002 250.126 99.1692 250.244 99.01C250.365 98.8482 250.537 98.7044 250.76 98.5785C250.986 98.4501 251.292 98.3859 251.677 98.3859C252.175 98.3859 252.615 98.5105 252.995 98.7596C253.375 99.0087 253.671 99.3619 253.885 99.819C254.098 100.276 254.204 100.815 254.204 101.437C254.204 102.064 254.098 102.607 253.885 103.067C253.671 103.524 253.376 103.878 252.999 104.13C252.621 104.379 252.186 104.503 251.693 104.503C251.312 104.503 251.008 104.441 250.78 104.315C250.551 104.186 250.375 104.041 250.252 103.879C250.129 103.715 250.034 103.579 249.967 103.471H249.89V106.599H248.981ZM249.874 101.422C249.874 101.868 249.94 102.263 250.071 102.604C250.202 102.943 250.393 103.209 250.645 103.402C250.896 103.592 251.205 103.687 251.569 103.687C251.949 103.687 252.267 103.587 252.521 103.386C252.778 103.183 252.97 102.911 253.099 102.57C253.23 102.225 253.295 101.843 253.295 101.422C253.295 101.006 253.231 100.631 253.103 100.297C252.977 99.9603 252.785 99.6944 252.529 99.4993C252.274 99.3015 251.955 99.2026 251.569 99.2026C251.199 99.2026 250.889 99.2964 250.637 99.4838C250.385 99.6688 250.195 99.9282 250.067 100.262C249.938 100.593 249.874 100.98 249.874 101.422ZM257.53 104.503C256.96 104.503 256.468 104.378 256.054 104.126C255.643 103.872 255.326 103.517 255.103 103.063C254.882 102.606 254.771 102.074 254.771 101.468C254.771 100.862 254.882 100.328 255.103 99.8652C255.326 99.4004 255.637 99.0383 256.035 98.7789C256.436 98.5169 256.903 98.3859 257.437 98.3859C257.745 98.3859 258.05 98.4373 258.35 98.54C258.651 98.6427 258.924 98.8097 259.171 99.0408C259.417 99.2694 259.614 99.5724 259.76 99.95C259.907 100.328 259.98 100.792 259.98 101.345V101.73H255.419V100.944H259.055C259.055 100.61 258.988 100.312 258.855 100.05C258.724 99.7882 258.536 99.5814 258.292 99.4299C258.051 99.2784 257.766 99.2026 257.437 99.2026C257.075 99.2026 256.762 99.2925 256.497 99.4723C256.235 99.6495 256.034 99.8806 255.892 100.166C255.751 100.451 255.681 100.756 255.681 101.083V101.607C255.681 102.053 255.758 102.432 255.912 102.743C256.068 103.051 256.285 103.286 256.563 103.448C256.84 103.607 257.162 103.687 257.53 103.687C257.769 103.687 257.984 103.653 258.177 103.587C258.372 103.517 258.54 103.415 258.682 103.278C258.823 103.14 258.932 102.968 259.009 102.762L259.887 103.009C259.795 103.307 259.64 103.569 259.421 103.795C259.203 104.018 258.933 104.193 258.612 104.319C258.291 104.442 257.93 104.503 257.53 104.503ZM263.394 98.463V99.2334H260.327V98.463H263.394ZM261.221 97.0453H262.13V102.685C262.13 102.942 262.167 103.135 262.242 103.263C262.319 103.389 262.417 103.474 262.535 103.517C262.655 103.558 262.783 103.579 262.916 103.579C263.016 103.579 263.098 103.574 263.163 103.564C263.227 103.551 263.278 103.54 263.317 103.533L263.502 104.349C263.44 104.373 263.354 104.396 263.244 104.419C263.133 104.444 262.993 104.457 262.824 104.457C262.567 104.457 262.315 104.402 262.069 104.292C261.825 104.181 261.622 104.013 261.46 103.787C261.301 103.561 261.221 103.276 261.221 102.932V97.0453ZM264.219 104.38V98.463H265.128V104.38H264.219ZM264.681 97.4768C264.504 97.4768 264.351 97.4164 264.223 97.2957C264.097 97.175 264.034 97.0299 264.034 96.8604C264.034 96.6909 264.097 96.5458 264.223 96.4251C264.351 96.3043 264.504 96.244 264.681 96.244C264.858 96.244 265.01 96.3043 265.136 96.4251C265.264 96.5458 265.328 96.6909 265.328 96.8604C265.328 97.0299 265.264 97.175 265.136 97.2957C265.01 97.4164 264.858 97.4768 264.681 97.4768ZM268.824 98.463V99.2334H265.758V98.463H268.824ZM266.652 97.0453H267.561V102.685C267.561 102.942 267.598 103.135 267.672 103.263C267.75 103.389 267.847 103.474 267.965 103.517C268.086 103.558 268.213 103.579 268.347 103.579C268.447 103.579 268.529 103.574 268.593 103.564C268.657 103.551 268.709 103.54 268.747 103.533L268.932 104.349C268.871 104.373 268.785 104.396 268.674 104.419C268.564 104.444 268.424 104.457 268.254 104.457C267.997 104.457 267.746 104.402 267.499 104.292C267.255 104.181 267.052 104.013 266.89 103.787C266.731 103.561 266.652 103.276 266.652 102.932V97.0453ZM271.99 104.503C271.456 104.503 270.987 104.376 270.584 104.122C270.183 103.868 269.87 103.512 269.644 103.055C269.42 102.598 269.309 102.064 269.309 101.452C269.309 100.836 269.42 100.298 269.644 99.8383C269.87 99.3785 270.183 99.0216 270.584 98.7673C270.987 98.513 271.456 98.3859 271.99 98.3859C272.524 98.3859 272.991 98.513 273.392 98.7673C273.795 99.0216 274.109 99.3785 274.332 99.8383C274.558 100.298 274.671 100.836 274.671 101.452C274.671 102.064 274.558 102.598 274.332 103.055C274.109 103.512 273.795 103.868 273.392 104.122C272.991 104.376 272.524 104.503 271.99 104.503ZM271.99 103.687C272.396 103.687 272.729 103.583 272.991 103.375C273.253 103.167 273.447 102.893 273.573 102.554C273.699 102.215 273.762 101.848 273.762 101.452C273.762 101.057 273.699 100.688 273.573 100.347C273.447 100.005 273.253 99.7291 272.991 99.5185C272.729 99.3079 272.396 99.2026 271.99 99.2026C271.584 99.2026 271.25 99.3079 270.988 99.5185C270.726 99.7291 270.532 100.005 270.406 100.347C270.281 100.688 270.218 101.057 270.218 101.452C270.218 101.848 270.281 102.215 270.406 102.554C270.532 102.893 270.726 103.167 270.988 103.375C271.25 103.583 271.584 103.687 271.99 103.687ZM275.516 104.38V98.463H276.395V99.3567H276.456C276.564 99.0639 276.76 98.8264 277.042 98.644C277.325 98.4617 277.643 98.3705 277.997 98.3705C278.064 98.3705 278.148 98.3718 278.248 98.3744C278.348 98.3769 278.424 98.3808 278.475 98.3859V99.3105C278.444 99.3028 278.374 99.2912 278.263 99.2758C278.155 99.2578 278.041 99.2489 277.92 99.2489C277.633 99.2489 277.376 99.3092 277.15 99.4299C276.926 99.5481 276.749 99.7124 276.618 99.923C276.49 100.131 276.426 100.369 276.426 100.636V104.38H275.516Z" fill="#484A54"/>
<path d="M305.619 96.9995V104.889H304.664V98.0011H304.618L302.692 99.2801V98.3093L304.664 96.9995H305.619ZM309.019 104.951C308.829 104.951 308.666 104.883 308.53 104.747C308.394 104.611 308.325 104.447 308.325 104.257C308.325 104.067 308.394 103.904 308.53 103.768C308.666 103.632 308.829 103.564 309.019 103.564C309.209 103.564 309.372 103.632 309.508 103.768C309.644 103.904 309.712 104.067 309.712 104.257C309.712 104.383 309.68 104.499 309.616 104.604C309.554 104.709 309.471 104.794 309.366 104.858C309.263 104.92 309.147 104.951 309.019 104.951ZM313.483 104.997C312.902 104.997 312.408 104.839 311.999 104.523C311.591 104.205 311.279 103.744 311.063 103.14C310.848 102.534 310.74 101.802 310.74 100.944C310.74 100.092 310.848 99.3636 311.063 98.7601C311.282 98.1539 311.595 97.6917 312.003 97.3732C312.414 97.0522 312.907 96.8917 313.483 96.8917C314.058 96.8917 314.55 97.0522 314.958 97.3732C315.369 97.6917 315.682 98.1539 315.898 98.7601C316.116 99.3636 316.226 100.092 316.226 100.944C316.226 101.802 316.118 102.534 315.902 103.14C315.686 103.744 315.374 104.205 314.966 104.523C314.557 104.839 314.063 104.997 313.483 104.997ZM313.483 104.15C314.058 104.15 314.505 103.872 314.823 103.317C315.142 102.763 315.301 101.972 315.301 100.944C315.301 100.261 315.228 99.6795 315.081 99.1992C314.938 98.719 314.73 98.353 314.457 98.1013C314.188 97.8496 313.863 97.7238 313.483 97.7238C312.912 97.7238 312.467 98.005 312.146 98.5674C311.825 99.1273 311.664 99.9196 311.664 100.944C311.664 101.628 311.736 102.208 311.88 102.686C312.024 103.163 312.231 103.527 312.5 103.776C312.773 104.025 313.1 104.15 313.483 104.15ZM320.01 104.997C319.687 104.992 319.363 104.93 319.039 104.812C318.716 104.694 318.421 104.495 318.153 104.215C317.886 103.933 317.672 103.551 317.51 103.071C317.348 102.588 317.267 101.982 317.267 101.253C317.267 100.554 317.333 99.935 317.464 99.3957C317.595 98.8538 317.785 98.3979 318.034 98.0281C318.283 97.6557 318.584 97.3732 318.935 97.1806C319.29 96.988 319.689 96.8917 320.134 96.8917C320.575 96.8917 320.968 96.9803 321.312 97.1575C321.659 97.3321 321.942 97.5761 322.16 97.8894C322.378 98.2027 322.519 98.5636 322.584 98.9719H321.644C321.556 98.6175 321.387 98.3235 321.135 98.0897C320.884 97.856 320.55 97.7392 320.134 97.7392C319.522 97.7392 319.041 98.005 318.689 98.5366C318.34 99.0682 318.164 99.8143 318.161 100.775H318.223C318.367 100.557 318.537 100.37 318.735 100.216C318.935 100.06 319.156 99.9389 319.398 99.8541C319.639 99.7694 319.895 99.727 320.164 99.727C320.616 99.727 321.03 99.84 321.405 100.066C321.78 100.289 322.08 100.599 322.306 100.994C322.532 101.387 322.645 101.838 322.645 102.347C322.645 102.835 322.536 103.281 322.318 103.687C322.1 104.09 321.793 104.411 321.397 104.65C321.004 104.887 320.542 105.002 320.01 104.997ZM320.01 104.15C320.334 104.15 320.624 104.069 320.881 103.907C321.14 103.745 321.345 103.528 321.493 103.256C321.645 102.984 321.721 102.68 321.721 102.347C321.721 102.02 321.648 101.724 321.501 101.457C321.357 101.187 321.158 100.973 320.904 100.813C320.652 100.654 320.365 100.575 320.041 100.575C319.797 100.575 319.57 100.623 319.359 100.721C319.149 100.816 318.964 100.947 318.805 101.114C318.648 101.281 318.525 101.472 318.435 101.688C318.345 101.901 318.3 102.126 318.3 102.362C318.3 102.675 318.373 102.968 318.519 103.24C318.668 103.513 318.871 103.732 319.128 103.899C319.387 104.066 319.682 104.15 320.01 104.15ZM323.888 96.9995H325.028L327.709 103.549H327.802L330.483 96.9995H331.623V104.889H330.729V98.8949H330.652L328.187 104.889H327.324L324.858 98.8949H324.781V104.889H323.888V96.9995Z" fill="#484A54"/>
<rect x="206.118" y="116.077" width="13.018" height="13.018" rx="4.33932" fill="#FF8C43"/>
<path d="M231.05 126.2C230.495 126.2 230.018 126.069 229.617 125.807C229.216 125.545 228.908 125.184 228.693 124.725C228.477 124.265 228.369 123.74 228.369 123.149C228.369 122.548 228.479 122.018 228.7 121.558C228.924 121.096 229.234 120.735 229.633 120.475C230.033 120.213 230.501 120.083 231.035 120.083C231.451 120.083 231.826 120.16 232.16 120.314C232.494 120.468 232.767 120.683 232.98 120.961C233.193 121.238 233.326 121.562 233.377 121.932H232.468C232.399 121.662 232.244 121.423 232.006 121.215C231.769 121.005 231.451 120.899 231.05 120.899C230.696 120.899 230.385 120.992 230.118 121.177C229.853 121.359 229.647 121.617 229.498 121.951C229.351 122.282 229.278 122.671 229.278 123.118C229.278 123.575 229.35 123.973 229.494 124.312C229.64 124.651 229.846 124.915 230.11 125.102C230.377 125.29 230.691 125.383 231.05 125.383C231.286 125.383 231.501 125.342 231.694 125.26C231.886 125.178 232.049 125.06 232.183 124.906C232.316 124.752 232.411 124.567 232.468 124.351H233.377C233.326 124.7 233.199 125.015 232.996 125.295C232.795 125.572 232.53 125.793 232.198 125.957C231.869 126.119 231.487 126.2 231.05 126.2ZM236.568 126.2C236.033 126.2 235.565 126.073 235.161 125.819C234.761 125.564 234.447 125.209 234.221 124.752C233.998 124.294 233.886 123.76 233.886 123.149C233.886 122.533 233.998 121.995 234.221 121.535C234.447 121.075 234.761 120.718 235.161 120.464C235.565 120.21 236.033 120.083 236.568 120.083C237.102 120.083 237.569 120.21 237.97 120.464C238.373 120.718 238.686 121.075 238.91 121.535C239.136 121.995 239.249 122.533 239.249 123.149C239.249 123.76 239.136 124.294 238.91 124.752C238.686 125.209 238.373 125.564 237.97 125.819C237.569 126.073 237.102 126.2 236.568 126.2ZM236.568 125.383C236.973 125.383 237.307 125.279 237.569 125.071C237.831 124.863 238.025 124.59 238.151 124.251C238.277 123.912 238.34 123.545 238.34 123.149C238.34 122.753 238.277 122.385 238.151 122.043C238.025 121.702 237.831 121.426 237.569 121.215C237.307 121.005 236.973 120.899 236.568 120.899C236.162 120.899 235.828 121.005 235.566 121.215C235.304 121.426 235.11 121.702 234.984 122.043C234.858 122.385 234.795 122.753 234.795 123.149C234.795 123.545 234.858 123.912 234.984 124.251C235.11 124.59 235.304 124.863 235.566 125.071C235.828 125.279 236.162 125.383 236.568 125.383ZM240.094 126.077V120.16H240.973V121.084H241.05C241.173 120.768 241.372 120.523 241.647 120.348C241.922 120.171 242.252 120.083 242.637 120.083C243.027 120.083 243.352 120.171 243.611 120.348C243.873 120.523 244.078 120.768 244.224 121.084H244.286C244.437 120.779 244.664 120.536 244.968 120.356C245.271 120.174 245.634 120.083 246.058 120.083C246.587 120.083 247.02 120.248 247.356 120.579C247.692 120.908 247.861 121.421 247.861 122.117V126.077H246.951V122.117C246.951 121.68 246.832 121.368 246.593 121.18C246.354 120.993 246.073 120.899 245.75 120.899C245.333 120.899 245.011 121.025 244.783 121.277C244.554 121.526 244.44 121.842 244.44 122.224V126.077H243.515V122.024C243.515 121.688 243.406 121.417 243.188 121.211C242.969 121.003 242.688 120.899 242.344 120.899C242.108 120.899 241.887 120.962 241.681 121.088C241.479 121.214 241.314 121.388 241.188 121.612C241.065 121.833 241.003 122.088 241.003 122.379V126.077H240.094ZM248.981 128.296V120.16H249.859V121.1H249.967C250.034 120.997 250.126 120.866 250.244 120.707C250.365 120.545 250.537 120.401 250.76 120.275C250.986 120.147 251.292 120.083 251.677 120.083C252.175 120.083 252.615 120.207 252.995 120.456C253.375 120.705 253.671 121.058 253.885 121.516C254.098 121.973 254.204 122.512 254.204 123.134C254.204 123.76 254.098 124.303 253.885 124.763C253.671 125.22 253.376 125.575 252.999 125.826C252.621 126.076 252.186 126.2 251.693 126.2C251.312 126.2 251.008 126.137 250.78 126.011C250.551 125.883 250.375 125.738 250.252 125.576C250.129 125.412 250.034 125.276 249.967 125.168H249.89V128.296H248.981ZM249.874 123.118C249.874 123.565 249.94 123.959 250.071 124.301C250.202 124.64 250.393 124.906 250.645 125.098C250.896 125.288 251.205 125.383 251.569 125.383C251.949 125.383 252.267 125.283 252.521 125.083C252.778 124.88 252.97 124.608 253.099 124.266C253.23 123.922 253.295 123.539 253.295 123.118C253.295 122.702 253.231 122.327 253.103 121.993C252.977 121.657 252.785 121.391 252.529 121.196C252.274 120.998 251.955 120.899 251.569 120.899C251.199 120.899 250.889 120.993 250.637 121.18C250.385 121.365 250.195 121.625 250.067 121.959C249.938 122.29 249.874 122.676 249.874 123.118ZM257.53 126.2C256.96 126.2 256.468 126.074 256.054 125.823C255.643 125.568 255.326 125.214 255.103 124.759C254.882 124.302 254.771 123.771 254.771 123.164C254.771 122.558 254.882 122.024 255.103 121.562C255.326 121.097 255.637 120.735 256.035 120.475C256.436 120.213 256.903 120.083 257.437 120.083C257.745 120.083 258.05 120.134 258.35 120.237C258.651 120.339 258.924 120.506 259.171 120.737C259.417 120.966 259.614 121.269 259.76 121.647C259.907 122.024 259.98 122.489 259.98 123.041V123.426H255.419V122.64H259.055C259.055 122.307 258.988 122.009 258.855 121.747C258.724 121.485 258.536 121.278 258.292 121.127C258.051 120.975 257.766 120.899 257.437 120.899C257.075 120.899 256.762 120.989 256.497 121.169C256.235 121.346 256.034 121.577 255.892 121.862C255.751 122.147 255.681 122.453 255.681 122.779V123.303C255.681 123.75 255.758 124.129 255.912 124.44C256.068 124.748 256.285 124.983 256.563 125.145C256.84 125.304 257.162 125.383 257.53 125.383C257.769 125.383 257.984 125.35 258.177 125.283C258.372 125.214 258.54 125.111 258.682 124.975C258.823 124.836 258.932 124.664 259.009 124.459L259.887 124.705C259.795 125.003 259.64 125.265 259.421 125.491C259.203 125.715 258.933 125.889 258.612 126.015C258.291 126.138 257.93 126.2 257.53 126.2ZM263.394 120.16V120.93H260.327V120.16H263.394ZM261.221 118.742H262.13V124.382C262.13 124.639 262.167 124.831 262.242 124.96C262.319 125.085 262.417 125.17 262.535 125.214C262.655 125.255 262.783 125.276 262.916 125.276C263.016 125.276 263.098 125.27 263.163 125.26C263.227 125.247 263.278 125.237 263.317 125.229L263.502 126.046C263.44 126.069 263.354 126.092 263.244 126.115C263.133 126.141 262.993 126.154 262.824 126.154C262.567 126.154 262.315 126.099 262.069 125.988C261.825 125.878 261.622 125.71 261.46 125.484C261.301 125.258 261.221 124.972 261.221 124.628V118.742ZM264.219 126.077V120.16H265.128V126.077H264.219ZM264.681 119.173C264.504 119.173 264.351 119.113 264.223 118.992C264.097 118.872 264.034 118.726 264.034 118.557C264.034 118.387 264.097 118.242 264.223 118.122C264.351 118.001 264.504 117.941 264.681 117.941C264.858 117.941 265.01 118.001 265.136 118.122C265.264 118.242 265.328 118.387 265.328 118.557C265.328 118.726 265.264 118.872 265.136 118.992C265.01 119.113 264.858 119.173 264.681 119.173ZM268.824 120.16V120.93H265.758V120.16H268.824ZM266.652 118.742H267.561V124.382C267.561 124.639 267.598 124.831 267.672 124.96C267.75 125.085 267.847 125.17 267.965 125.214C268.086 125.255 268.213 125.276 268.347 125.276C268.447 125.276 268.529 125.27 268.593 125.26C268.657 125.247 268.709 125.237 268.747 125.229L268.932 126.046C268.871 126.069 268.785 126.092 268.674 126.115C268.564 126.141 268.424 126.154 268.254 126.154C267.997 126.154 267.746 126.099 267.499 125.988C267.255 125.878 267.052 125.71 266.89 125.484C266.731 125.258 266.652 124.972 266.652 124.628V118.742ZM271.99 126.2C271.456 126.2 270.987 126.073 270.584 125.819C270.183 125.564 269.87 125.209 269.644 124.752C269.42 124.294 269.309 123.76 269.309 123.149C269.309 122.533 269.42 121.995 269.644 121.535C269.87 121.075 270.183 120.718 270.584 120.464C270.987 120.21 271.456 120.083 271.99 120.083C272.524 120.083 272.991 120.21 273.392 120.464C273.795 120.718 274.109 121.075 274.332 121.535C274.558 121.995 274.671 122.533 274.671 123.149C274.671 123.76 274.558 124.294 274.332 124.752C274.109 125.209 273.795 125.564 273.392 125.819C272.991 126.073 272.524 126.2 271.99 126.2ZM271.99 125.383C272.396 125.383 272.729 125.279 272.991 125.071C273.253 124.863 273.447 124.59 273.573 124.251C273.699 123.912 273.762 123.545 273.762 123.149C273.762 122.753 273.699 122.385 273.573 122.043C273.447 121.702 273.253 121.426 272.991 121.215C272.729 121.005 272.396 120.899 271.99 120.899C271.584 120.899 271.25 121.005 270.988 121.215C270.726 121.426 270.532 121.702 270.406 122.043C270.281 122.385 270.218 122.753 270.218 123.149C270.218 123.545 270.281 123.912 270.406 124.251C270.532 124.59 270.726 124.863 270.988 125.071C271.25 125.279 271.584 125.383 271.99 125.383ZM275.516 126.077V120.16H276.395V121.053H276.456C276.564 120.761 276.76 120.523 277.042 120.341C277.325 120.158 277.643 120.067 277.997 120.067C278.064 120.067 278.148 120.068 278.248 120.071C278.348 120.074 278.424 120.077 278.475 120.083V121.007C278.444 120.999 278.374 120.988 278.263 120.972C278.155 120.954 278.041 120.945 277.92 120.945C277.633 120.945 277.376 121.006 277.15 121.127C276.926 121.245 276.749 121.409 276.618 121.62C276.49 121.828 276.426 122.065 276.426 122.332V126.077H275.516Z" fill="#484A54"/>
<path d="M305.619 118.696V126.586H304.664V119.698H304.618L302.692 120.977V120.006L304.664 118.696H305.619ZM309.019 126.647C308.829 126.647 308.666 126.579 308.53 126.443C308.394 126.307 308.325 126.144 308.325 125.954C308.325 125.764 308.394 125.601 308.53 125.465C308.666 125.329 308.829 125.261 309.019 125.261C309.209 125.261 309.372 125.329 309.508 125.465C309.644 125.601 309.712 125.764 309.712 125.954C309.712 126.08 309.68 126.195 309.616 126.301C309.554 126.406 309.471 126.491 309.366 126.555C309.263 126.617 309.147 126.647 309.019 126.647ZM313.483 126.694C312.902 126.694 312.408 126.536 311.999 126.22C311.591 125.901 311.279 125.44 311.063 124.837C310.848 124.231 310.74 123.499 310.74 122.641C310.74 121.788 310.848 121.06 311.063 120.457C311.282 119.851 311.595 119.388 312.003 119.07C312.414 118.749 312.907 118.588 313.483 118.588C314.058 118.588 314.55 118.749 314.958 119.07C315.369 119.388 315.682 119.851 315.898 120.457C316.116 121.06 316.226 121.788 316.226 122.641C316.226 123.499 316.118 124.231 315.902 124.837C315.686 125.44 315.374 125.901 314.966 126.22C314.557 126.536 314.063 126.694 313.483 126.694ZM313.483 125.846C314.058 125.846 314.505 125.569 314.823 125.014C315.142 124.459 315.301 123.668 315.301 122.641C315.301 121.958 315.228 121.376 315.081 120.896C314.938 120.416 314.73 120.05 314.457 119.798C314.188 119.546 313.863 119.42 313.483 119.42C312.912 119.42 312.467 119.702 312.146 120.264C311.825 120.824 311.664 121.616 311.664 122.641C311.664 123.324 311.736 123.905 311.88 124.382C312.024 124.86 312.231 125.223 312.5 125.472C312.773 125.722 313.1 125.846 313.483 125.846ZM320.01 126.694C319.687 126.689 319.363 126.627 319.039 126.509C318.716 126.391 318.421 126.192 318.153 125.912C317.886 125.629 317.672 125.248 317.51 124.767C317.348 124.285 317.267 123.679 317.267 122.949C317.267 122.251 317.333 121.632 317.464 121.092C317.595 120.55 317.785 120.095 318.034 119.725C318.283 119.352 318.584 119.07 318.935 118.877C319.29 118.685 319.689 118.588 320.134 118.588C320.575 118.588 320.968 118.677 321.312 118.854C321.659 119.029 321.942 119.273 322.16 119.586C322.378 119.899 322.519 120.26 322.584 120.669H321.644C321.556 120.314 321.387 120.02 321.135 119.786C320.884 119.553 320.55 119.436 320.134 119.436C319.522 119.436 319.041 119.702 318.689 120.233C318.34 120.765 318.164 121.511 318.161 122.471H318.223C318.367 122.253 318.537 122.067 318.735 121.913C318.935 121.756 319.156 121.635 319.398 121.551C319.639 121.466 319.895 121.424 320.164 121.424C320.616 121.424 321.03 121.537 321.405 121.763C321.78 121.986 322.08 122.296 322.306 122.691C322.532 123.084 322.645 123.535 322.645 124.043C322.645 124.531 322.536 124.978 322.318 125.384C322.1 125.787 321.793 126.108 321.397 126.347C321.004 126.583 320.542 126.699 320.01 126.694ZM320.01 125.846C320.334 125.846 320.624 125.765 320.881 125.603C321.14 125.442 321.345 125.225 321.493 124.952C321.645 124.68 321.721 124.377 321.721 124.043C321.721 123.717 321.648 123.42 321.501 123.153C321.357 122.884 321.158 122.669 320.904 122.51C320.652 122.351 320.365 122.271 320.041 122.271C319.797 122.271 319.57 122.32 319.359 122.418C319.149 122.513 318.964 122.644 318.805 122.81C318.648 122.977 318.525 123.169 318.435 123.384C318.345 123.598 318.3 123.822 318.3 124.059C318.3 124.372 318.373 124.665 318.519 124.937C318.668 125.209 318.871 125.429 319.128 125.596C319.387 125.763 319.682 125.846 320.01 125.846ZM323.888 118.696H325.028L327.709 125.245H327.802L330.483 118.696H331.623V126.586H330.729V120.591H330.652L328.187 126.586H327.324L324.858 120.591H324.781V126.586H323.888V118.696Z" fill="#484A54"/>
</svg>
