<svg width="343" height="255" viewBox="0 0 343 255" fill="none" xmlns="http://www.w3.org/2000/svg">
<rect width="343" height="255" rx="16" fill="white"/>
<path d="M20.708 32H16.927V21.3341H20.7392C21.8121 21.3341 22.7356 21.5477 23.5099 21.9747C24.2841 22.3983 24.8796 23.0076 25.2962 23.8027C25.7163 24.5978 25.9264 25.5491 25.9264 26.6567C25.9264 27.7677 25.7163 28.7225 25.2962 29.521C24.8796 30.3196 24.2806 30.9324 23.4994 31.3594C22.7217 31.7865 21.7912 32 20.708 32ZM19.1821 30.0679H20.6142C21.2809 30.0679 21.8416 29.9498 22.2964 29.7137C22.7547 29.4742 23.0984 29.1044 23.3276 28.6044C23.5602 28.101 23.6765 27.4517 23.6765 26.6567C23.6765 25.8685 23.5602 25.2245 23.3276 24.7245C23.0984 24.2245 22.7564 23.8565 22.3016 23.6204C21.8468 23.3843 21.2861 23.2663 20.6195 23.2663H19.1821V30.0679ZM29.8362 32.151C29.3258 32.151 28.871 32.0625 28.4717 31.8854C28.0725 31.7049 27.7565 31.4393 27.5239 31.0886C27.2947 30.7345 27.1802 30.2935 27.1802 29.7658C27.1802 29.3214 27.2618 28.9482 27.4249 28.6461C27.5881 28.344 27.8103 28.101 28.0916 27.917C28.3728 27.733 28.6922 27.5941 29.0498 27.5003C29.4109 27.4066 29.7894 27.3406 30.1852 27.3024C30.6504 27.2538 31.0254 27.2087 31.3101 27.167C31.5948 27.1219 31.8014 27.0559 31.9298 26.9691C32.0583 26.8823 32.1225 26.7539 32.1225 26.5837V26.5525C32.1225 26.2227 32.0184 25.9675 31.81 25.7869C31.6052 25.6064 31.3135 25.5161 30.9351 25.5161C30.5358 25.5161 30.2181 25.6047 29.982 25.7817C29.746 25.9553 29.5897 26.1741 29.5133 26.4379L27.4614 26.2713C27.5656 25.7852 27.7704 25.3651 28.0759 25.0109C28.3815 24.6533 28.7755 24.379 29.2581 24.1881C29.7442 23.9937 30.3067 23.8964 30.9455 23.8964C31.3899 23.8964 31.8152 23.9485 32.2215 24.0527C32.6312 24.1568 32.994 24.3183 33.3099 24.537C33.6293 24.7558 33.8811 25.037 34.0651 25.3807C34.2491 25.721 34.3411 26.1289 34.3411 26.6046V32H32.2371V30.8907H32.1746C32.0461 31.1407 31.8743 31.3612 31.659 31.5521C31.4437 31.7396 31.1851 31.8872 30.883 31.9948C30.581 32.099 30.232 32.151 29.8362 32.151ZM30.4716 30.6199C30.798 30.6199 31.0861 30.5557 31.3361 30.4272C31.5861 30.2953 31.7823 30.1182 31.9246 29.896C32.067 29.6738 32.1381 29.4221 32.1381 29.1409V28.292C32.0687 28.3371 31.9732 28.3788 31.8517 28.4169C31.7337 28.4517 31.6 28.4847 31.4507 28.5159C31.3014 28.5437 31.1521 28.5697 31.0028 28.594C30.8535 28.6148 30.7181 28.6339 30.5966 28.6513C30.3362 28.6895 30.1088 28.7503 29.9143 28.8336C29.7199 28.9169 29.5689 29.0297 29.4613 29.1721C29.3536 29.311 29.2998 29.4846 29.2998 29.6929C29.2998 29.995 29.4092 30.2258 29.6279 30.3856C29.8501 30.5418 30.1313 30.6199 30.4716 30.6199ZM36.0623 32V24.0006H38.2809V32H36.0623ZM37.1768 22.9694C36.847 22.9694 36.564 22.8601 36.3279 22.6413C36.0953 22.4191 35.979 22.1535 35.979 21.8445C35.979 21.539 36.0953 21.2768 36.3279 21.0581C36.564 20.8359 36.847 20.7248 37.1768 20.7248C37.5067 20.7248 37.7879 20.8359 38.0205 21.0581C38.2566 21.2768 38.3747 21.539 38.3747 21.8445C38.3747 22.1535 38.2566 22.4191 38.0205 22.6413C37.7879 22.8601 37.5067 22.9694 37.1768 22.9694ZM42.2767 21.3341V32H40.0581V21.3341H42.2767ZM45.4236 34.9998C45.1424 34.9998 44.8785 34.9772 44.632 34.9321C44.389 34.8904 44.1876 34.8366 44.0279 34.7706L44.5279 33.1145C44.7882 33.1944 45.0226 33.2378 45.2309 33.2447C45.4427 33.2517 45.625 33.2031 45.7778 33.0989C45.934 32.9947 46.0607 32.8177 46.1579 32.5677L46.2881 32.2292L43.4186 24.0006H45.7517L47.4078 29.8752H47.4912L49.1629 24.0006H51.5117L48.4026 32.8645C48.2533 33.2951 48.0502 33.67 47.7932 33.9895C47.5398 34.3123 47.2186 34.5606 46.8298 34.7342C46.4409 34.9113 45.9722 34.9998 45.4236 34.9998ZM56.083 32V21.3341H63.27V23.1934H58.338V25.7349H62.9002V27.5941H58.338V30.1408H63.2908V32H56.083ZM67.2397 27.3754V32H65.0211V24.0006H67.1356V25.412H67.2293C67.4064 24.9467 67.7032 24.5787 68.1199 24.3079C68.5365 24.0336 69.0417 23.8964 69.6354 23.8964C70.1909 23.8964 70.6752 24.018 71.0884 24.261C71.5016 24.504 71.8227 24.8512 72.0519 25.3026C72.281 25.7505 72.3956 26.2852 72.3956 26.9066V32H70.177V27.3024C70.1805 26.8129 70.0555 26.431 69.802 26.1567C69.5486 25.8789 69.1997 25.7401 68.7552 25.7401C68.4566 25.7401 68.1928 25.8043 67.9636 25.9328C67.738 26.0612 67.5609 26.2487 67.4324 26.4952C67.3074 26.7383 67.2432 27.0316 67.2397 27.3754ZM77.7481 35.1665C77.0294 35.1665 76.4131 35.0675 75.8992 34.8696C75.3889 34.6752 74.9826 34.4096 74.6806 34.0728C74.3785 33.736 74.1824 33.3576 74.0921 32.9374L76.144 32.6614C76.2065 32.8211 76.3055 32.9704 76.4409 33.1093C76.5763 33.2482 76.7551 33.3593 76.9773 33.4426C77.203 33.5294 77.4773 33.5728 77.8001 33.5728C78.2827 33.5728 78.6803 33.4548 78.9928 33.2187C79.3087 32.9861 79.4667 32.5955 79.4667 32.0469V30.5835H79.3729C79.2757 30.8057 79.1299 31.0157 78.9355 31.2136C78.741 31.4115 78.4911 31.573 78.1855 31.698C77.88 31.8229 77.5154 31.8854 77.0919 31.8854C76.4912 31.8854 75.9444 31.7466 75.4514 31.4688C74.9618 31.1876 74.5712 30.7588 74.2796 30.1824C73.9914 29.6026 73.8473 28.87 73.8473 27.9847C73.8473 27.0785 73.9949 26.3216 74.29 25.714C74.5851 25.1064 74.9774 24.6516 75.467 24.3495C75.96 24.0475 76.4999 23.8964 77.0867 23.8964C77.5345 23.8964 77.9095 23.9728 78.2116 24.1256C78.5136 24.2749 78.7567 24.4624 78.9407 24.6881C79.1282 24.9103 79.2723 25.129 79.3729 25.3443H79.4563V24.0006H81.6592V32.0781C81.6592 32.7586 81.4926 33.328 81.1593 33.7863C80.826 34.2446 80.3642 34.5884 79.774 34.8175C79.1872 35.0501 78.5119 35.1665 77.7481 35.1665ZM77.7949 30.2189C78.1526 30.2189 78.4546 30.1304 78.7011 29.9533C78.9511 29.7728 79.1421 29.5158 79.274 29.1825C79.4094 28.8457 79.4771 28.443 79.4771 27.9743C79.4771 27.5056 79.4111 27.0993 79.2792 26.7556C79.1473 26.4084 78.9563 26.1393 78.7063 25.9484C78.4563 25.7574 78.1526 25.6619 77.7949 25.6619C77.4304 25.6619 77.1231 25.7609 76.8731 25.9588C76.6231 26.1532 76.4339 26.424 76.3055 26.7712C76.177 27.1184 76.1128 27.5194 76.1128 27.9743C76.1128 28.436 76.177 28.8353 76.3055 29.1721C76.4374 29.5054 76.6266 29.7641 76.8731 29.9481C77.1231 30.1286 77.4304 30.2189 77.7949 30.2189ZM85.7058 32.151C85.1954 32.151 84.7406 32.0625 84.3413 31.8854C83.9421 31.7049 83.6261 31.4393 83.3935 31.0886C83.1643 30.7345 83.0498 30.2935 83.0498 29.7658C83.0498 29.3214 83.1313 28.9482 83.2945 28.6461C83.4577 28.344 83.6799 28.101 83.9611 27.917C84.2424 27.733 84.5618 27.5941 84.9194 27.5003C85.2805 27.4066 85.6589 27.3406 86.0547 27.3024C86.52 27.2538 86.895 27.2087 87.1797 27.167C87.4644 27.1219 87.6709 27.0559 87.7994 26.9691C87.9279 26.8823 87.9921 26.7539 87.9921 26.5837V26.5525C87.9921 26.2227 87.8879 25.9675 87.6796 25.7869C87.4748 25.6064 87.1831 25.5161 86.8047 25.5161C86.4054 25.5161 86.0877 25.6047 85.8516 25.7817C85.6155 25.9553 85.4593 26.1741 85.3829 26.4379L83.331 26.2713C83.4351 25.7852 83.64 25.3651 83.9455 25.0109C84.2511 24.6533 84.6451 24.379 85.1277 24.1881C85.6138 23.9937 86.1763 23.8964 86.8151 23.8964C87.2595 23.8964 87.6848 23.9485 88.0911 24.0527C88.5007 24.1568 88.8636 24.3183 89.1795 24.537C89.4989 24.7558 89.7507 25.037 89.9347 25.3807C90.1187 25.721 90.2107 26.1289 90.2107 26.6046V32H88.1067V30.8907H88.0442C87.9157 31.1407 87.7439 31.3612 87.5286 31.5521C87.3133 31.7396 87.0547 31.8872 86.7526 31.9948C86.4505 32.099 86.1016 32.151 85.7058 32.151ZM86.3412 30.6199C86.6675 30.6199 86.9557 30.5557 87.2057 30.4272C87.4557 30.2953 87.6518 30.1182 87.7942 29.896C87.9366 29.6738 88.0077 29.4221 88.0077 29.1409V28.292C87.9383 28.3371 87.8428 28.3788 87.7213 28.4169C87.6032 28.4517 87.4696 28.4847 87.3203 28.5159C87.171 28.5437 87.0217 28.5697 86.8724 28.594C86.7231 28.6148 86.5877 28.6339 86.4662 28.6513C86.2058 28.6895 85.9784 28.7503 85.7839 28.8336C85.5895 28.9169 85.4385 29.0297 85.3308 29.1721C85.2232 29.311 85.1694 29.4846 85.1694 29.6929C85.1694 29.995 85.2788 30.2258 85.4975 30.3856C85.7197 30.5418 86.0009 30.6199 86.3412 30.6199ZM95.5358 35.1665C94.8171 35.1665 94.2008 35.0675 93.687 34.8696C93.1766 34.6752 92.7704 34.4096 92.4683 34.0728C92.1663 33.736 91.9701 33.3576 91.8798 32.9374L93.9318 32.6614C93.9943 32.8211 94.0932 32.9704 94.2286 33.1093C94.364 33.2482 94.5428 33.3593 94.765 33.4426C94.9907 33.5294 95.265 33.5728 95.5879 33.5728C96.0705 33.5728 96.468 33.4548 96.7805 33.2187C97.0965 32.9861 97.2544 32.5955 97.2544 32.0469V30.5835H97.1607C97.0635 30.8057 96.9177 31.0157 96.7232 31.2136C96.5288 31.4115 96.2788 31.573 95.9733 31.698C95.6678 31.8229 95.3032 31.8854 94.8796 31.8854C94.279 31.8854 93.7321 31.7466 93.2391 31.4688C92.7496 31.1876 92.359 30.7588 92.0673 30.1824C91.7792 29.6026 91.6351 28.87 91.6351 27.9847C91.6351 27.0785 91.7826 26.3216 92.0777 25.714C92.3729 25.1064 92.7652 24.6516 93.2547 24.3495C93.7478 24.0475 94.2876 23.8964 94.8744 23.8964C95.3223 23.8964 95.6973 23.9728 95.9993 24.1256C96.3014 24.2749 96.5444 24.4624 96.7284 24.6881C96.9159 24.9103 97.06 25.129 97.1607 25.3443H97.244V24.0006H99.447V32.0781C99.447 32.7586 99.2803 33.328 98.947 33.7863C98.6137 34.2446 98.1519 34.5884 97.5617 34.8175C96.975 35.0501 96.2997 35.1665 95.5358 35.1665ZM95.5827 30.2189C95.9403 30.2189 96.2424 30.1304 96.4889 29.9533C96.7389 29.7728 96.9298 29.5158 97.0617 29.1825C97.1972 28.8457 97.2649 28.443 97.2649 27.9743C97.2649 27.5056 97.1989 27.0993 97.067 26.7556C96.935 26.4084 96.7441 26.1393 96.4941 25.9484C96.2441 25.7574 95.9403 25.6619 95.5827 25.6619C95.2181 25.6619 94.9109 25.7609 94.6609 25.9588C94.4109 26.1532 94.2217 26.424 94.0932 26.7712C93.9648 27.1184 93.9005 27.5194 93.9005 27.9743C93.9005 28.436 93.9648 28.8353 94.0932 29.1721C94.2252 29.5054 94.4144 29.7641 94.6609 29.9481C94.9109 30.1286 95.2181 30.2189 95.5827 30.2189ZM104.858 32.1563C104.035 32.1563 103.327 31.9896 102.733 31.6563C102.143 31.3195 101.688 30.8439 101.369 30.2293C101.049 29.6113 100.89 28.8805 100.89 28.0368C100.89 27.2139 101.049 26.4917 101.369 25.8703C101.688 25.2488 102.138 24.7644 102.718 24.4172C103.301 24.07 103.985 23.8964 104.77 23.8964C105.297 23.8964 105.789 23.9815 106.243 24.1516C106.702 24.3183 107.101 24.57 107.441 24.9068C107.785 25.2436 108.052 25.6671 108.243 26.1775C108.434 26.6844 108.53 27.2781 108.53 27.9586V28.568H101.775V27.1931H106.441C106.441 26.8737 106.372 26.5907 106.233 26.3442C106.094 26.0977 105.901 25.905 105.655 25.7661C105.412 25.6237 105.129 25.5526 104.806 25.5526C104.469 25.5526 104.171 25.6307 103.91 25.7869C103.653 25.9397 103.452 26.1463 103.306 26.4067C103.16 26.6636 103.086 26.95 103.082 27.266V28.5732C103.082 28.969 103.155 29.311 103.301 29.5992C103.45 29.8873 103.66 30.1095 103.931 30.2658C104.202 30.422 104.523 30.5001 104.895 30.5001C105.141 30.5001 105.367 30.4654 105.572 30.396C105.776 30.3265 105.952 30.2224 106.098 30.0835C106.243 29.9446 106.354 29.7745 106.431 29.5731L108.483 29.7085C108.379 30.2015 108.165 30.6321 107.842 31.0001C107.523 31.3646 107.11 31.6493 106.603 31.8542C106.099 32.0556 105.518 32.1563 104.858 32.1563ZM109.977 32V24.0006H112.092V25.412H112.186C112.352 24.9432 112.63 24.5735 113.019 24.3027C113.408 24.0319 113.873 23.8964 114.415 23.8964C114.963 23.8964 115.43 24.0336 115.816 24.3079C116.201 24.5787 116.458 24.9467 116.586 25.412H116.67C116.833 24.9537 117.128 24.5874 117.555 24.3131C117.986 24.0353 118.494 23.8964 119.081 23.8964C119.827 23.8964 120.433 24.1343 120.899 24.6099C121.367 25.0821 121.602 25.7522 121.602 26.6202V32H119.388V27.0577C119.388 26.6133 119.27 26.28 119.034 26.0577C118.798 25.8355 118.503 25.7244 118.149 25.7244C117.746 25.7244 117.432 25.8529 117.206 26.1098C116.98 26.3633 116.868 26.6983 116.868 27.115V32H114.717V27.0108C114.717 26.6185 114.604 26.306 114.378 26.0734C114.156 25.8407 113.863 25.7244 113.498 25.7244C113.252 25.7244 113.029 25.7869 112.831 25.9119C112.637 26.0334 112.482 26.2053 112.368 26.4275C112.253 26.6462 112.196 26.9032 112.196 27.1983V32H109.977ZM127 32.1563C126.177 32.1563 125.469 31.9896 124.875 31.6563C124.285 31.3195 123.83 30.8439 123.51 30.2293C123.191 29.6113 123.031 28.8805 123.031 28.0368C123.031 27.2139 123.191 26.4917 123.51 25.8703C123.83 25.2488 124.279 24.7644 124.859 24.4172C125.442 24.07 126.126 23.8964 126.911 23.8964C127.439 23.8964 127.93 23.9815 128.385 24.1516C128.843 24.3183 129.243 24.57 129.583 24.9068C129.927 25.2436 130.194 25.6671 130.385 26.1775C130.576 26.6844 130.671 27.2781 130.671 27.9586V28.568H123.917V27.1931H128.583C128.583 26.8737 128.513 26.5907 128.375 26.3442C128.236 26.0977 128.043 25.905 127.796 25.7661C127.553 25.6237 127.27 25.5526 126.948 25.5526C126.611 25.5526 126.312 25.6307 126.052 25.7869C125.795 25.9397 125.594 26.1463 125.448 26.4067C125.302 26.6636 125.227 26.95 125.224 27.266V28.5732C125.224 28.969 125.297 29.311 125.442 29.5992C125.592 29.8873 125.802 30.1095 126.073 30.2658C126.343 30.422 126.665 30.5001 127.036 30.5001C127.283 30.5001 127.508 30.4654 127.713 30.396C127.918 30.3265 128.093 30.2224 128.239 30.0835C128.385 29.9446 128.496 29.7745 128.572 29.5731L130.624 29.7085C130.52 30.2015 130.307 30.6321 129.984 31.0001C129.664 31.3646 129.251 31.6493 128.744 31.8542C128.241 32.0556 127.659 32.1563 127 32.1563ZM134.338 27.3754V32H132.119V24.0006H134.234V25.412H134.327C134.504 24.9467 134.801 24.5787 135.218 24.3079C135.634 24.0336 136.14 23.8964 136.733 23.8964C137.289 23.8964 137.773 24.018 138.186 24.261C138.599 24.504 138.921 24.8512 139.15 25.3026C139.379 25.7505 139.494 26.2852 139.494 26.9066V32H137.275V27.3024C137.278 26.8129 137.153 26.431 136.9 26.1567C136.647 25.8789 136.298 25.7401 135.853 25.7401C135.555 25.7401 135.291 25.8043 135.062 25.9328C134.836 26.0612 134.659 26.2487 134.53 26.4952C134.405 26.7383 134.341 27.0316 134.338 27.3754ZM145.497 24.0006V25.6671H140.68V24.0006H145.497ZM141.773 22.0841H143.992V29.5419C143.992 29.7467 144.023 29.9064 144.086 30.021C144.148 30.1321 144.235 30.2102 144.346 30.2554C144.461 30.3005 144.593 30.3231 144.742 30.3231C144.846 30.3231 144.95 30.3144 145.054 30.297C145.158 30.2762 145.238 30.2606 145.294 30.2501L145.643 31.9011C145.532 31.9358 145.375 31.9757 145.174 32.0208C144.973 32.0695 144.728 32.099 144.44 32.1094C143.905 32.1302 143.436 32.059 143.034 31.8959C142.634 31.7327 142.324 31.4792 142.101 31.1355C141.879 30.7918 141.77 30.3578 141.773 29.8335V22.0841Z" fill="#191B23"/>
<rect x="16" y="51.2394" width="33.5213" height="33.5213" rx="16.7607" fill="#F4F5F9"/>
<path fill-rule="evenodd" clip-rule="evenodd" d="M38.893 73.561L40.9497 69.0647C41.6 67.5725 40.513 65.8999 38.893 65.8999H34.8558L35.6251 63.2526C35.9524 62.3217 35.7085 61.3758 34.8943 60.9031C34.1274 60.4578 33.219 60.6676 32.5919 61.326L28.9061 64.6519C28.0256 65.4464 27.523 66.5769 27.523 67.7628V71.8051C27.523 72.4594 27.8287 73.0762 28.3495 73.4724L29.6702 74.4773C30.3996 75.0323 31.2909 75.3328 32.2074 75.3328H36.1507C37.3396 75.3328 38.4158 74.656 38.893 73.561ZM30.3096 66.2074L33.3933 63.4248L32.8439 65.3152C32.66 65.9481 32.7846 66.6307 33.1803 67.1578C33.576 67.6849 34.1967 67.995 34.8558 67.995H38.893C38.9303 67.995 38.9485 68.003 38.9605 68.0097C38.9768 68.0189 38.9978 68.0364 39.016 68.0644C39.0342 68.0924 39.043 68.1208 39.0453 68.1441C39.047 68.1612 39.0464 68.1843 39.0328 68.2187L36.9799 72.7067L36.9724 72.724C36.841 73.0255 36.5388 73.2377 36.1507 73.2377H32.2074C31.7492 73.2377 31.3035 73.0875 30.9388 72.81L29.6181 71.8051V67.7628C29.6181 67.1698 29.8694 66.6046 30.3096 66.2074Z" fill="#8A8E9B"/>
<path d="M25.4279 65.8999C24.8494 65.8999 24.3804 66.3689 24.3804 66.9475V72.1891C24.3804 72.7676 24.8494 73.2366 25.4279 73.2366C26.0065 73.2366 26.4755 72.7676 26.4755 72.1891V66.9475C26.4755 66.3689 26.0065 65.8999 25.4279 65.8999Z" fill="#8A8E9B"/>
<path d="M67.389 62V52.8578H70.4781C71.1923 52.8578 71.7786 52.9798 72.2369 53.2239C72.6952 53.4649 73.0345 53.7967 73.2547 54.2193C73.4749 54.6419 73.585 55.1225 73.585 55.6612C73.585 56.1998 73.4749 56.6775 73.2547 57.0941C73.0345 57.5108 72.6967 57.8381 72.2414 58.0762C71.786 58.3113 71.2042 58.4288 70.496 58.4288H67.9961V57.4289H70.4602C70.9483 57.4289 71.3411 57.3575 71.6387 57.2146C71.9393 57.0718 72.1565 56.8694 72.2905 56.6075C72.4274 56.3427 72.4958 56.0272 72.4958 55.6612C72.4958 55.2951 72.4274 54.9752 72.2905 54.7014C72.1536 54.4276 71.9348 54.2164 71.6343 54.0676C71.3337 53.9158 70.9364 53.8399 70.4424 53.8399H68.4961V62H67.389ZM71.6923 57.8932L73.9421 62H72.6565L70.4424 57.8932H71.6923ZM78.088 62.1428C77.4274 62.1428 76.8575 61.997 76.3783 61.7054C75.9022 61.4108 75.5346 61.0001 75.2757 60.4733C75.0198 59.9436 74.8918 59.3276 74.8918 58.6253C74.8918 57.9229 75.0198 57.3039 75.2757 56.7682C75.5346 56.2296 75.8947 55.81 76.356 55.5094C76.8203 55.2059 77.3619 55.0541 77.9809 55.0541C78.338 55.0541 78.6907 55.1136 79.0388 55.2326C79.387 55.3517 79.704 55.5451 79.9897 55.813C80.2754 56.0778 80.503 56.429 80.6727 56.8665C80.8423 57.3039 80.9271 57.8426 80.9271 58.4824V58.9288H75.6418V58.0182H79.8557C79.8557 57.6313 79.7784 57.2861 79.6236 56.9825C79.4718 56.679 79.2546 56.4394 78.9719 56.2638C78.6921 56.0882 78.3618 56.0004 77.9809 56.0004C77.5613 56.0004 77.1982 56.1046 76.8917 56.3129C76.5881 56.5183 76.3545 56.7861 76.1908 57.1164C76.0272 57.4468 75.9453 57.8009 75.9453 58.1789V58.786C75.9453 59.3038 76.0346 59.7427 76.2132 60.1028C76.3947 60.4599 76.6462 60.7322 76.9676 60.9197C77.289 61.1042 77.6625 61.1965 78.088 61.1965C78.3648 61.1965 78.6148 61.1578 78.838 61.0804C79.0641 61.0001 79.2591 60.881 79.4227 60.7233C79.5864 60.5626 79.7129 60.3632 79.8022 60.1251L80.82 60.4108C80.7128 60.756 80.5328 61.0596 80.2798 61.3215C80.0269 61.5804 79.7144 61.7828 79.3424 61.9286C78.9704 62.0714 78.5523 62.1428 78.088 62.1428ZM84.5474 62.1607C84.1129 62.1607 83.7186 62.0789 83.3644 61.9152C83.0103 61.7485 82.729 61.509 82.5207 61.1965C82.3124 60.881 82.2083 60.5001 82.2083 60.0537C82.2083 59.6609 82.2856 59.3425 82.4404 59.0984C82.5951 58.8514 82.802 58.658 83.0609 58.5181C83.3198 58.3782 83.6055 58.2741 83.9179 58.2056C84.2334 58.1342 84.5503 58.0777 84.8688 58.036C85.2854 57.9824 85.6232 57.9423 85.8821 57.9155C86.144 57.8857 86.3344 57.8366 86.4535 57.7682C86.5755 57.6997 86.6365 57.5807 86.6365 57.4111V57.3753C86.6365 56.9349 86.516 56.5927 86.2749 56.3486C86.0368 56.1046 85.6753 55.9826 85.1902 55.9826C84.6872 55.9826 84.2929 56.0927 84.0072 56.3129C83.7215 56.5331 83.5207 56.7682 83.4046 57.0182L82.4047 56.6611C82.5832 56.2445 82.8213 55.9201 83.1189 55.688C83.4195 55.4529 83.7468 55.2892 84.101 55.1969C84.4581 55.1017 84.8092 55.0541 85.1545 55.0541C85.3747 55.0541 85.6276 55.0809 85.9133 55.1344C86.202 55.185 86.4803 55.2907 86.7481 55.4514C87.0189 55.6121 87.2436 55.8546 87.4221 56.179C87.6007 56.5034 87.69 56.9379 87.69 57.4825V62H86.6365V61.0715H86.5829C86.5115 61.2203 86.3925 61.3795 86.2258 61.5491C86.0592 61.7188 85.8374 61.8631 85.5607 61.9821C85.2839 62.1012 84.9461 62.1607 84.5474 62.1607ZM84.7081 61.2143C85.1247 61.2143 85.4759 61.1325 85.7616 60.9688C86.0502 60.8051 86.2675 60.5939 86.4133 60.3349C86.5621 60.076 86.6365 59.8037 86.6365 59.518V58.5538C86.5919 58.6074 86.4936 58.6565 86.3419 58.7011C86.1931 58.7428 86.0205 58.78 85.8241 58.8127C85.6306 58.8425 85.4416 58.8693 85.2571 58.8931C85.0756 58.9139 84.9283 58.9318 84.8152 58.9467C84.5414 58.9824 84.2855 59.0404 84.0474 59.1208C83.8123 59.1981 83.6218 59.3157 83.476 59.4734C83.3332 59.6282 83.2617 59.8394 83.2617 60.1073C83.2617 60.4733 83.3971 60.7501 83.668 60.9376C83.9418 61.1221 84.2885 61.2143 84.7081 61.2143ZM92.3983 62.1428C91.7555 62.1428 91.202 61.9911 90.7377 61.6875C90.2735 61.384 89.9164 60.9659 89.6664 60.4332C89.4164 59.9005 89.2914 59.2919 89.2914 58.6074C89.2914 57.911 89.4194 57.2965 89.6753 56.7638C89.9342 56.2281 90.2943 55.81 90.7556 55.5094C91.2199 55.2059 91.7615 55.0541 92.3805 55.0541C92.8626 55.0541 93.2971 55.1434 93.684 55.3219C94.0708 55.5005 94.3878 55.7505 94.6348 56.0719C94.8818 56.3933 95.035 56.7682 95.0946 57.1968H94.0411C93.9607 56.8843 93.7822 56.6075 93.5054 56.3665C93.2316 56.1225 92.8626 56.0004 92.3983 56.0004C91.9877 56.0004 91.6276 56.1076 91.3181 56.3219C91.0115 56.5331 90.772 56.8322 90.5994 57.2191C90.4297 57.603 90.3449 58.0539 90.3449 58.5717C90.3449 59.1014 90.4282 59.5627 90.5949 59.9555C90.7645 60.3483 91.0026 60.6534 91.3091 60.8706C91.6186 61.0879 91.9817 61.1965 92.3983 61.1965C92.6721 61.1965 92.9206 61.1489 93.1438 61.0536C93.367 60.9584 93.556 60.8215 93.7107 60.643C93.8655 60.4644 93.9756 60.2501 94.0411 60.0001H95.0946C95.035 60.4049 94.8877 60.7694 94.6526 61.0938C94.4205 61.4152 94.1125 61.6712 93.7286 61.8616C93.3477 62.0491 92.9043 62.1428 92.3983 62.1428ZM99.6166 55.1434V56.0362H96.0632V55.1434H99.6166ZM97.0989 53.5006H98.1524V60.0359C98.1524 60.3335 98.1955 60.5567 98.2818 60.7055C98.3711 60.8513 98.4842 60.9495 98.6211 61.0001C98.761 61.0477 98.9083 61.0715 99.063 61.0715C99.1791 61.0715 99.2743 61.0655 99.3487 61.0536C99.4231 61.0388 99.4826 61.0269 99.5273 61.0179L99.7415 61.9643C99.6701 61.9911 99.5704 62.0179 99.4425 62.0446C99.3145 62.0744 99.1523 62.0893 98.9559 62.0893C98.6583 62.0893 98.3666 62.0253 98.081 61.8973C97.7982 61.7694 97.5631 61.5744 97.3756 61.3126C97.1911 61.0507 97.0989 60.7203 97.0989 60.3216V53.5006ZM101.201 62V55.1434H102.255V62H101.201ZM101.737 54.0006C101.532 54.0006 101.355 53.9307 101.206 53.7908C101.06 53.6509 100.987 53.4828 100.987 53.2864C100.987 53.09 101.06 52.9218 101.206 52.7819C101.355 52.6421 101.532 52.5721 101.737 52.5721C101.942 52.5721 102.118 52.6421 102.264 52.7819C102.412 52.9218 102.487 53.09 102.487 53.2864C102.487 53.4828 102.412 53.6509 102.264 53.7908C102.118 53.9307 101.942 54.0006 101.737 54.0006ZM106.97 62.1428C106.351 62.1428 105.808 61.9955 105.34 61.7009C104.876 61.4063 104.513 60.9941 104.251 60.4644C103.992 59.9347 103.863 59.3157 103.863 58.6074C103.863 57.8932 103.992 57.2697 104.251 56.737C104.513 56.2043 104.876 55.7906 105.34 55.496C105.808 55.2014 106.351 55.0541 106.97 55.0541C107.589 55.0541 108.13 55.2014 108.595 55.496C109.062 55.7906 109.425 56.2043 109.684 56.737C109.946 57.2697 110.077 57.8932 110.077 58.6074C110.077 59.3157 109.946 59.9347 109.684 60.4644C109.425 60.9941 109.062 61.4063 108.595 61.7009C108.13 61.9955 107.589 62.1428 106.97 62.1428ZM106.97 61.1965C107.44 61.1965 107.827 61.076 108.13 60.8349C108.434 60.5939 108.659 60.2769 108.804 59.8841C108.95 59.4913 109.023 59.0657 109.023 58.6074C109.023 58.1491 108.95 57.722 108.804 57.3262C108.659 56.9304 108.434 56.6105 108.13 56.3665C107.827 56.1225 107.44 56.0004 106.97 56.0004C106.5 56.0004 106.113 56.1225 105.809 56.3665C105.506 56.6105 105.281 56.9304 105.135 57.3262C104.989 57.722 104.916 58.1491 104.916 58.6074C104.916 59.0657 104.989 59.4913 105.135 59.8841C105.281 60.2769 105.506 60.5939 105.809 60.8349C106.113 61.076 106.5 61.1965 106.97 61.1965ZM112.738 57.8753V62H111.685V55.1434H112.703V56.2147H112.792C112.953 55.8665 113.197 55.5868 113.524 55.3755C113.851 55.1612 114.274 55.0541 114.792 55.0541C115.256 55.0541 115.662 55.1493 116.01 55.3398C116.359 55.5273 116.629 55.813 116.823 56.1969C117.016 56.5778 117.113 57.0599 117.113 57.6432V62H116.06V57.7146C116.06 57.176 115.92 56.7563 115.64 56.4558C115.36 56.1522 114.976 56.0004 114.488 56.0004C114.152 56.0004 113.851 56.0734 113.586 56.2192C113.325 56.365 113.118 56.5778 112.966 56.8575C112.814 57.1373 112.738 57.4765 112.738 57.8753ZM123.895 56.679L122.949 56.9468C122.889 56.7891 122.801 56.6358 122.685 56.487C122.572 56.3352 122.417 56.2103 122.221 56.112C122.024 56.0138 121.773 55.9647 121.466 55.9647C121.047 55.9647 120.697 56.0615 120.417 56.2549C120.141 56.4454 120.002 56.6879 120.002 56.9825C120.002 57.2444 120.098 57.4512 120.288 57.603C120.478 57.7548 120.776 57.8813 121.181 57.9824L122.199 58.2324C122.812 58.3812 123.268 58.6089 123.569 58.9154C123.87 59.219 124.02 59.6103 124.02 60.0894C124.02 60.4823 123.907 60.8334 123.681 61.1429C123.457 61.4524 123.145 61.6965 122.743 61.875C122.341 62.0536 121.874 62.1428 121.341 62.1428C120.642 62.1428 120.063 61.9911 119.605 61.6875C119.147 61.384 118.857 60.9406 118.735 60.3573L119.734 60.1073C119.83 60.4763 120.01 60.7531 120.275 60.9376C120.542 61.1221 120.892 61.2143 121.324 61.2143C121.815 61.2143 122.205 61.1102 122.493 60.9019C122.785 60.6906 122.931 60.4376 122.931 60.143C122.931 59.9049 122.847 59.7055 122.681 59.5448C122.514 59.3811 122.258 59.2591 121.913 59.1788L120.77 58.9109C120.142 58.7621 119.681 58.5315 119.386 58.219C119.095 57.9036 118.949 57.5093 118.949 57.0361C118.949 56.6492 119.057 56.307 119.275 56.0094C119.495 55.7118 119.794 55.4782 120.172 55.3085C120.553 55.1389 120.984 55.0541 121.466 55.0541C122.145 55.0541 122.678 55.2029 123.065 55.5005C123.454 55.7981 123.731 56.1909 123.895 56.679Z" fill="#6C6E79"/>
<path d="M71.2816 82.1458C70.4796 82.1458 69.7661 82.0156 69.1411 81.7552C68.5197 81.4914 68.0319 81.132 67.6777 80.6772C67.3236 80.2224 67.1465 79.7068 67.1465 79.1304C67.1465 78.686 67.2472 78.2781 67.4486 77.9066C67.6534 77.5316 67.9312 77.2208 68.2818 76.9743C68.6325 76.7244 69.0248 76.5646 69.4588 76.4952V76.4223C68.8894 76.3077 68.4277 76.0317 68.0735 75.5942C67.7194 75.1533 67.5423 74.6412 67.5423 74.0579C67.5423 73.5058 67.7038 73.0146 68.0266 72.584C68.3495 72.15 68.7922 71.8098 69.3547 71.5633C69.9206 71.3133 70.5629 71.1883 71.2816 71.1883C72.0003 71.1883 72.6409 71.3133 73.2033 71.5633C73.7693 71.8133 74.2137 72.1552 74.5366 72.5892C74.8595 73.0198 75.0227 73.5093 75.0261 74.0579C75.0227 74.6446 74.8421 75.1568 74.4845 75.5942C74.1269 76.0317 73.6686 76.3077 73.1096 76.4223V76.4952C73.5367 76.5646 73.9238 76.7244 74.271 76.9743C74.6216 77.2208 74.8994 77.5316 75.1042 77.9066C75.3126 78.2781 75.4185 78.686 75.4219 79.1304C75.4185 79.7068 75.2396 80.2224 74.8855 80.6772C74.5314 81.132 74.0418 81.4914 73.4169 81.7552C72.7954 82.0156 72.0836 82.1458 71.2816 82.1458ZM71.2816 80.4897C71.6392 80.4897 71.9517 80.4255 72.219 80.297C72.4864 80.1651 72.6947 79.9845 72.844 79.7554C72.9968 79.5228 73.0731 79.2554 73.0731 78.9534C73.0731 78.6443 72.995 78.3718 72.8388 78.1357C72.6825 77.8961 72.4708 77.7087 72.2034 77.5732C71.9361 77.4344 71.6288 77.3649 71.2816 77.3649C70.9379 77.3649 70.6306 77.4344 70.3598 77.5732C70.089 77.7087 69.8755 77.8961 69.7192 78.1357C69.5665 78.3718 69.4901 78.6443 69.4901 78.9534C69.4901 79.2554 69.5647 79.5228 69.714 79.7554C69.8633 79.9845 70.0734 80.1651 70.3442 80.297C70.615 80.4255 70.9275 80.4897 71.2816 80.4897ZM71.2816 75.7244C71.5802 75.7244 71.8458 75.6637 72.0784 75.5421C72.311 75.4206 72.4933 75.2522 72.6253 75.037C72.7572 74.8217 72.8232 74.5735 72.8232 74.2922C72.8232 74.0145 72.7572 73.7714 72.6253 73.5631C72.4933 73.3513 72.3128 73.1864 72.0836 73.0684C71.8545 72.9469 71.5871 72.8861 71.2816 72.8861C70.9795 72.8861 70.7122 72.9469 70.4796 73.0684C70.247 73.1864 70.0647 73.3513 69.9328 73.5631C69.8043 73.7714 69.7401 74.0145 69.7401 74.2922C69.7401 74.5735 69.806 74.8217 69.938 75.037C70.0699 75.2522 70.2522 75.4206 70.4848 75.5421C70.7174 75.6637 70.983 75.7244 71.2816 75.7244ZM79.5648 80.5418L79.5076 81.1146C79.4624 81.5729 79.3756 82.0295 79.2472 82.4843C79.1222 82.9426 78.9902 83.3575 78.8514 83.729C78.716 84.1005 78.6066 84.3922 78.5233 84.604H77.0859C77.1379 84.3991 77.2091 84.1127 77.2994 83.7447C77.3897 83.3801 77.4747 82.9704 77.5546 82.5156C77.6344 82.0608 77.6848 81.5973 77.7056 81.1251L77.7316 80.5418H79.5648ZM82.5985 82L87.02 73.2507V73.1777H81.8694V71.3341H89.3532V73.2038L84.9264 82H82.5985ZM91.9025 82V80.3751L95.6991 76.8598C96.022 76.5473 96.2928 76.2661 96.5115 76.0161C96.7337 75.7661 96.9021 75.5213 97.0167 75.2818C97.1312 75.0387 97.1885 74.7766 97.1885 74.4954C97.1885 74.1829 97.1174 73.9138 96.975 73.6881C96.8327 73.459 96.6382 73.2836 96.3917 73.1621C96.1452 73.0371 95.8657 72.9746 95.5532 72.9746C95.2269 72.9746 94.9422 73.0406 94.6991 73.1725C94.4561 73.3045 94.2686 73.4937 94.1367 73.7402C94.0047 73.9867 93.9388 74.2801 93.9388 74.6203H91.7983C91.7983 73.9225 91.9563 73.3166 92.2722 72.8028C92.5882 72.2889 93.0309 71.8914 93.6003 71.6101C94.1697 71.3289 94.8259 71.1883 95.5689 71.1883C96.3327 71.1883 96.9976 71.3237 97.5635 71.5945C98.1329 71.8619 98.5756 72.2334 98.8915 72.709C99.2075 73.1847 99.3655 73.7298 99.3655 74.3443C99.3655 74.7471 99.2856 75.1446 99.1259 75.5369C98.9697 75.9293 98.6902 76.365 98.2874 76.8441C97.8847 77.3198 97.317 77.8909 96.5844 78.5575L95.0272 80.0835V80.1564H99.5061V82H91.9025ZM105.649 82.1458C104.913 82.1458 104.257 82.0104 103.68 81.7396C103.107 81.4688 102.653 81.0956 102.316 80.6199C101.979 80.1442 101.804 79.5991 101.79 78.9846H103.977C104.001 79.3978 104.175 79.7328 104.498 79.9897C104.821 80.2467 105.204 80.3751 105.649 80.3751C106.003 80.3751 106.315 80.297 106.586 80.1408C106.861 79.9811 107.074 79.7606 107.227 79.4794C107.383 79.1947 107.461 78.8683 107.461 78.5003C107.461 78.1253 107.381 77.7955 107.222 77.5108C107.065 77.2261 106.848 77.0038 106.571 76.8441C106.293 76.6844 105.975 76.6028 105.618 76.5994C105.305 76.5994 105.001 76.6636 104.706 76.7921C104.415 76.9205 104.187 77.0959 104.024 77.3181L102.019 76.9587L102.524 71.3341H109.044V73.1777H104.383L104.107 75.8494H104.17C104.357 75.5855 104.64 75.3668 105.019 75.1932C105.397 75.0196 105.821 74.9328 106.289 74.9328C106.932 74.9328 107.505 75.0838 108.008 75.3859C108.511 75.688 108.909 76.1029 109.201 76.6306C109.492 77.1549 109.636 77.759 109.633 78.443C109.636 79.1617 109.47 79.8005 109.133 80.3595C108.8 80.915 108.333 81.3525 107.732 81.6719C107.135 81.9878 106.44 82.1458 105.649 82.1458Z" fill="#191B23"/>
<path d="M117.688 80.393V74.5006H118.688V80.393H117.688ZM115.242 77.9467V76.9468H121.134V77.9467H115.242ZM126.403 82.125C125.73 82.125 125.157 81.942 124.684 81.5759C124.211 81.2069 123.849 80.6727 123.599 79.9734C123.349 79.271 123.224 78.4229 123.224 77.4289C123.224 76.4409 123.349 75.5972 123.599 74.8979C123.852 74.1955 124.215 73.6598 124.689 73.2908C125.165 72.9188 125.736 72.7328 126.403 72.7328C127.069 72.7328 127.639 72.9188 128.112 73.2908C128.589 73.6598 128.952 74.1955 129.202 74.8979C129.455 75.5972 129.581 76.4409 129.581 77.4289C129.581 78.4229 129.456 79.271 129.206 79.9734C128.956 80.6727 128.594 81.2069 128.121 81.5759C127.648 81.942 127.075 82.125 126.403 82.125ZM126.403 81.1429C127.069 81.1429 127.587 80.8215 127.956 80.1787C128.325 79.5359 128.51 78.6193 128.51 77.4289C128.51 76.6373 128.425 75.9632 128.255 75.4067C128.089 74.8502 127.848 74.4262 127.532 74.1345C127.22 73.8429 126.843 73.697 126.403 73.697C125.742 73.697 125.226 74.0229 124.854 74.6747C124.482 75.3234 124.296 76.2415 124.296 77.4289C124.296 78.2205 124.379 78.8931 124.546 79.4466C124.712 80.0001 124.952 80.4212 125.264 80.7099C125.58 80.9986 125.959 81.1429 126.403 81.1429ZM132.202 82.0714C131.982 82.0714 131.793 81.9926 131.636 81.8348C131.478 81.6771 131.399 81.4881 131.399 81.2679C131.399 81.0477 131.478 80.8587 131.636 80.701C131.793 80.5433 131.982 80.4644 132.202 80.4644C132.423 80.4644 132.612 80.5433 132.769 80.701C132.927 80.8587 133.006 81.0477 133.006 81.2679C133.006 81.4137 132.969 81.5477 132.894 81.6697C132.823 81.7917 132.726 81.8899 132.604 81.9643C132.485 82.0357 132.351 82.0714 132.202 82.0714ZM135.146 82V81.1965L138.164 77.8932C138.518 77.5063 138.81 77.17 139.039 76.8843C139.268 76.5956 139.438 76.3248 139.548 76.0719C139.661 75.8159 139.718 75.5481 139.718 75.2684C139.718 74.947 139.64 74.6687 139.485 74.4336C139.334 74.1985 139.125 74.017 138.86 73.889C138.596 73.761 138.298 73.697 137.968 73.697C137.617 73.697 137.31 73.77 137.048 73.9158C136.789 74.0586 136.588 74.2595 136.445 74.5184C136.306 74.7773 136.236 75.0809 136.236 75.4291H135.182C135.182 74.8934 135.306 74.4232 135.553 74.0185C135.8 73.6137 136.136 73.2983 136.562 73.0721C136.99 72.8459 137.471 72.7328 138.003 72.7328C138.539 72.7328 139.014 72.8459 139.427 73.0721C139.841 73.2983 140.165 73.6033 140.401 73.9872C140.636 74.3711 140.753 74.7982 140.753 75.2684C140.753 75.6046 140.692 75.9335 140.57 76.2549C140.451 76.5733 140.243 76.9289 139.945 77.3218C139.651 77.7116 139.241 78.1878 138.718 78.7502L136.664 80.9465V81.0179H140.914V82H135.146ZM147.678 80.2858V79.8037C147.678 79.4704 147.746 79.1654 147.883 78.8886C148.023 78.6089 148.225 78.3857 148.49 78.219C148.758 78.0494 149.083 77.9646 149.463 77.9646C149.85 77.9646 150.175 78.0494 150.437 78.219C150.698 78.3857 150.896 78.6089 151.03 78.8886C151.164 79.1654 151.231 79.4704 151.231 79.8037V80.2858C151.231 80.6192 151.163 80.9257 151.026 81.2054C150.892 81.4822 150.693 81.7054 150.428 81.875C150.166 82.0417 149.844 82.125 149.463 82.125C149.077 82.125 148.751 82.0417 148.486 81.875C148.221 81.7054 148.02 81.4822 147.883 81.2054C147.746 80.9257 147.678 80.6192 147.678 80.2858ZM148.589 79.8037V80.2858C148.589 80.5626 148.654 80.8111 148.785 81.0313C148.916 81.2486 149.142 81.3572 149.463 81.3572C149.776 81.3572 149.996 81.2486 150.124 81.0313C150.255 80.8111 150.321 80.5626 150.321 80.2858V79.8037C150.321 79.527 150.258 79.28 150.133 79.0627C150.008 78.8425 149.785 78.7324 149.463 78.7324C149.151 78.7324 148.926 78.8425 148.789 79.0627C148.655 79.28 148.589 79.527 148.589 79.8037ZM143.125 75.0541V74.572C143.125 74.2387 143.193 73.9336 143.33 73.6569C143.47 73.3771 143.672 73.1539 143.937 72.9873C144.205 72.8176 144.529 72.7328 144.91 72.7328C145.297 72.7328 145.621 72.8176 145.883 72.9873C146.145 73.1539 146.343 73.3771 146.477 73.6569C146.611 73.9336 146.678 74.2387 146.678 74.572V75.0541C146.678 75.3874 146.61 75.6939 146.473 75.9737C146.339 76.2504 146.139 76.4736 145.874 76.6433C145.613 76.8099 145.291 76.8932 144.91 76.8932C144.523 76.8932 144.197 76.8099 143.933 76.6433C143.668 76.4736 143.467 76.2504 143.33 75.9737C143.193 75.6939 143.125 75.3874 143.125 75.0541ZM144.035 74.572V75.0541C144.035 75.3309 144.101 75.5793 144.232 75.7996C144.363 76.0168 144.589 76.1254 144.91 76.1254C145.223 76.1254 145.443 76.0168 145.571 75.7996C145.702 75.5793 145.767 75.3309 145.767 75.0541V74.572C145.767 74.2952 145.705 74.0482 145.58 73.831C145.455 73.6107 145.232 73.5006 144.91 73.5006C144.598 73.5006 144.373 73.6107 144.236 73.831C144.102 74.0482 144.035 74.2952 144.035 74.572ZM143.464 82L149.749 72.8578H150.767L144.482 82H143.464Z" fill="#007C65"/>
<path d="M309.671 53.3345L327 57.7786V82.6656H171.036V70.2221L188.365 61.3339L205.695 70.2221L223.024 53.3345L240.353 61.3339L257.683 57.7786L275.012 53.3345L292.341 57.7786L309.671 53.3345Z" fill="#E9F7FF"/>
<path d="M327 57.4907L309.671 53.3345L292.341 57.4907L275.012 53.3345L257.683 57.4907L240.353 60.8157L223.024 53.3345L205.695 69.1282L188.365 60.8157L171.036 69.1282" stroke="#2BB3FF" stroke-width="2.09508"/>
<rect x="16" y="101.239" width="33.5213" height="33.5213" rx="16.7607" fill="#F4F5F9"/>
<path d="M36.644 110.974C36.2349 110.565 35.5716 110.565 35.1625 110.974C34.7535 111.383 34.7535 112.046 35.1625 112.456L37.5644 114.857H31.7131C28.2419 114.857 25.4279 117.671 25.4279 121.143V124.285C25.4279 124.864 25.8969 125.333 26.4754 125.333C27.0539 125.333 27.5229 124.864 27.5229 124.285V121.143C27.5229 118.828 29.3989 116.952 31.7131 116.952H37.5644L35.1625 119.354C34.7535 119.763 34.7535 120.427 35.1625 120.836C35.5716 121.245 36.2349 121.245 36.644 120.836L40.8342 116.646C41.2432 116.237 41.2432 115.573 40.8342 115.164L36.644 110.974Z" fill="#8A8E9B"/>
<path d="M72.3887 105.143C72.3351 104.691 72.1179 104.34 71.7369 104.09C71.356 103.84 70.8888 103.715 70.3353 103.715C69.9305 103.715 69.5764 103.78 69.2728 103.911C68.9723 104.042 68.7372 104.222 68.5675 104.451C68.4009 104.681 68.3175 104.941 68.3175 105.233C68.3175 105.477 68.3756 105.686 68.4916 105.862C68.6107 106.035 68.7625 106.179 68.947 106.295C69.1315 106.408 69.3249 106.502 69.5273 106.576C69.7296 106.648 69.9156 106.706 70.0853 106.75L71.0138 107C71.2518 107.063 71.5167 107.149 71.8084 107.259C72.103 107.369 72.3842 107.52 72.652 107.71C72.9229 107.898 73.1461 108.139 73.3216 108.433C73.4972 108.728 73.585 109.09 73.585 109.518C73.585 110.012 73.4556 110.458 73.1966 110.857C72.9407 111.256 72.5657 111.573 72.0717 111.808C71.5807 112.043 70.984 112.161 70.2817 112.161C69.627 112.161 69.06 112.055 68.5809 111.844C68.1048 111.632 67.7298 111.338 67.456 110.96C67.1852 110.582 67.0319 110.143 66.9962 109.643H68.139C68.1687 109.988 68.2848 110.274 68.4872 110.5C68.6925 110.723 68.9514 110.89 69.2639 111C69.5794 111.107 69.9186 111.161 70.2817 111.161C70.7043 111.161 71.0837 111.092 71.42 110.955C71.7563 110.816 72.0226 110.622 72.219 110.375C72.4155 110.125 72.5137 109.833 72.5137 109.5C72.5137 109.197 72.4288 108.95 72.2592 108.759C72.0896 108.569 71.8664 108.414 71.5896 108.295C71.3129 108.176 71.0138 108.072 70.6924 107.982L69.5675 107.661C68.8532 107.456 68.2878 107.163 67.8711 106.782C67.4545 106.401 67.2462 105.902 67.2462 105.286C67.2462 104.774 67.3846 104.328 67.6613 103.947C67.9411 103.563 68.3161 103.266 68.7863 103.054C69.2594 102.84 69.7877 102.733 70.371 102.733C70.9602 102.733 71.484 102.838 71.9423 103.05C72.4006 103.258 72.7636 103.544 73.0315 103.907C73.3023 104.27 73.4451 104.682 73.46 105.143H72.3887ZM76.3158 107.875V112H75.2623V102.858H76.3158V106.215H76.4051C76.5658 105.861 76.8069 105.579 77.1283 105.371C77.4527 105.16 77.8842 105.054 78.4228 105.054C78.89 105.054 79.2992 105.148 79.6504 105.335C80.0016 105.52 80.2739 105.804 80.4673 106.188C80.6637 106.569 80.7619 107.054 80.7619 107.643V112H79.7084V107.715C79.7084 107.17 79.5671 106.749 79.2844 106.451C79.0046 106.151 78.6163 106 78.1193 106C77.7741 106 77.4646 106.073 77.1908 106.219C76.92 106.365 76.7057 106.578 76.548 106.858C76.3932 107.137 76.3158 107.477 76.3158 107.875ZM84.7069 112.161C84.2725 112.161 83.8781 112.079 83.524 111.915C83.1699 111.749 82.8886 111.509 82.6803 111.196C82.472 110.881 82.3678 110.5 82.3678 110.054C82.3678 109.661 82.4452 109.342 82.6 109.098C82.7547 108.851 82.9615 108.658 83.2205 108.518C83.4794 108.378 83.7651 108.274 84.0775 108.206C84.393 108.134 84.7099 108.078 85.0284 108.036C85.445 107.982 85.7828 107.942 86.0417 107.915C86.3036 107.886 86.494 107.837 86.6131 107.768C86.7351 107.7 86.7961 107.581 86.7961 107.411V107.375C86.7961 106.935 86.6756 106.593 86.4345 106.349C86.1964 106.105 85.8348 105.983 85.3498 105.983C84.8468 105.983 84.4525 106.093 84.1668 106.313C83.8811 106.533 83.6802 106.768 83.5642 107.018L82.5643 106.661C82.7428 106.244 82.9809 105.92 83.2785 105.688C83.5791 105.453 83.9064 105.289 84.2606 105.197C84.6177 105.102 84.9688 105.054 85.314 105.054C85.5343 105.054 85.7872 105.081 86.0729 105.134C86.3616 105.185 86.6398 105.291 86.9077 105.451C87.1785 105.612 87.4032 105.855 87.5817 106.179C87.7603 106.503 87.8496 106.938 87.8496 107.482V112H86.7961V111.071H86.7425C86.6711 111.22 86.552 111.38 86.3854 111.549C86.2187 111.719 85.997 111.863 85.7203 111.982C85.4435 112.101 85.1057 112.161 84.7069 112.161ZM84.8676 111.214C85.2843 111.214 85.6354 111.133 85.9211 110.969C86.2098 110.805 86.4271 110.594 86.5729 110.335C86.7217 110.076 86.7961 109.804 86.7961 109.518V108.554C86.7514 108.607 86.6532 108.656 86.5015 108.701C86.3527 108.743 86.1801 108.78 85.9836 108.813C85.7902 108.842 85.6012 108.869 85.4167 108.893C85.2352 108.914 85.0879 108.932 84.9748 108.947C84.701 108.982 84.4451 109.04 84.207 109.121C83.9719 109.198 83.7814 109.316 83.6356 109.473C83.4928 109.628 83.4213 109.839 83.4213 110.107C83.4213 110.473 83.5567 110.75 83.8275 110.938C84.1013 111.122 84.448 111.214 84.8676 111.214ZM89.7724 112V105.143H90.7902V106.179H90.8616C90.9866 105.84 91.2128 105.564 91.5401 105.353C91.8675 105.142 92.2365 105.036 92.6472 105.036C92.7246 105.036 92.8213 105.038 92.9374 105.041C93.0534 105.044 93.1412 105.048 93.2007 105.054V106.125C93.165 106.117 93.0832 106.103 92.9552 106.085C92.8302 106.064 92.6978 106.054 92.5579 106.054C92.2246 106.054 91.927 106.124 91.6651 106.264C91.4062 106.401 91.2009 106.591 91.0491 106.835C90.9003 107.076 90.8259 107.352 90.8259 107.661V112H89.7724ZM97.1156 112.143C96.455 112.143 95.8851 111.997 95.4059 111.705C94.9298 111.411 94.5622 111 94.3033 110.473C94.0474 109.944 93.9194 109.328 93.9194 108.625C93.9194 107.923 94.0474 107.304 94.3033 106.768C94.5622 106.23 94.9223 105.81 95.3836 105.509C95.8479 105.206 96.3895 105.054 97.0085 105.054C97.3656 105.054 97.7183 105.114 98.0664 105.233C98.4146 105.352 98.7316 105.545 99.0173 105.813C99.303 106.078 99.5306 106.429 99.7002 106.866C99.8699 107.304 99.9547 107.843 99.9547 108.482V108.929H94.6694V108.018H98.8833C98.8833 107.631 98.806 107.286 98.6512 106.983C98.4994 106.679 98.2822 106.439 97.9995 106.264C97.7197 106.088 97.3894 106 97.0085 106C96.5889 106 96.2258 106.105 95.9193 106.313C95.6157 106.518 95.3821 106.786 95.2184 107.116C95.0548 107.447 94.9729 107.801 94.9729 108.179V108.786C94.9729 109.304 95.0622 109.743 95.2408 110.103C95.4223 110.46 95.6738 110.732 95.9952 110.92C96.3166 111.104 96.6901 111.196 97.1156 111.196C97.3924 111.196 97.6424 111.158 97.8656 111.08C98.0917 111 98.2867 110.881 98.4503 110.723C98.614 110.563 98.7405 110.363 98.8298 110.125L99.8476 110.411C99.7404 110.756 99.5604 111.06 99.3074 111.321C99.0545 111.58 98.742 111.783 98.37 111.929C97.998 112.071 97.5799 112.143 97.1156 112.143ZM106.414 106.679L105.468 106.947C105.408 106.789 105.32 106.636 105.204 106.487C105.091 106.335 104.936 106.21 104.74 106.112C104.544 106.014 104.292 105.965 103.986 105.965C103.566 105.965 103.216 106.061 102.937 106.255C102.66 106.445 102.521 106.688 102.521 106.983C102.521 107.244 102.617 107.451 102.807 107.603C102.998 107.755 103.295 107.881 103.7 107.982L104.718 108.232C105.331 108.381 105.788 108.609 106.088 108.915C106.389 109.219 106.539 109.61 106.539 110.089C106.539 110.482 106.426 110.833 106.2 111.143C105.977 111.452 105.664 111.696 105.262 111.875C104.861 112.054 104.393 112.143 103.861 112.143C103.161 112.143 102.582 111.991 102.124 111.688C101.666 111.384 101.376 110.941 101.254 110.357L102.254 110.107C102.349 110.476 102.529 110.753 102.794 110.938C103.062 111.122 103.411 111.214 103.843 111.214C104.334 111.214 104.724 111.11 105.012 110.902C105.304 110.691 105.45 110.438 105.45 110.143C105.45 109.905 105.366 109.706 105.2 109.545C105.033 109.381 104.777 109.259 104.432 109.179L103.289 108.911C102.661 108.762 102.2 108.532 101.905 108.219C101.614 107.904 101.468 107.509 101.468 107.036C101.468 106.649 101.577 106.307 101.794 106.009C102.014 105.712 102.313 105.478 102.691 105.309C103.072 105.139 103.504 105.054 103.986 105.054C104.664 105.054 105.197 105.203 105.584 105.5C105.974 105.798 106.25 106.191 106.414 106.679Z" fill="#6C6E79"/>
<path d="M71.4066 132.146C70.858 132.142 70.3286 132.05 69.8182 131.87C69.3113 131.689 68.8564 131.396 68.4537 130.99C68.0509 130.583 67.7315 130.045 67.4954 129.375C67.2628 128.705 67.1465 127.882 67.1465 126.907C67.15 126.011 67.2524 125.211 67.4538 124.506C67.6586 123.797 67.9503 123.197 68.3287 122.704C68.7106 122.211 69.1672 121.836 69.6984 121.579C70.2296 121.319 70.825 121.188 71.4847 121.188C72.1965 121.188 72.8249 121.327 73.37 121.605C73.9151 121.879 74.3526 122.252 74.6824 122.725C75.0157 123.197 75.2171 123.726 75.2865 124.313H73.0627C72.9759 123.942 72.7936 123.65 72.5159 123.438C72.2381 123.226 71.8944 123.12 71.4847 123.12C70.7903 123.12 70.2626 123.423 69.9015 124.027C69.5439 124.631 69.3616 125.452 69.3547 126.49H69.4276C69.5873 126.174 69.8026 125.905 70.0734 125.683C70.3477 125.457 70.6584 125.285 71.0056 125.167C71.3563 125.046 71.726 124.985 72.1149 124.985C72.7468 124.985 73.3092 125.134 73.8023 125.433C74.2953 125.728 74.6841 126.134 74.9688 126.651C75.2535 127.169 75.3959 127.761 75.3959 128.427C75.3959 129.15 75.2275 129.792 74.8907 130.354C74.5574 130.917 74.0904 131.358 73.4898 131.677C72.8926 131.993 72.1982 132.149 71.4066 132.146ZM71.3962 130.375C71.7434 130.375 72.0541 130.292 72.3284 130.125C72.6027 129.958 72.818 129.733 72.9742 129.448C73.1304 129.163 73.2085 128.844 73.2085 128.49C73.2085 128.136 73.1304 127.818 72.9742 127.537C72.8214 127.256 72.6096 127.032 72.3388 126.865C72.068 126.698 71.759 126.615 71.4118 126.615C71.1514 126.615 70.9101 126.664 70.6879 126.761C70.4692 126.858 70.2765 126.993 70.1098 127.167C69.9466 127.341 69.8182 127.542 69.7244 127.771C69.6307 127.997 69.5838 128.238 69.5838 128.495C69.5838 128.839 69.6619 129.153 69.8182 129.438C69.9779 129.722 70.1931 129.95 70.464 130.12C70.7382 130.29 71.049 130.375 71.3962 130.375ZM81.2783 132.146C80.4762 132.146 79.7627 132.016 79.1378 131.755C78.5163 131.491 78.0285 131.132 77.6744 130.677C77.3202 130.222 77.1432 129.707 77.1432 129.13C77.1432 128.686 77.2438 128.278 77.4452 127.907C77.6501 127.532 77.9278 127.221 78.2785 126.974C78.6292 126.724 79.0215 126.565 79.4555 126.495V126.422C78.8861 126.308 78.4243 126.032 78.0702 125.594C77.716 125.153 77.539 124.641 77.539 124.058C77.539 123.506 77.7004 123.015 78.0233 122.584C78.3462 122.15 78.7889 121.81 79.3513 121.563C79.9173 121.313 80.5596 121.188 81.2783 121.188C81.997 121.188 82.6375 121.313 83.2 121.563C83.7659 121.813 84.2103 122.155 84.5332 122.589C84.8561 123.02 85.0193 123.509 85.0228 124.058C85.0193 124.645 84.8388 125.157 84.4811 125.594C84.1235 126.032 83.6652 126.308 83.1062 126.422V126.495C83.5333 126.565 83.9204 126.724 84.2676 126.974C84.6183 127.221 84.896 127.532 85.1009 127.907C85.3092 128.278 85.4151 128.686 85.4186 129.13C85.4151 129.707 85.2363 130.222 84.8822 130.677C84.528 131.132 84.0385 131.491 83.4135 131.755C82.792 132.016 82.0803 132.146 81.2783 132.146ZM81.2783 130.49C81.6359 130.49 81.9483 130.425 82.2157 130.297C82.483 130.165 82.6913 129.985 82.8406 129.755C82.9934 129.523 83.0698 129.255 83.0698 128.953C83.0698 128.644 82.9917 128.372 82.8354 128.136C82.6792 127.896 82.4674 127.709 82.2001 127.573C81.9327 127.434 81.6255 127.365 81.2783 127.365C80.9345 127.365 80.6273 127.434 80.3565 127.573C80.0856 127.709 79.8721 127.896 79.7159 128.136C79.5631 128.372 79.4867 128.644 79.4867 128.953C79.4867 129.255 79.5614 129.523 79.7107 129.755C79.86 129.985 80.07 130.165 80.3408 130.297C80.6116 130.425 80.9241 130.49 81.2783 130.49ZM81.2783 125.724C81.5768 125.724 81.8425 125.664 82.0751 125.542C82.3077 125.421 82.49 125.252 82.6219 125.037C82.7538 124.822 82.8198 124.573 82.8198 124.292C82.8198 124.014 82.7538 123.771 82.6219 123.563C82.49 123.351 82.3094 123.186 82.0803 123.068C81.8511 122.947 81.5838 122.886 81.2783 122.886C80.9762 122.886 80.7089 122.947 80.4762 123.068C80.2436 123.186 80.0613 123.351 79.9294 123.563C79.8009 123.771 79.7367 124.014 79.7367 124.292C79.7367 124.573 79.8027 124.822 79.9346 125.037C80.0665 125.252 80.2488 125.421 80.4814 125.542C80.7141 125.664 80.9797 125.724 81.2783 125.724ZM91.2541 132.146C90.4764 132.146 89.7837 132.012 89.1761 131.745C88.572 131.474 88.0946 131.102 87.7439 130.63C87.3967 130.155 87.2179 129.606 87.2075 128.985H89.4782C89.4921 129.245 89.5771 129.474 89.7334 129.672C89.8931 129.866 90.1049 130.018 90.3687 130.125C90.6326 130.233 90.9295 130.287 91.2593 130.287C91.603 130.287 91.9068 130.226 92.1707 130.104C92.4345 129.983 92.6411 129.814 92.7904 129.599C92.9397 129.384 93.0144 129.136 93.0144 128.854C93.0144 128.57 92.9345 128.318 92.7748 128.099C92.6186 127.877 92.3929 127.703 92.0978 127.578C91.8061 127.453 91.4589 127.391 91.0562 127.391H90.0615V125.735H91.0562C91.3964 125.735 91.6968 125.676 91.9572 125.558C92.221 125.44 92.4259 125.277 92.5717 125.068C92.7175 124.856 92.7904 124.61 92.7904 124.329C92.7904 124.061 92.7262 123.827 92.5977 123.626C92.4727 123.421 92.2957 123.261 92.0665 123.146C91.8408 123.032 91.577 122.975 91.2749 122.975C90.9694 122.975 90.6899 123.03 90.4364 123.141C90.183 123.249 89.9799 123.403 89.8271 123.605C89.6743 123.806 89.5927 124.042 89.5823 124.313H87.421C87.4314 123.699 87.6068 123.157 87.947 122.688C88.2873 122.219 88.7456 121.853 89.3219 121.589C89.9017 121.322 90.5562 121.188 91.2853 121.188C92.0214 121.188 92.6654 121.322 93.2175 121.589C93.7695 121.857 94.1983 122.218 94.5038 122.673C94.8128 123.124 94.9656 123.631 94.9621 124.193C94.9656 124.79 94.7799 125.289 94.4049 125.688C94.0334 126.087 93.549 126.341 92.9519 126.448V126.532C93.7365 126.632 94.3337 126.905 94.7434 127.349C95.1566 127.79 95.3614 128.342 95.3579 129.005C95.3614 129.613 95.1861 130.153 94.8319 130.625C94.4813 131.097 93.9969 131.469 93.3789 131.74C92.7609 132.01 92.0526 132.146 91.2541 132.146Z" fill="#191B23"/>
<path d="M103.309 130.393V124.501H104.309V130.393H103.309ZM100.863 127.947V126.947H106.755V127.947H100.863ZM109.167 132V131.196L112.184 127.893C112.538 127.506 112.83 127.17 113.059 126.884C113.288 126.596 113.458 126.325 113.568 126.072C113.681 125.816 113.738 125.548 113.738 125.268C113.738 124.947 113.66 124.669 113.506 124.434C113.354 124.198 113.145 124.017 112.881 123.889C112.616 123.761 112.318 123.697 111.988 123.697C111.637 123.697 111.33 123.77 111.068 123.916C110.809 124.059 110.608 124.26 110.466 124.518C110.326 124.777 110.256 125.081 110.256 125.429H109.202C109.202 124.893 109.326 124.423 109.573 124.018C109.82 123.614 110.156 123.298 110.582 123.072C111.01 122.846 111.491 122.733 112.024 122.733C112.559 122.733 113.034 122.846 113.448 123.072C113.861 123.298 114.186 123.603 114.421 123.987C114.656 124.371 114.773 124.798 114.773 125.268C114.773 125.605 114.712 125.933 114.59 126.255C114.471 126.573 114.263 126.929 113.965 127.322C113.671 127.712 113.262 128.188 112.738 128.75L110.684 130.947V131.018H114.934V132H109.167ZM117.823 132.071C117.603 132.071 117.414 131.993 117.256 131.835C117.099 131.677 117.02 131.488 117.02 131.268C117.02 131.048 117.099 130.859 117.256 130.701C117.414 130.543 117.603 130.464 117.823 130.464C118.044 130.464 118.233 130.543 118.39 130.701C118.548 130.859 118.627 131.048 118.627 131.268C118.627 131.414 118.59 131.548 118.515 131.67C118.444 131.792 118.347 131.89 118.225 131.964C118.106 132.036 117.972 132.071 117.823 132.071ZM121.267 132L125.356 123.911V123.84H120.642V122.858H126.499V123.893L122.428 132H121.267ZM133.299 130.286V129.804C133.299 129.47 133.367 129.165 133.504 128.889C133.644 128.609 133.846 128.386 134.111 128.219C134.379 128.049 134.703 127.965 135.084 127.965C135.471 127.965 135.796 128.049 136.057 128.219C136.319 128.386 136.517 128.609 136.651 128.889C136.785 129.165 136.852 129.47 136.852 129.804V130.286C136.852 130.619 136.784 130.926 136.647 131.205C136.513 131.482 136.313 131.705 136.049 131.875C135.787 132.042 135.465 132.125 135.084 132.125C134.697 132.125 134.372 132.042 134.107 131.875C133.842 131.705 133.641 131.482 133.504 131.205C133.367 130.926 133.299 130.619 133.299 130.286ZM134.209 129.804V130.286C134.209 130.563 134.275 130.811 134.406 131.031C134.537 131.249 134.763 131.357 135.084 131.357C135.397 131.357 135.617 131.249 135.745 131.031C135.876 130.811 135.941 130.563 135.941 130.286V129.804C135.941 129.527 135.879 129.28 135.754 129.063C135.629 128.842 135.406 128.732 135.084 128.732C134.772 128.732 134.547 128.842 134.41 129.063C134.276 129.28 134.209 129.527 134.209 129.804ZM128.746 125.054V124.572C128.746 124.239 128.814 123.934 128.951 123.657C129.091 123.377 129.293 123.154 129.558 122.987C129.826 122.818 130.15 122.733 130.531 122.733C130.918 122.733 131.242 122.818 131.504 122.987C131.766 123.154 131.964 123.377 132.098 123.657C132.232 123.934 132.299 124.239 132.299 124.572V125.054C132.299 125.387 132.23 125.694 132.093 125.974C131.96 126.25 131.76 126.474 131.495 126.643C131.233 126.81 130.912 126.893 130.531 126.893C130.144 126.893 129.818 126.81 129.553 126.643C129.289 126.474 129.088 126.25 128.951 125.974C128.814 125.694 128.746 125.387 128.746 125.054ZM129.656 124.572V125.054C129.656 125.331 129.722 125.579 129.853 125.8C129.984 126.017 130.21 126.125 130.531 126.125C130.844 126.125 131.064 126.017 131.192 125.8C131.323 125.579 131.388 125.331 131.388 125.054V124.572C131.388 124.295 131.326 124.048 131.201 123.831C131.076 123.611 130.853 123.501 130.531 123.501C130.219 123.501 129.994 123.611 129.857 123.831C129.723 124.048 129.656 124.295 129.656 124.572ZM129.085 132L135.37 122.858H136.388L130.103 132H129.085Z" fill="#007C65"/>
<path d="M309.671 103.334L327 107.779V132.666H171.036V120.222L188.365 111.334L205.695 120.222L223.024 103.334L240.353 111.334L257.683 107.779L275.012 103.334L292.341 107.779L309.671 103.334Z" fill="#E9F7FF"/>
<path d="M327 107.491L309.671 103.334L292.341 107.491L275.012 103.334L257.683 107.491L240.353 110.816L223.024 103.334L205.695 119.128L188.365 110.816L171.036 119.128" stroke="#2BB3FF" stroke-width="2.09508"/>
<rect x="16" y="151.239" width="33.5213" height="33.5213" rx="16.7607" fill="#F4F5F9"/>
<path d="M26.4754 175.333C26.3114 175.332 26.15 175.292 26.004 175.218C25.8313 175.131 25.686 174.997 25.5843 174.833C25.4826 174.668 25.4284 174.479 25.4279 174.285V160.667C25.4279 160.389 25.5382 160.123 25.7347 159.927C25.9311 159.73 26.1976 159.62 26.4754 159.62H39.0459C39.3237 159.62 39.5902 159.73 39.7866 159.927C39.9831 160.123 40.0934 160.389 40.0934 160.667V171.143C40.0934 171.421 39.9831 171.687 39.7866 171.883C39.5902 172.08 39.3237 172.19 39.0459 172.19H31.0741L27.1039 175.113C26.9239 175.253 26.7033 175.33 26.4754 175.333ZM27.5229 161.715V172.19L30.0999 170.284C30.2812 170.148 30.5018 170.074 30.7284 170.074H37.9983V161.694L27.5229 161.715Z" fill="#8A8E9B"/>
<path d="M74.7456 155.715H73.6386C73.5731 155.396 73.4585 155.117 73.2949 154.876C73.1341 154.634 72.9377 154.432 72.7056 154.268C72.4765 154.102 72.222 153.977 71.9423 153.893C71.6625 153.81 71.3709 153.768 71.0673 153.768C70.5138 153.768 70.0124 153.908 69.563 154.188C69.1166 154.468 68.761 154.88 68.4961 155.425C68.2342 155.969 68.1033 156.637 68.1033 157.429C68.1033 158.221 68.2342 158.889 68.4961 159.433C68.761 159.978 69.1166 160.39 69.563 160.67C70.0124 160.949 70.5138 161.089 71.0673 161.089C71.3709 161.089 71.6625 161.048 71.9423 160.964C72.222 160.881 72.4765 160.758 72.7056 160.594C72.9377 160.427 73.1341 160.223 73.2949 159.982C73.4585 159.738 73.5731 159.459 73.6386 159.143H74.7456C74.6623 159.61 74.5105 160.028 74.2903 160.397C74.0701 160.766 73.7963 161.08 73.4689 161.339C73.1416 161.595 72.7741 161.79 72.3664 161.924C71.9616 162.058 71.5286 162.125 71.0673 162.125C70.2876 162.125 69.5942 161.935 68.9871 161.554C68.38 161.173 67.9024 160.631 67.5542 159.929C67.206 159.226 67.0319 158.393 67.0319 157.429C67.0319 156.465 67.206 155.631 67.5542 154.929C67.9024 154.227 68.38 153.685 68.9871 153.304C69.5942 152.923 70.2876 152.733 71.0673 152.733C71.5286 152.733 71.9616 152.8 72.3664 152.934C72.7741 153.068 73.1416 153.264 73.4689 153.523C73.7963 153.779 74.0701 154.091 74.2903 154.46C74.5105 154.826 74.6623 155.245 74.7456 155.715ZM79.1772 162.143C78.5582 162.143 78.0151 161.996 77.5479 161.701C77.0836 161.406 76.7206 160.994 76.4587 160.464C76.1998 159.935 76.0703 159.316 76.0703 158.607C76.0703 157.893 76.1998 157.27 76.4587 156.737C76.7206 156.204 77.0836 155.791 77.5479 155.496C78.0151 155.201 78.5582 155.054 79.1772 155.054C79.7962 155.054 80.3379 155.201 80.8021 155.496C81.2693 155.791 81.6324 156.204 81.8913 156.737C82.1532 157.27 82.2841 157.893 82.2841 158.607C82.2841 159.316 82.1532 159.935 81.8913 160.464C81.6324 160.994 81.2693 161.406 80.8021 161.701C80.3379 161.996 79.7962 162.143 79.1772 162.143ZM79.1772 161.196C79.6474 161.196 80.0343 161.076 80.3379 160.835C80.6414 160.594 80.8661 160.277 81.0119 159.884C81.1577 159.491 81.2306 159.066 81.2306 158.607C81.2306 158.149 81.1577 157.722 81.0119 157.326C80.8661 156.93 80.6414 156.611 80.3379 156.366C80.0343 156.122 79.6474 156 79.1772 156C78.707 156 78.3201 156.122 78.0166 156.366C77.713 156.611 77.4884 156.93 77.3425 157.326C77.1967 157.722 77.1238 158.149 77.1238 158.607C77.1238 159.066 77.1967 159.491 77.3425 159.884C77.4884 160.277 77.713 160.594 78.0166 160.835C78.3201 161.076 78.707 161.196 79.1772 161.196ZM83.8923 162V155.143H84.9101V156.215H84.9993C85.1422 155.849 85.3728 155.564 85.6912 155.362C86.0097 155.157 86.3921 155.054 86.8385 155.054C87.2908 155.054 87.6673 155.157 87.9679 155.362C88.2714 155.564 88.508 155.849 88.6776 156.215H88.7491C88.9246 155.861 89.188 155.579 89.5392 155.371C89.8903 155.16 90.3114 155.054 90.8025 155.054C91.4155 155.054 91.917 155.246 92.3068 155.63C92.6967 156.011 92.8916 156.605 92.8916 157.411V162H91.8381V157.411C91.8381 156.905 91.6997 156.544 91.423 156.326C91.1462 156.109 90.8203 156 90.4454 156C89.9633 156 89.5898 156.146 89.3249 156.438C89.06 156.727 88.9276 157.093 88.9276 157.536V162H87.8563V157.304C87.8563 156.914 87.7298 156.6 87.4768 156.362C87.2239 156.121 86.898 156 86.4992 156C86.2254 156 85.9695 156.073 85.7314 156.219C85.4963 156.365 85.3059 156.567 85.16 156.826C85.0172 157.082 84.9458 157.378 84.9458 157.715V162H83.8923ZM94.8178 162V155.143H95.8356V156.215H95.9249C96.0677 155.849 96.2983 155.564 96.6168 155.362C96.9352 155.157 97.3176 155.054 97.764 155.054C98.2164 155.054 98.5928 155.157 98.8934 155.362C99.1969 155.564 99.4335 155.849 99.6032 156.215H99.6746C99.8502 155.861 100.114 155.579 100.465 155.371C100.816 155.16 101.237 155.054 101.728 155.054C102.341 155.054 102.842 155.246 103.232 155.63C103.622 156.011 103.817 156.605 103.817 157.411V162H102.764V157.411C102.764 156.905 102.625 156.544 102.348 156.326C102.072 156.109 101.746 156 101.371 156C100.889 156 100.515 156.146 100.25 156.438C99.9856 156.727 99.8531 157.093 99.8531 157.536V162H98.7818V157.304C98.7818 156.914 98.6553 156.6 98.4024 156.362C98.1494 156.121 97.8235 156 97.4247 156C97.151 156 96.895 156.073 96.6569 156.219C96.4218 156.365 96.2314 156.567 96.0856 156.826C95.9427 157.082 95.8713 157.378 95.8713 157.715V162H94.8178ZM108.618 162.143C107.957 162.143 107.388 161.997 106.908 161.705C106.432 161.411 106.065 161 105.806 160.473C105.55 159.944 105.422 159.328 105.422 158.625C105.422 157.923 105.55 157.304 105.806 156.768C106.065 156.23 106.425 155.81 106.886 155.509C107.35 155.206 107.892 155.054 108.511 155.054C108.868 155.054 109.221 155.114 109.569 155.233C109.917 155.352 110.234 155.545 110.52 155.813C110.805 156.078 111.033 156.429 111.203 156.866C111.372 157.304 111.457 157.843 111.457 158.482V158.929H106.172V158.018H110.386C110.386 157.631 110.308 157.286 110.154 156.983C110.002 156.679 109.785 156.439 109.502 156.264C109.222 156.088 108.892 156 108.511 156C108.091 156 107.728 156.105 107.422 156.313C107.118 156.518 106.885 156.786 106.721 157.116C106.557 157.447 106.475 157.801 106.475 158.179V158.786C106.475 159.304 106.565 159.743 106.743 160.103C106.925 160.46 107.176 160.732 107.498 160.92C107.819 161.104 108.193 161.196 108.618 161.196C108.895 161.196 109.145 161.158 109.368 161.08C109.594 161 109.789 160.881 109.953 160.723C110.117 160.563 110.243 160.363 110.332 160.125L111.35 160.411C111.243 160.756 111.063 161.06 110.81 161.321C110.557 161.58 110.244 161.783 109.872 161.929C109.5 162.071 109.082 162.143 108.618 162.143ZM114.113 157.875V162H113.06V155.143H114.078V156.215H114.167C114.328 155.867 114.572 155.587 114.899 155.375C115.226 155.161 115.649 155.054 116.167 155.054C116.631 155.054 117.037 155.149 117.385 155.34C117.734 155.527 118.004 155.813 118.198 156.197C118.391 156.578 118.488 157.06 118.488 157.643V162H117.434V157.715C117.434 157.176 117.295 156.756 117.015 156.456C116.735 156.152 116.351 156 115.863 156C115.527 156 115.226 156.073 114.961 156.219C114.7 156.365 114.493 156.578 114.341 156.858C114.189 157.137 114.113 157.477 114.113 157.875ZM123.395 155.143V156.036H119.842V155.143H123.395ZM120.877 153.501H121.931V160.036C121.931 160.333 121.974 160.557 122.06 160.705C122.149 160.851 122.263 160.949 122.399 161C122.539 161.048 122.687 161.071 122.841 161.071C122.957 161.071 123.053 161.066 123.127 161.054C123.201 161.039 123.261 161.027 123.306 161.018L123.52 161.964C123.448 161.991 123.349 162.018 123.221 162.045C123.093 162.074 122.931 162.089 122.734 162.089C122.437 162.089 122.145 162.025 121.859 161.897C121.577 161.769 121.341 161.574 121.154 161.313C120.969 161.051 120.877 160.72 120.877 160.322V153.501ZM129.714 156.679L128.767 156.947C128.708 156.789 128.62 156.636 128.504 156.487C128.391 156.335 128.236 156.21 128.04 156.112C127.843 156.014 127.592 155.965 127.285 155.965C126.866 155.965 126.516 156.061 126.236 156.255C125.959 156.445 125.821 156.688 125.821 156.983C125.821 157.244 125.916 157.451 126.107 157.603C126.297 157.755 126.595 157.881 127 157.982L128.017 158.232C128.63 158.381 129.087 158.609 129.388 158.915C129.688 159.219 129.839 159.61 129.839 160.089C129.839 160.482 129.726 160.833 129.499 161.143C129.276 161.452 128.964 161.696 128.562 161.875C128.16 162.054 127.693 162.143 127.16 162.143C126.461 162.143 125.882 161.991 125.424 161.688C124.965 161.384 124.675 160.941 124.553 160.357L125.553 160.107C125.648 160.476 125.829 160.753 126.093 160.938C126.361 161.122 126.711 161.214 127.142 161.214C127.633 161.214 128.023 161.11 128.312 160.902C128.604 160.691 128.749 160.438 128.749 160.143C128.749 159.905 128.666 159.706 128.499 159.545C128.333 159.381 128.077 159.259 127.732 159.179L126.589 158.911C125.961 158.762 125.5 158.532 125.205 158.219C124.913 157.904 124.768 157.509 124.768 157.036C124.768 156.649 124.876 156.307 125.093 156.009C125.314 155.712 125.613 155.478 125.991 155.309C126.372 155.139 126.803 155.054 127.285 155.054C127.964 155.054 128.496 155.203 128.883 155.5C129.273 155.798 129.55 156.191 129.714 156.679Z" fill="#6C6E79"/>
<path d="M73.3075 171.334V182H71.0525V173.475H70.99L68.5474 175.006V173.006L71.1879 171.334H73.3075ZM81.2731 182.146C80.537 182.146 79.8808 182.01 79.3044 181.74C78.7316 181.469 78.2767 181.096 77.94 180.62C77.6032 180.144 77.4279 179.599 77.414 178.985H79.6013C79.6256 179.398 79.7992 179.733 80.1221 179.99C80.445 180.247 80.8286 180.375 81.2731 180.375C81.6272 180.375 81.9397 180.297 82.2105 180.141C82.4848 179.981 82.6983 179.761 82.8511 179.479C83.0073 179.195 83.0854 178.868 83.0854 178.5C83.0854 178.125 83.0056 177.795 82.8459 177.511C82.6896 177.226 82.4726 177.004 82.1949 176.844C81.9171 176.684 81.5994 176.603 81.2418 176.599C80.9293 176.599 80.6255 176.664 80.3304 176.792C80.0388 176.921 79.8114 177.096 79.6482 177.318L77.6431 176.959L78.1483 171.334H84.6686V173.178H80.0075L79.7315 175.849H79.794C79.9815 175.586 80.2644 175.367 80.6429 175.193C81.0213 175.02 81.4449 174.933 81.9136 174.933C82.5559 174.933 83.1288 175.084 83.6323 175.386C84.1357 175.688 84.5332 176.103 84.8249 176.631C85.1165 177.155 85.2606 177.759 85.2571 178.443C85.2606 179.162 85.0939 179.801 84.7572 180.359C84.4239 180.915 83.9569 181.352 83.3562 181.672C82.7591 181.988 82.0647 182.146 81.2731 182.146ZM91.2697 182.146C90.5336 182.146 89.8774 182.01 89.3011 181.74C88.7282 181.469 88.2734 181.096 87.9366 180.62C87.5998 180.144 87.4245 179.599 87.4106 178.985H89.598C89.6223 179.398 89.7959 179.733 90.1187 179.99C90.4416 180.247 90.8253 180.375 91.2697 180.375C91.6238 180.375 91.9363 180.297 92.2071 180.141C92.4814 179.981 92.6949 179.761 92.8477 179.479C93.0039 179.195 93.0821 178.868 93.0821 178.5C93.0821 178.125 93.0022 177.795 92.8425 177.511C92.6863 177.226 92.4693 177.004 92.1915 176.844C91.9138 176.684 91.5961 176.603 91.2385 176.599C90.926 176.599 90.6222 176.664 90.3271 176.792C90.0354 176.921 89.808 177.096 89.6448 177.318L87.6398 176.959L88.1449 171.334H94.6653V173.178H90.0042L89.7282 175.849H89.7906C89.9781 175.586 90.2611 175.367 90.6395 175.193C91.018 175.02 91.4416 174.933 91.9103 174.933C92.5526 174.933 93.1255 175.084 93.6289 175.386C94.1323 175.688 94.5299 176.103 94.8215 176.631C95.1132 177.155 95.2573 177.759 95.2538 178.443C95.2573 179.162 95.0906 179.801 94.7538 180.359C94.4205 180.915 93.9535 181.352 93.3529 181.672C92.7557 181.988 92.0613 182.146 91.2697 182.146Z" fill="#191B23"/>
<path d="M106.666 176.929V177.929H100.952V176.929H106.666ZM108.685 180.125V179.214L112.702 172.858H113.363V174.268H112.916L109.881 179.072V179.143H115.291V180.125H108.685ZM112.988 182V179.848V179.424V172.858H114.041V182H112.988ZM117.823 182.071C117.603 182.071 117.414 181.993 117.256 181.835C117.099 181.677 117.02 181.488 117.02 181.268C117.02 181.048 117.099 180.859 117.256 180.701C117.414 180.543 117.603 180.464 117.823 180.464C118.044 180.464 118.233 180.543 118.39 180.701C118.548 180.859 118.627 181.048 118.627 181.268C118.627 181.414 118.59 181.548 118.515 181.67C118.444 181.792 118.347 181.89 118.225 181.964C118.106 182.036 117.972 182.071 117.823 182.071ZM123.66 182.125C123.071 182.125 122.545 182.024 122.084 181.821C121.626 181.619 121.261 181.338 120.991 180.978C120.723 180.615 120.577 180.194 120.553 179.714H121.678C121.702 180.009 121.803 180.264 121.982 180.478C122.16 180.689 122.394 180.853 122.682 180.969C122.971 181.085 123.291 181.143 123.642 181.143C124.035 181.143 124.383 181.074 124.687 180.938C124.99 180.801 125.228 180.61 125.401 180.366C125.574 180.122 125.66 179.839 125.66 179.518C125.66 179.182 125.576 178.886 125.41 178.63C125.243 178.371 124.999 178.168 124.678 178.023C124.356 177.877 123.964 177.804 123.499 177.804H122.767V176.822H123.499C123.862 176.822 124.181 176.756 124.455 176.625C124.731 176.494 124.947 176.31 125.102 176.072C125.26 175.834 125.338 175.554 125.338 175.233C125.338 174.923 125.27 174.654 125.133 174.425C124.996 174.196 124.803 174.017 124.553 173.889C124.306 173.761 124.014 173.697 123.678 173.697C123.362 173.697 123.065 173.755 122.785 173.871C122.508 173.984 122.282 174.149 122.107 174.367C121.931 174.581 121.836 174.84 121.821 175.143H120.749C120.767 174.664 120.912 174.245 121.182 173.885C121.453 173.521 121.807 173.239 122.245 173.036C122.685 172.834 123.169 172.733 123.696 172.733C124.261 172.733 124.746 172.847 125.151 173.077C125.556 173.303 125.867 173.602 126.084 173.974C126.301 174.346 126.41 174.748 126.41 175.179C126.41 175.694 126.274 176.133 126.004 176.496C125.736 176.859 125.371 177.11 124.91 177.25V177.322C125.487 177.417 125.938 177.663 126.262 178.058C126.587 178.451 126.749 178.938 126.749 179.518C126.749 180.015 126.614 180.461 126.343 180.857C126.075 181.25 125.709 181.56 125.245 181.786C124.78 182.012 124.252 182.125 123.66 182.125ZM133.299 180.286V179.804C133.299 179.47 133.367 179.165 133.504 178.889C133.644 178.609 133.846 178.386 134.111 178.219C134.379 178.049 134.703 177.965 135.084 177.965C135.471 177.965 135.796 178.049 136.057 178.219C136.319 178.386 136.517 178.609 136.651 178.889C136.785 179.165 136.852 179.47 136.852 179.804V180.286C136.852 180.619 136.784 180.926 136.647 181.205C136.513 181.482 136.313 181.705 136.049 181.875C135.787 182.042 135.465 182.125 135.084 182.125C134.697 182.125 134.372 182.042 134.107 181.875C133.842 181.705 133.641 181.482 133.504 181.205C133.367 180.926 133.299 180.619 133.299 180.286ZM134.209 179.804V180.286C134.209 180.563 134.275 180.811 134.406 181.031C134.537 181.249 134.763 181.357 135.084 181.357C135.397 181.357 135.617 181.249 135.745 181.031C135.876 180.811 135.941 180.563 135.941 180.286V179.804C135.941 179.527 135.879 179.28 135.754 179.063C135.629 178.842 135.406 178.732 135.084 178.732C134.772 178.732 134.547 178.842 134.41 179.063C134.276 179.28 134.209 179.527 134.209 179.804ZM128.746 175.054V174.572C128.746 174.239 128.814 173.934 128.951 173.657C129.091 173.377 129.293 173.154 129.558 172.987C129.826 172.818 130.15 172.733 130.531 172.733C130.918 172.733 131.242 172.818 131.504 172.987C131.766 173.154 131.964 173.377 132.098 173.657C132.232 173.934 132.299 174.239 132.299 174.572V175.054C132.299 175.387 132.23 175.694 132.093 175.974C131.96 176.25 131.76 176.474 131.495 176.643C131.233 176.81 130.912 176.893 130.531 176.893C130.144 176.893 129.818 176.81 129.553 176.643C129.289 176.474 129.088 176.25 128.951 175.974C128.814 175.694 128.746 175.387 128.746 175.054ZM129.656 174.572V175.054C129.656 175.331 129.722 175.579 129.853 175.8C129.984 176.017 130.21 176.125 130.531 176.125C130.844 176.125 131.064 176.017 131.192 175.8C131.323 175.579 131.388 175.331 131.388 175.054V174.572C131.388 174.295 131.326 174.048 131.201 173.831C131.076 173.611 130.853 173.501 130.531 173.501C130.219 173.501 129.994 173.611 129.857 173.831C129.723 174.048 129.656 174.295 129.656 174.572ZM129.085 182L135.37 172.858H136.388L130.103 182H129.085Z" fill="#D1002F"/>
<path d="M188.365 153.334L171.036 157.779V182.666H327V170.222L309.671 161.334L292.341 170.222L275.012 153.334L257.683 161.334L240.353 157.779L223.024 153.334L205.695 157.779L188.365 153.334Z" fill="#E9F7FF"/>
<path d="M171.036 157.491L188.365 153.334L205.695 157.491L223.024 153.334L240.353 157.491L257.683 160.816L275.012 153.334L292.341 169.128L309.671 160.816L327 169.128" stroke="#2BB3FF" stroke-width="2.09508"/>
<rect x="16" y="201.239" width="33.5213" height="33.5213" rx="16.7607" fill="#F4F5F9"/>
<path fill-rule="evenodd" clip-rule="evenodd" d="M31.8301 220.376C32.1488 220.192 32.5105 220.095 32.8787 220.095H35.0843L28.5705 213.573L28.5705 222.261L31.8301 220.376ZM26.4755 210.407C26.4755 209.707 27.3202 209.356 27.8146 209.851L38.8144 220.865C39.3089 221.36 38.9589 222.19 38.2598 222.19H32.8787L27.7671 225.145C27.2574 225.578 26.4755 225.215 26.4755 224.546L26.4755 210.407Z" fill="#8A8E9B"/>
<path d="M74.7456 205.715H73.6386C73.5731 205.396 73.4585 205.117 73.2949 204.876C73.1341 204.634 72.9377 204.432 72.7056 204.268C72.4765 204.102 72.222 203.977 71.9423 203.893C71.6625 203.81 71.3709 203.768 71.0673 203.768C70.5138 203.768 70.0124 203.908 69.563 204.188C69.1166 204.468 68.761 204.88 68.4961 205.425C68.2342 205.969 68.1033 206.637 68.1033 207.429C68.1033 208.221 68.2342 208.889 68.4961 209.433C68.761 209.978 69.1166 210.39 69.563 210.67C70.0124 210.949 70.5138 211.089 71.0673 211.089C71.3709 211.089 71.6625 211.048 71.9423 210.964C72.222 210.881 72.4765 210.758 72.7056 210.594C72.9377 210.427 73.1341 210.223 73.2949 209.982C73.4585 209.738 73.5731 209.459 73.6386 209.143H74.7456C74.6623 209.61 74.5105 210.028 74.2903 210.397C74.0701 210.766 73.7963 211.08 73.4689 211.339C73.1416 211.595 72.7741 211.79 72.3664 211.924C71.9616 212.058 71.5286 212.125 71.0673 212.125C70.2876 212.125 69.5942 211.935 68.9871 211.554C68.38 211.173 67.9024 210.631 67.5542 209.929C67.206 209.226 67.0319 208.393 67.0319 207.429C67.0319 206.465 67.206 205.631 67.5542 204.929C67.9024 204.227 68.38 203.685 68.9871 203.304C69.5942 202.923 70.2876 202.733 71.0673 202.733C71.5286 202.733 71.9616 202.8 72.3664 202.934C72.7741 203.068 73.1416 203.264 73.4689 203.523C73.7963 203.779 74.0701 204.091 74.2903 204.46C74.5105 204.826 74.6623 205.245 74.7456 205.715ZM77.4452 202.858V212H76.3917V202.858H77.4452ZM79.3748 212V205.143H80.4282V212H79.3748ZM79.9104 204.001C79.7051 204.001 79.528 203.931 79.3792 203.791C79.2334 203.651 79.1605 203.483 79.1605 203.286C79.1605 203.09 79.2334 202.922 79.3792 202.782C79.528 202.642 79.7051 202.572 79.9104 202.572C80.1158 202.572 80.2914 202.642 80.4372 202.782C80.586 202.922 80.6604 203.09 80.6604 203.286C80.6604 203.483 80.586 203.651 80.4372 203.791C80.2914 203.931 80.1158 204.001 79.9104 204.001ZM85.1433 212.143C84.5005 212.143 83.947 211.991 83.4827 211.688C83.0185 211.384 82.6613 210.966 82.4114 210.433C82.1614 209.9 82.0364 209.292 82.0364 208.607C82.0364 207.911 82.1644 207.296 82.4203 206.764C82.6792 206.228 83.0393 205.81 83.5006 205.509C83.9648 205.206 84.5064 205.054 85.1254 205.054C85.6075 205.054 86.042 205.143 86.4289 205.322C86.8158 205.5 87.1327 205.75 87.3797 206.072C87.6267 206.393 87.78 206.768 87.8395 207.197H86.786C86.7057 206.884 86.5271 206.608 86.2504 206.366C85.9766 206.122 85.6075 206 85.1433 206C84.7326 206 84.3725 206.108 84.063 206.322C83.7565 206.533 83.5169 206.832 83.3443 207.219C83.1747 207.603 83.0899 208.054 83.0899 208.572C83.0899 209.101 83.1732 209.563 83.3399 209.956C83.5095 210.348 83.7476 210.653 84.0541 210.871C84.3636 211.088 84.7267 211.196 85.1433 211.196C85.4171 211.196 85.6656 211.149 85.8888 211.054C86.112 210.958 86.301 210.822 86.4557 210.643C86.6105 210.464 86.7206 210.25 86.786 210H87.8395C87.78 210.405 87.6327 210.769 87.3976 211.094C87.1655 211.415 86.8575 211.671 86.4736 211.862C86.0926 212.049 85.6492 212.143 85.1433 212.143ZM90.3617 209.5L90.3438 208.197H90.5581L93.5579 205.143H94.8613L91.6651 208.375H91.5759L90.3617 209.5ZM89.3796 212V202.858H90.4331V212H89.3796ZM93.7364 212L91.058 208.607L91.808 207.875L95.0756 212H93.7364ZM101.074 206.679L100.128 206.947C100.068 206.789 99.9804 206.636 99.8643 206.487C99.7512 206.335 99.5965 206.21 99.4 206.112C99.2036 206.014 98.9522 205.965 98.6456 205.965C98.226 205.965 97.8764 206.061 97.5966 206.255C97.3198 206.445 97.1815 206.688 97.1815 206.983C97.1815 207.244 97.2767 207.451 97.4672 207.603C97.6576 207.755 97.9552 207.881 98.3599 207.982L99.3777 208.232C99.9908 208.381 100.448 208.609 100.748 208.915C101.049 209.219 101.199 209.61 101.199 210.089C101.199 210.482 101.086 210.833 100.86 211.143C100.637 211.452 100.324 211.696 99.9223 211.875C99.5206 212.054 99.0533 212.143 98.5206 212.143C97.8213 212.143 97.2425 211.991 96.7842 211.688C96.3259 211.384 96.0357 210.941 95.9137 210.357L96.9136 210.107C97.0089 210.476 97.1889 210.753 97.4538 210.938C97.7216 211.122 98.0713 211.214 98.5028 211.214C98.9938 211.214 99.3837 211.11 99.6723 210.902C99.964 210.691 100.11 210.438 100.11 210.143C100.11 209.905 100.026 209.706 99.8598 209.545C99.6932 209.381 99.4372 209.259 99.092 209.179L97.9493 208.911C97.3213 208.762 96.8601 208.532 96.5654 208.219C96.2738 207.904 96.128 207.509 96.128 207.036C96.128 206.649 96.2366 206.307 96.4538 206.009C96.6741 205.712 96.9731 205.478 97.3511 205.309C97.732 205.139 98.1635 205.054 98.6456 205.054C99.3242 205.054 99.8569 205.203 100.244 205.5C100.634 205.798 100.91 206.191 101.074 206.679Z" fill="#6C6E79"/>
<path d="M73.3075 221.334V232H71.0525V223.475H70.99L68.5474 225.006V223.006L71.1879 221.334H73.3075ZM81.4033 232.146C80.8547 232.142 80.3252 232.05 79.8148 231.87C79.3079 231.689 78.8531 231.396 78.4503 230.99C78.0476 230.583 77.7282 230.045 77.4921 229.375C77.2595 228.705 77.1432 227.882 77.1432 226.907C77.1466 226.011 77.249 225.211 77.4504 224.506C77.6553 223.797 77.9469 223.197 78.3254 222.704C78.7073 222.211 79.1638 221.836 79.695 221.579C80.2263 221.319 80.8217 221.188 81.4814 221.188C82.1931 221.188 82.8215 221.327 83.3666 221.605C83.9117 221.879 84.3492 222.252 84.679 222.725C85.0124 223.197 85.2137 223.726 85.2832 224.313H83.0594C82.9726 223.942 82.7903 223.65 82.5125 223.438C82.2348 223.226 81.8911 223.12 81.4814 223.12C80.787 223.12 80.2592 223.423 79.8982 224.027C79.5405 224.631 79.3583 225.452 79.3513 226.49H79.4242C79.5839 226.174 79.7992 225.905 80.07 225.683C80.3443 225.457 80.655 225.285 81.0022 225.167C81.3529 225.046 81.7227 224.985 82.1115 224.985C82.7434 224.985 83.3059 225.134 83.7989 225.433C84.2919 225.728 84.6808 226.134 84.9655 226.651C85.2502 227.169 85.3925 227.761 85.3925 228.427C85.3925 229.15 85.2241 229.792 84.8874 230.354C84.5541 230.917 84.0871 231.358 83.4864 231.677C82.8893 231.993 82.1949 232.149 81.4033 232.146ZM81.3928 230.375C81.74 230.375 82.0508 230.292 82.3251 230.125C82.5993 229.958 82.8146 229.733 82.9708 229.448C83.1271 229.163 83.2052 228.844 83.2052 228.49C83.2052 228.136 83.1271 227.818 82.9708 227.537C82.8181 227.256 82.6063 227.032 82.3355 226.865C82.0647 226.698 81.7557 226.615 81.4085 226.615C81.1481 226.615 80.9068 226.664 80.6846 226.761C80.4658 226.858 80.2731 226.993 80.1065 227.167C79.9433 227.341 79.8148 227.542 79.7211 227.771C79.6273 227.997 79.5805 228.238 79.5805 228.495C79.5805 228.839 79.6586 229.153 79.8148 229.438C79.9745 229.722 80.1898 229.95 80.4606 230.12C80.7349 230.29 81.0456 230.375 81.3928 230.375ZM89.5615 230.542L89.5042 231.115C89.4591 231.573 89.3723 232.03 89.2438 232.484C89.1188 232.943 88.9869 233.358 88.848 233.729C88.7126 234.101 88.6032 234.392 88.5199 234.604H87.0825C87.1346 234.399 87.2058 234.113 87.296 233.745C87.3863 233.38 87.4714 232.97 87.5512 232.516C87.6311 232.061 87.6814 231.597 87.7023 231.125L87.7283 230.542H89.5615ZM95.6366 232.146C94.8588 232.146 94.1662 232.012 93.5586 231.745C92.9545 231.474 92.4771 231.102 92.1264 230.63C91.7792 230.155 91.6004 229.606 91.59 228.985H93.8607C93.8745 229.245 93.9596 229.474 94.1158 229.672C94.2756 229.866 94.4873 230.018 94.7512 230.125C95.0151 230.233 95.3119 230.287 95.6418 230.287C95.9855 230.287 96.2893 230.226 96.5532 230.104C96.817 229.983 97.0236 229.814 97.1729 229.599C97.3222 229.384 97.3969 229.136 97.3969 228.854C97.3969 228.57 97.317 228.318 97.1573 228.099C97.001 227.877 96.7754 227.703 96.4803 227.578C96.1886 227.453 95.8414 227.391 95.4387 227.391H94.4439V225.735H95.4387C95.7789 225.735 96.0792 225.676 96.3396 225.558C96.6035 225.44 96.8084 225.277 96.9542 225.068C97.1 224.856 97.1729 224.61 97.1729 224.329C97.1729 224.061 97.1087 223.827 96.9802 223.626C96.8552 223.421 96.6782 223.261 96.449 223.146C96.2233 223.032 95.9595 222.975 95.6574 222.975C95.3519 222.975 95.0724 223.03 94.8189 223.141C94.5655 223.249 94.3624 223.403 94.2096 223.605C94.0568 223.806 93.9752 224.042 93.9648 224.313H91.8035C91.8139 223.699 91.9893 223.157 92.3295 222.688C92.6698 222.219 93.1281 221.853 93.7044 221.589C94.2842 221.322 94.9387 221.188 95.6678 221.188C96.4039 221.188 97.0479 221.322 97.6 221.589C98.152 221.857 98.5808 222.218 98.8863 222.673C99.1953 223.124 99.3481 223.631 99.3446 224.193C99.3481 224.79 99.1623 225.289 98.7874 225.688C98.4159 226.087 97.9315 226.341 97.3344 226.448V226.532C98.119 226.632 98.7162 226.905 99.1259 227.349C99.5391 227.79 99.7439 228.342 99.7404 229.005C99.7439 229.613 99.5686 230.153 99.2144 230.625C98.8638 231.097 98.3794 231.469 97.7614 231.74C97.1434 232.01 96.4351 232.146 95.6366 232.146ZM105.649 232.146C104.913 232.146 104.257 232.01 103.68 231.74C103.107 231.469 102.653 231.096 102.316 230.62C101.979 230.144 101.804 229.599 101.79 228.985H103.977C104.001 229.398 104.175 229.733 104.498 229.99C104.821 230.247 105.204 230.375 105.649 230.375C106.003 230.375 106.315 230.297 106.586 230.141C106.861 229.981 107.074 229.761 107.227 229.479C107.383 229.195 107.461 228.868 107.461 228.5C107.461 228.125 107.381 227.795 107.222 227.511C107.065 227.226 106.848 227.004 106.571 226.844C106.293 226.684 105.975 226.603 105.618 226.599C105.305 226.599 105.001 226.664 104.706 226.792C104.415 226.921 104.187 227.096 104.024 227.318L102.019 226.959L102.524 221.334H109.044V223.178H104.383L104.107 225.849H104.17C104.357 225.586 104.64 225.367 105.019 225.193C105.397 225.02 105.821 224.933 106.289 224.933C106.932 224.933 107.505 225.084 108.008 225.386C108.511 225.688 108.909 226.103 109.201 226.631C109.492 227.155 109.636 227.759 109.633 228.443C109.636 229.162 109.47 229.801 109.133 230.359C108.8 230.915 108.333 231.352 107.732 231.672C107.135 231.988 106.44 232.146 105.649 232.146ZM115.645 232.146C114.909 232.146 114.253 232.01 113.677 231.74C113.104 231.469 112.649 231.096 112.312 230.62C111.976 230.144 111.8 229.599 111.786 228.985H113.974C113.998 229.398 114.172 229.733 114.495 229.99C114.817 230.247 115.201 230.375 115.645 230.375C116 230.375 116.312 230.297 116.583 230.141C116.857 229.981 117.071 229.761 117.223 229.479C117.38 229.195 117.458 228.868 117.458 228.5C117.458 228.125 117.378 227.795 117.218 227.511C117.062 227.226 116.845 227.004 116.567 226.844C116.29 226.684 115.972 226.603 115.614 226.599C115.302 226.599 114.998 226.664 114.703 226.792C114.411 226.921 114.184 227.096 114.021 227.318L112.016 226.959L112.521 221.334H119.041V223.178H114.38L114.104 225.849H114.166C114.354 225.586 114.637 225.367 115.015 225.193C115.394 225.02 115.817 224.933 116.286 224.933C116.928 224.933 117.501 225.084 118.005 225.386C118.508 225.688 118.906 226.103 119.197 226.631C119.489 227.155 119.633 227.759 119.63 228.443C119.633 229.162 119.466 229.801 119.13 230.359C118.796 230.915 118.329 231.352 117.729 231.672C117.131 231.988 116.437 232.146 115.645 232.146Z" fill="#191B23"/>
<path d="M127.685 230.393V224.501H128.685V230.393H127.685ZM125.238 227.947V226.947H131.131V227.947H125.238ZM137.631 222.858V232H136.524V224.018H136.471L134.239 225.5V224.376L136.524 222.858H137.631ZM146.074 230.286V229.804C146.074 229.47 146.142 229.165 146.279 228.889C146.419 228.609 146.621 228.386 146.886 228.219C147.154 228.049 147.478 227.965 147.859 227.965C148.246 227.965 148.571 228.049 148.833 228.219C149.094 228.386 149.292 228.609 149.426 228.889C149.56 229.165 149.627 229.47 149.627 229.804V230.286C149.627 230.619 149.559 230.926 149.422 231.205C149.288 231.482 149.088 231.705 148.824 231.875C148.562 232.042 148.24 232.125 147.859 232.125C147.473 232.125 147.147 232.042 146.882 231.875C146.617 231.705 146.416 231.482 146.279 231.205C146.142 230.926 146.074 230.619 146.074 230.286ZM146.984 229.804V230.286C146.984 230.563 147.05 230.811 147.181 231.031C147.312 231.249 147.538 231.357 147.859 231.357C148.172 231.357 148.392 231.249 148.52 231.031C148.651 230.811 148.717 230.563 148.717 230.286V229.804C148.717 229.527 148.654 229.28 148.529 229.063C148.404 228.842 148.181 228.732 147.859 228.732C147.547 228.732 147.322 228.842 147.185 229.063C147.051 229.28 146.984 229.527 146.984 229.804ZM141.521 225.054V224.572C141.521 224.239 141.589 223.934 141.726 223.657C141.866 223.377 142.068 223.154 142.333 222.987C142.601 222.818 142.925 222.733 143.306 222.733C143.693 222.733 144.017 222.818 144.279 222.987C144.541 223.154 144.739 223.377 144.873 223.657C145.007 223.934 145.074 224.239 145.074 224.572V225.054C145.074 225.387 145.005 225.694 144.869 225.974C144.735 226.25 144.535 226.474 144.27 226.643C144.009 226.81 143.687 226.893 143.306 226.893C142.919 226.893 142.593 226.81 142.329 226.643C142.064 226.474 141.863 226.25 141.726 225.974C141.589 225.694 141.521 225.387 141.521 225.054ZM142.431 224.572V225.054C142.431 225.331 142.497 225.579 142.628 225.8C142.759 226.017 142.985 226.125 143.306 226.125C143.619 226.125 143.839 226.017 143.967 225.8C144.098 225.579 144.163 225.331 144.163 225.054V224.572C144.163 224.295 144.101 224.048 143.976 223.831C143.851 223.611 143.628 223.501 143.306 223.501C142.994 223.501 142.769 223.611 142.632 223.831C142.498 224.048 142.431 224.295 142.431 224.572ZM141.86 232L148.145 222.858H149.163L142.878 232H141.86Z" fill="#007C65"/>
<path d="M188.365 203.334L171.036 207.779V232.666H327V220.222L309.671 211.334L292.341 220.222L275.012 203.334L257.683 211.334L240.353 207.779L223.024 203.334L205.695 207.779L188.365 203.334Z" fill="#E9F7FF"/>
<path d="M171.036 207.491L188.365 203.334L205.695 207.491L223.024 203.334L240.353 207.491L257.683 210.816L275.012 203.334L292.341 219.128L309.671 210.816L327 219.128" stroke="#2BB3FF" stroke-width="2.09508"/>
</svg>
