<svg width="280" height="280" viewBox="0 0 280 280" fill="none" xmlns="http://www.w3.org/2000/svg">
<g clip-path="url(#clip0_1337_157339)">
<path fill-rule="evenodd" clip-rule="evenodd" d="M89.2811 38.7444L87.932 38.7606C70.0343 38.9725 52.2052 42.1873 35.2675 48.359L35.2637 48.3602C35.0741 48.4291 34.9224 48.6039 34.881 48.8005L34.8806 48.802C31.1527 66.4399 30.475 84.5449 32.7801 102.296L32.9533 103.63L19.024 119.676C4.47606 136.434 6.26919 161.817 23.0295 176.369C23.0296 176.369 23.0295 176.369 23.0295 176.369L39.0799 190.303L39.0959 191.648C39.31 209.547 42.5266 227.377 48.7003 244.316L48.7009 244.318C48.7699 244.507 48.9458 244.659 49.1407 244.7L49.1427 244.701C66.7803 248.433 84.8815 249.112 102.631 246.806L103.969 246.633L120.021 260.567C136.779 275.116 162.157 273.325 176.703 256.568L190.637 240.518L191.986 240.502C209.884 240.293 227.71 237.078 244.645 230.907L244.649 230.905C244.834 230.838 244.988 230.666 245.033 230.461C248.763 212.824 249.44 194.72 247.135 176.97L246.962 175.635L260.894 159.586C275.444 142.825 273.651 117.442 256.889 102.893L240.84 88.9621L240.825 87.6168C240.614 69.7181 237.397 51.8881 231.224 34.9491L231.222 34.9474C231.154 34.7573 230.978 34.6058 230.783 34.5647L230.781 34.5643C213.14 30.8323 195.036 30.1529 177.286 32.4561L175.949 32.6295L159.897 18.6949C143.138 4.14723 117.761 5.93767 103.214 22.6944L89.2811 38.7444ZM247.969 231.083C247.71 232.294 246.839 233.3 245.673 233.723C228.417 240.012 210.255 243.286 192.021 243.501L178.971 258.533C163.338 276.541 136.062 278.466 118.052 262.831L103.018 249.78C84.9353 252.129 66.493 251.437 48.5206 247.634C47.3099 247.379 46.3028 246.504 45.8799 245.342C39.5893 228.082 36.3126 209.917 36.0948 191.684L21.0608 178.633C3.05037 162.996 1.12317 135.72 16.7565 117.711L29.8035 102.682C27.4555 84.599 28.1454 66.1541 31.9439 48.1826C32.1992 46.9721 33.0736 45.9649 34.2392 45.542C51.4984 39.2531 69.6633 35.9782 87.8965 35.7623L100.947 20.7297C116.579 2.72129 143.856 0.796655 161.865 16.4316L176.9 29.4824C194.983 27.1361 213.428 27.8279 231.403 31.6308C232.613 31.8861 233.621 32.7605 234.044 33.9232C240.334 51.1829 243.612 69.3477 243.826 87.5818L258.857 100.629C276.87 116.264 278.797 143.54 263.161 161.552L250.112 176.583C252.46 194.666 251.77 213.111 247.969 231.083Z" fill="#FFFF54"/>
<path d="M60.0866 175.066C54.7947 165.582 57.6352 157.113 65.5119 152.739C71.6165 149.35 77.3243 150.181 81.4573 154.352L90.5189 145.322C82.6013 137.295 70.8853 136.483 59.8576 142.606C45.351 150.66 40.5892 167.088 48.5995 181.444C56.8275 196.191 73.2744 201.013 87.7809 192.958C101.959 185.086 105.886 170.398 98.5645 157.276L95.7738 152.274L68.6641 167.326L73.9923 176.875L89.5492 168.238C91.4799 173.547 89.193 179.156 82.4322 182.91C73.8989 187.648 65.5962 184.941 60.0866 175.066Z" fill="#FFFF54"/>
<path d="M110.446 179.353L121.54 173.194L119.08 158.308L136.541 148.614L147.927 158.542L159.545 152.092L113.851 113.649L101.838 120.319L110.446 179.353ZM117.138 146.198L114.32 129.128L127.312 140.549L117.138 146.198Z" fill="#FFFF54"/>
<path d="M163.782 149.739L184.655 138.15C194.042 132.939 197.423 123.743 192.746 115.364C189.775 110.037 184.757 107.207 178.01 108.061C180.674 103.433 180.722 98.8974 178.294 94.545C173.98 86.8146 165.216 85.1292 156.485 89.9764L136.596 101.019L163.782 149.739ZM160.116 99.8723C163.398 98.0508 166.55 98.768 168.289 101.886C169.993 104.939 169.017 108.12 165.734 109.941L158.185 114.133L152.567 104.064L160.116 99.8723ZM172.194 118.437C175.738 116.469 179.298 117.3 181.255 120.808C183.14 124.186 182.17 127.533 178.428 129.61L169.567 134.531L163.333 123.357L172.194 118.437Z" fill="#FFFF54"/>
<path d="M215.502 121.023L226.596 114.864L215.505 94.9856L217.003 56.3758L204.794 63.1546L204.346 87.3129L183.46 74.9994L170.726 82.0696L204.412 101.145L215.502 121.023Z" fill="#FFFF54"/>
<path d="M82.3519 211.425C80.5611 209.465 78.0481 209.145 75.4021 210.615C72.6642 212.136 71.3785 214.923 72.6567 217.215C74.2596 220.089 76.9793 219.269 79.4113 218.538C81.3333 217.97 83.041 217.45 83.8525 218.905C84.7046 220.433 83.7855 221.849 82.1869 222.738C80.3678 223.748 78.6578 223.53 77.2778 221.962L75.4873 223.671C77.4244 225.763 80.1059 226.299 83.2112 224.574C86.1698 222.931 87.3637 220.195 85.9537 217.667C84.3611 214.811 81.6089 215.53 79.1852 216.233C77.2447 216.81 75.5287 217.358 74.7376 215.94C74.0375 214.685 74.6975 213.365 76.4064 212.416C77.9499 211.558 79.5229 211.876 80.5778 213.076L82.3519 211.425Z" fill="#FFFF54"/>
<path d="M90.3104 220.417L99.296 215.425L98.2714 213.588L91.3439 217.437L88.8891 213.035L93.6298 210.401L92.6052 208.564L87.8645 211.198L85.7848 207.469L92.5285 203.723L91.5039 201.885L82.7021 206.775L90.3104 220.417Z" fill="#FFFF54"/>
<path d="M95.9104 208.372C98.1625 212.41 102.617 213.795 106.66 211.549C110.684 209.314 111.842 204.788 109.6 200.768C107.348 196.73 102.893 195.344 98.869 197.58C94.8263 199.825 93.6584 204.334 95.9104 208.372ZM107.469 201.951C109.173 205.008 108.445 208.104 105.615 209.676C102.767 211.257 99.7645 210.234 98.0602 207.177C96.356 204.122 97.0656 201.035 99.914 199.454C102.744 197.882 105.764 198.896 107.469 201.951Z" fill="#FFFF54"/>
<path d="M119.307 204.31L121.273 203.218L115.237 192.395L122.849 195.6L123.271 195.366L124.531 187.137L130.608 198.033L132.592 196.931L124.983 183.289L122.797 184.504L121.593 192.701L113.884 189.454L111.698 190.668L119.307 204.31Z" fill="#FFFF54"/>
<path d="M134.22 196.026L136.314 194.863L135.522 189.514L140.722 186.626L144.841 190.127L147.028 188.912L134.145 178.199L131.903 179.444L134.22 196.026ZM135.197 187.336L134.258 181.163L139.038 185.202L135.197 187.336Z" fill="#FFFF54"/>
<path d="M148.692 187.987L150.64 186.905L144.675 176.21L157.807 182.925L160.011 181.7L152.403 168.058L150.437 169.149L156.382 179.809L143.271 173.13L141.083 174.345L148.692 187.987Z" fill="#FFFF54"/>
<path d="M161.667 180.779L163.762 179.616L162.969 174.268L168.17 171.379L172.288 174.881L174.475 173.666L161.593 162.953L159.351 164.198L161.667 180.779ZM162.644 172.089L161.705 165.916L166.485 169.956L162.644 172.089Z" fill="#FFFF54"/>
<path d="M172.91 165.577C171.247 162.594 171.889 159.473 174.756 157.881C176.832 156.728 178.837 157.044 180.326 158.503L182.032 156.817C179.964 154.749 176.816 154.283 173.711 156.008C169.687 158.242 168.528 162.77 170.76 166.771C173.002 170.791 177.496 172.202 181.483 169.987C185.232 167.905 186.434 164.02 184.376 160.327L183.818 159.328L176.1 163.615L177.114 165.434L182.701 162.33C183.847 164.386 182.79 166.807 180.438 168.114C177.554 169.716 174.594 168.596 172.91 165.577Z" fill="#FFFF54"/>
<path d="M190.07 165.003L199.055 160.012L198.031 158.174L191.103 162.022L188.648 157.62L193.389 154.988L192.364 153.151L187.624 155.783L185.544 152.054L192.288 148.309L191.264 146.472L182.461 151.361L190.07 165.003Z" fill="#FFFF54"/>
<path d="M201.075 158.89L203.133 157.746L199.928 151.998L202.409 150.621L209.418 154.256L211.807 152.929L204.384 149.071C205.784 147.698 206.213 145.791 205.168 143.918C203.85 141.553 201.184 140.961 198.612 142.39L193.467 145.248L201.075 158.89ZM199.636 144.226C201.015 143.462 202.41 143.806 203.11 145.061C203.81 146.315 203.368 147.681 201.953 148.467L198.903 150.162L196.55 145.941L199.636 144.226Z" fill="#FFFF54"/>
<path d="M218.372 135.368C217.327 133.495 215.163 132.982 213.087 134.135C211.029 135.278 210.244 137.453 211.279 139.309C211.918 140.455 212.976 141.058 214.455 141.595C213.061 143.798 213.098 145.375 213.919 146.847C215.299 149.322 217.938 149.738 220.657 148.227C222.146 147.4 223.197 146.22 223.767 144.784L225.435 145.358L227.751 144.073L224.203 142.803C224.315 141.407 224.072 139.85 223.422 138.21L221.467 138.891C221.939 140.082 222.199 141.152 222.229 142.113L217.565 140.438C218.591 138.868 219.265 136.969 218.372 135.368ZM213.247 138.264C212.73 137.335 213.048 136.396 214.022 135.855C215.033 135.294 215.947 135.595 216.455 136.505C216.992 137.469 216.704 138.464 215.728 139.863C214.497 139.426 213.724 139.118 213.247 138.264ZM215.841 145.589C215.404 144.808 215.193 143.782 216.294 142.217L221.928 144.162C221.57 145.075 220.896 145.807 219.922 146.348C218.323 147.236 216.662 147.063 215.841 145.589Z" fill="#FFFF54"/>
<path d="M232.875 141.225L237.12 138.868C241.236 136.581 242.429 132.202 240.187 128.182C237.975 124.217 233.628 122.939 229.512 125.226L225.268 127.583L232.875 141.225ZM230.557 127.099C233.405 125.517 236.383 126.412 238.047 129.395C239.721 132.396 238.923 135.412 236.075 136.994L233.889 138.209L228.371 128.314L230.557 127.099Z" fill="#FFFF54"/>
<path d="M249.501 132.205C252.184 130.714 252.925 127.944 251.534 125.452L246.229 115.94L238.347 120.318L239.391 122.192L245.217 118.956L249.497 126.632C250.308 128.087 249.962 129.494 248.456 130.331C247.041 131.117 245.627 130.782 244.788 129.581L243.071 131.249C244.5 133.077 246.891 133.654 249.501 132.205Z" fill="#FFFF54"/>
</g>
<defs>
<clipPath id="clip0_1337_157339">
<rect width="280" height="280" fill="white"/>
</clipPath>
</defs>
</svg>
