<svg xmlns="http://www.w3.org/2000/svg" width="1376" height="1618" fill="none" viewBox="0 0 1376 1618">
  <path stroke="#ECF39E" stroke-width="2" d="M1034.42 999.646c-93.853 170.224-217.637 302.874-341.85 379.764-124.244 76.9-248.707 97.9-344.133 45.28-95.425-52.61-144.102-169.07-145.385-315.18-1.282-146.078 44.826-321.559 138.682-491.784C435.589 447.5 559.373 314.847 683.586 237.964c124.244-76.902 248.707-97.899 344.134-45.285 95.42 52.614 144.1 169.072 145.38 315.185 1.29 146.076-44.82 321.557-138.68 491.782Z"/>
  <path stroke="#ECF39E" stroke-width="2" d="M1052.15 654.172c75.94 178.937 103.85 358.218 87.62 503.388-16.23 145.22-76.57 256.08-176.874 298.66-100.309 42.57-221.97 8.94-337.692-80.27-115.693-89.19-225.252-233.81-301.194-412.75-75.943-178.937-103.851-358.215-87.626-503.393 16.229-145.214 76.568-256.079 176.876-298.651 100.309-42.572 221.97-8.949 337.692 80.264 115.693 89.191 225.252 233.816 301.198 412.752Z"/>
</svg>
