<svg width="144" height="20" viewBox="0 0 144 20" fill="none" xmlns="http://www.w3.org/2000/svg">
<g clip-path="url(#clip0)">
<path d="M27.3155 9.38426C27.3155 9.97053 27.0164 10.0663 26.2746 10.0663C25.4849 10.0663 25.3413 9.93464 25.2576 9.3364C25.102 7.81688 24.073 6.52469 22.3501 6.38111C21.7997 6.33325 21.6681 6.12985 21.6681 5.44786C21.6681 4.81373 21.7639 4.51461 22.2544 4.51461C25.2456 4.52658 27.3155 6.93149 27.3155 9.38426ZM31.6707 9.38426C31.6707 4.8257 28.5838 0.00390625 21.4528 0.00390625H7.28652C6.99937 0.00390625 6.8199 0.147483 6.8199 0.410708C6.8199 0.554284 6.92758 0.685897 7.0233 0.757685C7.53778 1.16449 8.30353 1.61915 9.30857 2.12167C10.2897 2.61222 11.0554 2.93527 11.8212 3.24635C12.1442 3.37796 12.2639 3.52154 12.2639 3.70101C12.2639 3.95227 12.0844 4.10781 11.7374 4.10781H0.490554C0.155541 4.10781 0 4.32318 0 4.53854C0 4.71801 0.0598231 4.87356 0.215365 5.0291C1.12468 5.98628 2.58438 7.13489 4.70214 8.46298C6.55668 9.62356 8.8539 10.8799 10.6845 11.7533C10.9956 11.8969 11.0913 12.0644 11.0913 12.2438C11.0793 12.4472 10.9238 12.6147 10.5649 12.6147H5.40806C5.12091 12.6147 4.9534 12.7703 4.9534 13.0096C4.9534 13.1412 5.06108 13.3087 5.20466 13.4403C6.3772 14.5052 8.25567 15.6657 10.7563 16.7306C14.0945 18.1544 17.4805 19.0039 21.2853 19.0039C28.5 19.0039 31.6707 13.6078 31.6707 9.38426ZM22.2544 16.1204C18.5693 16.1204 15.4824 13.1173 15.4824 9.3723C15.4824 5.68716 18.5573 2.7199 22.2544 2.7199C26.0353 2.7199 29.0025 5.67519 29.0025 9.3723C28.9906 13.1173 26.0353 16.1204 22.2544 16.1204Z" fill="#ecf39e"/>
</g>
<defs>
<clipPath id="clip0">
<rect width="40" height="19" fill="white" transform="translate(0 0.00390625)"/>
</clipPath>
</defs>
</svg>
