<svg width="144" height="19" fill="none" xmlns="http://www.w3.org/2000/svg"><g clip-path="url(#a)" fill="#fff"><path d="M98.446 7.43c0-2.333-1.436-4.032-4.188-4.032h-8.89v12.096h2.92v-4.127h3.458l3.386 4.127h3.29v-.263l-3.29-3.936c2.07-.42 3.314-1.927 3.314-3.865zm-4.51 1.496H88.3V5.91h5.635c1.041 0 1.711.55 1.711 1.507 0 .981-.646 1.508-1.71 1.508zM142.584 3.398h-2.74v4.594h-7.358V3.398h-2.956v12.108h2.956v-4.774h7.358v4.774h2.74V3.398zM77.555 3.398 74.301 13.58h-.18L70.856 3.398h-5.204v12.108h2.787V5.564h.168l3.254 9.942h4.487l3.267-9.942h.167v9.942h2.871V3.398h-5.097zM45.753 8.351c-1.029-.107-2.955-.287-3.984-.394-1.017-.108-1.603-.407-1.603-1.077 0-.646.622-1.185 3.134-1.185 2.226 0 4.272.479 6.055 1.34V4.331c-1.783-.85-3.757-1.268-6.21-1.268-3.446 0-5.827 1.436-5.827 3.877 0 2.058 1.4 3.182 4.2 3.493 1.017.108 2.74.264 3.948.36 1.316.107 1.699.514 1.699 1.112 0 .825-.921 1.328-3.254 1.328-2.37 0-4.774-.778-6.485-1.867v2.788c1.376.922 3.745 1.7 6.389 1.7 3.757 0 6.174-1.448 6.174-4.045.024-1.962-1.269-3.147-4.236-3.458zM51.927 3.398v12.108H63.21V13.03h-8.495v-2.453h8.351V8.124h-8.351v-2.25h8.495V3.399H51.927zM123.488 8.351c-1.029-.107-2.955-.287-3.984-.394-1.017-.108-1.603-.407-1.603-1.077 0-.646.622-1.185 3.134-1.185 2.226 0 4.272.479 6.055 1.34V4.331c-1.783-.85-3.757-1.268-6.21-1.268-3.446 0-5.827 1.436-5.827 3.877 0 2.058 1.4 3.182 4.2 3.493 1.017.108 2.74.264 3.948.36 1.316.107 1.699.514 1.699 1.112 0 .825-.921 1.328-3.254 1.328-2.369 0-4.774-.778-6.485-1.867v2.788c1.376.922 3.745 1.7 6.389 1.7 3.757 0 6.174-1.448 6.174-4.045.024-1.962-1.269-3.147-4.236-3.458zM110.148 3.398v6.198c0 2.345-1.424 3.637-3.566 3.637-2.154 0-3.565-1.268-3.565-3.673V3.398h-2.908v5.887c0 4.39 2.74 6.568 6.521 6.568 3.625 0 6.437-2.082 6.437-6.425v-6.03h-2.919zM27.316 9.38c0 .587-.3.682-1.041.682-.79 0-.934-.131-1.017-.73-.156-1.519-1.185-2.811-2.908-2.955-.55-.048-.682-.251-.682-.933 0-.634.096-.933.586-.933 2.992.012 5.061 2.417 5.061 4.87zm4.355 0C31.67 4.822 28.584 0 21.453 0H7.287c-.288 0-.467.144-.467.407 0 .143.108.275.203.347.515.407 1.28.861 2.286 1.364.98.49 1.746.813 2.512 1.124.323.132.443.276.443.455 0 .251-.18.407-.527.407H.491c-.335 0-.491.215-.491.43 0 .18.06.336.215.491.91.957 2.37 2.106 4.487 3.434a64.766 64.766 0 0 0 5.982 3.29c.312.144.407.311.407.49-.012.204-.167.372-.526.372H5.408c-.287 0-.455.155-.455.395 0 .131.108.299.252.43 1.172 1.065 3.05 2.226 5.551 3.29C14.094 18.152 17.48 19 21.286 19 28.5 19 31.67 13.604 31.67 9.38zm-9.417 6.736c-3.685 0-6.772-3.003-6.772-6.748 0-3.685 3.075-6.652 6.772-6.652 3.781 0 6.748 2.955 6.748 6.652-.011 3.745-2.967 6.748-6.748 6.748z"/></g><defs><clipPath id="a"><path fill="#fff" d="M0 0h143.231v19H0z"/></clipPath></defs></svg>