<svg xmlns="http://www.w3.org/2000/svg" width="197" height="185" fill="none" viewBox="0 0 197 185">
  <path fill="#000" fill-rule="evenodd" d="M.47 127.807v8.831c0 26.353 21.364 47.717 47.718 47.717h100.565c26.354 0 47.718-21.364 47.718-47.717V47.843c0-26.354-21.364-47.718-47.718-47.718h-2.434C115.262 2.74 96.299 35.48 109.482 63.72l14.386 30.815-12.64-19.373c-6.271-9.61-18.698-13.079-29.04-8.105a14.28 14.28 0 0 0-3.907 2.772l-.436.436c-8.722 8.722-8.326 22.98.866 31.205l17.194 15.384-29.83-19.828C39.586 79.415 3.86 96.178.472 127.807Z" clip-rule="evenodd"/>
</svg>
