<svg xmlns="http://www.w3.org/2000/svg" width="32" height="19" fill="none" viewBox="0 0 32 19">
    <g clip-path="url(#a)">
      <mask id="b" width="32" height="19" x="0" y="0" maskUnits="userSpaceOnUse" style="mask-type:luminance">
        <path fill="#fff" d="M0 0h32v19H0V0Z"/>
      </mask>
      <g mask="url(#b)">
        <path fill="#fff" d="M27.316 9.38c0 .587-.3.682-1.041.682-.79 0-.934-.131-1.017-.73-.156-1.519-1.185-2.811-2.908-2.955-.55-.048-.682-.251-.682-.933 0-.634.096-.933.586-.933 2.992.012 5.061 2.417 5.061 4.87l.001-.001Zm4.355 0C31.67 4.822 28.584 0 21.453 0H7.287c-.288 0-.467.144-.467.407 0 .143.108.275.203.347.515.407 1.28.861 2.286 1.364.98.49 1.746.813 2.512 1.124.323.132.443.276.443.455 0 .251-.18.407-.527.407H.491c-.335 0-.491.215-.491.43 0 .18.06.336.215.491.91.957 2.37 2.106 4.487 3.434a64.757 64.757 0 0 0 5.982 3.29c.312.144.407.311.407.49-.012.204-.167.372-.526.372H5.408c-.287 0-.455.155-.455.395 0 .131.108.299.252.43 1.172 1.065 3.05 2.226 5.551 3.29C14.094 18.152 17.48 19 21.286 19c7.214 0 10.385-5.396 10.385-9.62Zm-9.417 6.736c-3.685 0-6.772-3.003-6.772-6.748 0-3.685 3.075-6.652 6.772-6.652 3.781 0 6.748 2.955 6.748 6.652-.011 3.745-2.967 6.748-6.748 6.748Z"/>
      </g>
    </g>
    <defs>
      <clipPath id="a">
        <path fill="#fff" d="M0 0h32v19H0z"/>
      </clipPath>
    </defs>
  </svg>
  