<svg width="346" height="63" viewBox="0 0 346 63" fill="none" xmlns="http://www.w3.org/2000/svg">
<rect width="346" height="63" rx="16" fill="white"/>
<g clip-path="url(#clip0_765_90984)">
<path d="M18 24C18 20.6863 20.6863 18 24 18H134.3V45H24C20.6863 45 18 42.3137 18 39V24Z" fill="#008FF8" fill-opacity="0.2"/>
<path d="M35.1755 30.841C35.1755 31.7183 35.0171 32.4764 34.7003 33.1154C34.3835 33.7545 33.9489 34.2473 33.3966 34.5938C32.8442 34.9404 32.2133 35.1137 31.5039 35.1137C30.7945 35.1137 30.1636 34.9404 29.6112 34.5938C29.0588 34.2473 28.6242 33.7545 28.3074 33.1154C27.9906 32.4764 27.8322 31.7183 27.8322 30.841C27.8322 29.9637 27.9906 29.2055 28.3074 28.5665C28.6242 27.9275 29.0588 27.4347 29.6112 27.0881C30.1636 26.7415 30.7945 26.5682 31.5039 26.5682C32.2133 26.5682 32.8442 26.7415 33.3966 27.0881C33.9489 27.4347 34.3835 27.9275 34.7003 28.5665C35.0171 29.2055 35.1755 29.9637 35.1755 30.841ZM34.2008 30.841C34.2008 30.1207 34.0803 29.5128 33.8393 29.0173C33.601 28.5218 33.2774 28.1468 32.8686 27.8923C32.4624 27.6378 32.0075 27.5105 31.5039 27.5105C31.0003 27.5105 30.544 27.6378 30.1351 27.8923C29.729 28.1468 29.4054 28.5218 29.1644 29.0173C28.9262 29.5128 28.807 30.1207 28.807 30.841C28.807 31.5612 28.9262 32.1691 29.1644 32.6646C29.4054 33.1601 29.729 33.5351 30.1351 33.7897C30.544 34.0442 31.0003 34.1714 31.5039 34.1714C32.0075 34.1714 32.4624 34.0442 32.8686 33.7897C33.2774 33.5351 33.601 33.1601 33.8393 32.6646C34.0803 32.1691 34.2008 31.5612 34.2008 30.841ZM36.7392 35V28.7615H37.6653V29.7037H37.7303C37.844 29.3951 38.0498 29.1446 38.3476 28.9523C38.6455 28.7601 38.9812 28.664 39.3549 28.664C39.4253 28.664 39.5133 28.6653 39.6189 28.668C39.7245 28.6707 39.8044 28.6748 39.8585 28.6802V29.655C39.826 29.6469 39.7516 29.6347 39.6351 29.6184C39.5214 29.5995 39.4009 29.59 39.2736 29.59C38.9704 29.59 38.6996 29.6536 38.4613 29.7809C38.2258 29.9055 38.0389 30.0787 37.9008 30.3008C37.7655 30.5201 37.6978 30.7706 37.6978 31.0522V35H36.7392ZM43.323 37.4694C42.86 37.4694 42.462 37.4099 42.1289 37.2907C41.7959 37.1743 41.5183 37.0199 41.2963 36.8277C41.077 36.6382 40.9023 36.4351 40.7724 36.2185L41.5359 35.6823C41.6226 35.7961 41.7322 35.926 41.8649 36.0723C41.9976 36.2212 42.179 36.3498 42.4092 36.4581C42.642 36.5691 42.9466 36.6246 43.323 36.6246C43.8266 36.6246 44.2423 36.5028 44.5699 36.2591C44.8975 36.0154 45.0614 35.6336 45.0614 35.1137V33.8465H44.9801C44.9097 33.9602 44.8095 34.101 44.6796 34.2689C44.5523 34.4341 44.3682 34.5817 44.1272 34.7116C43.8889 34.8389 43.5667 34.9025 43.1606 34.9025C42.6569 34.9025 42.2047 34.7834 41.804 34.5451C41.406 34.3068 41.0905 33.9602 40.8577 33.5053C40.6275 33.0505 40.5124 32.4981 40.5124 31.8482C40.5124 31.2092 40.6248 30.6528 40.8495 30.1789C41.0743 29.7024 41.387 29.3341 41.7877 29.0742C42.1885 28.8115 42.6515 28.6802 43.1768 28.6802C43.583 28.6802 43.9052 28.7479 44.1434 28.8833C44.3844 29.016 44.5686 29.1676 44.6958 29.3382C44.8258 29.5061 44.926 29.6442 44.9964 29.7525H45.0939V28.7615H46.0199V35.1787C46.0199 35.7148 45.898 36.1508 45.6543 36.4865C45.4134 36.825 45.0884 37.0727 44.6796 37.2298C44.2734 37.3895 43.8212 37.4694 43.323 37.4694ZM43.2905 34.0415C43.675 34.0415 43.9999 33.9535 44.2653 33.7775C44.5306 33.6015 44.7324 33.3483 44.8705 33.018C45.0086 32.6876 45.0776 32.2923 45.0776 31.832C45.0776 31.3825 45.0099 30.9858 44.8745 30.642C44.7391 30.2981 44.5388 30.0287 44.2734 29.8337C44.0081 29.6387 43.6804 29.5413 43.2905 29.5413C42.8844 29.5413 42.5459 29.6442 42.2751 29.8499C42.0071 30.0557 41.8053 30.3319 41.67 30.6785C41.5373 31.0251 41.4709 31.4096 41.4709 31.832C41.4709 32.2652 41.5386 32.6484 41.674 32.9814C41.8121 33.3117 42.0152 33.5717 42.2833 33.7612C42.554 33.9481 42.8898 34.0415 43.2905 34.0415ZM49.6103 35.1462C49.215 35.1462 48.8562 35.0718 48.534 34.9228C48.2118 34.7712 47.9559 34.5532 47.7664 34.2689C47.5768 33.9819 47.482 33.6353 47.482 33.2292C47.482 32.8717 47.5524 32.582 47.6932 32.36C47.834 32.1352 48.0222 31.9592 48.2578 31.832C48.4934 31.7047 48.7533 31.61 49.0376 31.5477C49.3246 31.4827 49.613 31.4312 49.9027 31.3933C50.2818 31.3446 50.5891 31.308 50.8247 31.2837C51.063 31.2566 51.2363 31.2119 51.3446 31.1496C51.4556 31.0874 51.5111 30.9791 51.5111 30.8247V30.7922C51.5111 30.3915 51.4014 30.0801 51.1821 29.8581C50.9655 29.636 50.6365 29.525 50.1952 29.525C49.7376 29.525 49.3788 29.6252 49.1189 29.8256C48.8589 30.0259 48.6761 30.2399 48.5705 30.4673L47.6608 30.1424C47.8232 29.7633 48.0398 29.4682 48.3106 29.257C48.5841 29.0431 48.8819 28.8941 49.2041 28.8102C49.5291 28.7235 49.8486 28.6802 50.1627 28.6802C50.363 28.6802 50.5932 28.7046 50.8531 28.7533C51.1158 28.7994 51.369 28.8955 51.6126 29.0417C51.859 29.1879 52.0635 29.4086 52.2259 29.7037C52.3884 29.9989 52.4696 30.3942 52.4696 30.8897V35H51.5111V34.1552H51.4624C51.3974 34.2906 51.2891 34.4354 51.1374 34.5898C50.9858 34.7441 50.7841 34.8754 50.5323 34.9838C50.2805 35.0921 49.9731 35.1462 49.6103 35.1462ZM49.7565 34.2852C50.1356 34.2852 50.4551 34.2107 50.715 34.0618C50.9777 33.9129 51.1754 33.7206 51.308 33.485C51.4434 33.2495 51.5111 33.0017 51.5111 32.7418V31.8645C51.4705 31.9132 51.3811 31.9579 51.243 31.9985C51.1077 32.0364 50.9506 32.0703 50.7719 32.1C50.5959 32.1271 50.424 32.1515 50.2561 32.1732C50.0909 32.1921 49.9569 32.2084 49.854 32.2219C49.6049 32.2544 49.372 32.3072 49.1554 32.3803C48.9415 32.4507 48.7682 32.5577 48.6355 32.7012C48.5056 32.842 48.4406 33.0342 48.4406 33.2779C48.4406 33.6109 48.5638 33.8628 48.8102 34.0333C49.0593 34.2012 49.3747 34.2852 49.7565 34.2852ZM55.1777 31.2471V35H54.2191V28.7615H55.1452V29.7362H55.2264C55.3726 29.4194 55.5947 29.1649 55.8925 28.9727C56.1904 28.7777 56.5749 28.6802 57.046 28.6802C57.4684 28.6802 57.838 28.7669 58.1548 28.9402C58.4716 29.1107 58.718 29.3707 58.894 29.72C59.07 30.0666 59.158 30.5052 59.158 31.0359V35H58.1995V31.1009C58.1995 30.6108 58.0722 30.229 57.8177 29.9555C57.5632 29.6794 57.2139 29.5413 56.7698 29.5413C56.4638 29.5413 56.1904 29.6076 55.9494 29.7403C55.7111 29.873 55.5229 30.0666 55.3848 30.3211C55.2467 30.5756 55.1777 30.8843 55.1777 31.2471ZM60.9095 35V28.7615H61.8681V35H60.9095ZM61.3969 27.7217C61.2101 27.7217 61.049 27.6581 60.9136 27.5308C60.7809 27.4035 60.7146 27.2506 60.7146 27.0718C60.7146 26.8931 60.7809 26.7402 60.9136 26.6129C61.049 26.4856 61.2101 26.422 61.3969 26.422C61.5838 26.422 61.7435 26.4856 61.8762 26.6129C62.0116 26.7402 62.0793 26.8931 62.0793 27.0718C62.0793 27.2506 62.0116 27.4035 61.8762 27.5308C61.7435 27.6581 61.5838 27.7217 61.3969 27.7217ZM66.1581 35.13C65.5732 35.13 65.0696 34.9919 64.6472 34.7157C64.2248 34.4395 63.8999 34.0591 63.6724 33.5744C63.445 33.0897 63.3312 32.536 63.3312 31.9132C63.3312 31.2796 63.4477 30.7205 63.6805 30.2358C63.9161 29.7484 64.2437 29.368 64.6634 29.0945C65.0858 28.8183 65.5786 28.6802 66.1418 28.6802C66.5805 28.6802 66.9758 28.7615 67.3278 28.9239C67.6798 29.0864 67.9682 29.3138 68.1929 29.6063C68.4177 29.8987 68.5571 30.2399 68.6113 30.6298H67.6527C67.5796 30.3455 67.4172 30.0936 67.1654 29.8743C66.9162 29.6523 66.5805 29.5413 66.1581 29.5413C65.7844 29.5413 65.4568 29.6387 65.1752 29.8337C64.8963 30.0259 64.6783 30.2981 64.5213 30.6501C64.3669 30.9994 64.2898 31.4096 64.2898 31.8807C64.2898 32.3627 64.3656 32.7824 64.5172 33.1398C64.6716 33.4972 64.8882 33.7748 65.1671 33.9724C65.4487 34.1701 65.779 34.2689 66.1581 34.2689C66.4072 34.2689 66.6333 34.2256 66.8364 34.139C67.0394 34.0523 67.2114 33.9277 67.3522 33.7653C67.493 33.6028 67.5932 33.4079 67.6527 33.1804H68.6113C68.5571 33.5487 68.4231 33.8804 68.2092 34.1755C67.998 34.4679 67.7177 34.7008 67.3684 34.8741C67.0218 35.0447 66.6184 35.13 66.1581 35.13ZM74.1228 32.7255L74.1066 31.5396H74.3015L77.0309 28.7615H78.2168L75.3088 31.702H75.2275L74.1228 32.7255ZM73.2293 35V26.6819H74.1878V35H73.2293ZM77.1933 35L74.7564 31.9132L75.4387 31.2471L78.4118 35H77.1933ZM81.8093 35.13C81.2082 35.13 80.6897 34.9973 80.2537 34.7319C79.8205 34.4639 79.4861 34.0902 79.2505 33.6109C79.0177 33.129 78.9012 32.5685 78.9012 31.9295C78.9012 31.2904 79.0177 30.7272 79.2505 30.2399C79.4861 29.7498 79.8137 29.368 80.2334 29.0945C80.6558 28.8183 81.1486 28.6802 81.7118 28.6802C82.0367 28.6802 82.3576 28.7344 82.6744 28.8427C82.9912 28.951 83.2796 29.127 83.5395 29.3707C83.7995 29.6117 84.0066 29.9312 84.1609 30.3292C84.3153 30.7272 84.3924 31.2173 84.3924 31.7995V32.2057H79.5836V31.3771H83.4177C83.4177 31.0251 83.3473 30.711 83.2065 30.4348C83.0684 30.1586 82.8707 29.9407 82.6135 29.7809C82.359 29.6211 82.0584 29.5413 81.7118 29.5413C81.33 29.5413 80.9997 29.636 80.7208 29.8256C80.4446 30.0124 80.2321 30.2561 80.0831 30.5567C79.9342 30.8572 79.8597 31.1794 79.8597 31.5233V32.0757C79.8597 32.5468 79.941 32.9462 80.1034 33.2738C80.2686 33.5988 80.4974 33.8465 80.7898 34.0171C81.0823 34.185 81.4221 34.2689 81.8093 34.2689C82.0611 34.2689 82.2886 34.2337 82.4916 34.1633C82.6974 34.0902 82.8748 33.9819 83.0237 33.8384C83.1726 33.6922 83.2877 33.5108 83.3689 33.2941L84.295 33.5541C84.1975 33.8682 84.0337 34.1444 83.8035 34.3826C83.5734 34.6182 83.2891 34.8023 82.9506 34.935C82.6121 35.065 82.2317 35.13 81.8093 35.13ZM86.278 37.3395C86.1156 37.3395 85.9707 37.3259 85.8434 37.2988C85.7162 37.2745 85.6282 37.2501 85.5794 37.2257L85.8231 36.3809C86.056 36.4405 86.2618 36.4622 86.4405 36.4459C86.6192 36.4297 86.7776 36.3498 86.9157 36.2063C87.0565 36.0655 87.1851 35.8367 87.3015 35.5199L87.4802 35.0325L85.1733 28.7615H86.213L87.9351 33.7328H88.0001L89.7222 28.7615H90.762L88.1138 35.9098C87.9947 36.232 87.8471 36.4987 87.6711 36.7099C87.4951 36.9238 87.2907 37.0822 87.0578 37.1851C86.8277 37.288 86.5677 37.3395 86.278 37.3395ZM93.4406 35L91.5398 28.7615H92.547L93.8955 33.5378H93.9605L95.2926 28.7615H96.3162L97.6321 33.5216H97.6971L99.0455 28.7615H100.053L98.152 35H97.2097L95.845 30.2074H95.7475L94.3829 35H93.4406ZM103.642 35.13C103.079 35.13 102.585 34.9959 102.16 34.7279C101.737 34.4598 101.407 34.0848 101.169 33.6028C100.933 33.1209 100.815 32.5577 100.815 31.9132C100.815 31.2634 100.933 30.6961 101.169 30.2114C101.407 29.7267 101.737 29.3504 102.16 29.0823C102.585 28.8143 103.079 28.6802 103.642 28.6802C104.205 28.6802 104.698 28.8143 105.121 29.0823C105.546 29.3504 105.876 29.7267 106.112 30.2114C106.35 30.6961 106.469 31.2634 106.469 31.9132C106.469 32.5577 106.35 33.1209 106.112 33.6028C105.876 34.0848 105.546 34.4598 105.121 34.7279C104.698 34.9959 104.205 35.13 103.642 35.13ZM103.642 34.2689C104.07 34.2689 104.422 34.1593 104.698 33.9399C104.974 33.7206 105.179 33.4322 105.311 33.0748C105.444 32.7174 105.51 32.3302 105.51 31.9132C105.51 31.4962 105.444 31.1077 105.311 30.7476C105.179 30.3874 104.974 30.0963 104.698 29.8743C104.422 29.6523 104.07 29.5413 103.642 29.5413C103.214 29.5413 102.862 29.6523 102.586 29.8743C102.31 30.0963 102.106 30.3874 101.973 30.7476C101.84 31.1077 101.774 31.4962 101.774 31.9132C101.774 32.3302 101.84 32.7174 101.973 33.0748C102.106 33.4322 102.31 33.7206 102.586 33.9399C102.862 34.1593 103.214 34.2689 103.642 34.2689ZM107.932 35V28.7615H108.858V29.7037H108.923C109.037 29.3951 109.243 29.1446 109.541 28.9523C109.838 28.7601 110.174 28.664 110.548 28.664C110.618 28.664 110.706 28.6653 110.812 28.668C110.917 28.6707 110.997 28.6748 111.051 28.6802V29.655C111.019 29.6469 110.945 29.6347 110.828 29.6184C110.714 29.5995 110.594 29.59 110.467 29.59C110.163 29.59 109.893 29.6536 109.654 29.7809C109.419 29.9055 109.232 30.0787 109.094 30.3008C108.958 30.5201 108.891 30.7706 108.891 31.0522V35H107.932ZM114.354 35.13C113.834 35.13 113.375 34.9986 112.977 34.736C112.579 34.4706 112.267 34.097 112.042 33.615C111.818 33.1303 111.705 32.5577 111.705 31.897C111.705 31.2417 111.818 30.6731 112.042 30.1911C112.267 29.7091 112.58 29.3368 112.981 29.0742C113.381 28.8115 113.844 28.6802 114.37 28.6802C114.776 28.6802 115.097 28.7479 115.332 28.8833C115.571 29.016 115.752 29.1676 115.877 29.3382C116.004 29.5061 116.103 29.6442 116.173 29.7525H116.254V26.6819H117.213V35H116.287V34.0415H116.173C116.103 34.1552 116.003 34.2987 115.873 34.472C115.743 34.6426 115.557 34.7956 115.316 34.931C115.075 35.0636 114.754 35.13 114.354 35.13ZM114.483 34.2689C114.868 34.2689 115.193 34.1687 115.458 33.9684C115.724 33.7653 115.925 33.485 116.063 33.1276C116.202 32.7675 116.271 32.3519 116.271 31.8807C116.271 31.415 116.203 31.0075 116.067 30.6582C115.932 30.3062 115.732 30.0327 115.466 29.8378C115.201 29.6401 114.873 29.5413 114.483 29.5413C114.077 29.5413 113.739 29.6455 113.468 29.854C113.2 30.0598 112.998 30.34 112.863 30.6948C112.73 31.0468 112.664 31.4421 112.664 31.8807C112.664 32.3248 112.732 32.7282 112.867 33.0911C113.005 33.4512 113.208 33.7382 113.476 33.9521C113.747 34.1633 114.083 34.2689 114.483 34.2689ZM123.52 30.1586L122.659 30.4023C122.605 30.2588 122.525 30.1194 122.42 29.984C122.317 29.8459 122.176 29.7322 121.997 29.6428C121.819 29.5535 121.59 29.5088 121.311 29.5088C120.929 29.5088 120.611 29.5968 120.356 29.7728C120.105 29.9461 119.979 30.1667 119.979 30.4348C119.979 30.6731 120.065 30.8613 120.239 30.9994C120.412 31.1375 120.683 31.2525 121.051 31.3446L121.977 31.572C122.535 31.7074 122.95 31.9146 123.224 32.1935C123.497 32.4697 123.634 32.8257 123.634 33.2617C123.634 33.6191 123.531 33.9386 123.325 34.2202C123.122 34.5018 122.838 34.7238 122.473 34.8863C122.107 35.0487 121.682 35.13 121.197 35.13C120.561 35.13 120.034 34.9919 119.617 34.7157C119.2 34.4395 118.936 34.0361 118.825 33.5053L119.735 33.2779C119.822 33.6137 119.986 33.8655 120.227 34.0333C120.47 34.2012 120.788 34.2852 121.181 34.2852C121.628 34.2852 121.982 34.1904 122.245 34.0009C122.51 33.8086 122.643 33.5785 122.643 33.3104C122.643 33.0938 122.567 32.9124 122.416 32.7661C122.264 32.6172 122.031 32.5062 121.717 32.4331L120.677 32.1894C120.106 32.054 119.686 31.8442 119.418 31.5599C119.153 31.2728 119.02 30.9141 119.02 30.4836C119.02 30.1315 119.119 29.8202 119.317 29.5494C119.517 29.2786 119.789 29.0661 120.133 28.9117C120.48 28.7574 120.872 28.6802 121.311 28.6802C121.928 28.6802 122.413 28.8156 122.765 29.0864C123.12 29.3571 123.372 29.7146 123.52 30.1586Z" fill="#484A54"/>
</g>
<path d="M18.5719 24C18.5719 21.0021 21.0021 18.5719 24 18.5719H133.728V44.4281H24C21.0021 44.4281 18.5719 41.9979 18.5719 39V24Z" stroke="#006DCA" stroke-width="1.14373"/>
<g filter="url(#filter0_iii_765_90984)">
<g clip-path="url(#clip1_765_90984)">
<mask id="path-5-inside-1_765_90984" fill="white">
<path d="M134.3 18H231.6V45H134.3V18Z"/>
</mask>
<path d="M134.3 18H231.6V45H134.3V18Z" fill="white"/>
<path d="M144.457 35V26.6819H147.268C147.92 26.6819 148.454 26.7997 148.868 27.0353C149.285 27.2682 149.593 27.5836 149.794 27.9816C149.994 28.3797 150.094 28.8237 150.094 29.3138C150.094 29.8039 149.994 30.2493 149.794 30.6501C149.596 31.0508 149.29 31.3703 148.876 31.6086C148.462 31.8442 147.931 31.962 147.284 31.962H145.269V31.0684H147.251C147.698 31.0684 148.057 30.9912 148.328 30.8369C148.598 30.6826 148.795 30.4741 148.917 30.2114C149.041 29.9461 149.103 29.6469 149.103 29.3138C149.103 28.9808 149.041 28.6829 148.917 28.4203C148.795 28.1576 148.597 27.9518 148.324 27.8029C148.05 27.6513 147.687 27.5755 147.235 27.5755H145.464V35H144.457ZM153.423 35.1462C153.028 35.1462 152.669 35.0718 152.347 34.9228C152.024 34.7712 151.768 34.5532 151.579 34.2689C151.389 33.9819 151.295 33.6353 151.295 33.2292C151.295 32.8717 151.365 32.582 151.506 32.36C151.647 32.1352 151.835 31.9592 152.07 31.832C152.306 31.7047 152.566 31.61 152.85 31.5477C153.137 31.4827 153.426 31.4312 153.715 31.3933C154.094 31.3446 154.402 31.308 154.637 31.2837C154.876 31.2566 155.049 31.2119 155.157 31.1496C155.268 31.0874 155.324 30.9791 155.324 30.8247V30.7922C155.324 30.3915 155.214 30.0801 154.995 29.8581C154.778 29.636 154.449 29.525 154.008 29.525C153.55 29.525 153.191 29.6252 152.931 29.8256C152.671 30.0259 152.489 30.2399 152.383 30.4673L151.473 30.1424C151.636 29.7633 151.852 29.4682 152.123 29.257C152.397 29.0431 152.694 28.8941 153.017 28.8102C153.342 28.7235 153.661 28.6802 153.975 28.6802C154.176 28.6802 154.406 28.7046 154.666 28.7533C154.928 28.7994 155.182 28.8955 155.425 29.0417C155.672 29.1879 155.876 29.4086 156.038 29.7037C156.201 29.9989 156.282 30.3942 156.282 30.8897V35H155.324V34.1552H155.275C155.21 34.2906 155.102 34.4354 154.95 34.5898C154.798 34.7441 154.597 34.8754 154.345 34.9838C154.093 35.0921 153.786 35.1462 153.423 35.1462ZM153.569 34.2852C153.948 34.2852 154.268 34.2107 154.528 34.0618C154.79 33.9129 154.988 33.7206 155.121 33.485C155.256 33.2495 155.324 33.0017 155.324 32.7418V31.8645C155.283 31.9132 155.194 31.9579 155.056 31.9985C154.92 32.0364 154.763 32.0703 154.584 32.1C154.408 32.1271 154.237 32.1515 154.069 32.1732C153.903 32.1921 153.769 32.2084 153.667 32.2219C153.417 32.2544 153.185 32.3072 152.968 32.3803C152.754 32.4507 152.581 32.5577 152.448 32.7012C152.318 32.842 152.253 33.0342 152.253 33.2779C152.253 33.6109 152.376 33.8628 152.623 34.0333C152.872 34.2012 153.187 34.2852 153.569 34.2852ZM158.032 35V28.7615H158.99V35H158.032ZM158.519 27.7217C158.332 27.7217 158.171 27.6581 158.036 27.5308C157.903 27.4035 157.837 27.2506 157.837 27.0718C157.837 26.8931 157.903 26.7402 158.036 26.6129C158.171 26.4856 158.332 26.422 158.519 26.422C158.706 26.422 158.866 26.4856 158.998 26.6129C159.134 26.7402 159.201 26.8931 159.201 27.0718C159.201 27.2506 159.134 27.4035 158.998 27.5308C158.866 27.6581 158.706 27.7217 158.519 27.7217ZM163.102 35.13C162.582 35.13 162.123 34.9986 161.725 34.736C161.327 34.4706 161.015 34.097 160.791 33.615C160.566 33.1303 160.453 32.5577 160.453 31.897C160.453 31.2417 160.566 30.6731 160.791 30.1911C161.015 29.7091 161.328 29.3368 161.729 29.0742C162.129 28.8115 162.592 28.6802 163.118 28.6802C163.524 28.6802 163.845 28.7479 164.08 28.8833C164.319 29.016 164.5 29.1676 164.625 29.3382C164.752 29.5061 164.851 29.6442 164.921 29.7525H165.002V26.6819H165.961V35H165.035V34.0415H164.921C164.851 34.1552 164.751 34.2987 164.621 34.472C164.491 34.6426 164.305 34.7956 164.064 34.931C163.823 35.0636 163.502 35.13 163.102 35.13ZM163.232 34.2689C163.616 34.2689 163.941 34.1687 164.206 33.9684C164.472 33.7653 164.673 33.485 164.811 33.1276C164.95 32.7675 165.019 32.3519 165.019 31.8807C165.019 31.415 164.951 31.0075 164.816 30.6582C164.68 30.3062 164.48 30.0327 164.214 29.8378C163.949 29.6401 163.621 29.5413 163.232 29.5413C162.825 29.5413 162.487 29.6455 162.216 29.854C161.948 30.0598 161.746 30.34 161.611 30.6948C161.478 31.0468 161.412 31.4421 161.412 31.8807C161.412 32.3248 161.48 32.7282 161.615 33.0911C161.753 33.4512 161.956 33.7382 162.224 33.9521C162.495 34.1633 162.831 34.2689 163.232 34.2689ZM171.96 32.7255L171.944 31.5396H172.138L174.868 28.7615H176.054L173.146 31.702H173.065L171.96 32.7255ZM171.066 35V26.6819H172.025V35H171.066ZM175.03 35L172.593 31.9132L173.276 31.2471L176.249 35H175.03ZM179.646 35.13C179.045 35.13 178.527 34.9973 178.091 34.7319C177.657 34.4639 177.323 34.0902 177.088 33.6109C176.855 33.129 176.738 32.5685 176.738 31.9295C176.738 31.2904 176.855 30.7272 177.088 30.2399C177.323 29.7498 177.651 29.368 178.07 29.0945C178.493 28.8183 178.986 28.6802 179.549 28.6802C179.874 28.6802 180.195 28.7344 180.511 28.8427C180.828 28.951 181.117 29.127 181.377 29.3707C181.636 29.6117 181.844 29.9312 181.998 30.3292C182.152 30.7272 182.229 31.2173 182.229 31.7995V32.2057H177.421V31.3771H181.255C181.255 31.0251 181.184 30.711 181.043 30.4348C180.905 30.1586 180.708 29.9407 180.45 29.7809C180.196 29.6211 179.895 29.5413 179.549 29.5413C179.167 29.5413 178.837 29.636 178.558 29.8256C178.282 30.0124 178.069 30.2561 177.92 30.5567C177.771 30.8572 177.697 31.1794 177.697 31.5233V32.0757C177.697 32.5468 177.778 32.9462 177.94 33.2738C178.106 33.5988 178.334 33.8465 178.627 34.0171C178.919 34.185 179.259 34.2689 179.646 34.2689C179.898 34.2689 180.126 34.2337 180.329 34.1633C180.534 34.0902 180.712 33.9819 180.861 33.8384C181.01 33.6922 181.125 33.5108 181.206 33.2941L182.132 33.5541C182.034 33.8682 181.871 34.1444 181.641 34.3826C181.41 34.6182 181.126 34.8023 180.788 34.935C180.449 35.065 180.069 35.13 179.646 35.13ZM184.115 37.3395C183.953 37.3395 183.808 37.3259 183.68 37.2988C183.553 37.2745 183.465 37.2501 183.416 37.2257L183.66 36.3809C183.893 36.4405 184.099 36.4622 184.277 36.4459C184.456 36.4297 184.615 36.3498 184.753 36.2063C184.893 36.0655 185.022 35.8367 185.139 35.5199L185.317 35.0325L183.01 28.7615H184.05L185.772 33.7328H185.837L187.559 28.7615H188.599L185.951 35.9098C185.832 36.232 185.684 36.4987 185.508 36.7099C185.332 36.9238 185.128 37.0822 184.895 37.1851C184.665 37.288 184.405 37.3395 184.115 37.3395ZM191.278 35L189.377 28.7615H190.384L191.732 33.5378H191.797L193.13 28.7615H194.153L195.469 33.5216H195.534L196.883 28.7615H197.89L195.989 35H195.047L193.682 30.2074H193.585L192.22 35H191.278ZM201.479 35.13C200.916 35.13 200.422 34.9959 199.997 34.7279C199.574 34.4598 199.244 34.0848 199.006 33.6028C198.77 33.1209 198.652 32.5577 198.652 31.9132C198.652 31.2634 198.77 30.6961 199.006 30.2114C199.244 29.7267 199.574 29.3504 199.997 29.0823C200.422 28.8143 200.916 28.6802 201.479 28.6802C202.042 28.6802 202.535 28.8143 202.958 29.0823C203.383 29.3504 203.713 29.7267 203.949 30.2114C204.187 30.6961 204.306 31.2634 204.306 31.9132C204.306 32.5577 204.187 33.1209 203.949 33.6028C203.713 34.0848 203.383 34.4598 202.958 34.7279C202.535 34.9959 202.042 35.13 201.479 35.13ZM201.479 34.2689C201.907 34.2689 202.259 34.1593 202.535 33.9399C202.811 33.7206 203.016 33.4322 203.148 33.0748C203.281 32.7174 203.347 32.3302 203.347 31.9132C203.347 31.4962 203.281 31.1077 203.148 30.7476C203.016 30.3874 202.811 30.0963 202.535 29.8743C202.259 29.6523 201.907 29.5413 201.479 29.5413C201.051 29.5413 200.699 29.6523 200.423 29.8743C200.147 30.0963 199.943 30.3874 199.81 30.7476C199.677 31.1077 199.611 31.4962 199.611 31.9132C199.611 32.3302 199.677 32.7174 199.81 33.0748C199.943 33.4322 200.147 33.7206 200.423 33.9399C200.699 34.1593 201.051 34.2689 201.479 34.2689ZM205.769 35V28.7615H206.695V29.7037H206.76C206.874 29.3951 207.08 29.1446 207.378 28.9523C207.675 28.7601 208.011 28.664 208.385 28.664C208.455 28.664 208.543 28.6653 208.649 28.668C208.754 28.6707 208.834 28.6748 208.888 28.6802V29.655C208.856 29.6469 208.782 29.6347 208.665 29.6184C208.551 29.5995 208.431 29.59 208.304 29.59C208 29.59 207.73 29.6536 207.491 29.7809C207.256 29.9055 207.069 30.0787 206.931 30.3008C206.795 30.5201 206.728 30.7706 206.728 31.0522V35H205.769ZM212.191 35.13C211.671 35.13 211.212 34.9986 210.814 34.736C210.416 34.4706 210.104 34.097 209.879 33.615C209.655 33.1303 209.542 32.5577 209.542 31.897C209.542 31.2417 209.655 30.6731 209.879 30.1911C210.104 29.7091 210.417 29.3368 210.818 29.0742C211.218 28.8115 211.681 28.6802 212.207 28.6802C212.613 28.6802 212.934 28.7479 213.169 28.8833C213.408 29.016 213.589 29.1676 213.714 29.3382C213.841 29.5061 213.94 29.6442 214.01 29.7525H214.091V26.6819H215.05V35H214.124V34.0415H214.01C213.94 34.1552 213.84 34.2987 213.71 34.472C213.58 34.6426 213.394 34.7956 213.153 34.931C212.912 35.0636 212.591 35.13 212.191 35.13ZM212.32 34.2689C212.705 34.2689 213.03 34.1687 213.295 33.9684C213.561 33.7653 213.762 33.485 213.9 33.1276C214.039 32.7675 214.108 32.3519 214.108 31.8807C214.108 31.415 214.04 31.0075 213.904 30.6582C213.769 30.3062 213.569 30.0327 213.303 29.8378C213.038 29.6401 212.71 29.5413 212.32 29.5413C211.914 29.5413 211.576 29.6455 211.305 29.854C211.037 30.0598 210.835 30.34 210.7 30.6948C210.567 31.0468 210.501 31.4421 210.501 31.8807C210.501 32.3248 210.569 32.7282 210.704 33.0911C210.842 33.4512 211.045 33.7382 211.313 33.9521C211.584 34.1633 211.92 34.2689 212.32 34.2689ZM221.357 30.1586L220.496 30.4023C220.442 30.2588 220.362 30.1194 220.257 29.984C220.154 29.8459 220.013 29.7322 219.834 29.6428C219.656 29.5535 219.427 29.5088 219.148 29.5088C218.766 29.5088 218.448 29.5968 218.193 29.7728C217.942 29.9461 217.816 30.1667 217.816 30.4348C217.816 30.6731 217.902 30.8613 218.076 30.9994C218.249 31.1375 218.52 31.2525 218.888 31.3446L219.814 31.572C220.372 31.7074 220.787 31.9146 221.061 32.1935C221.334 32.4697 221.471 32.8257 221.471 33.2617C221.471 33.6191 221.368 33.9386 221.162 34.2202C220.959 34.5018 220.675 34.7238 220.31 34.8863C219.944 35.0487 219.519 35.13 219.034 35.13C218.398 35.13 217.871 34.9919 217.454 34.7157C217.037 34.4395 216.773 34.0361 216.662 33.5053L217.572 33.2779C217.659 33.6137 217.823 33.8655 218.064 34.0333C218.307 34.2012 218.625 34.2852 219.018 34.2852C219.465 34.2852 219.819 34.1904 220.082 34.0009C220.347 33.8086 220.48 33.5785 220.48 33.3104C220.48 33.0938 220.404 32.9124 220.253 32.7661C220.101 32.6172 219.868 32.5062 219.554 32.4331L218.514 32.1894C217.943 32.054 217.523 31.8442 217.255 31.5599C216.99 31.2728 216.857 30.9141 216.857 30.4836C216.857 30.1315 216.956 29.8202 217.154 29.5494C217.354 29.2786 217.626 29.0661 217.97 28.9117C218.317 28.7574 218.709 28.6802 219.148 28.6802C219.765 28.6802 220.25 28.8156 220.602 29.0864C220.957 29.3571 221.209 29.7146 221.357 30.1586Z" fill="#484A54"/>
</g>
<path d="M231.6 18H232.743V16.8563H231.6V18ZM231.6 45V46.1437H232.743V45H231.6ZM134.3 19.1437H231.6V16.8563H134.3V19.1437ZM230.456 18V45H232.743V18H230.456ZM231.6 43.8563H134.3V46.1437H231.6V43.8563Z" fill="#C4C7CF" mask="url(#path-5-inside-1_765_90984)"/>
</g>
<g filter="url(#filter1_iii_765_90984)">
<g clip-path="url(#clip2_765_90984)">
<path d="M231.599 18H321.899C325.213 18 327.899 20.6863 327.899 24V39C327.899 42.3137 325.213 45 321.899 45H231.599V18Z" fill="white"/>
<path d="M241.757 35V26.6819H244.567C245.22 26.6819 245.753 26.7997 246.168 27.0353C246.584 27.2682 246.893 27.5836 247.094 27.9816C247.294 28.3797 247.394 28.8237 247.394 29.3138C247.394 29.8039 247.294 30.2493 247.094 30.6501C246.896 31.0508 246.59 31.3703 246.176 31.6086C245.761 31.8442 245.231 31.962 244.583 31.962H242.569V31.0684H244.551C244.998 31.0684 245.357 30.9912 245.627 30.8369C245.898 30.6826 246.094 30.4741 246.216 30.2114C246.341 29.9461 246.403 29.6469 246.403 29.3138C246.403 28.9808 246.341 28.6829 246.216 28.4203C246.094 28.1576 245.897 27.9518 245.623 27.8029C245.35 27.6513 244.987 27.5755 244.535 27.5755H242.764V35H241.757ZM249.017 35V26.6819H250.024V34.1065H253.891V35H249.017ZM256.316 35H255.26L258.315 26.6819H259.354L262.409 35H261.353L258.867 27.9979H258.802L256.316 35ZM256.706 31.7508H260.963V32.6443H256.706V31.7508ZM267.685 32.7255L267.668 31.5396H267.863L270.593 28.7615H271.779L268.871 31.702H268.789L267.685 32.7255ZM266.791 35V26.6819H267.75V35H266.791ZM270.755 35L268.318 31.9132L269.001 31.2471L271.974 35H270.755ZM275.371 35.13C274.77 35.13 274.251 34.9973 273.816 34.7319C273.382 34.4639 273.048 34.0902 272.812 33.6109C272.579 33.129 272.463 32.5685 272.463 31.9295C272.463 31.2904 272.579 30.7272 272.812 30.2399C273.048 29.7498 273.376 29.368 273.795 29.0945C274.218 28.8183 274.71 28.6802 275.274 28.6802C275.599 28.6802 275.919 28.7344 276.236 28.8427C276.553 28.951 276.841 29.127 277.101 29.3707C277.361 29.6117 277.568 29.9312 277.723 30.3292C277.877 30.7272 277.954 31.2173 277.954 31.7995V32.2057H273.145V31.3771H276.979C276.979 31.0251 276.909 30.711 276.768 30.4348C276.63 30.1586 276.433 29.9407 276.175 29.7809C275.921 29.6211 275.62 29.5413 275.274 29.5413C274.892 29.5413 274.561 29.636 274.283 29.8256C274.006 30.0124 273.794 30.2561 273.645 30.5567C273.496 30.8572 273.422 31.1794 273.422 31.5233V32.0757C273.422 32.5468 273.503 32.9462 273.665 33.2738C273.83 33.5988 274.059 33.8465 274.352 34.0171C274.644 34.185 274.984 34.2689 275.371 34.2689C275.623 34.2689 275.85 34.2337 276.053 34.1633C276.259 34.0902 276.437 33.9819 276.586 33.8384C276.734 33.6922 276.85 33.5108 276.931 33.2941L277.857 33.5541C277.759 33.8682 277.595 34.1444 277.365 34.3826C277.135 34.6182 276.851 34.8023 276.512 34.935C276.174 35.065 275.794 35.13 275.371 35.13ZM279.84 37.3395C279.677 37.3395 279.533 37.3259 279.405 37.2988C279.278 37.2745 279.19 37.2501 279.141 37.2257L279.385 36.3809C279.618 36.4405 279.824 36.4622 280.002 36.4459C280.181 36.4297 280.339 36.3498 280.477 36.2063C280.618 36.0655 280.747 35.8367 280.863 35.5199L281.042 35.0325L278.735 28.7615H279.775L281.497 33.7328H281.562L283.284 28.7615H284.324L281.676 35.9098C281.557 36.232 281.409 36.4987 281.233 36.7099C281.057 36.9238 280.853 37.0822 280.62 37.1851C280.389 37.288 280.13 37.3395 279.84 37.3395ZM287.002 35L285.102 28.7615H286.109L287.457 33.5378H287.522L288.854 28.7615H289.878L291.194 33.5216H291.259L292.607 28.7615H293.615L291.714 35H290.772L289.407 30.2074H289.309L287.945 35H287.002ZM297.204 35.13C296.641 35.13 296.147 34.9959 295.722 34.7279C295.299 34.4598 294.969 34.0848 294.731 33.6028C294.495 33.1209 294.377 32.5577 294.377 31.9132C294.377 31.2634 294.495 30.6961 294.731 30.2114C294.969 29.7267 295.299 29.3504 295.722 29.0823C296.147 28.8143 296.641 28.6802 297.204 28.6802C297.767 28.6802 298.26 28.8143 298.682 29.0823C299.108 29.3504 299.438 29.7267 299.673 30.2114C299.912 30.6961 300.031 31.2634 300.031 31.9132C300.031 32.5577 299.912 33.1209 299.673 33.6028C299.438 34.0848 299.108 34.4598 298.682 34.7279C298.26 34.9959 297.767 35.13 297.204 35.13ZM297.204 34.2689C297.632 34.2689 297.984 34.1593 298.26 33.9399C298.536 33.7206 298.741 33.4322 298.873 33.0748C299.006 32.7174 299.072 32.3302 299.072 31.9132C299.072 31.4962 299.006 31.1077 298.873 30.7476C298.741 30.3874 298.536 30.0963 298.26 29.8743C297.984 29.6523 297.632 29.5413 297.204 29.5413C296.776 29.5413 296.424 29.6523 296.148 29.8743C295.872 30.0963 295.667 30.3874 295.535 30.7476C295.402 31.1077 295.336 31.4962 295.336 31.9132C295.336 32.3302 295.402 32.7174 295.535 33.0748C295.667 33.4322 295.872 33.7206 296.148 33.9399C296.424 34.1593 296.776 34.2689 297.204 34.2689ZM301.494 35V28.7615H302.42V29.7037H302.485C302.599 29.3951 302.805 29.1446 303.102 28.9523C303.4 28.7601 303.736 28.664 304.11 28.664C304.18 28.664 304.268 28.6653 304.374 28.668C304.479 28.6707 304.559 28.6748 304.613 28.6802V29.655C304.581 29.6469 304.506 29.6347 304.39 29.6184C304.276 29.5995 304.156 29.59 304.028 29.59C303.725 29.59 303.454 29.6536 303.216 29.7809C302.981 29.9055 302.794 30.0787 302.656 30.3008C302.52 30.5201 302.453 30.7706 302.453 31.0522V35H301.494ZM307.915 35.13C307.395 35.13 306.936 34.9986 306.538 34.736C306.14 34.4706 305.829 34.097 305.604 33.615C305.38 33.1303 305.267 32.5577 305.267 31.897C305.267 31.2417 305.38 30.6731 305.604 30.1911C305.829 29.7091 306.142 29.3368 306.543 29.0742C306.943 28.8115 307.406 28.6802 307.932 28.6802C308.338 28.6802 308.659 28.7479 308.894 28.8833C309.132 29.016 309.314 29.1676 309.438 29.3382C309.566 29.5061 309.665 29.6442 309.735 29.7525H309.816V26.6819H310.775V35H309.849V34.0415H309.735C309.665 34.1552 309.564 34.2987 309.434 34.472C309.304 34.6426 309.119 34.7956 308.878 34.931C308.637 35.0636 308.316 35.13 307.915 35.13ZM308.045 34.2689C308.43 34.2689 308.755 34.1687 309.02 33.9684C309.285 33.7653 309.487 33.485 309.625 33.1276C309.763 32.7675 309.832 32.3519 309.832 31.8807C309.832 31.415 309.765 31.0075 309.629 30.6582C309.494 30.3062 309.294 30.0327 309.028 29.8378C308.763 29.6401 308.435 29.5413 308.045 29.5413C307.639 29.5413 307.301 29.6455 307.03 29.854C306.762 30.0598 306.56 30.34 306.425 30.6948C306.292 31.0468 306.226 31.4421 306.226 31.8807C306.226 32.3248 306.293 32.7282 306.429 33.0911C306.567 33.4512 306.77 33.7382 307.038 33.9521C307.309 34.1633 307.645 34.2689 308.045 34.2689ZM317.082 30.1586L316.221 30.4023C316.167 30.2588 316.087 30.1194 315.982 29.984C315.879 29.8459 315.738 29.7322 315.559 29.6428C315.38 29.5535 315.152 29.5088 314.873 29.5088C314.491 29.5088 314.173 29.5968 313.918 29.7728C313.666 29.9461 313.541 30.1667 313.541 30.4348C313.541 30.6731 313.627 30.8613 313.801 30.9994C313.974 31.1375 314.245 31.2525 314.613 31.3446L315.539 31.572C316.097 31.7074 316.512 31.9146 316.786 32.1935C317.059 32.4697 317.196 32.8257 317.196 33.2617C317.196 33.6191 317.093 33.9386 316.887 34.2202C316.684 34.5018 316.4 34.7238 316.034 34.8863C315.669 35.0487 315.244 35.13 314.759 35.13C314.123 35.13 313.596 34.9919 313.179 34.7157C312.762 34.4395 312.498 34.0361 312.387 33.5053L313.297 33.2779C313.384 33.6137 313.547 33.8655 313.788 34.0333C314.032 34.2012 314.35 34.2852 314.743 34.2852C315.19 34.2852 315.544 34.1904 315.807 34.0009C316.072 33.8086 316.205 33.5785 316.205 33.3104C316.205 33.0938 316.129 32.9124 315.978 32.7661C315.826 32.6172 315.593 32.5062 315.279 32.4331L314.239 32.1894C313.668 32.054 313.248 31.8442 312.98 31.5599C312.715 31.2728 312.582 30.9141 312.582 30.4836C312.582 30.1315 312.681 29.8202 312.879 29.5494C313.079 29.2786 313.351 29.0661 313.695 28.9117C314.042 28.7574 314.434 28.6802 314.873 28.6802C315.49 28.6802 315.975 28.8156 316.327 29.0864C316.682 29.3571 316.933 29.7146 317.082 30.1586Z" fill="#484A54"/>
</g>
</g>
<defs>
<filter id="filter0_iii_765_90984" x="134.3" y="18" width="97.2998" height="27" filterUnits="userSpaceOnUse" color-interpolation-filters="sRGB">
<feFlood flood-opacity="0" result="BackgroundImageFix"/>
<feBlend mode="normal" in="SourceGraphic" in2="BackgroundImageFix" result="shape"/>
<feColorMatrix in="SourceAlpha" type="matrix" values="0 0 0 0 0 0 0 0 0 0 0 0 0 0 0 0 0 0 127 0" result="hardAlpha"/>
<feOffset dy="1.14373"/>
<feComposite in2="hardAlpha" operator="arithmetic" k2="-1" k3="1"/>
<feColorMatrix type="matrix" values="0 0 0 0 0.878431 0 0 0 0 0.882353 0 0 0 0 0.913725 0 0 0 1 0"/>
<feBlend mode="normal" in2="shape" result="effect1_innerShadow_765_90984"/>
<feColorMatrix in="SourceAlpha" type="matrix" values="0 0 0 0 0 0 0 0 0 0 0 0 0 0 0 0 0 0 127 0" result="hardAlpha"/>
<feOffset dy="-1.14373"/>
<feComposite in2="hardAlpha" operator="arithmetic" k2="-1" k3="1"/>
<feColorMatrix type="matrix" values="0 0 0 0 0.878431 0 0 0 0 0.882353 0 0 0 0 0.913725 0 0 0 1 0"/>
<feBlend mode="normal" in2="effect1_innerShadow_765_90984" result="effect2_innerShadow_765_90984"/>
<feColorMatrix in="SourceAlpha" type="matrix" values="0 0 0 0 0 0 0 0 0 0 0 0 0 0 0 0 0 0 127 0" result="hardAlpha"/>
<feOffset dx="-1.14373"/>
<feComposite in2="hardAlpha" operator="arithmetic" k2="-1" k3="1"/>
<feColorMatrix type="matrix" values="0 0 0 0 0.878431 0 0 0 0 0.882353 0 0 0 0 0.913725 0 0 0 1 0"/>
<feBlend mode="normal" in2="effect2_innerShadow_765_90984" result="effect3_innerShadow_765_90984"/>
</filter>
<filter id="filter1_iii_765_90984" x="231.599" y="18" width="96.2997" height="27" filterUnits="userSpaceOnUse" color-interpolation-filters="sRGB">
<feFlood flood-opacity="0" result="BackgroundImageFix"/>
<feBlend mode="normal" in="SourceGraphic" in2="BackgroundImageFix" result="shape"/>
<feColorMatrix in="SourceAlpha" type="matrix" values="0 0 0 0 0 0 0 0 0 0 0 0 0 0 0 0 0 0 127 0" result="hardAlpha"/>
<feOffset dy="1.14373"/>
<feComposite in2="hardAlpha" operator="arithmetic" k2="-1" k3="1"/>
<feColorMatrix type="matrix" values="0 0 0 0 0.878431 0 0 0 0 0.882353 0 0 0 0 0.913725 0 0 0 1 0"/>
<feBlend mode="normal" in2="shape" result="effect1_innerShadow_765_90984"/>
<feColorMatrix in="SourceAlpha" type="matrix" values="0 0 0 0 0 0 0 0 0 0 0 0 0 0 0 0 0 0 127 0" result="hardAlpha"/>
<feOffset dy="-1.14373"/>
<feComposite in2="hardAlpha" operator="arithmetic" k2="-1" k3="1"/>
<feColorMatrix type="matrix" values="0 0 0 0 0.878431 0 0 0 0 0.882353 0 0 0 0 0.913725 0 0 0 1 0"/>
<feBlend mode="normal" in2="effect1_innerShadow_765_90984" result="effect2_innerShadow_765_90984"/>
<feColorMatrix in="SourceAlpha" type="matrix" values="0 0 0 0 0 0 0 0 0 0 0 0 0 0 0 0 0 0 127 0" result="hardAlpha"/>
<feOffset dx="-1.14373"/>
<feComposite in2="hardAlpha" operator="arithmetic" k2="-1" k3="1"/>
<feColorMatrix type="matrix" values="0 0 0 0 0.878431 0 0 0 0 0.882353 0 0 0 0 0.913725 0 0 0 1 0"/>
<feBlend mode="normal" in2="effect2_innerShadow_765_90984" result="effect3_innerShadow_765_90984"/>
</filter>
<clipPath id="clip0_765_90984">
<path d="M18 24C18 20.6863 20.6863 18 24 18H134.3V45H24C20.6863 45 18 42.3137 18 39V24Z" fill="white"/>
</clipPath>
<clipPath id="clip1_765_90984">
<path d="M134.3 18H231.6V45H134.3V18Z" fill="white"/>
</clipPath>
<clipPath id="clip2_765_90984">
<path d="M231.599 18H321.899C325.213 18 327.899 20.6863 327.899 24V39C327.899 42.3137 325.213 45 321.899 45H231.599V18Z" fill="white"/>
</clipPath>
</defs>
</svg>
