<svg width="357" height="210" viewBox="0 0 357 210" fill="none" xmlns="http://www.w3.org/2000/svg">
<rect width="357" height="210" rx="16" fill="white"/>
<path d="M35.8987 32.1048C35.5415 29.1418 33.2991 27.438 30.33 27.438C26.9412 27.438 24.354 29.831 24.354 34.0279C24.354 38.2125 26.8973 40.6179 30.33 40.6179C33.6186 40.6179 35.6042 38.4317 35.8987 36.07L33.155 36.0575C32.8982 37.4294 31.8207 38.2187 30.3737 38.2187C28.4257 38.2187 27.1039 36.7717 27.1039 34.0279C27.1039 31.3594 28.4069 29.8372 30.3925 29.8372C31.8772 29.8372 32.9483 30.6953 33.155 32.1048H35.8987V32.1048ZM42.1407 40.6303C45.0597 40.6303 46.8763 38.6321 46.8763 35.6691C46.8763 32.6873 45.0597 30.6953 42.1407 30.6953C39.2216 30.6953 37.4051 32.6873 37.4051 35.6691C37.4051 38.6321 39.2216 40.6303 42.1407 40.6303ZM42.1532 38.5633C40.8065 38.5633 40.1175 37.3291 40.1175 35.6503C40.1175 33.9715 40.8065 32.7311 42.1532 32.7311C43.475 32.7311 44.164 33.9715 44.164 35.6503C44.164 37.3291 43.475 38.5633 42.1532 38.5633ZM48.6114 40.4425H51.2799V34.6668C51.2799 33.6019 51.9563 32.8941 52.8458 32.8941C53.7229 32.8941 54.3117 33.4954 54.3117 34.4414V40.4425H56.8987V34.5667C56.8987 33.5706 57.4687 32.8941 58.4396 32.8941C59.2916 32.8941 59.9305 33.4265 59.9305 34.4977V40.4425H62.5927V33.9715C62.5927 31.8856 61.3524 30.6953 59.5609 30.6953C58.1515 30.6953 57.0552 31.4157 56.6607 32.5183H56.5604C56.2535 31.4033 55.27 30.6953 53.9483 30.6953C52.6517 30.6953 51.6682 31.3845 51.2673 32.5183H51.1547V30.8206H48.6114V40.4425V40.4425ZM64.7005 44.0506H67.369V38.9014H67.4504C67.82 39.7033 68.628 40.5991 70.1814 40.5991C72.3739 40.5991 74.0839 38.8638 74.0839 35.6441C74.0839 32.3365 72.2988 30.6953 70.1878 30.6953C68.5779 30.6953 67.8074 31.6538 67.4504 32.4368H67.3314V30.8206H64.7005V44.0506ZM67.3125 35.6315C67.3125 33.9152 68.0392 32.8188 69.3358 32.8188C70.6576 32.8188 71.3592 33.9653 71.3592 35.6315C71.3592 37.3103 70.645 38.4756 69.3358 38.4756C68.0516 38.4756 67.3125 37.3479 67.3125 35.6315V35.6315ZM80.2478 40.6303C82.628 40.6303 84.2316 39.4715 84.6074 37.6861L82.1394 37.5233C81.8701 38.2563 81.181 38.6384 80.2915 38.6384C78.9574 38.6384 78.1117 37.7552 78.1117 36.3206V36.3144H84.6639V35.5814C84.6639 32.3115 82.6845 30.6953 80.1412 30.6953C77.3098 30.6953 75.4746 32.7061 75.4746 35.6753C75.4746 38.7261 77.2849 40.6303 80.2478 40.6303V40.6303ZM78.1117 34.6606C78.1682 33.5644 79.0011 32.6873 80.1851 32.6873C81.3439 32.6873 82.1458 33.5142 82.152 34.6606H78.1117ZM91.523 30.8206H89.7127V28.5153H87.0442V30.8206H85.7287V32.8252H87.0442V37.8365C87.0316 39.7221 88.3158 40.6554 90.2513 40.5741C90.9404 40.549 91.4289 40.4111 91.6983 40.3234L91.2786 38.3376C91.147 38.3627 90.8653 38.4253 90.6147 38.4253C90.0822 38.4253 89.7127 38.2249 89.7127 37.4857V32.8252H91.523V30.8206V30.8206ZM93.2612 40.4425H95.9297V30.8206H93.2612V40.4425ZM94.6017 29.5803C95.3972 29.5803 96.0486 28.9726 96.0486 28.2272C96.0486 27.488 95.3972 26.8804 94.6017 26.8804C93.8125 26.8804 93.161 27.488 93.161 28.2272C93.161 28.9726 93.8125 29.5803 94.6017 29.5803ZM103.185 30.8206H101.375V28.5153H98.7062V30.8206H97.3907V32.8252H98.7062V37.8365C98.6936 39.7221 99.9778 40.6554 101.913 40.5741C102.602 40.549 103.091 40.4111 103.36 40.3234L102.941 38.3376C102.809 38.3627 102.527 38.4253 102.277 38.4253C101.744 38.4253 101.375 38.2249 101.375 37.4857V32.8252H103.185V30.8206V30.8206ZM104.923 40.4425H107.592V30.8206H104.923V40.4425ZM106.264 29.5803C107.059 29.5803 107.711 28.9726 107.711 28.2272C107.711 27.488 107.059 26.8804 106.264 26.8804C105.474 26.8804 104.823 27.488 104.823 28.2272C104.823 28.9726 105.474 29.5803 106.264 29.5803ZM114.076 40.6303C116.996 40.6303 118.812 38.6321 118.812 35.6691C118.812 32.6873 116.996 30.6953 114.076 30.6953C111.157 30.6953 109.341 32.6873 109.341 35.6691C109.341 38.6321 111.157 40.6303 114.076 40.6303ZM114.089 38.5633C112.742 38.5633 112.053 37.3291 112.053 35.6503C112.053 33.9715 112.742 32.7311 114.089 32.7311C115.411 32.7311 116.1 33.9715 116.1 35.6503C116.1 37.3291 115.411 38.5633 114.089 38.5633ZM123.216 34.8799C123.222 33.6395 123.961 32.9129 125.038 32.9129C126.11 32.9129 126.755 33.6145 126.748 34.7922V40.4425H129.417V34.316C129.417 32.0734 128.102 30.6953 126.097 30.6953C124.669 30.6953 123.635 31.3969 123.203 32.5183H123.09V30.8206H120.547V40.4425H123.216V34.8799V34.8799ZM135.653 27.6134V40.4425H138.283V32.061H138.39L141.711 40.3798H143.502L146.821 32.0922H146.928V40.4425H149.56V27.6134H146.214L142.681 36.2329H142.53L138.997 27.6134H135.653V27.6134ZM154.487 40.6241C155.909 40.6241 156.83 40.004 157.3 39.1083H157.375V40.4425H159.906V33.9527C159.906 31.66 157.963 30.6953 155.821 30.6953C153.517 30.6953 152 31.7979 151.631 33.5518L154.098 33.7522C154.281 33.1133 154.851 32.6434 155.81 32.6434C156.716 32.6434 157.238 33.1007 157.238 33.8902V33.9276C157.238 34.5479 156.579 34.6292 154.906 34.7922C153.002 34.9676 151.293 35.6065 151.293 37.7552C151.293 39.6595 152.652 40.6241 154.487 40.6241V40.6241ZM155.251 38.7825C154.43 38.7825 153.842 38.4003 153.842 37.6675C153.842 36.9157 154.462 36.5461 155.402 36.4145C155.984 36.3331 156.936 36.1953 157.256 35.9823V37.0034C157.256 38.0119 156.423 38.7825 155.251 38.7825V38.7825ZM161.976 44.0506H164.644V38.9014H164.726C165.095 39.7033 165.903 40.5991 167.457 40.5991C169.649 40.5991 171.358 38.8638 171.358 35.6441C171.358 32.3365 169.573 30.6953 167.463 30.6953C165.853 30.6953 165.083 31.6538 164.726 32.4368H164.607V30.8206H161.976V44.0506V44.0506ZM164.587 35.6315C164.587 33.9152 165.315 32.8188 166.612 32.8188C167.933 32.8188 168.635 33.9653 168.635 35.6315C168.635 37.3103 167.921 38.4756 166.612 38.4756C165.326 38.4756 164.587 37.3479 164.587 35.6315Z" fill="#171A22"/>
<path d="M54.9629 61.8625H56.2228V182.823H54.9629V61.8625ZM131.819 61.8625H133.08V182.823H131.819V61.8625ZM213.718 61.8625H214.977V182.823H213.718V61.8625ZM295.615 61.8625H296.874V182.823H295.615V61.8625Z" fill="#DEE3E5"/>
<path d="M23.4644 87.1243H332.154V88.3843H23.4644V87.1243ZM23.4644 133.745H332.154V135.005H23.4644V133.745Z" fill="#DEE3E5"/>
<path opacity="0.5" fill-rule="evenodd" clip-rule="evenodd" d="M102.843 144.393C102.843 161.441 89.0219 175.263 71.9734 175.263C54.9249 175.263 41.1045 161.441 41.1045 144.393C41.1045 127.344 54.9249 113.523 71.9734 113.523C89.0219 113.523 102.843 127.344 102.843 144.393ZM71.9734 172.743C87.6301 172.743 100.323 160.05 100.323 144.393C100.323 128.735 87.6301 116.043 71.9734 116.043C56.3167 116.043 43.6244 128.735 43.6244 144.393C43.6244 160.05 56.3167 172.743 71.9734 172.743Z" fill="white"/>
<path opacity="0.5" d="M100.323 144.393C100.323 160.05 87.6302 172.743 71.9735 172.743C56.3168 172.743 43.6245 160.05 43.6245 144.393C43.6245 128.735 56.3168 116.043 71.9735 116.043C87.6302 116.043 100.323 128.735 100.323 144.393V144.393Z" fill="#2BB3FF"/>
<path d="M72.6029 139.983H71.343V143.763H67.563V145.023H71.343V148.803H72.6029V145.023H76.3827V143.763H72.6029V139.983Z" fill="#2BB3FF"/>
<path opacity="0.5" fill-rule="evenodd" clip-rule="evenodd" d="M129.301 101.553C129.301 121.385 113.224 137.463 93.3922 137.463C73.5603 137.463 57.4834 121.385 57.4834 101.553C57.4834 81.72 73.5603 65.6426 93.3922 65.6426C113.224 65.6426 129.301 81.72 129.301 101.553V101.553ZM93.3922 134.943C111.833 134.943 126.781 119.993 126.781 101.553C126.781 83.1117 111.833 68.1626 93.3922 68.1626C74.9521 68.1626 60.0034 83.1117 60.0034 101.553C60.0034 119.993 74.9521 134.943 93.3922 134.943Z" fill="white"/>
<path opacity="0.5" d="M126.781 101.553C126.781 119.993 111.832 134.943 93.3918 134.943C74.9517 134.943 60.0029 119.993 60.0029 101.553C60.0029 83.1117 74.9517 68.1626 93.3918 68.1626C111.832 68.1626 126.781 83.1117 126.781 101.553Z" fill="#59DDAA"/>
<path d="M94.0228 97.1426H92.7629V100.923H88.9829V102.183H92.7629V105.963H94.0228V102.183H97.8027V100.923H94.0228V97.1426Z" fill="#59DDAA"/>
<path opacity="0.5" fill-rule="evenodd" clip-rule="evenodd" d="M159.541 136.833C159.541 145.532 152.49 152.583 143.791 152.583C135.092 152.583 128.042 145.532 128.042 136.833C128.042 128.134 135.092 121.083 143.791 121.083C152.49 121.083 159.541 128.134 159.541 136.833ZM143.791 150.063C151.097 150.063 157.02 144.139 157.02 136.833C157.02 129.526 151.097 123.603 143.791 123.603C136.485 123.603 130.561 129.526 130.561 136.833C130.561 144.139 136.485 150.063 143.791 150.063Z" fill="white"/>
<path opacity="0.5" d="M157.02 136.833C157.02 144.139 151.097 150.063 143.791 150.063C136.485 150.063 130.562 144.139 130.562 136.833C130.562 129.526 136.485 123.603 143.791 123.603C151.097 123.603 157.02 129.526 157.02 136.833V136.833Z" fill="#AB6CFE"/>
<path d="M144.421 132.423H143.161V136.203H139.381V137.463H143.161V141.243H144.421V137.463H148.201V136.203H144.421V132.423Z" fill="#AB6CFE"/>
<path opacity="0.5" d="M221.277 97.7727C221.277 109.95 211.405 119.823 199.229 119.823C187.051 119.823 177.179 109.95 177.179 97.7727C177.179 85.5948 187.051 75.7227 199.229 75.7227C211.405 75.7227 221.277 85.5948 221.277 97.7727Z" fill="#FF4953"/>
<path d="M199.858 93.3628H198.599V97.1428H194.82V98.4028H198.599V102.183H199.858V98.4028H203.639V97.1428H199.858V93.3628Z" fill="#FF4953"/>
<path opacity="0.5" fill-rule="evenodd" clip-rule="evenodd" d="M299.395 113.523C299.395 129.528 286.421 142.503 270.416 142.503C254.411 142.503 241.437 129.528 241.437 113.523C241.437 97.5175 254.411 84.5427 270.416 84.5427C286.421 84.5427 299.395 97.5175 299.395 113.523ZM270.416 139.983C285.03 139.983 296.874 128.135 296.874 113.523C296.874 98.9092 285.03 87.0627 270.416 87.0627C255.803 87.0627 243.956 98.9092 243.956 113.523C243.956 128.135 255.803 139.983 270.416 139.983Z" fill="white"/>
<path opacity="0.5" d="M296.875 113.523C296.875 128.135 285.03 139.983 270.417 139.983C255.803 139.983 243.957 128.135 243.957 113.523C243.957 98.9093 255.803 87.0627 270.417 87.0627C285.03 87.0627 296.875 98.9093 296.875 113.523Z" fill="#FF8C43"/>
</svg>
