<svg width="247" height="168" viewBox="0 0 247 168" fill="none" xmlns="http://www.w3.org/2000/svg">
<rect width="247" height="168" rx="16" fill="white"/>
<path d="M37.2007 49.6H38.4007V128.8H37.2007V49.6ZM91.2007 49.6H92.4007V128.8H91.2007V49.6ZM148.801 49.6H150.001V128.8H148.801V49.6ZM206.401 49.6H207.601V128.8H206.401V49.6Z" fill="#DEE3E5"/>
<path d="M14.4004 65.2H232.8V66.4H14.4004V65.2ZM14.4004 97.6H232.8V98.8H14.4004V97.6ZM14.4004 128.8H232.8V130H14.4004V128.8Z" fill="#DEE3E5"/>
<path d="M15.6627 125.983C17.0668 125.426 19.7896 123.51 22.6853 123.198C25.5797 122.886 25.8538 125.431 30.1386 124.424C34.4235 123.418 39.8678 119.572 44.1094 118.164C48.3511 116.756 48.3944 117.158 51.3468 117.385C54.3005 117.612 55.9799 119.612 58.8756 119.3C61.7712 118.988 62.9282 116.137 65.8239 115.826C68.7184 115.514 70.4903 118.362 73.3515 117.741C76.2137 117.119 75.8816 114.035 80.1331 112.719C84.3847 111.403 90.2329 111.319 94.609 111.16C98.9853 111.003 99.1482 112.515 102.014 111.928C104.88 111.342 106.076 108.846 108.938 108.225C111.799 107.603 111.951 109.014 116.323 108.822C120.696 108.629 126.487 108.006 130.801 107.262C135.114 106.519 133.547 105.575 137.89 105.107C142.233 104.64 148.084 104.578 152.515 104.924C156.946 105.27 155.642 106.768 160.042 106.839C164.443 106.91 170.235 106.286 174.52 105.279C178.805 104.274 178.63 102.657 181.467 101.806C184.304 100.955 183.031 102.727 188.705 101.026C194.379 99.3255 204.112 84.5081 209.839 83.2999C215.567 82.0917 214.448 85.2972 217.344 84.9853C220.238 84.6736 221.474 72.5454 224.315 71.7409C227.158 70.9352 230.107 65.1173 231.554 64.9614" stroke="#59DDAA" stroke-width="3.6" stroke-linecap="round"/>
<path d="M232.087 55.5C232.087 55.5 227.26 58.8315 224.312 59.5C221.365 60.1683 220.835 64.9188 217.888 65.5871C214.94 66.2556 213.131 70.9889 210.113 70.2792C206.958 69.5366 205.289 67.966 202.106 67.8905C199.242 67.8215 197.561 68.2026 195.007 69.5004C192.168 70.9416 191.894 74.4109 188.814 75.1094C185.733 75.8079 183.888 72.0219 180.807 72.7207C177.726 73.4192 177.739 77.8546 174.614 78.3294C171.078 78.8657 169.69 74.0333 166.086 73.6435C163.22 73.3324 161.76 74.6246 158.986 75.2536C156.214 75.8823 154.538 75.812 151.887 76.8635C149.135 77.954 148.242 80.4194 145.308 80.7709C142.116 81.1528 140.425 77.7108 137.224 78.0416C134.306 78.344 133.334 80.655 130.588 81.6936C127.922 82.702 126.261 82.6751 123.488 83.3038C120.716 83.9325 119.229 84.6733 116.388 84.9139C113.463 85.1614 111.681 83.8341 108.826 84.4817C105.969 85.1295 104.935 87.0954 102.189 88.134C99.5235 89.142 97.6442 88.446 95.0888 89.7441C92.2508 91.185 91.7345 93.9107 88.8967 95.3528C86.3411 96.6498 84.569 96.3343 81.7966 96.963C79.0242 97.5917 77.5616 98.6407 74.6965 98.5731C71.5143 98.4962 69.8727 96.2599 66.6907 96.1841C63.8254 96.1153 62.4302 97.5539 59.5906 97.7943C56.6653 98.0418 54.9818 97.5795 52.0274 97.3623C49.0518 97.1438 47.3726 97.1837 44.4075 96.6749C41.2825 96.1396 39.5099 93.9391 36.4777 94.6267C33.4455 95.3144 33.2394 99.2075 30.2072 99.8952C27.175 100.583 25.4094 97.8701 22.2787 97.8468C19.4154 97.8255 15.1785 99.4569 15.1785 99.4569" stroke="#2BB3FF" stroke-width="3.6" stroke-linecap="round"/>
<path d="M85.5579 146.146H86.5095V151.761C86.5095 152.261 86.4171 152.687 86.2335 153.038C86.0487 153.388 85.7895 153.653 85.4547 153.836C85.1199 154.017 84.7251 154.107 84.2691 154.107C83.8395 154.107 83.4579 154.03 83.1231 153.874C82.8019 153.727 82.5281 153.493 82.3323 153.198C82.136 152.888 82.0362 152.526 82.0455 152.159H82.9815C82.9767 152.366 83.034 152.569 83.1459 152.742C83.2624 152.909 83.4215 153.041 83.6067 153.125C83.7999 153.218 84.0219 153.263 84.2691 153.263C84.5427 153.263 84.7755 153.206 84.9675 153.092C85.1625 152.973 85.3153 152.796 85.4043 152.585C85.5075 152.36 85.5579 152.085 85.5579 151.761V146.146V146.146ZM90.0267 154.138C89.6535 154.138 89.3139 154.067 89.0103 153.927C88.7161 153.792 88.4652 153.579 88.2855 153.31C88.1004 153.017 88.0068 152.675 88.0167 152.328C88.0167 151.99 88.0827 151.716 88.2159 151.508C88.3491 151.295 88.5267 151.128 88.7487 151.008C88.9719 150.888 89.2167 150.798 89.4855 150.74C89.7567 150.678 90.0291 150.63 90.3027 150.594C90.6603 150.549 90.9507 150.514 91.1727 150.491C91.3983 150.465 91.5615 150.423 91.6635 150.364C91.7691 150.305 91.8207 150.203 91.8207 150.057V150.027C91.8207 149.649 91.7175 149.355 91.5111 149.145C91.3059 148.935 90.9951 148.83 90.5787 148.83C90.1467 148.83 89.8071 148.925 89.5623 149.114C89.3436 149.271 89.1658 149.479 89.0439 149.72L88.1859 149.414C88.3383 149.055 88.5435 148.776 88.7991 148.577C89.0571 148.374 89.3391 148.234 89.6427 148.155C89.9499 148.073 90.2511 148.032 90.5475 148.032C90.7371 148.032 90.9543 148.055 91.2003 148.102C91.4475 148.145 91.6875 148.235 91.9167 148.373C92.1495 148.511 92.3427 148.72 92.4963 148.998C92.6499 149.278 92.7267 149.651 92.7267 150.119V154H91.8207V153.202H91.7751C91.6961 153.355 91.5923 153.494 91.4679 153.612C91.3037 153.773 91.1096 153.899 90.8967 153.984C90.6591 154.086 90.3687 154.138 90.0267 154.138V154.138ZM90.1647 153.326C90.4796 153.336 90.7916 153.263 91.0695 153.114C91.3179 152.974 91.5039 152.792 91.6299 152.57C91.7546 152.357 91.8205 152.114 91.8207 151.868V151.04C91.7823 151.085 91.6983 151.127 91.5675 151.166C91.4403 151.202 91.2915 151.234 91.1235 151.262C90.8351 151.306 90.5458 151.344 90.2559 151.377C90.0318 151.404 89.8111 151.455 89.5971 151.527C89.41 151.583 89.2408 151.687 89.1063 151.829C88.9827 151.962 88.9215 152.144 88.9215 152.374C88.9215 152.688 89.0379 152.926 89.2707 153.087C89.5059 153.245 89.8035 153.326 90.1647 153.326V153.326ZM95.2839 150.456V154H94.3779V148.109H95.2527V149.03H95.3295C95.4675 148.731 95.6775 148.49 95.9583 148.308C96.2391 148.125 96.6027 148.032 97.0479 148.032C97.4463 148.032 97.7955 148.114 98.0943 148.278C98.3943 148.439 98.6259 148.684 98.7927 149.014C98.9583 149.342 99.0423 149.756 99.0423 150.257V154H98.1363V150.318C98.1363 149.855 98.0163 149.495 97.7763 149.237C97.5363 148.976 97.2063 148.846 96.7863 148.846C96.4983 148.846 96.2391 148.908 96.0123 149.033C95.7853 149.16 95.6002 149.351 95.4795 149.582C95.3487 149.822 95.2839 150.113 95.2839 150.456V150.456ZM107.462 146.146V154H106.51V147.143H106.464L104.547 148.416V147.449L106.51 146.146H107.462ZM143.158 146.146H144.11V151.761C144.11 152.261 144.017 152.687 143.834 153.038C143.649 153.388 143.39 153.653 143.055 153.836C142.72 154.017 142.325 154.107 141.869 154.107C141.44 154.107 141.058 154.03 140.723 153.874C140.402 153.727 140.128 153.493 139.932 153.198C139.736 152.888 139.636 152.526 139.646 152.159H140.582C140.577 152.366 140.634 152.569 140.746 152.742C140.862 152.909 141.022 153.041 141.207 153.125C141.4 153.218 141.622 153.263 141.869 153.263C142.143 153.263 142.376 153.206 142.568 153.092C142.762 152.973 142.915 152.796 143.004 152.585C143.108 152.36 143.158 152.085 143.158 151.761V146.146V146.146ZM147.627 154.138C147.254 154.138 146.914 154.067 146.61 153.927C146.316 153.792 146.065 153.579 145.886 153.31C145.7 153.017 145.607 152.675 145.617 152.328C145.617 151.99 145.683 151.716 145.816 151.508C145.949 151.295 146.127 151.128 146.349 151.008C146.572 150.888 146.817 150.798 147.086 150.74C147.357 150.678 147.629 150.63 147.903 150.594C148.26 150.549 148.551 150.514 148.773 150.491C148.998 150.465 149.161 150.423 149.263 150.364C149.369 150.305 149.421 150.203 149.421 150.057V150.027C149.421 149.649 149.318 149.355 149.111 149.145C148.906 148.935 148.595 148.83 148.179 148.83C147.747 148.83 147.407 148.925 147.162 149.114C146.944 149.271 146.766 149.479 146.644 149.72L145.786 149.414C145.938 149.055 146.144 148.776 146.399 148.577C146.657 148.374 146.939 148.234 147.243 148.155C147.55 148.073 147.851 148.032 148.148 148.032C148.337 148.032 148.554 148.055 148.8 148.102C149.048 148.145 149.287 148.235 149.517 148.373C149.749 148.511 149.943 148.72 150.096 148.998C150.25 149.278 150.327 149.651 150.327 150.119V154H149.421V153.202H149.375C149.296 153.355 149.192 153.494 149.068 153.612C148.904 153.773 148.71 153.899 148.497 153.984C148.259 154.086 147.969 154.138 147.627 154.138V154.138ZM147.765 153.326C148.08 153.336 148.392 153.263 148.669 153.114C148.918 152.974 149.104 152.792 149.23 152.57C149.355 152.357 149.42 152.114 149.421 151.868V151.04C149.382 151.085 149.298 151.127 149.168 151.166C149.04 151.202 148.892 151.234 148.724 151.262C148.435 151.306 148.146 151.344 147.856 151.377C147.632 151.404 147.411 151.455 147.197 151.527C147.01 151.583 146.841 151.687 146.706 151.829C146.583 151.962 146.522 152.144 146.522 152.374C146.522 152.688 146.638 152.926 146.871 153.087C147.106 153.245 147.404 153.326 147.765 153.326V153.326ZM152.884 150.456V154H151.978V148.109H152.853V149.03H152.93C153.068 148.731 153.278 148.49 153.558 148.308C153.839 148.125 154.203 148.032 154.648 148.032C155.046 148.032 155.396 148.114 155.694 148.278C155.994 148.439 156.226 148.684 156.393 149.014C156.558 149.342 156.642 149.756 156.642 150.257V154H155.736V150.318C155.736 149.855 155.616 149.495 155.376 149.237C155.136 148.976 154.806 148.846 154.386 148.846C154.098 148.846 153.839 148.908 153.612 149.033C153.385 149.16 153.2 149.351 153.08 149.582C152.949 149.822 152.884 150.113 152.884 150.456V150.456ZM164.003 154.107C163.476 154.107 163.011 154.014 162.606 153.827C162.228 153.657 161.904 153.388 161.667 153.048C161.441 152.713 161.325 152.317 161.333 151.913C161.328 151.604 161.392 151.297 161.52 151.015C161.648 150.733 161.837 150.483 162.074 150.284C162.306 150.092 162.565 149.97 162.852 149.919V149.873C162.485 149.782 162.165 149.556 161.955 149.241C161.732 148.912 161.617 148.522 161.625 148.125C161.622 147.725 161.723 147.369 161.928 147.054C162.132 146.74 162.413 146.492 162.772 146.31C163.132 146.129 163.542 146.038 164.003 146.038C164.458 146.038 164.865 146.129 165.222 146.31C165.58 146.492 165.862 146.74 166.066 147.054C166.274 147.372 166.384 147.745 166.38 148.125C166.383 148.523 166.264 148.912 166.04 149.241C165.816 149.565 165.521 149.776 165.153 149.873V149.919C165.437 149.97 165.693 150.092 165.921 150.284C166.156 150.485 166.345 150.735 166.475 151.016C166.604 151.297 166.672 151.603 166.672 151.913C166.676 152.318 166.555 152.714 166.326 153.048C166.09 153.389 165.765 153.658 165.387 153.827C164.952 154.021 164.479 154.117 164.003 154.107V154.107ZM164.003 153.263C164.358 153.263 164.666 153.206 164.924 153.092C165.182 152.976 165.381 152.813 165.521 152.604C165.661 152.394 165.734 152.148 165.736 151.868C165.739 151.589 165.659 151.315 165.507 151.082C165.352 150.851 165.139 150.665 164.889 150.544C164.613 150.41 164.31 150.343 164.003 150.348C163.668 150.348 163.368 150.414 163.105 150.544C162.855 150.665 162.642 150.851 162.488 151.082C162.338 151.316 162.262 151.59 162.269 151.868C162.267 152.148 162.334 152.394 162.472 152.604C162.614 152.813 162.814 152.976 163.074 153.092C163.336 153.206 163.644 153.263 164.003 153.263ZM164.003 149.536C164.284 149.536 164.534 149.48 164.751 149.367C164.97 149.254 165.143 149.097 165.268 148.895C165.397 148.681 165.464 148.436 165.46 148.186C165.463 147.941 165.399 147.701 165.273 147.491C165.15 147.292 164.973 147.132 164.762 147.032C164.525 146.917 164.265 146.86 164.003 146.866C163.737 146.86 163.472 146.917 163.232 147.032C163.02 147.131 162.843 147.291 162.722 147.491C162.602 147.688 162.543 147.92 162.545 148.186C162.543 148.457 162.603 148.694 162.725 148.895C162.851 149.097 163.024 149.254 163.244 149.367C163.463 149.48 163.716 149.536 164.003 149.536ZM200.758 146.146H201.71V151.761C201.71 152.261 201.617 152.687 201.433 153.038C201.249 153.388 200.99 153.653 200.655 153.836C200.32 154.017 199.925 154.107 199.469 154.107C199.04 154.107 198.658 154.03 198.323 153.874C198.002 153.727 197.728 153.493 197.532 153.198C197.336 152.888 197.236 152.526 197.246 152.159H198.182C198.177 152.366 198.234 152.569 198.346 152.742C198.462 152.909 198.622 153.041 198.807 153.125C199 153.218 199.222 153.263 199.469 153.263C199.743 153.263 199.976 153.206 200.168 153.092C200.362 152.973 200.515 152.796 200.604 152.585C200.708 152.36 200.758 152.085 200.758 151.761V146.146V146.146ZM205.227 154.138C204.854 154.138 204.514 154.067 204.21 153.927C203.916 153.792 203.665 153.579 203.486 153.31C203.3 153.017 203.207 152.675 203.217 152.328C203.217 151.99 203.283 151.716 203.416 151.508C203.549 151.295 203.727 151.128 203.949 151.008C204.172 150.888 204.417 150.798 204.686 150.74C204.957 150.678 205.229 150.63 205.503 150.594C205.86 150.549 206.151 150.514 206.373 150.491C206.598 150.465 206.761 150.423 206.863 150.364C206.969 150.305 207.021 150.203 207.021 150.057V150.027C207.021 149.649 206.918 149.355 206.711 149.145C206.506 148.935 206.195 148.83 205.779 148.83C205.347 148.83 205.007 148.925 204.762 149.114C204.544 149.271 204.366 149.479 204.244 149.72L203.386 149.414C203.538 149.055 203.743 148.776 203.999 148.577C204.257 148.374 204.539 148.234 204.843 148.155C205.15 148.073 205.451 148.032 205.747 148.032C205.937 148.032 206.154 148.055 206.4 148.102C206.648 148.145 206.887 148.235 207.117 148.373C207.349 148.511 207.543 148.72 207.696 148.998C207.85 149.278 207.927 149.651 207.927 150.119V154H207.021V153.202H206.975C206.896 153.355 206.792 153.494 206.668 153.612C206.504 153.773 206.31 153.899 206.097 153.984C205.859 154.086 205.569 154.138 205.227 154.138V154.138ZM205.365 153.326C205.68 153.336 205.992 153.263 206.269 153.114C206.518 152.974 206.704 152.792 206.83 152.57C206.955 152.357 207.02 152.114 207.021 151.868V151.04C206.982 151.085 206.898 151.127 206.768 151.166C206.64 151.202 206.492 151.234 206.324 151.262C206.035 151.306 205.746 151.344 205.456 151.377C205.232 151.404 205.011 151.455 204.797 151.527C204.61 151.583 204.441 151.687 204.306 151.829C204.183 151.962 204.122 152.144 204.122 152.374C204.122 152.688 204.238 152.926 204.471 153.087C204.706 153.245 205.003 153.326 205.365 153.326V153.326ZM210.484 150.456V154H209.578V148.109H210.453V149.03H210.53C210.668 148.731 210.878 148.49 211.158 148.308C211.439 148.125 211.803 148.032 212.248 148.032C212.646 148.032 212.996 148.114 213.294 148.278C213.594 148.439 213.826 148.684 213.993 149.014C214.158 149.342 214.242 149.756 214.242 150.257V154H213.336V150.318C213.336 149.855 213.216 149.495 212.976 149.237C212.736 148.976 212.406 148.846 211.986 148.846C211.698 148.846 211.439 148.908 211.212 149.033C210.985 149.16 210.8 149.351 210.68 149.582C210.549 149.822 210.484 150.113 210.484 150.456V150.456ZM222.661 146.146V154H221.71V147.143H221.664L219.747 148.416V147.449L221.71 146.146H222.661ZM228.641 154.107C228.311 154.1 227.984 154.038 227.675 153.923C227.339 153.797 227.037 153.593 226.793 153.329C226.527 153.047 226.313 152.668 226.152 152.189C225.991 151.709 225.911 151.106 225.911 150.38C225.911 149.684 225.976 149.068 226.107 148.53C226.236 147.992 226.426 147.538 226.674 147.17C226.921 146.799 227.222 146.518 227.571 146.326C227.925 146.134 228.322 146.038 228.763 146.038C229.204 146.038 229.595 146.127 229.937 146.303C230.283 146.476 230.563 146.72 230.782 147.032C230.999 147.344 231.14 147.702 231.203 148.109H230.267C230.19 147.772 230.013 147.466 229.761 147.231C229.511 146.998 229.179 146.882 228.763 146.882C228.155 146.882 227.676 147.147 227.326 147.676C226.978 148.205 226.803 148.948 226.8 149.904H226.861C227.071 149.582 227.357 149.318 227.695 149.136C228.033 148.953 228.411 148.859 228.795 148.86C229.245 148.86 229.656 148.973 230.03 149.199C230.403 149.421 230.703 149.729 230.927 150.123C231.153 150.514 231.264 150.963 231.264 151.469C231.264 151.954 231.156 152.399 230.939 152.804C230.726 153.2 230.409 153.531 230.022 153.762C229.631 153.998 229.17 154.113 228.641 154.107ZM228.641 153.263C228.964 153.263 229.252 153.183 229.508 153.022C229.767 152.861 229.97 152.645 230.118 152.374C230.27 152.097 230.348 151.785 230.344 151.469C230.344 151.144 230.271 150.849 230.126 150.582C229.988 150.32 229.783 150.099 229.532 149.943C229.274 149.782 228.976 149.699 228.672 149.704C228.438 149.702 228.206 149.752 227.993 149.85C227.785 149.943 227.598 150.076 227.441 150.242C227.285 150.407 227.163 150.598 227.073 150.813C226.973 151.061 226.928 151.328 226.943 151.595C226.957 151.862 227.03 152.123 227.157 152.358C227.306 152.63 227.507 152.848 227.763 153.015C228.021 153.18 228.314 153.263 228.641 153.263Z" fill="#A9ABB6"/>
<path d="M19.0657 25.2074H21.0259L22.0114 26.4751L22.9808 27.6044L24.8079 29.8949H22.6559L21.3988 28.3501L20.7543 27.4339L19.0657 25.2074ZM24.973 23.5455C24.973 24.7351 24.7475 25.7472 24.2965 26.5817C23.8491 27.4162 23.2383 28.0536 22.4641 28.494C21.6935 28.9308 20.8271 29.1491 19.8647 29.1491C18.8952 29.1491 18.0252 28.929 17.2546 28.4886C16.484 28.0483 15.875 27.4109 15.4276 26.5763C14.9801 25.7418 14.7564 24.7315 14.7564 23.5455C14.7564 22.3558 14.9801 21.3438 15.4276 20.5092C15.875 19.6747 16.484 19.0391 17.2546 18.6023C18.0252 18.1619 18.8952 17.9418 19.8647 17.9418C20.8271 17.9418 21.6935 18.1619 22.4641 18.6023C23.2383 19.0391 23.8491 19.6747 24.2965 20.5092C24.7475 21.3438 24.973 22.3558 24.973 23.5455ZM22.6346 23.5455C22.6346 22.7749 22.5192 22.125 22.2884 21.5959C22.0611 21.0668 21.7397 20.6655 21.3242 20.392C20.9087 20.1186 20.4222 19.9819 19.8647 19.9819C19.3072 19.9819 18.8207 20.1186 18.4052 20.392C17.9897 20.6655 17.6665 21.0668 17.4357 21.5959C17.2085 22.125 17.0948 22.7749 17.0948 23.5455C17.0948 24.3161 17.2085 24.9659 17.4357 25.495C17.6665 26.0241 17.9897 26.4254 18.4052 26.6989C18.8207 26.9723 19.3072 27.109 19.8647 27.109C20.4222 27.109 20.9087 26.9723 21.3242 26.6989C21.7397 26.4254 22.0611 26.0241 22.2884 25.495C22.5192 24.9659 22.6346 24.3161 22.6346 23.5455ZM31.3637 18.0909V29H29.0573V20.2802H28.9933L26.4951 21.8462V19.8008L29.1958 18.0909H31.3637ZM37.4921 29V18.0909H41.7961C42.6235 18.0909 43.3284 18.2489 43.9108 18.565C44.4932 18.8775 44.9371 19.3125 45.2425 19.87C45.5514 20.424 45.7059 21.0632 45.7059 21.7876C45.7059 22.5121 45.5496 23.1513 45.2371 23.7053C44.9246 24.2592 44.4719 24.6907 43.8788 24.9996C43.2893 25.3086 42.5756 25.4631 41.7375 25.4631H38.9942V23.6147H41.3646C41.8085 23.6147 42.1743 23.5384 42.4619 23.3857C42.7531 23.2294 42.9697 23.0146 43.1118 22.7411C43.2574 22.4641 43.3302 22.1463 43.3302 21.7876C43.3302 21.4254 43.2574 21.1094 43.1118 20.8395C42.9697 20.5661 42.7531 20.3548 42.4619 20.2056C42.1707 20.0529 41.8014 19.9766 41.354 19.9766H39.7986V29H37.4921ZM47.1614 29V20.8182H49.3613V22.2457H49.4466C49.5957 21.7379 49.8461 21.3544 50.1976 21.0952C50.5492 20.8324 50.954 20.701 51.4121 20.701C51.5257 20.701 51.6483 20.7081 51.7797 20.7223C51.911 20.7365 52.0265 20.756 52.1259 20.7809V22.7944C52.0194 22.7624 51.872 22.734 51.6838 22.7092C51.4956 22.6843 51.3233 22.6719 51.1671 22.6719C50.8333 22.6719 50.535 22.7447 50.2722 22.8903C50.013 23.0323 49.807 23.2312 49.6543 23.4869C49.5051 23.7425 49.4306 24.0373 49.4306 24.3711V29H47.1614ZM56.615 29.1598C55.7876 29.1598 55.072 28.984 54.4683 28.6325C53.8682 28.2773 53.4047 27.7837 53.078 27.1516C52.7513 26.516 52.588 25.7791 52.588 24.9411C52.588 24.0959 52.7513 23.3572 53.078 22.7251C53.4047 22.0895 53.8682 21.5959 54.4683 21.2443C55.072 20.8892 55.7876 20.7116 56.615 20.7116C57.4424 20.7116 58.1562 20.8892 58.7563 21.2443C59.36 21.5959 59.8252 22.0895 60.1519 22.7251C60.4786 23.3572 60.642 24.0959 60.642 24.9411C60.642 25.7791 60.4786 26.516 60.1519 27.1516C59.8252 27.7837 59.36 28.2773 58.7563 28.6325C58.1562 28.984 57.4424 29.1598 56.615 29.1598ZM56.6256 27.402C57.002 27.402 57.3163 27.2955 57.5684 27.0824C57.8206 26.8658 58.0106 26.571 58.1384 26.1982C58.2698 25.8253 58.3355 25.4009 58.3355 24.9251C58.3355 24.4492 58.2698 24.0249 58.1384 23.652C58.0106 23.2791 57.8206 22.9844 57.5684 22.7678C57.3163 22.5511 57.002 22.4428 56.6256 22.4428C56.2456 22.4428 55.926 22.5511 55.6668 22.7678C55.4111 22.9844 55.2176 23.2791 55.0862 23.652C54.9584 24.0249 54.8944 24.4492 54.8944 24.9251C54.8944 25.4009 54.9584 25.8253 55.0862 26.1982C55.2176 26.571 55.4111 26.8658 55.6668 27.0824C55.926 27.2955 56.2456 27.402 56.6256 27.402ZM65.8035 32.2386C65.0684 32.2386 64.4381 32.1374 63.9126 31.935C63.3905 31.7362 62.9751 31.4645 62.6661 31.12C62.3572 30.7756 62.1565 30.3885 62.0642 29.9588L64.1629 29.6765C64.2268 29.8398 64.328 29.9925 64.4665 30.1346C64.605 30.2766 64.7879 30.3903 65.0152 30.4755C65.246 30.5643 65.5265 30.6087 65.8568 30.6087C66.3504 30.6087 66.757 30.4879 67.0766 30.2464C67.3998 30.0085 67.5613 29.609 67.5613 29.0479V27.5511H67.4655C67.366 27.7784 67.2169 27.9933 67.018 28.1957C66.8192 28.3981 66.5635 28.5632 66.251 28.6911C65.9385 28.8189 65.5656 28.8828 65.1324 28.8828C64.518 28.8828 63.9587 28.7408 63.4545 28.4567C62.9537 28.169 62.5542 27.7305 62.2559 27.141C61.9612 26.5479 61.8138 25.7987 61.8138 24.8931C61.8138 23.9663 61.9648 23.1921 62.2666 22.5707C62.5684 21.9492 62.9697 21.484 63.4704 21.1751C63.9747 20.8661 64.5269 20.7116 65.127 20.7116C65.5851 20.7116 65.9687 20.7898 66.2776 20.946C66.5866 21.0987 66.8351 21.2905 67.0233 21.5213C67.2151 21.7486 67.3625 21.9723 67.4655 22.1925H67.5507V20.8182H69.8039V29.0799C69.8039 29.7759 69.6334 30.3583 69.2925 30.8271C68.9516 31.2958 68.4793 31.6474 67.8756 31.8817C67.2755 32.1197 66.5848 32.2386 65.8035 32.2386ZM65.8515 27.1783C66.2172 27.1783 66.5262 27.0877 66.7783 26.9066C67.034 26.7219 67.2293 26.4592 67.3643 26.1183C67.5028 25.7738 67.572 25.3619 67.572 24.8825C67.572 24.4031 67.5045 23.9876 67.3696 23.636C67.2346 23.2809 67.0393 23.0057 66.7836 22.8104C66.528 22.6151 66.2172 22.5174 65.8515 22.5174C65.4786 22.5174 65.1643 22.6186 64.9086 22.821C64.653 23.0199 64.4594 23.2969 64.328 23.652C64.1966 24.0071 64.1309 24.4173 64.1309 24.8825C64.1309 25.3548 64.1966 25.7631 64.328 26.1076C64.463 26.4485 64.6565 26.7131 64.9086 26.9013C65.1643 27.0859 65.4786 27.1783 65.8515 27.1783ZM71.6096 29V20.8182H73.8096V22.2457H73.8948C74.0439 21.7379 74.2943 21.3544 74.6459 21.0952C74.9974 20.8324 75.4023 20.701 75.8604 20.701C75.974 20.701 76.0965 20.7081 76.2279 20.7223C76.3593 20.7365 76.4747 20.756 76.5741 20.7809V22.7944C76.4676 22.7624 76.3202 22.734 76.132 22.7092C75.9438 22.6843 75.7716 22.6719 75.6153 22.6719C75.2815 22.6719 74.9832 22.7447 74.7204 22.8903C74.4612 23.0323 74.2552 23.2312 74.1025 23.4869C73.9534 23.7425 73.8788 24.0373 73.8788 24.3711V29H71.6096ZM81.0952 29.1598C80.2536 29.1598 79.5291 28.9893 78.9219 28.6484C78.3182 28.304 77.853 27.8175 77.5263 27.1889C77.1996 26.5568 77.0362 25.8093 77.0362 24.9464C77.0362 24.1048 77.1996 23.3661 77.5263 22.7305C77.853 22.0948 78.3129 21.5994 78.9059 21.2443C79.5025 20.8892 80.2021 20.7116 81.0046 20.7116C81.5444 20.7116 82.0469 20.7987 82.5121 20.9727C82.9808 21.1431 83.3892 21.4006 83.7372 21.745C84.0888 22.0895 84.3622 22.5227 84.5575 23.0447C84.7528 23.5632 84.8505 24.1705 84.8505 24.8665V25.4897H77.9418V24.0835H82.7145C82.7145 23.7567 82.6435 23.4673 82.5014 23.2152C82.3594 22.9631 82.1623 22.766 81.9102 22.6239C81.6616 22.4783 81.3722 22.4055 81.0419 22.4055C80.6974 22.4055 80.392 22.4854 80.1257 22.6452C79.8629 22.8015 79.657 23.0128 79.5078 23.2791C79.3587 23.5419 79.2823 23.8349 79.2788 24.158V25.495C79.2788 25.8999 79.3533 26.2496 79.5025 26.5444C79.6552 26.8391 79.87 27.0664 80.147 27.2262C80.424 27.386 80.7525 27.4659 81.1325 27.4659C81.3846 27.4659 81.6154 27.4304 81.8249 27.3594C82.0344 27.2884 82.2138 27.1818 82.3629 27.0398C82.5121 26.8977 82.6257 26.7237 82.7038 26.5178L84.8026 26.6562C84.696 27.1605 84.4776 27.6009 84.1474 27.9773C83.8207 28.3501 83.3981 28.6413 82.8796 28.8509C82.3647 29.0568 81.7699 29.1598 81.0952 29.1598ZM93.1388 23.1513L91.0614 23.2791C91.0259 23.1016 90.9496 22.9418 90.8324 22.7997C90.7152 22.6541 90.5607 22.5387 90.369 22.4535C90.1808 22.3647 89.9553 22.3203 89.6925 22.3203C89.3409 22.3203 89.0444 22.3949 88.8029 22.544C88.5614 22.6896 88.4407 22.8849 88.4407 23.13C88.4407 23.3253 88.5188 23.4904 88.6751 23.6254C88.8313 23.7603 89.0994 23.8686 89.4794 23.9503L90.9602 24.2486C91.7557 24.4119 92.3487 24.6747 92.7393 25.0369C93.13 25.3991 93.3253 25.875 93.3253 26.4645C93.3253 27.0007 93.1673 27.4712 92.8512 27.8761C92.5387 28.2809 92.109 28.5969 91.5621 28.8242C91.0188 29.0479 90.392 29.1598 89.6818 29.1598C88.5987 29.1598 87.7358 28.9343 87.093 28.4833C86.4538 28.0288 86.0792 27.4109 85.9691 26.6296L88.201 26.5124C88.2685 26.8427 88.4318 27.0948 88.6911 27.2688C88.9503 27.4393 89.2823 27.5245 89.6871 27.5245C90.0849 27.5245 90.4045 27.4482 90.646 27.2955C90.891 27.1392 91.0153 26.9386 91.0188 26.6935C91.0153 26.4876 90.9283 26.3189 90.7578 26.1875C90.5874 26.0526 90.3246 25.9496 89.9695 25.8786L88.5526 25.5962C87.7536 25.4364 87.1587 25.1594 86.7681 24.7653C86.381 24.3711 86.1875 23.8686 86.1875 23.2578C86.1875 22.7322 86.3295 22.2795 86.6136 21.8995C86.9013 21.5195 87.3043 21.2266 87.8228 21.0206C88.3448 20.8146 88.9556 20.7116 89.6552 20.7116C90.6886 20.7116 91.5018 20.93 92.0948 21.3668C92.6914 21.8036 93.0394 22.3984 93.1388 23.1513ZM101.562 23.1513L99.4843 23.2791C99.4488 23.1016 99.3724 22.9418 99.2552 22.7997C99.1381 22.6541 98.9836 22.5387 98.7918 22.4535C98.6036 22.3647 98.3781 22.3203 98.1153 22.3203C97.7638 22.3203 97.4672 22.3949 97.2258 22.544C96.9843 22.6896 96.8635 22.8849 96.8635 23.13C96.8635 23.3253 96.9417 23.4904 97.0979 23.6254C97.2542 23.7603 97.5223 23.8686 97.9023 23.9503L99.3831 24.2486C100.179 24.4119 100.772 24.6747 101.162 25.0369C101.553 25.3991 101.748 25.875 101.748 26.4645C101.748 27.0007 101.59 27.4712 101.274 27.8761C100.962 28.2809 100.532 28.5969 99.985 28.8242C99.4417 29.0479 98.8149 29.1598 98.1047 29.1598C97.0216 29.1598 96.1586 28.9343 95.5159 28.4833C94.8767 28.0288 94.502 27.4109 94.392 26.6296L96.6238 26.5124C96.6913 26.8427 96.8547 27.0948 97.1139 27.2688C97.3731 27.4393 97.7052 27.5245 98.11 27.5245C98.5077 27.5245 98.8273 27.4482 99.0688 27.2955C99.3138 27.1392 99.4381 26.9386 99.4417 26.6935C99.4381 26.4876 99.3511 26.3189 99.1807 26.1875C99.0102 26.0526 98.7474 25.9496 98.3923 25.8786L96.9754 25.5962C96.1764 25.4364 95.5816 25.1594 95.191 24.7653C94.8039 24.3711 94.6104 23.8686 94.6104 23.2578C94.6104 22.7322 94.7524 22.2795 95.0365 21.8995C95.3241 21.5195 95.7272 21.2266 96.2456 21.0206C96.7677 20.8146 97.3785 20.7116 98.078 20.7116C99.1114 20.7116 99.9246 20.93 100.518 21.3668C101.114 21.8036 101.462 22.3984 101.562 23.1513Z" fill="#171A22"/>
</svg>
