<svg width="552" height="218" viewBox="0 0 552 218" fill="none" xmlns="http://www.w3.org/2000/svg">
<rect width="552" height="218" rx="16" fill="white"/>
<path d="M16.4777 48.0331C16.4777 46.2131 17.9532 44.7375 19.7732 44.7375H26.3642C28.1842 44.7375 29.6597 46.2131 29.6597 48.0331V54.6241C29.6597 56.4441 28.1842 57.9196 26.3642 57.9196H19.7732C17.9532 57.9196 16.4777 56.4441 16.4777 54.6241V48.0331Z" fill="#2BB3FF"/>
<path d="M64.2633 48.0331C64.2633 46.2131 65.7389 44.7375 67.5588 44.7375H74.1499C75.9698 44.7375 77.4454 46.2131 77.4454 48.0331V54.6241C77.4454 56.4441 75.9698 57.9196 74.1499 57.9196H67.5588C65.7389 57.9196 64.2633 56.4441 64.2633 54.6241V48.0331Z" fill="#59DDAA"/>
<path d="M145.827 48.0331C145.827 46.2131 147.302 44.7375 149.122 44.7375H155.713C157.533 44.7375 159.009 46.2131 159.009 48.0331V54.6241C159.009 56.4441 157.533 57.9196 155.713 57.9196H149.122C147.302 57.9196 145.827 56.4441 145.827 54.6241V48.0331Z" fill="#FF622D"/>
<path fill-rule="evenodd" clip-rule="evenodd" d="M26.3287 49.0983C26.6508 49.4196 26.6508 49.9419 26.3287 50.2633L22.8272 53.7648C22.5059 54.0869 21.9835 54.0869 21.6622 53.7648L19.8085 51.911C19.4864 51.5897 19.4864 51.0674 19.8085 50.7461C20.1298 50.4239 20.6522 50.4239 20.9735 50.7461L22.2447 52.0173L25.1637 49.0983C25.485 48.7762 26.0074 48.7762 26.3287 49.0983ZM74.1138 49.0983C74.4359 49.4196 74.4359 49.9419 74.1138 50.2633L70.6123 53.7648C70.291 54.0869 69.7686 54.0869 69.4473 53.7648L67.5936 51.911C67.2714 51.5897 67.2714 51.0674 67.5936 50.7461C67.9149 50.4239 68.4372 50.4239 68.7585 50.7461L70.0298 52.0173L72.9488 49.0983C73.2701 48.7762 73.7925 48.7762 74.1138 49.0983ZM155.678 49.0983C156 49.4196 156 49.9419 155.678 50.2633L152.176 53.7648C151.855 54.0869 151.333 54.0869 151.011 53.7648L149.158 51.911C148.836 51.5897 148.836 51.0674 149.158 50.7461C149.479 50.4239 150.001 50.4239 150.323 50.7461L151.594 52.0173L154.513 49.0983C154.834 48.7762 155.357 48.7762 155.678 49.0983Z" fill="white"/>
<path d="M17.311 26.6121H19.3386V23.5036H21.0424C23.2471 23.5036 24.5299 22.1887 24.5299 20.274C24.5299 18.3683 23.2702 17.0254 21.0935 17.0254H17.311V26.6121ZM19.3386 21.8797V18.6822H20.7054C21.8753 18.6822 22.4422 19.3191 22.4422 20.274C22.4422 21.2239 21.8753 21.8797 20.7145 21.8797H19.3386ZM28.9418 26.7521C31.1234 26.7521 32.4803 25.2593 32.4803 23.0447C32.4803 20.8169 31.1234 19.3282 28.9418 19.3282C26.7601 19.3282 25.4024 20.8169 25.4024 23.0447C25.4024 25.2593 26.7601 26.7521 28.9418 26.7521ZM28.9508 25.2074C27.9449 25.2074 27.4299 24.2855 27.4299 23.0307C27.4299 21.7767 27.9449 20.8499 28.9508 20.8499C29.9387 20.8499 30.4536 21.7767 30.4536 23.0307C30.4536 24.2855 29.9387 25.2074 28.9508 25.2074ZM39.7601 21.4719C39.5822 20.1471 38.5144 19.3282 36.6986 19.3282C34.8589 19.3282 33.6461 20.1801 33.6511 21.5658C33.6461 22.6426 34.325 23.3396 35.7289 23.6206L36.9746 23.8686C37.6016 23.9954 37.8874 24.2245 37.8965 24.5853C37.8874 25.0113 37.4236 25.3153 36.7266 25.3153C36.0148 25.3153 35.5419 25.0113 35.4199 24.4263L33.4591 24.5293C33.6461 25.9052 34.8168 26.7521 36.7217 26.7521C38.5845 26.7521 39.9191 25.8022 39.9233 24.3835C39.9191 23.3446 39.2403 22.7217 37.8454 22.4367L36.5437 22.1747C35.8747 22.0288 35.6259 21.7998 35.6308 21.4538C35.6259 21.0229 36.1128 20.7419 36.7307 20.7419C37.4236 20.7419 37.8355 21.1209 37.9344 21.5848L39.7601 21.4719ZM41.1797 26.6121H43.1735V19.4221H41.1797V26.6121ZM42.1807 18.4952C42.7755 18.4952 43.2624 18.0413 43.2624 17.4835C43.2624 16.9315 42.7755 16.4775 42.1807 16.4775C41.5916 16.4775 41.1047 16.9315 41.1047 17.4835C41.1047 18.0413 41.5916 18.4952 42.1807 18.4952ZM48.5954 19.4221H47.2426V17.6994H45.248V19.4221H44.2651V20.9199H45.248V24.6644C45.2389 26.0741 46.1988 26.7711 47.6455 26.7101C48.1604 26.692 48.5254 26.589 48.7264 26.5231L48.4125 25.0393C48.3145 25.0583 48.1036 25.1044 47.9165 25.1044C47.5186 25.1044 47.2426 24.9553 47.2426 24.4024V20.9199H48.5954V19.4221ZM49.8947 26.6121H51.8885V19.4221H49.8947V26.6121ZM50.8965 18.4952C51.4905 18.4952 51.9775 18.0413 51.9775 17.4835C51.9775 16.9315 51.4905 16.4775 50.8965 16.4775C50.3066 16.4775 49.8197 16.9315 49.8197 17.4835C49.8197 18.0413 50.3066 18.4952 50.8965 18.4952ZM56.7345 26.7521C58.9162 26.7521 60.2739 25.2593 60.2739 23.0447C60.2739 20.8169 58.9162 19.3282 56.7345 19.3282C54.5529 19.3282 53.196 20.8169 53.196 23.0447C53.196 25.2593 54.5529 26.7521 56.7345 26.7521ZM56.7444 25.2074C55.7376 25.2074 55.2227 24.2855 55.2227 23.0307C55.2227 21.7767 55.7376 20.8499 56.7444 20.8499C57.7314 20.8499 58.2464 21.7767 58.2464 23.0307C58.2464 24.2855 57.7314 25.2074 56.7444 25.2074ZM63.5645 22.4556C63.5695 21.5287 64.1214 20.985 64.9264 20.985C65.7272 20.985 66.2092 21.5098 66.205 22.3897V26.6121H68.1988V22.0338C68.1988 20.358 67.216 19.3282 65.7181 19.3282C64.6504 19.3282 63.8784 19.8521 63.5555 20.69H63.4706V19.4221H61.5707V26.6121H63.5645V22.4556ZM75.753 21.4719C75.575 20.1471 74.5081 19.3282 72.6915 19.3282C70.8517 19.3282 69.6398 20.1801 69.6439 21.5658C69.6398 22.6426 70.3179 23.3396 71.7226 23.6206L72.9675 23.8686C73.5953 23.9954 73.8803 24.2245 73.8902 24.5853C73.8803 25.0113 73.4173 25.3153 72.7195 25.3153C72.0085 25.3153 71.5356 25.0113 71.4136 24.4263L69.452 24.5293C69.6398 25.9052 70.8097 26.7521 72.7154 26.7521C74.5781 26.7521 75.912 25.8022 75.917 24.3835C75.912 23.3446 75.2331 22.7217 73.8383 22.4367L72.5374 22.1747C71.8676 22.0288 71.6196 21.7998 71.6245 21.4538C71.6196 21.0229 72.1065 20.7419 72.7244 20.7419C73.4173 20.7419 73.8292 21.1209 73.9273 21.5848L75.753 21.4719Z" fill="#6C6E79"/>
<path d="M84.2287 17.1297H85.3736V23.8882C85.3736 24.4914 85.2628 25.0039 85.0412 25.4255C84.8196 25.8471 84.5072 26.1672 84.104 26.3857C83.7009 26.6042 83.2254 26.7135 82.6776 26.7135C82.1605 26.7135 81.7004 26.6196 81.2972 26.4319C80.8941 26.2411 80.5771 25.9702 80.3462 25.6194C80.1154 25.2685 80 24.8515 80 24.3683H81.1264C81.1264 24.6361 81.1926 24.87 81.3249 25.07C81.4603 25.267 81.645 25.4209 81.8789 25.5317C82.1128 25.6425 82.379 25.6979 82.6776 25.6979C83.0069 25.6979 83.2869 25.6286 83.5178 25.4901C83.7486 25.3516 83.924 25.1485 84.044 24.8808C84.1671 24.6099 84.2287 24.2791 84.2287 23.8882V17.1297Z" fill="#6A707A"/>
<path d="M89.6069 26.7504C89.1576 26.7504 88.7498 26.6658 88.3835 26.4965C88.0173 26.3242 87.7264 26.0764 87.511 25.7533C87.2956 25.427 87.1879 25.0331 87.1879 24.5715C87.1879 24.1652 87.2679 23.8359 87.4279 23.5835C87.588 23.3281 87.8018 23.128 88.0696 22.9834C88.3374 22.8387 88.6328 22.731 88.956 22.6602C89.2822 22.5864 89.61 22.5279 89.9393 22.4848C90.3701 22.4294 90.7195 22.3879 90.9872 22.3602C91.258 22.3294 91.455 22.2786 91.5781 22.2078C91.7043 22.137 91.7674 22.0139 91.7674 21.8385V21.8016C91.7674 21.3461 91.6428 20.9921 91.3935 20.7398C91.1473 20.4874 90.7733 20.3612 90.2717 20.3612C89.7515 20.3612 89.3438 20.4751 89.0483 20.7028C88.7528 20.9306 88.5451 21.1737 88.4251 21.4323L87.391 21.0629C87.5756 20.6321 87.8219 20.2966 88.1296 20.0565C88.4405 19.8134 88.779 19.6441 89.1452 19.5487C89.5146 19.4502 89.8777 19.401 90.2347 19.401C90.4625 19.401 90.7241 19.4287 91.0195 19.4841C91.3181 19.5364 91.6058 19.6457 91.8828 19.8119C92.1629 19.9781 92.3952 20.2289 92.5799 20.5644C92.7646 20.8998 92.8569 21.3492 92.8569 21.9124V26.5842H91.7674V25.624H91.712C91.6381 25.7779 91.515 25.9425 91.3427 26.118C91.1703 26.2934 90.9411 26.4427 90.6548 26.5658C90.3686 26.6889 90.0193 26.7504 89.6069 26.7504ZM89.7731 25.7717C90.204 25.7717 90.5671 25.6871 90.8626 25.5178C91.1611 25.3486 91.3858 25.13 91.5366 24.8623C91.6905 24.5945 91.7674 24.3129 91.7674 24.0175V23.0203C91.7212 23.0757 91.6197 23.1265 91.4627 23.1727C91.3088 23.2157 91.1303 23.2542 90.9272 23.2881C90.7272 23.3189 90.5317 23.3466 90.3409 23.3712C90.1532 23.3927 90.0008 23.4112 89.8839 23.4266C89.6007 23.4635 89.3361 23.5235 89.0898 23.6066C88.8467 23.6866 88.6497 23.8082 88.4989 23.9713C88.3512 24.1314 88.2773 24.3499 88.2773 24.6269C88.2773 25.0054 88.4174 25.2916 88.6974 25.4855C88.9806 25.6763 89.3391 25.7717 89.7731 25.7717Z" fill="#6A707A"/>
<path d="M95.9349 22.3186V26.5842H94.8454V19.4933H95.898V20.6013H95.9903C96.1565 20.2412 96.4089 19.9519 96.7474 19.7334C97.086 19.5118 97.523 19.401 98.0585 19.401C98.5386 19.401 98.9587 19.4995 99.3188 19.6965C99.6789 19.8903 99.959 20.1858 100.159 20.5828C100.359 20.9768 100.459 21.4753 100.459 22.0786V26.5842H99.3696V22.1524C99.3696 21.5954 99.2249 21.1614 98.9356 20.8506C98.6463 20.5367 98.2493 20.3797 97.7446 20.3797C97.3968 20.3797 97.086 20.4551 96.8121 20.6059C96.5412 20.7567 96.3273 20.9768 96.1704 21.2661C96.0134 21.5554 95.9349 21.9062 95.9349 22.3186Z" fill="#6A707A"/>
<path d="M106.088 26.5842V25.7533L109.208 22.3371C109.575 21.937 109.876 21.5892 110.113 21.2938C110.35 20.9952 110.526 20.7152 110.64 20.4536C110.757 20.1889 110.815 19.9119 110.815 19.6226C110.815 19.2902 110.735 19.0024 110.575 18.7593C110.418 18.5162 110.203 18.3284 109.929 18.1961C109.655 18.0638 109.347 17.9976 109.005 17.9976C108.642 17.9976 108.325 18.073 108.054 18.2238C107.787 18.3715 107.579 18.5793 107.431 18.847C107.286 19.1148 107.214 19.4287 107.214 19.7888H106.125C106.125 19.2348 106.252 18.7485 106.508 18.33C106.763 17.9114 107.111 17.5852 107.551 17.3513C107.994 17.1174 108.491 17.0004 109.042 17.0004C109.596 17.0004 110.087 17.1174 110.515 17.3513C110.943 17.5852 111.278 17.9006 111.521 18.2977C111.764 18.6947 111.886 19.1363 111.886 19.6226C111.886 19.9704 111.823 20.3104 111.697 20.6428C111.574 20.9721 111.358 21.3399 111.05 21.7462C110.746 22.1493 110.323 22.6418 109.781 23.2234L107.657 25.4948V25.5686H112.052V26.5842H106.088Z" fill="#6A707A"/>
<path d="M113.959 26.5842V25.7533L117.08 22.3371C117.446 21.937 117.747 21.5892 117.984 21.2938C118.221 20.9952 118.397 20.7152 118.511 20.4536C118.628 20.1889 118.686 19.9119 118.686 19.6226C118.686 19.2902 118.606 19.0024 118.446 18.7593C118.289 18.5162 118.074 18.3284 117.8 18.1961C117.526 18.0638 117.218 17.9976 116.876 17.9976C116.513 17.9976 116.196 18.073 115.925 18.2238C115.658 18.3715 115.45 18.5793 115.302 18.847C115.158 19.1148 115.085 19.4287 115.085 19.7888H113.996C113.996 19.2348 114.123 18.7485 114.379 18.33C114.634 17.9114 114.982 17.5852 115.422 17.3513C115.865 17.1174 116.362 17.0004 116.913 17.0004C117.467 17.0004 117.958 17.1174 118.386 17.3513C118.814 17.5852 119.149 17.9006 119.392 18.2977C119.636 18.6947 119.757 19.1363 119.757 19.6226C119.757 19.9704 119.694 20.3104 119.568 20.6428C119.445 20.9721 119.229 21.3399 118.922 21.7462C118.617 22.1493 118.194 22.6418 117.652 23.2234L115.528 25.4948V25.5686H119.923V26.5842H113.959Z" fill="#6A707A"/>
<path d="M125.911 21.3492V22.3648H121.775V21.3492H125.911Z" fill="#6A707A"/>
<path d="M127.365 26.5842V25.7533L130.486 22.3371C130.852 21.937 131.154 21.5892 131.391 21.2938C131.628 20.9952 131.803 20.7152 131.917 20.4536C132.034 20.1889 132.092 19.9119 132.092 19.6226C132.092 19.2902 132.012 19.0024 131.852 18.7593C131.695 18.5162 131.48 18.3284 131.206 18.1961C130.932 18.0638 130.624 17.9976 130.283 17.9976C129.92 17.9976 129.603 18.073 129.332 18.2238C129.064 18.3715 128.856 18.5793 128.708 18.847C128.564 19.1148 128.491 19.4287 128.491 19.7888H127.402C127.402 19.2348 127.53 18.7485 127.785 18.33C128.041 17.9114 128.388 17.5852 128.828 17.3513C129.272 17.1174 129.769 17.0004 130.32 17.0004C130.874 17.0004 131.364 17.1174 131.792 17.3513C132.22 17.5852 132.556 17.9006 132.799 18.2977C133.042 18.6947 133.163 19.1363 133.163 19.6226C133.163 19.9704 133.1 20.3104 132.974 20.6428C132.851 20.9721 132.636 21.3399 132.328 21.7462C132.023 22.1493 131.6 22.6418 131.058 23.2234L128.935 25.4948V25.5686H133.33V26.5842H127.365Z" fill="#6A707A"/>
<path d="M138.246 17.0004C138.634 17.0035 139.022 17.0774 139.409 17.222C139.797 17.3667 140.151 17.6067 140.471 17.9422C140.791 18.2746 141.048 18.7285 141.242 19.3041C141.436 19.8796 141.533 20.6013 141.533 21.4692C141.533 22.3094 141.453 23.0557 141.293 23.7082C141.136 24.3576 140.908 24.9054 140.61 25.3516C140.314 25.7979 139.954 26.1364 139.529 26.3673C139.108 26.5981 138.631 26.7135 138.098 26.7135C137.569 26.7135 137.097 26.6089 136.681 26.3996C136.269 26.1872 135.93 25.8933 135.665 25.5178C135.404 25.1393 135.236 24.7007 135.162 24.2021H136.289C136.39 24.6361 136.592 24.9946 136.893 25.2778C137.198 25.5578 137.6 25.6979 138.098 25.6979C138.828 25.6979 139.403 25.3793 139.825 24.7423C140.25 24.1052 140.462 23.205 140.462 22.0416H140.388C140.216 22.3001 140.011 22.5233 139.774 22.711C139.537 22.8988 139.274 23.0434 138.985 23.145C138.695 23.2465 138.388 23.2973 138.061 23.2973C137.52 23.2973 137.023 23.1634 136.57 22.8957C136.121 22.6248 135.761 22.254 135.49 21.7831C135.222 21.3091 135.088 20.7675 135.088 20.1581C135.088 19.5795 135.218 19.0501 135.476 18.57C135.738 18.0868 136.104 17.7021 136.575 17.4159C137.049 17.1297 137.606 16.9912 138.246 17.0004ZM138.246 18.0161C137.858 18.0161 137.509 18.113 137.198 18.3069C136.89 18.4977 136.646 18.7562 136.464 19.0825C136.286 19.4056 136.196 19.7642 136.196 20.1581C136.196 20.552 136.283 20.9106 136.455 21.2337C136.63 21.5538 136.869 21.8093 137.17 22.0001C137.475 22.1878 137.821 22.2817 138.209 22.2817C138.502 22.2817 138.774 22.2247 139.026 22.1109C139.279 21.9939 139.499 21.8354 139.686 21.6354C139.877 21.4323 140.027 21.203 140.134 20.9475C140.242 20.689 140.296 20.4197 140.296 20.1396C140.296 19.7703 140.207 19.4241 140.028 19.1009C139.853 18.7778 139.609 18.5162 139.299 18.3161C138.991 18.1161 138.64 18.0161 138.246 18.0161Z" fill="#6A707A"/>
<path d="M144.662 25.2916L144.588 25.7902C144.536 26.1411 144.456 26.5165 144.348 26.9166C144.243 27.3167 144.134 27.6937 144.02 28.0477C143.906 28.4016 143.812 28.6832 143.739 28.8925H142.908C142.948 28.6955 143 28.4354 143.065 28.1123C143.129 27.7891 143.194 27.4275 143.258 27.0274C143.326 26.6304 143.382 26.2242 143.425 25.8087L143.48 25.2916H144.662Z" fill="#6A707A"/>
<path d="M150.318 26.5842V25.7533L153.439 22.3371C153.805 21.937 154.107 21.5892 154.344 21.2938C154.581 20.9952 154.756 20.7152 154.87 20.4536C154.987 20.1889 155.045 19.9119 155.045 19.6226C155.045 19.2902 154.965 19.0024 154.805 18.7593C154.648 18.5162 154.433 18.3284 154.159 18.1961C153.885 18.0638 153.577 17.9976 153.236 17.9976C152.873 17.9976 152.556 18.073 152.285 18.2238C152.017 18.3715 151.809 18.5793 151.662 18.847C151.517 19.1148 151.445 19.4287 151.445 19.7888H150.355C150.355 19.2348 150.483 18.7485 150.738 18.33C150.994 17.9114 151.341 17.5852 151.782 17.3513C152.225 17.1174 152.722 17.0004 153.273 17.0004C153.827 17.0004 154.318 17.1174 154.745 17.3513C155.173 17.5852 155.509 17.9006 155.752 18.2977C155.995 18.6947 156.116 19.1363 156.116 19.6226C156.116 19.9704 156.053 20.3104 155.927 20.6428C155.804 20.9721 155.589 21.3399 155.281 21.7462C154.976 22.1493 154.553 22.6418 154.011 23.2234L151.888 25.4948V25.5686H156.283V26.5842H150.318Z" fill="#6A707A"/>
<path d="M161.273 26.7135C160.578 26.7135 159.985 26.5242 159.496 26.1457C159.006 25.764 158.632 25.2116 158.374 24.4884C158.115 23.762 157.986 22.8849 157.986 21.857C157.986 20.8352 158.115 19.9627 158.374 19.2394C158.636 18.5131 159.011 17.9591 159.5 17.5775C159.993 17.1928 160.584 17.0004 161.273 17.0004C161.962 17.0004 162.552 17.1928 163.041 17.5775C163.534 17.9591 163.909 18.5131 164.168 19.2394C164.429 19.9627 164.56 20.8352 164.56 21.857C164.56 22.8849 164.431 23.762 164.172 24.4884C163.914 25.2116 163.54 25.764 163.05 26.1457C162.561 26.5242 161.969 26.7135 161.273 26.7135ZM161.273 25.6979C161.962 25.6979 162.498 25.3655 162.88 24.7007C163.261 24.0359 163.452 23.088 163.452 21.857C163.452 21.0383 163.364 20.3412 163.189 19.7657C163.017 19.1902 162.767 18.7516 162.441 18.45C162.118 18.1484 161.729 17.9976 161.273 17.9976C160.59 17.9976 160.056 18.3346 159.671 19.0086C159.286 19.6795 159.094 20.629 159.094 21.857C159.094 22.6756 159.18 23.3712 159.353 23.9436C159.525 24.5161 159.773 24.9515 160.096 25.2501C160.422 25.5486 160.815 25.6979 161.273 25.6979Z" fill="#6A707A"/>
<path d="M166.314 26.5842V25.7533L169.435 22.3371C169.801 21.937 170.103 21.5892 170.34 21.2938C170.577 20.9952 170.752 20.7152 170.866 20.4536C170.983 20.1889 171.042 19.9119 171.042 19.6226C171.042 19.2902 170.962 19.0024 170.801 18.7593C170.645 18.5162 170.429 18.3284 170.155 18.1961C169.881 18.0638 169.574 17.9976 169.232 17.9976C168.869 17.9976 168.552 18.073 168.281 18.2238C168.013 18.3715 167.805 18.5793 167.658 18.847C167.513 19.1148 167.441 19.4287 167.441 19.7888H166.351C166.351 19.2348 166.479 18.7485 166.734 18.33C166.99 17.9114 167.338 17.5852 167.778 17.3513C168.221 17.1174 168.718 17.0004 169.269 17.0004C169.823 17.0004 170.314 17.1174 170.741 17.3513C171.169 17.5852 171.505 17.9006 171.748 18.2977C171.991 18.6947 172.113 19.1363 172.113 19.6226C172.113 19.9704 172.049 20.3104 171.923 20.6428C171.8 20.9721 171.585 21.3399 171.277 21.7462C170.972 22.1493 170.549 22.6418 170.007 23.2234L167.884 25.4948V25.5686H172.279V26.5842H166.314Z" fill="#6A707A"/>
<path d="M177.38 26.7135C176.771 26.7135 176.227 26.6089 175.75 26.3996C175.276 26.1903 174.899 25.8995 174.619 25.5271C174.342 25.1516 174.192 24.7161 174.167 24.2206H175.33C175.355 24.5253 175.46 24.7884 175.644 25.01C175.829 25.2285 176.07 25.3978 176.369 25.5178C176.667 25.6379 176.998 25.6979 177.362 25.6979C177.768 25.6979 178.128 25.6271 178.442 25.4855C178.756 25.3439 179.002 25.147 179.18 24.8946C179.359 24.6422 179.448 24.3499 179.448 24.0175C179.448 23.6697 179.362 23.3635 179.19 23.0988C179.017 22.831 178.765 22.6218 178.433 22.471C178.1 22.3202 177.694 22.2448 177.214 22.2448H176.457V21.2291H177.214C177.589 21.2291 177.919 21.1614 178.202 21.026C178.488 20.8906 178.711 20.6998 178.871 20.4536C179.034 20.2073 179.116 19.918 179.116 19.5857C179.116 19.2656 179.045 18.9871 178.903 18.7501C178.762 18.5131 178.562 18.3284 178.303 18.1961C178.048 18.0638 177.746 17.9976 177.398 17.9976C177.072 17.9976 176.764 18.0576 176.475 18.1776C176.189 18.2946 175.955 18.4654 175.773 18.6901C175.592 18.9117 175.493 19.1794 175.478 19.4933H174.37C174.388 18.9978 174.538 18.5639 174.818 18.1915C175.098 17.816 175.464 17.5236 175.917 17.3144C176.372 17.1051 176.872 17.0004 177.417 17.0004C178.002 17.0004 178.503 17.1189 178.922 17.3559C179.34 17.5898 179.662 17.8991 179.887 18.2838C180.111 18.6685 180.224 19.084 180.224 19.5303C180.224 20.0627 180.084 20.5166 179.804 20.8921C179.527 21.2676 179.15 21.5277 178.673 21.6723V21.7462C179.27 21.8447 179.736 22.0986 180.071 22.5079C180.407 22.9141 180.575 23.4173 180.575 24.0175C180.575 24.5314 180.435 24.9931 180.154 25.4024C179.877 25.8087 179.499 26.1287 179.019 26.3626C178.539 26.5966 177.992 26.7135 177.38 26.7135Z" fill="#6A707A"/>
<path d="M41.5178 75.4458H40.6478L38.8501 76.6396V77.5236L40.605 76.3587H40.6478V82.6358H41.5178V75.4458Z" fill="#A6ABB5"/>
<path d="M56.0239 78.9285H535.522V79.7523H56.0239V78.9285Z" fill="#E0E1E9"/>
<path d="M31.5856 113.943H36.1219V113.171H32.7794V113.115L34.3942 111.388C35.63 110.064 35.995 109.446 35.995 108.649C35.995 107.539 35.0961 106.655 33.8323 106.655C32.5717 106.655 31.6136 107.511 31.6136 108.775H32.4424C32.4424 107.957 32.9722 107.413 33.8043 107.413C34.5837 107.413 35.181 107.89 35.181 108.649C35.181 109.312 34.7913 109.804 33.9592 110.714L31.5856 113.311V113.943ZM39.8186 114.041C41.1879 114.041 42.1922 113.031 42.1922 111.655C42.1922 110.261 41.2225 109.239 39.9026 109.239C39.4182 109.239 38.9478 109.411 38.6528 109.646H38.6108L38.8637 107.525H41.8692V106.753H38.1329L37.6979 110.292L38.5128 110.391C38.811 110.177 39.3202 110.022 39.7626 110.025C40.6787 110.032 41.3494 110.728 41.3494 111.669C41.3494 112.591 40.7035 113.269 39.8186 113.269C39.0812 113.269 38.4946 112.796 38.4279 112.146H37.5859C37.6386 113.241 38.5828 114.041 39.8186 114.041Z" fill="#A6ABB5"/>
<path d="M56.0239 110.236H535.522V111.06H56.0239V110.236Z" fill="#E0E1E9"/>
<path d="M33.6391 145.349C35.0084 145.349 36.0127 144.338 36.0127 142.962C36.0127 141.568 35.043 140.546 33.7231 140.546C33.2387 140.546 32.7682 140.719 32.4733 140.953H32.4313L32.6842 138.833H35.6889V138.061H31.9534L31.5184 141.599L32.3332 141.698C32.6315 141.484 33.1406 141.329 33.5831 141.332C34.4992 141.34 35.1699 142.035 35.1699 142.976C35.1699 143.899 34.5239 144.577 33.6391 144.577C32.9017 144.577 32.3151 144.103 32.2484 143.453H31.4064C31.4591 144.549 32.4033 145.349 33.6391 145.349ZM39.7523 145.349C41.3391 145.349 42.2519 144.004 42.2519 141.655C42.2519 139.325 41.3251 137.962 39.7523 137.962C38.1795 137.962 37.2526 139.325 37.2526 141.655C37.2526 144.004 38.1655 145.349 39.7523 145.349ZM39.7523 144.577C38.706 144.577 38.0955 143.527 38.0955 141.655C38.0955 139.788 38.7134 138.721 39.7523 138.721C40.7912 138.721 41.4091 139.788 41.4091 141.655C41.4091 143.527 40.7986 144.577 39.7523 144.577Z" fill="#A6ABB5"/>
<path d="M56.0239 141.543H535.522V142.367H56.0239V141.543Z" fill="#E0E1E9"/>
<path d="M32.2443 176.558H33.1572L36.3588 170.182V169.368H31.7533V170.14H35.4608V170.196L32.2443 176.558ZM39.8183 176.656C41.1876 176.656 42.1919 175.645 42.1919 174.269C42.1919 172.875 41.2222 171.854 39.9023 171.854C39.4179 171.854 38.9474 172.026 38.6525 172.261H38.6105L38.8634 170.14H41.8689V169.368H38.1326L37.6976 172.907L38.5124 173.005C38.8107 172.791 39.3198 172.636 39.7622 172.64C40.6784 172.647 41.349 173.343 41.349 174.283C41.349 175.206 40.7031 175.884 39.8183 175.884C39.0809 175.884 38.4943 175.41 38.4276 174.76H37.5855C37.6383 175.856 38.5824 176.656 39.8183 176.656Z" fill="#A6ABB5"/>
<path d="M56.0239 177.382H535.522V178.206H56.0239V177.382Z" fill="#C4C7CF"/>
<path d="M67.8291 191.479H68.7398V196.855C68.7398 197.335 68.6517 197.743 68.4754 198.078C68.2991 198.414 68.0506 198.668 67.7299 198.842C67.4092 199.016 67.031 199.103 66.5952 199.103C66.1839 199.103 65.8179 199.028 65.4972 198.879C65.1765 198.727 64.9244 198.512 64.7408 198.233C64.5572 197.953 64.4653 197.622 64.4653 197.237H65.3614C65.3614 197.45 65.414 197.636 65.5193 197.796C65.627 197.952 65.7739 198.075 65.9599 198.163C66.146 198.251 66.3578 198.295 66.5952 198.295C66.8572 198.295 67.08 198.24 67.2636 198.13C67.4472 198.02 67.5867 197.858 67.6822 197.645C67.7801 197.43 67.8291 197.166 67.8291 196.855V191.479ZM72.1072 199.132C71.7498 199.132 71.4254 199.065 71.1341 198.93C70.8427 198.793 70.6114 198.596 70.44 198.339C70.2686 198.08 70.183 197.766 70.183 197.399C70.183 197.076 70.2466 196.814 70.3739 196.613C70.5012 196.41 70.6714 196.251 70.8844 196.136C71.0973 196.021 71.3324 195.935 71.5894 195.879C71.8489 195.82 72.1096 195.773 72.3716 195.739C72.7143 195.695 72.9922 195.662 73.2052 195.64C73.4206 195.615 73.5773 195.575 73.6752 195.519C73.7756 195.462 73.8258 195.365 73.8258 195.225V195.196C73.8258 194.833 73.7266 194.552 73.5283 194.351C73.3325 194.15 73.035 194.05 72.636 194.05C72.2223 194.05 71.8979 194.14 71.6629 194.322C71.4278 194.503 71.2626 194.696 71.1671 194.902L70.3445 194.608C70.4914 194.265 70.6873 193.998 70.9321 193.808C71.1794 193.614 71.4486 193.479 71.74 193.404C72.0337 193.325 72.3226 193.286 72.6066 193.286C72.7878 193.286 72.9959 193.308 73.2309 193.352C73.4684 193.394 73.6973 193.481 73.9176 193.613C74.1404 193.745 74.3252 193.945 74.4721 194.211C74.619 194.478 74.6924 194.836 74.6924 195.284V199H73.8258V198.236H73.7817C73.723 198.359 73.625 198.49 73.4879 198.629C73.3508 198.769 73.1685 198.887 72.9408 198.985C72.7131 199.083 72.4352 199.132 72.1072 199.132ZM72.2394 198.354C72.5821 198.354 72.871 198.286 73.106 198.152C73.3435 198.017 73.5222 197.843 73.6422 197.63C73.7646 197.417 73.8258 197.193 73.8258 196.958V196.165C73.7891 196.209 73.7083 196.25 73.5834 196.286C73.461 196.321 73.319 196.351 73.1574 196.378C72.9983 196.403 72.8429 196.425 72.6911 196.444C72.5417 196.461 72.4206 196.476 72.3275 196.488C72.1023 196.518 71.8918 196.565 71.6959 196.631C71.5025 196.695 71.3458 196.792 71.2259 196.922C71.1084 197.049 71.0496 197.223 71.0496 197.443C71.0496 197.744 71.161 197.972 71.3838 198.126C71.609 198.278 71.8942 198.354 72.2394 198.354ZM77.1409 195.607V199H76.2742V193.36H77.1115V194.241H77.1849C77.3171 193.954 77.5179 193.724 77.7872 193.55C78.0565 193.374 78.4041 193.286 78.8301 193.286C79.212 193.286 79.5461 193.364 79.8326 193.521C80.119 193.675 80.3418 193.91 80.5009 194.226C80.66 194.54 80.7396 194.936 80.7396 195.416V199H79.873V195.475C79.873 195.032 79.7579 194.686 79.5278 194.439C79.2977 194.189 78.9819 194.065 78.5804 194.065C78.3037 194.065 78.0565 194.125 77.8386 194.245C77.6231 194.364 77.453 194.54 77.3281 194.77C77.2033 195 77.1409 195.279 77.1409 195.607ZM85.2169 199V198.339L87.6993 195.622C87.9907 195.303 88.2306 195.027 88.4191 194.792C88.6076 194.554 88.7471 194.331 88.8377 194.123C88.9308 193.913 88.9773 193.692 88.9773 193.462C88.9773 193.198 88.9136 192.969 88.7863 192.776C88.6615 192.582 88.4901 192.433 88.2722 192.328C88.0543 192.222 87.8095 192.17 87.5378 192.17C87.2489 192.17 86.9967 192.23 86.7813 192.35C86.5683 192.467 86.4031 192.632 86.2855 192.845C86.1705 193.058 86.113 193.308 86.113 193.595H85.2463C85.2463 193.154 85.3479 192.767 85.5511 192.434C85.7543 192.101 86.0309 191.842 86.381 191.656C86.7336 191.47 87.1289 191.377 87.5671 191.377C88.0078 191.377 88.3983 191.47 88.7386 191.656C89.0789 191.842 89.3457 192.093 89.5391 192.408C89.7325 192.724 89.8292 193.076 89.8292 193.462C89.8292 193.739 89.779 194.009 89.6787 194.274C89.5807 194.536 89.4094 194.828 89.1646 195.152C88.9222 195.472 88.5856 195.864 88.1547 196.327L86.4655 198.133V198.192H89.9614V199H85.2169ZM91.478 199V198.339L93.9604 195.622C94.2518 195.303 94.4917 195.027 94.6802 194.792C94.8687 194.554 95.0082 194.331 95.0988 194.123C95.1919 193.913 95.2384 193.692 95.2384 193.462C95.2384 193.198 95.1747 192.969 95.0474 192.776C94.9226 192.582 94.7512 192.433 94.5333 192.328C94.3154 192.222 94.0706 192.17 93.7989 192.17C93.51 192.17 93.2578 192.23 93.0424 192.35C92.8294 192.467 92.6642 192.632 92.5466 192.845C92.4316 193.058 92.3741 193.308 92.3741 193.595H91.5074C91.5074 193.154 91.609 192.767 91.8122 192.434C92.0154 192.101 92.292 191.842 92.6421 191.656C92.9947 191.47 93.39 191.377 93.8282 191.377C94.2689 191.377 94.6594 191.47 94.9997 191.656C95.34 191.842 95.6068 192.093 95.8002 192.408C95.9936 192.724 96.0903 193.076 96.0903 193.462C96.0903 193.739 96.0401 194.009 95.9398 194.274C95.8418 194.536 95.6705 194.828 95.4256 195.152C95.1833 195.472 94.8467 195.864 94.4158 196.327L92.7266 198.133V198.192H96.2225V199H91.478Z" fill="#A6ABB5"/>
<path d="M128.739 191.479H129.65V196.855C129.65 197.335 129.561 197.743 129.385 198.078C129.209 198.414 128.96 198.668 128.64 198.842C128.319 199.016 127.941 199.103 127.505 199.103C127.094 199.103 126.728 199.028 126.407 198.879C126.086 198.727 125.834 198.512 125.651 198.233C125.467 197.953 125.375 197.622 125.375 197.237H126.271C126.271 197.45 126.324 197.636 126.429 197.796C126.537 197.952 126.684 198.075 126.87 198.163C127.056 198.251 127.268 198.295 127.505 198.295C127.767 198.295 127.99 198.24 128.173 198.13C128.357 198.02 128.497 197.858 128.592 197.645C128.69 197.43 128.739 197.166 128.739 196.855V191.479ZM133.017 199.132C132.66 199.132 132.335 199.065 132.044 198.93C131.753 198.793 131.521 198.596 131.35 198.339C131.178 198.08 131.093 197.766 131.093 197.399C131.093 197.076 131.156 196.814 131.284 196.613C131.411 196.41 131.581 196.251 131.794 196.136C132.007 196.021 132.242 195.935 132.499 195.879C132.759 195.82 133.019 195.773 133.281 195.739C133.624 195.695 133.902 195.662 134.115 195.64C134.33 195.615 134.487 195.575 134.585 195.519C134.685 195.462 134.736 195.365 134.736 195.225V195.196C134.736 194.833 134.636 194.552 134.438 194.351C134.242 194.15 133.945 194.05 133.546 194.05C133.132 194.05 132.808 194.14 132.573 194.322C132.338 194.503 132.172 194.696 132.077 194.902L131.254 194.608C131.401 194.265 131.597 193.998 131.842 193.808C132.089 193.614 132.358 193.479 132.65 193.404C132.944 193.325 133.232 193.286 133.516 193.286C133.698 193.286 133.906 193.308 134.141 193.352C134.378 193.394 134.607 193.481 134.827 193.613C135.05 193.745 135.235 193.945 135.382 194.211C135.529 194.478 135.602 194.836 135.602 195.284V199H134.736V198.236H134.692C134.633 198.359 134.535 198.49 134.398 198.629C134.261 198.769 134.078 198.887 133.851 198.985C133.623 199.083 133.345 199.132 133.017 199.132ZM133.149 198.354C133.492 198.354 133.781 198.286 134.016 198.152C134.253 198.017 134.432 197.843 134.552 197.63C134.674 197.417 134.736 197.193 134.736 196.958V196.165C134.699 196.209 134.618 196.25 134.493 196.286C134.371 196.321 134.229 196.351 134.067 196.378C133.908 196.403 133.753 196.425 133.601 196.444C133.452 196.461 133.33 196.476 133.237 196.488C133.012 196.518 132.802 196.565 132.606 196.631C132.412 196.695 132.256 196.792 132.136 196.922C132.018 197.049 131.959 197.223 131.959 197.443C131.959 197.744 132.071 197.972 132.294 198.126C132.519 198.278 132.804 198.354 133.149 198.354ZM138.051 195.607V199H137.184V193.36H138.021V194.241H138.095C138.227 193.954 138.428 193.724 138.697 193.55C138.966 193.374 139.314 193.286 139.74 193.286C140.122 193.286 140.456 193.364 140.742 193.521C141.029 193.675 141.252 193.91 141.411 194.226C141.57 194.54 141.649 194.936 141.649 195.416V199H140.783V195.475C140.783 195.032 140.668 194.686 140.438 194.439C140.207 194.189 139.892 194.065 139.49 194.065C139.214 194.065 138.966 194.125 138.748 194.245C138.533 194.364 138.363 194.54 138.238 194.77C138.113 195 138.051 195.279 138.051 195.607ZM146.127 199V198.339L148.609 195.622C148.901 195.303 149.14 195.027 149.329 194.792C149.517 194.554 149.657 194.331 149.748 194.123C149.841 193.913 149.887 193.692 149.887 193.462C149.887 193.198 149.823 192.969 149.696 192.776C149.571 192.582 149.4 192.433 149.182 192.328C148.964 192.222 148.719 192.17 148.448 192.17C148.159 192.17 147.907 192.23 147.691 192.35C147.478 192.467 147.313 192.632 147.195 192.845C147.08 193.058 147.023 193.308 147.023 193.595H146.156C146.156 193.154 146.258 192.767 146.461 192.434C146.664 192.101 146.941 191.842 147.291 191.656C147.643 191.47 148.039 191.377 148.477 191.377C148.918 191.377 149.308 191.47 149.648 191.656C149.989 191.842 150.256 192.093 150.449 192.408C150.642 192.724 150.739 193.076 150.739 193.462C150.739 193.739 150.689 194.009 150.588 194.274C150.491 194.536 150.319 194.828 150.074 195.152C149.832 195.472 149.495 195.864 149.065 196.327L147.375 198.133V198.192H150.871V199H146.127ZM154.929 199.103C154.444 199.103 154.012 199.02 153.633 198.853C153.256 198.687 152.956 198.455 152.733 198.159C152.513 197.86 152.393 197.514 152.373 197.12H153.299C153.318 197.362 153.401 197.572 153.548 197.748C153.695 197.922 153.887 198.056 154.125 198.152C154.362 198.247 154.625 198.295 154.914 198.295C155.237 198.295 155.524 198.239 155.774 198.126C156.023 198.013 156.219 197.857 156.361 197.656C156.503 197.455 156.574 197.223 156.574 196.958C156.574 196.682 156.506 196.438 156.369 196.227C156.231 196.015 156.031 195.848 155.766 195.728C155.502 195.608 155.179 195.548 154.797 195.548H154.195V194.74H154.797C155.096 194.74 155.357 194.686 155.583 194.579C155.81 194.471 155.988 194.319 156.115 194.123C156.245 193.927 156.31 193.697 156.31 193.433C156.31 193.178 156.253 192.957 156.141 192.768C156.028 192.58 155.869 192.433 155.663 192.328C155.46 192.222 155.22 192.17 154.944 192.17C154.684 192.17 154.439 192.217 154.209 192.313C153.982 192.406 153.796 192.542 153.651 192.721C153.507 192.897 153.428 193.11 153.416 193.36H152.535C152.549 192.965 152.668 192.62 152.891 192.324C153.114 192.025 153.405 191.793 153.765 191.626C154.127 191.46 154.525 191.377 154.958 191.377C155.424 191.377 155.823 191.471 156.156 191.659C156.488 191.845 156.744 192.091 156.923 192.397C157.102 192.703 157.191 193.034 157.191 193.389C157.191 193.812 157.08 194.174 156.857 194.472C156.637 194.771 156.337 194.978 155.957 195.093V195.152C156.432 195.23 156.803 195.432 157.07 195.757C157.337 196.081 157.47 196.481 157.47 196.958C157.47 197.367 157.359 197.734 157.136 198.06C156.916 198.383 156.615 198.638 156.233 198.824C155.851 199.01 155.416 199.103 154.929 199.103Z" fill="#A6ABB5"/>
<path d="M190.366 191.479H191.277V196.855C191.277 197.335 191.188 197.743 191.012 198.078C190.836 198.414 190.587 198.668 190.267 198.842C189.946 199.016 189.568 199.103 189.132 199.103C188.721 199.103 188.355 199.028 188.034 198.879C187.713 198.727 187.461 198.512 187.278 198.233C187.094 197.953 187.002 197.622 187.002 197.237H187.898C187.898 197.45 187.951 197.636 188.056 197.796C188.164 197.952 188.311 198.075 188.497 198.163C188.683 198.251 188.895 198.295 189.132 198.295C189.394 198.295 189.617 198.24 189.8 198.13C189.984 198.02 190.124 197.858 190.219 197.645C190.317 197.43 190.366 197.166 190.366 196.855V191.479ZM194.644 199.132C194.287 199.132 193.962 199.065 193.671 198.93C193.38 198.793 193.148 198.596 192.977 198.339C192.805 198.08 192.72 197.766 192.72 197.399C192.72 197.076 192.783 196.814 192.911 196.613C193.038 196.41 193.208 196.251 193.421 196.136C193.634 196.021 193.869 195.935 194.126 195.879C194.386 195.82 194.646 195.773 194.908 195.739C195.251 195.695 195.529 195.662 195.742 195.64C195.957 195.615 196.114 195.575 196.212 195.519C196.312 195.462 196.363 195.365 196.363 195.225V195.196C196.363 194.833 196.263 194.552 196.065 194.351C195.869 194.15 195.572 194.05 195.173 194.05C194.759 194.05 194.435 194.14 194.2 194.322C193.965 194.503 193.799 194.696 193.704 194.902L192.881 194.608C193.028 194.265 193.224 193.998 193.469 193.808C193.716 193.614 193.985 193.479 194.277 193.404C194.571 193.325 194.859 193.286 195.143 193.286C195.325 193.286 195.533 193.308 195.768 193.352C196.005 193.394 196.234 193.481 196.454 193.613C196.677 193.745 196.862 193.945 197.009 194.211C197.156 194.478 197.229 194.836 197.229 195.284V199H196.363V198.236H196.319C196.26 198.359 196.162 198.49 196.025 198.629C195.888 198.769 195.705 198.887 195.478 198.985C195.25 199.083 194.972 199.132 194.644 199.132ZM194.776 198.354C195.119 198.354 195.408 198.286 195.643 198.152C195.88 198.017 196.059 197.843 196.179 197.63C196.301 197.417 196.363 197.193 196.363 196.958V196.165C196.326 196.209 196.245 196.25 196.12 196.286C195.998 196.321 195.856 196.351 195.694 196.378C195.535 196.403 195.38 196.425 195.228 196.444C195.079 196.461 194.957 196.476 194.864 196.488C194.639 196.518 194.429 196.565 194.233 196.631C194.039 196.695 193.883 196.792 193.763 196.922C193.645 197.049 193.586 197.223 193.586 197.443C193.586 197.744 193.698 197.972 193.921 198.126C194.146 198.278 194.431 198.354 194.776 198.354ZM199.678 195.607V199H198.811V193.36H199.648V194.241H199.722C199.854 193.954 200.055 193.724 200.324 193.55C200.593 193.374 200.941 193.286 201.367 193.286C201.749 193.286 202.083 193.364 202.369 193.521C202.656 193.675 202.879 193.91 203.038 194.226C203.197 194.54 203.276 194.936 203.276 195.416V199H202.41V195.475C202.41 195.032 202.295 194.686 202.065 194.439C201.834 194.189 201.519 194.065 201.117 194.065C200.841 194.065 200.593 194.125 200.375 194.245C200.16 194.364 199.99 194.54 199.865 194.77C199.74 195 199.678 195.279 199.678 195.607ZM207.754 199V198.339L210.236 195.622C210.527 195.303 210.767 195.027 210.956 194.792C211.144 194.554 211.284 194.331 211.375 194.123C211.468 193.913 211.514 193.692 211.514 193.462C211.514 193.198 211.45 192.969 211.323 192.776C211.198 192.582 211.027 192.433 210.809 192.328C210.591 192.222 210.346 192.17 210.075 192.17C209.786 192.17 209.534 192.23 209.318 192.35C209.105 192.467 208.94 192.632 208.822 192.845C208.707 193.058 208.65 193.308 208.65 193.595H207.783C207.783 193.154 207.885 192.767 208.088 192.434C208.291 192.101 208.568 191.842 208.918 191.656C209.27 191.47 209.666 191.377 210.104 191.377C210.545 191.377 210.935 191.47 211.275 191.656C211.616 191.842 211.883 192.093 212.076 192.408C212.269 192.724 212.366 193.076 212.366 193.462C212.366 193.739 212.316 194.009 212.215 194.274C212.118 194.536 211.946 194.828 211.701 195.152C211.459 195.472 211.122 195.864 210.691 196.327L209.002 198.133V198.192H212.498V199H207.754ZM213.677 197.458V196.709L216.982 191.479H217.525V192.64H217.158L214.661 196.591V196.65H219.112V197.458H213.677ZM217.217 199V197.23V196.881V191.479H218.084V199H217.217Z" fill="#A6ABB5"/>
<path d="M251.528 191.479H252.439V196.855C252.439 197.335 252.351 197.743 252.174 198.078C251.998 198.414 251.75 198.668 251.429 198.842C251.108 199.016 250.73 199.103 250.294 199.103C249.883 199.103 249.517 199.028 249.196 198.879C248.876 198.727 248.623 198.512 248.44 198.233C248.256 197.953 248.164 197.622 248.164 197.237H249.06C249.06 197.45 249.113 197.636 249.218 197.796C249.326 197.952 249.473 198.075 249.659 198.163C249.845 198.251 250.057 198.295 250.294 198.295C250.556 198.295 250.779 198.24 250.963 198.13C251.146 198.02 251.286 197.858 251.381 197.645C251.479 197.43 251.528 197.166 251.528 196.855V191.479ZM255.806 199.132C255.449 199.132 255.124 199.065 254.833 198.93C254.542 198.793 254.31 198.596 254.139 198.339C253.968 198.08 253.882 197.766 253.882 197.399C253.882 197.076 253.946 196.814 254.073 196.613C254.2 196.41 254.37 196.251 254.583 196.136C254.796 196.021 255.031 195.935 255.288 195.879C255.548 195.82 255.809 195.773 256.071 195.739C256.413 195.695 256.691 195.662 256.904 195.64C257.12 195.615 257.276 195.575 257.374 195.519C257.475 195.462 257.525 195.365 257.525 195.225V195.196C257.525 194.833 257.426 194.552 257.227 194.351C257.032 194.15 256.734 194.05 256.335 194.05C255.921 194.05 255.597 194.14 255.362 194.322C255.127 194.503 254.962 194.696 254.866 194.902L254.044 194.608C254.191 194.265 254.386 193.998 254.631 193.808C254.878 193.614 255.148 193.479 255.439 193.404C255.733 193.325 256.022 193.286 256.306 193.286C256.487 193.286 256.695 193.308 256.93 193.352C257.167 193.394 257.396 193.481 257.617 193.613C257.839 193.745 258.024 193.945 258.171 194.211C258.318 194.478 258.392 194.836 258.392 195.284V199H257.525V198.236H257.481C257.422 198.359 257.324 198.49 257.187 198.629C257.05 198.769 256.868 198.887 256.64 198.985C256.412 199.083 256.134 199.132 255.806 199.132ZM255.938 198.354C256.281 198.354 256.57 198.286 256.805 198.152C257.043 198.017 257.221 197.843 257.341 197.63C257.464 197.417 257.525 197.193 257.525 196.958V196.165C257.488 196.209 257.407 196.25 257.283 196.286C257.16 196.321 257.018 196.351 256.857 196.378C256.697 196.403 256.542 196.425 256.39 196.444C256.241 196.461 256.12 196.476 256.027 196.488C255.801 196.518 255.591 196.565 255.395 196.631C255.202 196.695 255.045 196.792 254.925 196.922C254.807 197.049 254.749 197.223 254.749 197.443C254.749 197.744 254.86 197.972 255.083 198.126C255.308 198.278 255.593 198.354 255.938 198.354ZM260.84 195.607V199H259.973V193.36H260.811V194.241H260.884C261.016 193.954 261.217 193.724 261.486 193.55C261.756 193.374 262.103 193.286 262.529 193.286C262.911 193.286 263.245 193.364 263.532 193.521C263.818 193.675 264.041 193.91 264.2 194.226C264.359 194.54 264.439 194.936 264.439 195.416V199H263.572V195.475C263.572 195.032 263.457 194.686 263.227 194.439C262.997 194.189 262.681 194.065 262.279 194.065C262.003 194.065 261.756 194.125 261.538 194.245C261.322 194.364 261.152 194.54 261.027 194.77C260.902 195 260.84 195.279 260.84 195.607ZM268.916 199V198.339L271.398 195.622C271.69 195.303 271.93 195.027 272.118 194.792C272.307 194.554 272.446 194.331 272.537 194.123C272.63 193.913 272.676 193.692 272.676 193.462C272.676 193.198 272.613 192.969 272.485 192.776C272.361 192.582 272.189 192.433 271.971 192.328C271.753 192.222 271.509 192.17 271.237 192.17C270.948 192.17 270.696 192.23 270.48 192.35C270.267 192.467 270.102 192.632 269.985 192.845C269.87 193.058 269.812 193.308 269.812 193.595H268.945C268.945 193.154 269.047 192.767 269.25 192.434C269.453 192.101 269.73 191.842 270.08 191.656C270.433 191.47 270.828 191.377 271.266 191.377C271.707 191.377 272.097 191.47 272.438 191.656C272.778 191.842 273.045 192.093 273.238 192.408C273.432 192.724 273.528 193.076 273.528 193.462C273.528 193.739 273.478 194.009 273.378 194.274C273.28 194.536 273.108 194.828 272.864 195.152C272.621 195.472 272.285 195.864 271.854 196.327L270.165 198.133V198.192H273.661V199H268.916ZM277.527 199.103C277.096 199.103 276.708 199.017 276.363 198.846C276.018 198.674 275.741 198.439 275.533 198.141C275.325 197.842 275.211 197.502 275.192 197.12H276.073C276.107 197.46 276.262 197.742 276.536 197.964C276.812 198.185 277.143 198.295 277.527 198.295C277.836 198.295 278.11 198.223 278.35 198.078C278.592 197.934 278.782 197.736 278.919 197.483C279.059 197.229 279.128 196.941 279.128 196.62C279.128 196.292 279.056 196 278.912 195.743C278.77 195.483 278.574 195.279 278.324 195.13C278.074 194.98 277.789 194.904 277.469 194.902C277.238 194.899 277.002 194.935 276.76 195.008C276.517 195.079 276.318 195.171 276.161 195.284L275.309 195.181L275.765 191.479H279.672V192.287H276.528L276.264 194.505H276.308C276.462 194.383 276.656 194.281 276.888 194.2C277.121 194.12 277.363 194.079 277.615 194.079C278.076 194.079 278.486 194.189 278.846 194.41C279.208 194.628 279.492 194.926 279.698 195.306C279.906 195.685 280.01 196.119 280.01 196.606C280.01 197.086 279.902 197.514 279.687 197.891C279.474 198.266 279.18 198.562 278.805 198.78C278.431 198.995 278.005 199.103 277.527 199.103Z" fill="#A6ABB5"/>
<path d="M312.519 191.479H313.429V196.855C313.429 197.335 313.341 197.743 313.165 198.078C312.989 198.414 312.74 198.668 312.42 198.842C312.099 199.016 311.721 199.103 311.285 199.103C310.874 199.103 310.508 199.028 310.187 198.879C309.866 198.727 309.614 198.512 309.43 198.233C309.247 197.953 309.155 197.622 309.155 197.237H310.051C310.051 197.45 310.104 197.636 310.209 197.796C310.317 197.952 310.464 198.075 310.65 198.163C310.836 198.251 311.047 198.295 311.285 198.295C311.547 198.295 311.77 198.24 311.953 198.13C312.137 198.02 312.276 197.858 312.372 197.645C312.47 197.43 312.519 197.166 312.519 196.855V191.479ZM316.797 199.132C316.439 199.132 316.115 199.065 315.824 198.93C315.532 198.793 315.301 198.596 315.13 198.339C314.958 198.08 314.873 197.766 314.873 197.399C314.873 197.076 314.936 196.814 315.064 196.613C315.191 196.41 315.361 196.251 315.574 196.136C315.787 196.021 316.022 195.935 316.279 195.879C316.539 195.82 316.799 195.773 317.061 195.739C317.404 195.695 317.682 195.662 317.895 195.64C318.11 195.615 318.267 195.575 318.365 195.519C318.465 195.462 318.515 195.365 318.515 195.225V195.196C318.515 194.833 318.416 194.552 318.218 194.351C318.022 194.15 317.725 194.05 317.326 194.05C316.912 194.05 316.588 194.14 316.353 194.322C316.118 194.503 315.952 194.696 315.857 194.902L315.034 194.608C315.181 194.265 315.377 193.998 315.622 193.808C315.869 193.614 316.138 193.479 316.43 193.404C316.723 193.325 317.012 193.286 317.296 193.286C317.477 193.286 317.686 193.308 317.921 193.352C318.158 193.394 318.387 193.481 318.607 193.613C318.83 193.745 319.015 193.945 319.162 194.211C319.309 194.478 319.382 194.836 319.382 195.284V199H318.515V198.236H318.471C318.413 198.359 318.315 198.49 318.178 198.629C318.041 198.769 317.858 198.887 317.63 198.985C317.403 199.083 317.125 199.132 316.797 199.132ZM316.929 198.354C317.272 198.354 317.561 198.286 317.796 198.152C318.033 198.017 318.212 197.843 318.332 197.63C318.454 197.417 318.515 197.193 318.515 196.958V196.165C318.479 196.209 318.398 196.25 318.273 196.286C318.151 196.321 318.009 196.351 317.847 196.378C317.688 196.403 317.533 196.425 317.381 196.444C317.231 196.461 317.11 196.476 317.017 196.488C316.792 196.518 316.581 196.565 316.386 196.631C316.192 196.695 316.036 196.792 315.916 196.922C315.798 197.049 315.739 197.223 315.739 197.443C315.739 197.744 315.851 197.972 316.073 198.126C316.299 198.278 316.584 198.354 316.929 198.354ZM321.831 195.607V199H320.964V193.36H321.801V194.241H321.875C322.007 193.954 322.208 193.724 322.477 193.55C322.746 193.374 323.094 193.286 323.52 193.286C323.902 193.286 324.236 193.364 324.522 193.521C324.809 193.675 325.031 193.91 325.191 194.226C325.35 194.54 325.429 194.936 325.429 195.416V199H324.563V195.475C324.563 195.032 324.448 194.686 324.217 194.439C323.987 194.189 323.672 194.065 323.27 194.065C322.993 194.065 322.746 194.125 322.528 194.245C322.313 194.364 322.143 194.54 322.018 194.77C321.893 195 321.831 195.279 321.831 195.607ZM329.907 199V198.339L332.389 195.622C332.68 195.303 332.92 195.027 333.109 194.792C333.297 194.554 333.437 194.331 333.527 194.123C333.62 193.913 333.667 193.692 333.667 193.462C333.667 193.198 333.603 192.969 333.476 192.776C333.351 192.582 333.18 192.433 332.962 192.328C332.744 192.222 332.499 192.17 332.227 192.17C331.939 192.17 331.686 192.23 331.471 192.35C331.258 192.467 331.093 192.632 330.975 192.845C330.86 193.058 330.803 193.308 330.803 193.595H329.936C329.936 193.154 330.038 192.767 330.241 192.434C330.444 192.101 330.721 191.842 331.071 191.656C331.423 191.47 331.819 191.377 332.257 191.377C332.698 191.377 333.088 191.47 333.428 191.656C333.769 191.842 334.035 192.093 334.229 192.408C334.422 192.724 334.519 193.076 334.519 193.462C334.519 193.739 334.469 194.009 334.368 194.274C334.27 194.536 334.099 194.828 333.854 195.152C333.612 195.472 333.275 195.864 332.844 196.327L331.155 198.133V198.192H334.651V199H329.907ZM338.665 199.103C338.356 199.098 338.048 199.039 337.739 198.927C337.431 198.814 337.149 198.624 336.895 198.357C336.64 198.088 336.436 197.725 336.282 197.267C336.127 196.806 336.05 196.229 336.05 195.533C336.05 194.868 336.113 194.278 336.238 193.763C336.362 193.247 336.544 192.812 336.781 192.46C337.018 192.105 337.305 191.836 337.64 191.652C337.978 191.468 338.359 191.377 338.782 191.377C339.203 191.377 339.578 191.461 339.906 191.63C340.237 191.796 340.506 192.029 340.714 192.328C340.922 192.626 341.057 192.97 341.118 193.36H340.222C340.139 193.022 339.977 192.741 339.737 192.519C339.497 192.296 339.179 192.184 338.782 192.184C338.2 192.184 337.741 192.438 337.405 192.945C337.072 193.451 336.905 194.162 336.902 195.078H336.961C337.098 194.87 337.261 194.693 337.449 194.546C337.64 194.396 337.851 194.281 338.081 194.2C338.311 194.12 338.555 194.079 338.812 194.079C339.243 194.079 339.637 194.187 339.994 194.402C340.352 194.615 340.638 194.91 340.853 195.287C341.069 195.662 341.177 196.092 341.177 196.576C341.177 197.041 341.073 197.467 340.864 197.854C340.656 198.239 340.364 198.545 339.987 198.772C339.612 198.998 339.172 199.108 338.665 199.103ZM338.665 198.295C338.973 198.295 339.25 198.218 339.495 198.064C339.742 197.909 339.937 197.702 340.079 197.443C340.223 197.183 340.295 196.895 340.295 196.576C340.295 196.265 340.226 195.983 340.086 195.728C339.949 195.471 339.759 195.267 339.517 195.115C339.277 194.963 339.003 194.887 338.694 194.887C338.462 194.887 338.245 194.934 338.044 195.027C337.843 195.117 337.667 195.242 337.515 195.401C337.366 195.56 337.249 195.743 337.163 195.948C337.077 196.152 337.034 196.366 337.034 196.591C337.034 196.89 337.104 197.169 337.244 197.428C337.386 197.688 337.579 197.897 337.824 198.056C338.071 198.215 338.351 198.295 338.665 198.295Z" fill="#A6ABB5"/>
<path d="M373.863 191.479H374.774V196.855C374.774 197.335 374.686 197.743 374.509 198.078C374.333 198.414 374.085 198.668 373.764 198.842C373.443 199.016 373.065 199.103 372.629 199.103C372.218 199.103 371.852 199.028 371.531 198.879C371.21 198.727 370.958 198.512 370.775 198.233C370.591 197.953 370.499 197.622 370.499 197.237H371.395C371.395 197.45 371.448 197.636 371.553 197.796C371.661 197.952 371.808 198.075 371.994 198.163C372.18 198.251 372.392 198.295 372.629 198.295C372.891 198.295 373.114 198.24 373.297 198.13C373.481 198.02 373.621 197.858 373.716 197.645C373.814 197.43 373.863 197.166 373.863 196.855V191.479ZM378.141 199.132C377.784 199.132 377.459 199.065 377.168 198.93C376.877 198.793 376.645 198.596 376.474 198.339C376.303 198.08 376.217 197.766 376.217 197.399C376.217 197.076 376.281 196.814 376.408 196.613C376.535 196.41 376.705 196.251 376.918 196.136C377.131 196.021 377.366 195.935 377.623 195.879C377.883 195.82 378.144 195.773 378.405 195.739C378.748 195.695 379.026 195.662 379.239 195.64C379.455 195.615 379.611 195.575 379.709 195.519C379.809 195.462 379.86 195.365 379.86 195.225V195.196C379.86 194.833 379.761 194.552 379.562 194.351C379.366 194.15 379.069 194.05 378.67 194.05C378.256 194.05 377.932 194.14 377.697 194.322C377.462 194.503 377.296 194.696 377.201 194.902L376.378 194.608C376.525 194.265 376.721 193.998 376.966 193.808C377.213 193.614 377.483 193.479 377.774 193.404C378.068 193.325 378.357 193.286 378.641 193.286C378.822 193.286 379.03 193.308 379.265 193.352C379.502 193.394 379.731 193.481 379.951 193.613C380.174 193.745 380.359 193.945 380.506 194.211C380.653 194.478 380.726 194.836 380.726 195.284V199H379.86V198.236H379.816C379.757 198.359 379.659 198.49 379.522 198.629C379.385 198.769 379.202 198.887 378.975 198.985C378.747 199.083 378.469 199.132 378.141 199.132ZM378.273 198.354C378.616 198.354 378.905 198.286 379.14 198.152C379.377 198.017 379.556 197.843 379.676 197.63C379.798 197.417 379.86 197.193 379.86 196.958V196.165C379.823 196.209 379.742 196.25 379.617 196.286C379.495 196.321 379.353 196.351 379.191 196.378C379.032 196.403 378.877 196.425 378.725 196.444C378.576 196.461 378.454 196.476 378.361 196.488C378.136 196.518 377.926 196.565 377.73 196.631C377.536 196.695 377.38 196.792 377.26 196.922C377.142 197.049 377.084 197.223 377.084 197.443C377.084 197.744 377.195 197.972 377.418 198.126C377.643 198.278 377.928 198.354 378.273 198.354ZM383.175 195.607V199H382.308V193.36H383.145V194.241H383.219C383.351 193.954 383.552 193.724 383.821 193.55C384.09 193.374 384.438 193.286 384.864 193.286C385.246 193.286 385.58 193.364 385.866 193.521C386.153 193.675 386.376 193.91 386.535 194.226C386.694 194.54 386.774 194.936 386.774 195.416V199H385.907V195.475C385.907 195.032 385.792 194.686 385.562 194.439C385.332 194.189 385.016 194.065 384.614 194.065C384.338 194.065 384.09 194.125 383.872 194.245C383.657 194.364 383.487 194.54 383.362 194.77C383.237 195 383.175 195.279 383.175 195.607ZM391.251 199V198.339L393.733 195.622C394.025 195.303 394.264 195.027 394.453 194.792C394.642 194.554 394.781 194.331 394.872 194.123C394.965 193.913 395.011 193.692 395.011 193.462C395.011 193.198 394.948 192.969 394.82 192.776C394.695 192.582 394.524 192.433 394.306 192.328C394.088 192.222 393.843 192.17 393.572 192.17C393.283 192.17 393.031 192.23 392.815 192.35C392.602 192.467 392.437 192.632 392.319 192.845C392.204 193.058 392.147 193.308 392.147 193.595H391.28C391.28 193.154 391.382 192.767 391.585 192.434C391.788 192.101 392.065 191.842 392.415 191.656C392.767 191.47 393.163 191.377 393.601 191.377C394.042 191.377 394.432 191.47 394.772 191.656C395.113 191.842 395.38 192.093 395.573 192.408C395.766 192.724 395.863 193.076 395.863 193.462C395.863 193.739 395.813 194.009 395.713 194.274C395.615 194.536 395.443 194.828 395.198 195.152C394.956 195.472 394.619 195.864 394.189 196.327L392.499 198.133V198.192H395.995V199H391.251ZM397.747 199L401.111 192.346V192.287H397.233V191.479H402.051V192.331L398.702 199H397.747Z" fill="#A6ABB5"/>
<path d="M434.702 191.479H435.613V196.855C435.613 197.335 435.525 197.743 435.348 198.078C435.172 198.414 434.924 198.668 434.603 198.842C434.282 199.016 433.904 199.103 433.468 199.103C433.057 199.103 432.691 199.028 432.37 198.879C432.05 198.727 431.797 198.512 431.614 198.233C431.43 197.953 431.338 197.622 431.338 197.237H432.234C432.234 197.45 432.287 197.636 432.392 197.796C432.5 197.952 432.647 198.075 432.833 198.163C433.019 198.251 433.231 198.295 433.468 198.295C433.73 198.295 433.953 198.24 434.137 198.13C434.32 198.02 434.46 197.858 434.555 197.645C434.653 197.43 434.702 197.166 434.702 196.855V191.479ZM438.98 199.132C438.623 199.132 438.298 199.065 438.007 198.93C437.716 198.793 437.484 198.596 437.313 198.339C437.142 198.08 437.056 197.766 437.056 197.399C437.056 197.076 437.12 196.814 437.247 196.613C437.374 196.41 437.544 196.251 437.757 196.136C437.97 196.021 438.205 195.935 438.462 195.879C438.722 195.82 438.983 195.773 439.245 195.739C439.587 195.695 439.865 195.662 440.078 195.64C440.294 195.615 440.45 195.575 440.548 195.519C440.649 195.462 440.699 195.365 440.699 195.225V195.196C440.699 194.833 440.6 194.552 440.401 194.351C440.206 194.15 439.908 194.05 439.509 194.05C439.095 194.05 438.771 194.14 438.536 194.322C438.301 194.503 438.136 194.696 438.04 194.902L437.218 194.608C437.364 194.265 437.56 193.998 437.805 193.808C438.052 193.614 438.322 193.479 438.613 193.404C438.907 193.325 439.196 193.286 439.48 193.286C439.661 193.286 439.869 193.308 440.104 193.352C440.341 193.394 440.57 193.481 440.791 193.613C441.013 193.745 441.198 193.945 441.345 194.211C441.492 194.478 441.565 194.836 441.565 195.284V199H440.699V198.236H440.655C440.596 198.359 440.498 198.49 440.361 198.629C440.224 198.769 440.042 198.887 439.814 198.985C439.586 199.083 439.308 199.132 438.98 199.132ZM439.112 198.354C439.455 198.354 439.744 198.286 439.979 198.152C440.217 198.017 440.395 197.843 440.515 197.63C440.638 197.417 440.699 197.193 440.699 196.958V196.165C440.662 196.209 440.581 196.25 440.456 196.286C440.334 196.321 440.192 196.351 440.03 196.378C439.871 196.403 439.716 196.425 439.564 196.444C439.415 196.461 439.294 196.476 439.201 196.488C438.975 196.518 438.765 196.565 438.569 196.631C438.376 196.695 438.219 196.792 438.099 196.922C437.981 197.049 437.923 197.223 437.923 197.443C437.923 197.744 438.034 197.972 438.257 198.126C438.482 198.278 438.767 198.354 439.112 198.354ZM444.014 195.607V199H443.147V193.36H443.985V194.241H444.058C444.19 193.954 444.391 193.724 444.66 193.55C444.93 193.374 445.277 193.286 445.703 193.286C446.085 193.286 446.419 193.364 446.706 193.521C446.992 193.675 447.215 193.91 447.374 194.226C447.533 194.54 447.613 194.936 447.613 195.416V199H446.746V195.475C446.746 195.032 446.631 194.686 446.401 194.439C446.171 194.189 445.855 194.065 445.453 194.065C445.177 194.065 444.93 194.125 444.712 194.245C444.496 194.364 444.326 194.54 444.201 194.77C444.076 195 444.014 195.279 444.014 195.607ZM452.09 199V198.339L454.572 195.622C454.864 195.303 455.104 195.027 455.292 194.792C455.481 194.554 455.62 194.331 455.711 194.123C455.804 193.913 455.85 193.692 455.85 193.462C455.85 193.198 455.787 192.969 455.659 192.776C455.535 192.582 455.363 192.433 455.145 192.328C454.927 192.222 454.683 192.17 454.411 192.17C454.122 192.17 453.87 192.23 453.654 192.35C453.441 192.467 453.276 192.632 453.159 192.845C453.044 193.058 452.986 193.308 452.986 193.595H452.119C452.119 193.154 452.221 192.767 452.424 192.434C452.627 192.101 452.904 191.842 453.254 191.656C453.607 191.47 454.002 191.377 454.44 191.377C454.881 191.377 455.271 191.47 455.612 191.656C455.952 191.842 456.219 192.093 456.412 192.408C456.606 192.724 456.702 193.076 456.702 193.462C456.702 193.739 456.652 194.009 456.552 194.274C456.454 194.536 456.282 194.828 456.038 195.152C455.795 195.472 455.459 195.864 455.028 196.327L453.339 198.133V198.192H456.834V199H452.09ZM460.76 199.103C460.256 199.103 459.81 199.013 459.423 198.835C459.039 198.654 458.739 198.405 458.524 198.089C458.308 197.771 458.202 197.409 458.204 197.002C458.202 196.684 458.264 196.39 458.391 196.121C458.519 195.849 458.693 195.623 458.913 195.442C459.136 195.258 459.384 195.142 459.658 195.093V195.049C459.299 194.956 459.012 194.754 458.799 194.443C458.586 194.129 458.481 193.773 458.483 193.374C458.481 192.992 458.578 192.651 458.773 192.35C458.969 192.049 459.239 191.811 459.581 191.637C459.926 191.463 460.319 191.377 460.76 191.377C461.196 191.377 461.585 191.463 461.928 191.637C462.271 191.811 462.54 192.049 462.736 192.35C462.934 192.651 463.034 192.992 463.037 193.374C463.034 193.773 462.925 194.129 462.71 194.443C462.497 194.754 462.214 194.956 461.862 195.049V195.093C462.133 195.142 462.378 195.258 462.596 195.442C462.814 195.623 462.988 195.849 463.118 196.121C463.247 196.39 463.313 196.684 463.316 197.002C463.313 197.409 463.203 197.771 462.985 198.089C462.77 198.405 462.47 198.654 462.086 198.835C461.704 199.013 461.262 199.103 460.76 199.103ZM460.76 198.295C461.1 198.295 461.394 198.24 461.641 198.13C461.889 198.02 462.08 197.864 462.214 197.663C462.349 197.463 462.417 197.228 462.42 196.958C462.417 196.674 462.344 196.423 462.2 196.205C462.055 195.988 461.858 195.816 461.608 195.691C461.361 195.566 461.078 195.504 460.76 195.504C460.439 195.504 460.153 195.566 459.901 195.691C459.651 195.816 459.454 195.988 459.31 196.205C459.168 196.423 459.098 196.674 459.1 196.958C459.098 197.228 459.163 197.463 459.295 197.663C459.429 197.864 459.622 198.02 459.871 198.13C460.121 198.24 460.417 198.295 460.76 198.295ZM460.76 194.726C461.029 194.726 461.268 194.672 461.476 194.564C461.687 194.456 461.852 194.306 461.972 194.112C462.092 193.919 462.153 193.692 462.155 193.433C462.153 193.178 462.093 192.957 461.976 192.768C461.858 192.577 461.695 192.43 461.487 192.328C461.279 192.222 461.037 192.17 460.76 192.17C460.479 192.17 460.232 192.222 460.022 192.328C459.811 192.43 459.649 192.577 459.534 192.768C459.418 192.957 459.362 193.178 459.365 193.433C459.362 193.692 459.42 193.919 459.537 194.112C459.657 194.306 459.822 194.456 460.033 194.564C460.243 194.672 460.486 194.726 460.76 194.726Z" fill="#A6ABB5"/>
<path d="M496.233 191.479H497.144V196.855C497.144 197.335 497.056 197.743 496.879 198.078C496.703 198.414 496.455 198.668 496.134 198.842C495.813 199.016 495.435 199.103 494.999 199.103C494.588 199.103 494.222 199.028 493.901 198.879C493.581 198.727 493.328 198.512 493.145 198.233C492.961 197.953 492.869 197.622 492.869 197.237H493.765C493.765 197.45 493.818 197.636 493.923 197.796C494.031 197.952 494.178 198.075 494.364 198.163C494.55 198.251 494.762 198.295 494.999 198.295C495.261 198.295 495.484 198.24 495.668 198.13C495.851 198.02 495.991 197.858 496.086 197.645C496.184 197.43 496.233 197.166 496.233 196.855V191.479ZM500.511 199.132C500.154 199.132 499.829 199.065 499.538 198.93C499.247 198.793 499.015 198.596 498.844 198.339C498.673 198.08 498.587 197.766 498.587 197.399C498.587 197.076 498.651 196.814 498.778 196.613C498.905 196.41 499.075 196.251 499.288 196.136C499.501 196.021 499.736 195.935 499.993 195.879C500.253 195.82 500.514 195.773 500.776 195.739C501.118 195.695 501.396 195.662 501.609 195.64C501.825 195.615 501.981 195.575 502.079 195.519C502.18 195.462 502.23 195.365 502.23 195.225V195.196C502.23 194.833 502.131 194.552 501.932 194.351C501.737 194.15 501.439 194.05 501.04 194.05C500.626 194.05 500.302 194.14 500.067 194.322C499.832 194.503 499.667 194.696 499.571 194.902L498.749 194.608C498.895 194.265 499.091 193.998 499.336 193.808C499.583 193.614 499.853 193.479 500.144 193.404C500.438 193.325 500.727 193.286 501.011 193.286C501.192 193.286 501.4 193.308 501.635 193.352C501.872 193.394 502.101 193.481 502.322 193.613C502.544 193.745 502.729 193.945 502.876 194.211C503.023 194.478 503.096 194.836 503.096 195.284V199H502.23V198.236H502.186C502.127 198.359 502.029 198.49 501.892 198.629C501.755 198.769 501.573 198.887 501.345 198.985C501.117 199.083 500.839 199.132 500.511 199.132ZM500.643 198.354C500.986 198.354 501.275 198.286 501.51 198.152C501.748 198.017 501.926 197.843 502.046 197.63C502.169 197.417 502.23 197.193 502.23 196.958V196.165C502.193 196.209 502.112 196.25 501.987 196.286C501.865 196.321 501.723 196.351 501.562 196.378C501.402 196.403 501.247 196.425 501.095 196.444C500.946 196.461 500.825 196.476 500.732 196.488C500.506 196.518 500.296 196.565 500.1 196.631C499.907 196.695 499.75 196.792 499.63 196.922C499.512 197.049 499.454 197.223 499.454 197.443C499.454 197.744 499.565 197.972 499.788 198.126C500.013 198.278 500.298 198.354 500.643 198.354ZM505.545 195.607V199H504.678V193.36H505.516V194.241H505.589C505.721 193.954 505.922 193.724 506.191 193.55C506.461 193.374 506.808 193.286 507.234 193.286C507.616 193.286 507.95 193.364 508.237 193.521C508.523 193.675 508.746 193.91 508.905 194.226C509.064 194.54 509.144 194.936 509.144 195.416V199H508.277V195.475C508.277 195.032 508.162 194.686 507.932 194.439C507.702 194.189 507.386 194.065 506.984 194.065C506.708 194.065 506.461 194.125 506.243 194.245C506.027 194.364 505.857 194.54 505.732 194.77C505.607 195 505.545 195.279 505.545 195.607ZM513.621 199V198.339L516.103 195.622C516.395 195.303 516.635 195.027 516.823 194.792C517.012 194.554 517.151 194.331 517.242 194.123C517.335 193.913 517.381 193.692 517.381 193.462C517.381 193.198 517.318 192.969 517.19 192.776C517.066 192.582 516.894 192.433 516.676 192.328C516.458 192.222 516.214 192.17 515.942 192.17C515.653 192.17 515.401 192.23 515.185 192.35C514.972 192.467 514.807 192.632 514.69 192.845C514.575 193.058 514.517 193.308 514.517 193.595H513.65C513.65 193.154 513.752 192.767 513.955 192.434C514.158 192.101 514.435 191.842 514.785 191.656C515.138 191.47 515.533 191.377 515.971 191.377C516.412 191.377 516.802 191.47 517.143 191.656C517.483 191.842 517.75 192.093 517.943 192.408C518.137 192.724 518.233 193.076 518.233 193.462C518.233 193.739 518.183 194.009 518.083 194.274C517.985 194.536 517.813 194.828 517.569 195.152C517.326 195.472 516.99 195.864 516.559 196.327L514.87 198.133V198.192H518.365V199H513.621ZM522.276 191.377C522.585 191.379 522.893 191.438 523.202 191.553C523.51 191.668 523.792 191.859 524.046 192.126C524.301 192.39 524.505 192.751 524.66 193.209C524.814 193.667 524.891 194.241 524.891 194.931C524.891 195.6 524.827 196.193 524.7 196.712C524.575 197.229 524.394 197.665 524.157 198.02C523.922 198.375 523.635 198.644 523.297 198.827C522.962 199.011 522.582 199.103 522.159 199.103C521.738 199.103 521.362 199.02 521.031 198.853C520.703 198.684 520.434 198.45 520.224 198.152C520.016 197.851 519.882 197.502 519.823 197.105H520.719C520.8 197.45 520.961 197.736 521.2 197.961C521.443 198.184 521.762 198.295 522.159 198.295C522.739 198.295 523.197 198.042 523.532 197.535C523.87 197.028 524.039 196.312 524.039 195.387H523.98C523.843 195.592 523.68 195.77 523.492 195.919C523.303 196.068 523.094 196.183 522.864 196.264C522.634 196.345 522.389 196.385 522.129 196.385C521.699 196.385 521.303 196.279 520.943 196.066C520.586 195.85 520.3 195.555 520.084 195.181C519.871 194.804 519.765 194.373 519.765 193.888C519.765 193.428 519.867 193.007 520.073 192.625C520.281 192.241 520.572 191.935 520.947 191.707C521.324 191.479 521.767 191.369 522.276 191.377ZM522.276 192.184C521.968 192.184 521.69 192.262 521.443 192.416C521.198 192.568 521.003 192.773 520.859 193.033C520.717 193.29 520.646 193.575 520.646 193.888C520.646 194.202 520.714 194.487 520.852 194.744C520.991 194.999 521.181 195.202 521.421 195.354C521.663 195.503 521.939 195.578 522.247 195.578C522.48 195.578 522.696 195.532 522.897 195.442C523.098 195.349 523.273 195.223 523.422 195.063C523.574 194.902 523.693 194.719 523.778 194.516C523.864 194.311 523.907 194.096 523.907 193.874C523.907 193.58 523.836 193.304 523.694 193.047C523.554 192.79 523.361 192.582 523.114 192.423C522.869 192.264 522.59 192.184 522.276 192.184Z" fill="#A6ABB5"/>
<path fill-rule="evenodd" clip-rule="evenodd" d="M476.615 124.202L491.72 119.909L506.652 124.153H521.929C522.612 124.153 523.165 123.599 523.165 122.917C523.165 122.234 522.612 121.681 521.929 121.681H506.997L491.72 117.34L476.615 121.632L461.789 117.419L446.612 114.711L431.399 112.298H416.386L401.669 107.727L385.989 95.7531L370.308 107.727L355.592 112.298H340.421L325.571 118.703L310.875 112.365L295.527 108.179H280.002L265.099 114.608L250.242 109.6L234.944 109.827H219.739L204.924 112.25L190.048 104.976L174.851 101.407L159.421 96.6149L143.834 101.457L129.079 109.504L114.798 105.068L99.5178 88.1981L83.9663 89.251L69.0095 86.6072C68.3381 86.4885 67.6963 86.9367 67.5776 87.609C67.459 88.2813 67.9072 88.9223 68.5795 89.0409L83.832 91.7366L98.4896 90.7455L113.419 107.227L129.346 112.175L144.801 103.744L159.421 99.2027L174.201 103.793L189.213 107.319L204.546 114.817L219.94 112.298H234.953L249.855 112.077L265.208 117.252L280.513 110.65H295.196L310.057 114.703L325.571 121.395L340.931 114.77H355.967L371.46 109.958L385.989 98.8632L400.518 109.958L416.01 114.77H431.205L446.19 117.146L446.213 117.15L461.233 119.83L476.615 124.202Z" fill="#FF622D"/>
<path fill-rule="evenodd" clip-rule="evenodd" d="M506.225 78.8091H521.928C522.611 78.8091 523.164 79.3627 523.164 80.0449C523.164 80.7279 522.611 81.2807 521.928 81.2807H507.422L491.88 100.949L476.423 87.2917L461.901 94.5781L446.959 97.1635L431.766 110.457H416.697L401.592 125.045H370.385L355.28 110.457H340.387L325.57 103.15L310.498 110.584L295.103 103.866H279.969L265.42 96.6906L250.283 112.554L234.624 103.866H220.097L204.673 110.597L187.405 101.144L175.483 118.392L159.421 134.779L143.798 118.837H115.98L99.3477 125.104L83.1362 120.911L67.77 98.1579C67.3886 97.5919 67.5369 96.824 68.1029 96.4418C68.6681 96.0595 69.4367 96.2086 69.8182 96.7738L84.6612 118.752L99.2085 122.515L115.53 116.366H144.836L159.421 131.248L173.569 116.812L186.638 97.9066L204.796 107.846L219.582 101.394H235.263L249.813 109.467L264.885 93.6711L280.545 101.394H295.619L310.434 107.859L325.57 100.394L340.963 107.985H356.279L371.383 122.574H400.594L415.698 107.985H430.838L445.854 94.8467L461.12 92.2054L476.808 84.3332L491.559 97.3686L506.225 78.8091Z" fill="#2BB3FF"/>
<path fill-rule="evenodd" clip-rule="evenodd" d="M114.108 169.59L99.0037 156.243L84.3666 169.176H68.7944C68.1122 169.176 67.5586 168.623 67.5586 167.94C67.5586 167.258 68.1122 166.705 68.7944 166.705H83.4315L99.0037 152.945L114.108 166.291L129.149 153.001L144.451 164.484L159.134 157.243H174.027L189.131 142.656H220.339L235.443 157.243H250.337L265.153 164.551L279.969 157.243H310.754L325.303 164.418L340.44 148.555L356.1 157.243H385.322L400.879 133.586L416.198 148.381L431.302 133.793L446.906 148.863H461.012L475.913 134.471L491.72 127.401L507.081 134.272L521.914 134.09C522.596 134.082 523.156 134.629 523.165 135.311C523.173 135.994 522.627 136.554 521.944 136.562L506.567 136.75L491.72 130.109L477.318 136.551L462.01 151.335H445.907L431.302 137.229L416.198 151.817L401.307 137.435L386.655 159.715H355.46L340.911 151.642L325.839 167.439L310.178 159.715H280.546L265.153 167.307L249.76 159.715H234.445L219.34 145.127H190.13L175.026 159.715H159.71L144.183 167.373L129.276 156.187L114.108 169.59Z" fill="#59DDAA"/>
<path d="M526.872 134.54C526.872 137.271 524.659 139.483 521.929 139.483C519.199 139.483 516.986 137.271 516.986 134.54C516.986 131.81 519.199 129.597 521.929 129.597C524.659 129.597 526.872 131.81 526.872 134.54Z" fill="#59DDAA"/>
<path fill-rule="evenodd" clip-rule="evenodd" d="M528.519 134.54C528.519 138.18 525.569 141.131 521.928 141.131C518.288 141.131 515.337 138.18 515.337 134.54C515.337 130.9 518.288 127.949 521.928 127.949C525.569 127.949 528.519 130.9 528.519 134.54ZM521.928 139.484C524.658 139.484 526.871 137.271 526.871 134.54C526.871 131.81 524.658 129.597 521.928 129.597C519.198 129.597 516.985 131.81 516.985 134.54C516.985 137.271 519.198 139.484 521.928 139.484Z" fill="white"/>
<path d="M526.872 123.006C526.872 125.736 524.659 127.949 521.929 127.949C519.199 127.949 516.986 125.736 516.986 123.006C516.986 120.276 519.199 118.063 521.929 118.063C524.659 118.063 526.872 120.276 526.872 123.006Z" fill="#FF622D"/>
<path fill-rule="evenodd" clip-rule="evenodd" d="M528.519 123.006C528.519 126.646 525.569 129.597 521.928 129.597C518.288 129.597 515.337 126.646 515.337 123.006C515.337 119.366 518.288 116.415 521.928 116.415C525.569 116.415 528.519 119.366 528.519 123.006ZM521.928 127.949C524.658 127.949 526.871 125.736 526.871 123.006C526.871 120.276 524.658 118.063 521.928 118.063C519.198 118.063 516.985 120.276 516.985 123.006C516.985 125.736 519.198 127.949 521.928 127.949Z" fill="white"/>
<path d="M526.872 79.3405C526.872 82.0708 524.659 84.2838 521.929 84.2838C519.199 84.2838 516.986 82.0708 516.986 79.3405C516.986 76.6102 519.199 74.3972 521.929 74.3972C524.659 74.3972 526.872 76.6102 526.872 79.3405Z" fill="#2BB3FF"/>
<path fill-rule="evenodd" clip-rule="evenodd" d="M528.519 79.3403C528.519 82.9802 525.569 85.9314 521.928 85.9314C518.288 85.9314 515.337 82.9802 515.337 79.3403C515.337 75.7004 518.288 72.7493 521.928 72.7493C525.569 72.7493 528.519 75.7004 528.519 79.3403ZM521.928 84.2836C524.658 84.2836 526.871 82.0707 526.871 79.3403C526.871 76.61 524.658 74.397 521.928 74.397C519.198 74.397 516.985 76.61 516.985 79.3403C516.985 82.0707 519.198 84.2836 521.928 84.2836Z" fill="white"/>
<path d="M33.2086 47.4338L35.8063 51.6603V54.6238H36.6771V51.6603L39.2757 47.4338H38.278L36.2842 50.7903H36.2001L34.2055 47.4338H33.2086ZM41.7168 54.7359C43.1776 54.7359 44.1605 53.6269 44.1605 51.9553C44.1605 50.2704 43.1776 49.1607 41.7168 49.1607C40.2569 49.1607 39.2732 50.2704 39.2732 51.9553C39.2732 53.6269 40.2569 54.7359 41.7168 54.7359ZM41.7168 53.9919C40.6079 53.9919 40.102 53.037 40.102 51.9553C40.102 50.8743 40.6079 49.9055 41.7168 49.9055C42.8266 49.9055 43.3325 50.8743 43.3325 51.9553C43.3325 53.037 42.8266 53.9919 41.7168 53.9919ZM48.8236 52.4191C48.8236 53.43 48.0516 53.8939 47.4337 53.8939C46.7458 53.8939 46.2539 53.388 46.2539 52.6012V49.2315H45.4251V52.6581C45.4251 54.0339 46.1559 54.6939 47.1668 54.6939C47.9816 54.6939 48.5147 54.2589 48.7676 53.711H48.8236V54.6238H49.6525V49.2315H48.8236V52.4191ZM81.6116 54.6238H82.4116V53.795H82.5104C82.6925 54.09 83.0443 54.7359 84.0832 54.7359C85.4311 54.7359 86.372 53.6549 86.372 51.9413C86.372 50.2424 85.4311 49.1607 84.0692 49.1607C83.0155 49.1607 82.6925 49.8066 82.5104 50.0875H82.4404V47.4338H81.6116V54.6238ZM82.4264 51.9273C82.4264 50.7195 82.9595 49.9055 83.9712 49.9055C85.0241 49.9055 85.544 50.7903 85.544 51.9273C85.544 53.0791 85.0101 53.9919 83.9712 53.9919C82.9735 53.9919 82.4264 53.1491 82.4264 51.9273ZM89.8306 54.7359C91.2905 54.7359 92.2743 53.6269 92.2743 51.9553C92.2743 50.2704 91.2905 49.1607 89.8306 49.1607C88.3699 49.1607 87.387 50.2704 87.387 51.9553C87.387 53.6269 88.3699 54.7359 89.8306 54.7359ZM89.8306 53.9919C88.7209 53.9919 88.2158 53.037 88.2158 51.9553C88.2158 50.8743 88.7209 49.9055 89.8306 49.9055C90.9396 49.9055 91.4454 50.8743 91.4454 51.9553C91.4454 53.037 90.9396 53.9919 89.8306 53.9919ZM95.7296 54.7359C97.1903 54.7359 98.1732 53.6269 98.1732 51.9553C98.1732 50.2704 97.1903 49.1607 95.7296 49.1607C94.2689 49.1607 93.286 50.2704 93.286 51.9553C93.286 53.6269 94.2689 54.7359 95.7296 54.7359ZM95.7296 53.9919C94.6198 53.9919 94.1148 53.037 94.1148 51.9553C94.1148 50.8743 94.6198 49.9055 95.7296 49.9055C96.8386 49.9055 97.3444 50.8743 97.3444 51.9553C97.3444 53.037 96.8386 53.9919 95.7296 53.9919ZM99.4379 54.6238H100.267V52.6053L100.846 52.0682L102.864 54.6238H103.917L101.47 51.5343L103.749 49.2315H102.724L100.365 51.6323H100.267V47.4338H99.4379V54.6238ZM108.636 50.4385C108.375 49.6731 107.793 49.1607 106.725 49.1607C105.588 49.1607 104.745 49.8066 104.745 50.7195C104.745 51.4642 105.188 51.9627 106.178 52.1942L107.077 52.4051C107.621 52.5312 107.877 52.7915 107.877 53.1631C107.877 53.6269 107.386 54.0059 106.613 54.0059C105.936 54.0059 105.511 53.7143 105.363 53.1351L104.577 53.332C104.77 54.2482 105.525 54.7359 106.627 54.7359C107.88 54.7359 108.734 54.0512 108.734 53.1211C108.734 52.3697 108.263 51.896 107.301 51.6603L106.501 51.4643C105.862 51.3061 105.574 51.0919 105.574 50.6774C105.574 50.2144 106.065 49.8775 106.725 49.8775C107.448 49.8775 107.748 50.277 107.891 50.6494L108.636 50.4385ZM110.585 54.6799C110.933 54.6799 111.217 54.3956 111.217 54.0479C111.217 53.7003 110.933 53.416 110.585 53.416C110.237 53.416 109.953 53.7003 109.953 54.0479C109.953 54.3956 110.237 54.6799 110.585 54.6799ZM114.895 54.7359C116.088 54.7359 116.875 54.0059 117.015 53.0511H116.187C116.032 53.6409 115.541 53.9919 114.895 53.9919C113.911 53.9919 113.279 53.1771 113.279 51.9273C113.279 50.7055 113.925 49.9055 114.895 49.9055C115.625 49.9055 116.06 50.3545 116.187 50.8463H117.015C116.875 49.8346 116.018 49.1607 114.881 49.1607C113.42 49.1607 112.451 50.3125 112.451 51.9553C112.451 53.5709 113.378 54.7359 114.895 54.7359ZM120.417 54.7359C121.877 54.7359 122.861 53.6269 122.861 51.9553C122.861 50.2704 121.877 49.1607 120.417 49.1607C118.956 49.1607 117.974 50.2704 117.974 51.9553C117.974 53.6269 118.956 54.7359 120.417 54.7359ZM120.417 53.9919C119.307 53.9919 118.802 53.037 118.802 51.9553C118.802 50.8743 119.307 49.9055 120.417 49.9055C121.526 49.9055 122.032 50.8743 122.032 51.9553C122.032 53.037 121.526 53.9919 120.417 53.9919ZM124.125 54.6238H124.953V51.2533C124.953 50.4632 125.529 49.9055 126.175 49.9055C126.804 49.9055 127.243 50.3158 127.243 50.9304V54.6238H128.086V51.1133C128.086 50.4179 128.521 49.9055 129.279 49.9055C129.869 49.9055 130.375 50.2177 130.375 51.0144V54.6238H131.203V51.0144C131.203 49.7473 130.522 49.1607 129.56 49.1607C128.788 49.1607 128.223 49.5158 127.945 50.0735H127.889C127.622 49.4976 127.152 49.1607 126.442 49.1607C125.74 49.1607 125.22 49.4976 124.996 50.0735H124.925V49.2315H124.125V54.6238ZM163.892 51.3794C163.892 50.4385 164.474 49.9055 165.268 49.9055C166.037 49.9055 166.504 50.4072 166.504 51.2533V54.6238H167.332V51.1973C167.332 49.8206 166.599 49.1607 165.507 49.1607C164.693 49.1607 164.187 49.5257 163.934 50.0735H163.864V49.2315H163.063V54.6238H163.892V51.3794ZM171.107 54.7359C172.203 54.7359 173.003 54.1888 173.256 53.374L172.456 53.1491C172.245 53.711 171.757 53.9919 171.107 53.9919C170.135 53.9919 169.464 53.3633 169.426 52.2082H173.34V51.8572C173.34 49.8494 172.147 49.1607 171.023 49.1607C169.562 49.1607 168.594 50.3125 168.594 51.9693C168.594 53.627 169.548 54.7359 171.107 54.7359ZM169.426 51.4923C169.482 50.6527 170.075 49.9055 171.023 49.9055C171.922 49.9055 172.498 50.5794 172.498 51.4923H169.426ZM175.822 54.6238H176.637L177.817 50.4814H177.901L179.081 54.6238H179.895L181.538 49.2315H180.668L179.502 53.346H179.446L178.308 49.2315H177.423L176.272 53.36H176.216L175.05 49.2315H174.18L175.822 54.6238ZM182.746 54.6238H183.546V53.795H183.645C183.827 54.09 184.178 54.7359 185.218 54.7359C186.566 54.7359 187.507 53.6549 187.507 51.9413C187.507 50.2424 186.566 49.1607 185.204 49.1607C184.15 49.1607 183.827 49.8066 183.645 50.0875H183.574V47.4338H182.746V54.6238ZM183.56 51.9273C183.56 50.7195 184.094 49.9055 185.105 49.9055C186.159 49.9055 186.678 50.7903 186.678 51.9273C186.678 53.0791 186.145 53.9919 185.105 53.9919C184.108 53.9919 183.56 53.1491 183.56 51.9273ZM190.965 54.7359C192.425 54.7359 193.408 53.6269 193.408 51.9553C193.408 50.2704 192.425 49.1607 190.965 49.1607C189.505 49.1607 188.522 50.2704 188.522 51.9553C188.522 53.6269 189.505 54.7359 190.965 54.7359ZM190.965 53.9919C189.855 53.9919 189.35 53.037 189.35 51.9553C189.35 50.8743 189.855 49.9055 190.965 49.9055C192.074 49.9055 192.58 50.8743 192.58 51.9553C192.58 53.037 192.074 53.9919 190.965 53.9919ZM196.864 54.7359C198.324 54.7359 199.308 53.6269 199.308 51.9553C199.308 50.2704 198.324 49.1607 196.864 49.1607C195.404 49.1607 194.421 50.2704 194.421 51.9553C194.421 53.6269 195.404 54.7359 196.864 54.7359ZM196.864 53.9919C195.754 53.9919 195.249 53.037 195.249 51.9553C195.249 50.8743 195.754 49.9055 196.864 49.9055C197.973 49.9055 198.479 50.8743 198.479 51.9553C198.479 53.037 197.973 53.9919 196.864 53.9919ZM200.573 54.6238H201.401V52.6053L201.981 52.0682L203.999 54.6238H205.052L202.605 51.5343L204.884 49.2315H203.858L201.499 51.6323H201.401V47.4338H200.573V54.6238ZM206.554 54.6799C206.902 54.6799 207.186 54.3956 207.186 54.0479C207.186 53.7003 206.902 53.416 206.554 53.416C206.206 53.416 205.922 53.7003 205.922 54.0479C205.922 54.3956 206.206 54.6799 206.554 54.6799ZM210.864 54.7359C212.057 54.7359 212.843 54.0059 212.984 53.0511H212.155C212.001 53.6409 211.51 53.9919 210.864 53.9919C209.881 53.9919 209.249 53.1771 209.249 51.9273C209.249 50.7055 209.895 49.9055 210.864 49.9055C211.594 49.9055 212.029 50.3545 212.155 50.8463H212.984C212.843 49.8346 211.987 49.1607 210.85 49.1607C209.389 49.1607 208.42 50.3125 208.42 51.9553C208.42 53.5709 209.347 54.7359 210.864 54.7359ZM216.386 54.7359C217.847 54.7359 218.83 53.6269 218.83 51.9553C218.83 50.2704 217.847 49.1607 216.386 49.1607C214.925 49.1607 213.942 50.2704 213.942 51.9553C213.942 53.6269 214.925 54.7359 216.386 54.7359ZM216.386 53.9919C215.276 53.9919 214.771 53.037 214.771 51.9553C214.771 50.8743 215.276 49.9055 216.386 49.9055C217.496 49.9055 218.001 50.8743 218.001 51.9553C218.001 53.037 217.496 53.9919 216.386 53.9919ZM220.094 54.6238H220.923V51.2533C220.923 50.4632 221.499 49.9055 222.145 49.9055C222.773 49.9055 223.212 50.3158 223.212 50.9304V54.6238H224.055V51.1133C224.055 50.4179 224.49 49.9055 225.249 49.9055C225.838 49.9055 226.344 50.2177 226.344 51.0144V54.6238H227.172V51.0144C227.172 49.7473 226.491 49.1607 225.53 49.1607C224.757 49.1607 224.192 49.5158 223.914 50.0735H223.858C223.591 49.4976 223.12 49.1607 222.412 49.1607C221.709 49.1607 221.19 49.4976 220.965 50.0735H220.895V49.2315H220.094V54.6238Z" fill="#484A54"/>
</svg>
